<?xml version="1.0" encoding="UTF-8" standalone="no"?>
<!DOCTYPE svg PUBLIC "-//W3C//DTD SVG 1.1//EN"
 "http://www.w3.org/Graphics/SVG/1.1/DTD/svg11.dtd">
<!-- Generated by graphviz version 2.40.1 (20161225.0304)
 -->
<!-- Title: init_class_range Pages: 1 -->
<svg width="531pt" height="104pt"
 viewBox="0.00 0.00 531.00 104.00" xmlns="http://www.w3.org/2000/svg" xmlns:xlink="http://www.w3.org/1999/xlink">
<g id="graph0" class="graph" transform="scale(1 1) rotate(0) translate(4 100)">
<title>init_class_range</title>
<!-- Node60525 -->
<g id="node1" class="node">
<title>Node60525</title>
<polygon fill="#bfbfbf" stroke="#000000" points="0,-38.5 0,-57.5 87,-57.5 87,-38.5 0,-38.5"/>
<text text-anchor="middle" x="43.5" y="-45.5" font-family="Helvetica,sans-Serif" font-size="10.00" fill="#000000">init_class_range</text>
</g>
<!-- Node60526 -->
<g id="node2" class="node">
<title>Node60526</title>
<g id="a_node2"><a xlink:href="quickjs_8c.html#a2e66fcf1bc1d19f346317f10ee590621" target="_top" xlink:title="JS_AddIntrinsicPromise">
<polygon fill="none" stroke="#000000" points="123,-76.5 123,-95.5 245,-95.5 245,-76.5 123,-76.5"/>
<text text-anchor="middle" x="184" y="-83.5" font-family="Helvetica,sans-Serif" font-size="10.00" fill="#000000">JS_AddIntrinsicPromise</text>
</a>
</g>
</g>
<!-- Node60525&#45;&gt;Node60526 -->
<g id="edge1" class="edge">
<title>Node60525&#45;&gt;Node60526</title>
<path fill="none" stroke="#191970" d="M88.7787,-60.2462C108.1449,-65.484 130.4218,-71.5091 148.5573,-76.4141"/>
<polygon fill="#191970" stroke="#191970" points="89.5211,-56.8213 78.9541,-57.589 87.6934,-63.5785 89.5211,-56.8213"/>
</g>
<!-- Node60535 -->
<g id="node6" class="node">
<title>Node60535</title>
<g id="a_node6"><a xlink:href="quickjs_8c.html#a3afdbdd7b58ef7e1dcc178c362071b3d" target="_top" xlink:title="JS_AddIntrinsicProxy">
<polygon fill="none" stroke="#000000" points="128.5,-38.5 128.5,-57.5 239.5,-57.5 239.5,-38.5 128.5,-38.5"/>
<text text-anchor="middle" x="184" y="-45.5" font-family="Helvetica,sans-Serif" font-size="10.00" fill="#000000">JS_AddIntrinsicProxy</text>
</a>
</g>
</g>
<!-- Node60525&#45;&gt;Node60535 -->
<g id="edge5" class="edge">
<title>Node60525&#45;&gt;Node60535</title>
<path fill="none" stroke="#191970" d="M97.2067,-48C107.4282,-48 118.1451,-48 128.4234,-48"/>
<polygon fill="#191970" stroke="#191970" points="97.1849,-44.5001 87.1849,-48 97.1849,-51.5001 97.1849,-44.5001"/>
</g>
<!-- Node60536 -->
<g id="node7" class="node">
<title>Node60536</title>
<g id="a_node7"><a xlink:href="quickjs_8c.html#a27966451027feb455b5da12c1578771c" target="_top" xlink:title="JS_NewRuntime2">
<polygon fill="none" stroke="#000000" points="136,-.5 136,-19.5 232,-19.5 232,-.5 136,-.5"/>
<text text-anchor="middle" x="184" y="-7.5" font-family="Helvetica,sans-Serif" font-size="10.00" fill="#000000">JS_NewRuntime2</text>
</a>
</g>
</g>
<!-- Node60525&#45;&gt;Node60536 -->
<g id="edge7" class="edge">
<title>Node60525&#45;&gt;Node60536</title>
<path fill="none" stroke="#191970" d="M88.7787,-35.7538C108.1449,-30.516 130.4218,-24.4909 148.5573,-19.5859"/>
<polygon fill="#191970" stroke="#191970" points="87.6934,-32.4215 78.9541,-38.411 89.5211,-39.1787 87.6934,-32.4215"/>
</g>
<!-- Node60527 -->
<g id="node3" class="node">
<title>Node60527</title>
<g id="a_node3"><a xlink:href="quickjs_8c.html#ad8aedb643b8753b7a15f6cb2df61945e" target="_top" xlink:title="JS_NewContext">
<polygon fill="none" stroke="#000000" points="282,-57.5 282,-76.5 371,-76.5 371,-57.5 282,-57.5"/>
<text text-anchor="middle" x="326.5" y="-64.5" font-family="Helvetica,sans-Serif" font-size="10.00" fill="#000000">JS_NewContext</text>
</a>
</g>
</g>
<!-- Node60526&#45;&gt;Node60527 -->
<g id="edge2" class="edge">
<title>Node60526&#45;&gt;Node60527</title>
<path fill="none" stroke="#191970" d="M255.3439,-76.4875C264.3015,-75.2931 273.2571,-74.0991 281.6444,-72.9808"/>
<polygon fill="#191970" stroke="#191970" points="254.7095,-73.041 245.2598,-77.832 255.6347,-79.9796 254.7095,-73.041"/>
</g>
<!-- Node60528 -->
<g id="node4" class="node">
<title>Node60528</title>
<g id="a_node4"><a xlink:href="classqjs_1_1Context.html#a4392a23648acfc4bf6b445336efb5007" target="_top" xlink:title="qjs::Context::Context">
<polygon fill="none" stroke="#ff0000" points="410.5,-76.5 410.5,-95.5 520.5,-95.5 520.5,-76.5 410.5,-76.5"/>
<text text-anchor="middle" x="465.5" y="-83.5" font-family="Helvetica,sans-Serif" font-size="10.00" fill="#000000">qjs::Context::Context</text>
</a>
</g>
</g>
<!-- Node60527&#45;&gt;Node60528 -->
<g id="edge3" class="edge">
<title>Node60527&#45;&gt;Node60528</title>
<path fill="none" stroke="#191970" d="M381.3313,-74.4949C390.7961,-75.7887 400.6412,-77.1344 410.1204,-78.4301"/>
<polygon fill="#191970" stroke="#191970" points="381.6275,-71.0029 371.2456,-73.1163 380.6794,-77.9385 381.6275,-71.0029"/>
</g>
<!-- Node60531 -->
<g id="node5" class="node">
<title>Node60531</title>
<g id="a_node5"><a xlink:href="quickjs-libc_8c.html#a1fbb3adc15e7b967479fc1940e99b67a" target="_top" xlink:title="worker_func">
<polygon fill="none" stroke="#ff0000" points="430.5,-38.5 430.5,-57.5 500.5,-57.5 500.5,-38.5 430.5,-38.5"/>
<text text-anchor="middle" x="465.5" y="-45.5" font-family="Helvetica,sans-Serif" font-size="10.00" fill="#000000">worker_func</text>
</a>
</g>
</g>
<!-- Node60527&#45;&gt;Node60531 -->
<g id="edge4" class="edge">
<title>Node60527&#45;&gt;Node60531</title>
<path fill="none" stroke="#191970" d="M381.2849,-59.5114C397.7028,-57.2672 415.269,-54.8661 430.0873,-52.8406"/>
<polygon fill="#191970" stroke="#191970" points="380.6794,-56.0615 371.2456,-60.8837 381.6275,-62.9971 380.6794,-56.0615"/>
</g>
<!-- Node60535&#45;&gt;Node60527 -->
<g id="edge6" class="edge">
<title>Node60535&#45;&gt;Node60527</title>
<path fill="none" stroke="#191970" d="M249.5047,-56.734C260.4852,-58.198 271.6488,-59.6865 281.9434,-61.0591"/>
<polygon fill="#191970" stroke="#191970" points="249.8771,-53.2527 239.5023,-55.4003 248.9519,-60.1913 249.8771,-53.2527"/>
</g>
<!-- Node60537 -->
<g id="node8" class="node">
<title>Node60537</title>
<g id="a_node8"><a xlink:href="quickjs_8c.html#afc1ca27a266094085ebb43e2eea0dda2" target="_top" xlink:title="JS_NewRuntime">
<polygon fill="none" stroke="#000000" points="281,-.5 281,-19.5 372,-19.5 372,-.5 281,-.5"/>
<text text-anchor="middle" x="326.5" y="-7.5" font-family="Helvetica,sans-Serif" font-size="10.00" fill="#000000">JS_NewRuntime</text>
</a>
</g>
</g>
<!-- Node60536&#45;&gt;Node60537 -->
<g id="edge8" class="edge">
<title>Node60536&#45;&gt;Node60537</title>
<path fill="none" stroke="#191970" d="M242.3454,-10C255.1354,-10 268.4993,-10 280.7137,-10"/>
<polygon fill="#191970" stroke="#191970" points="242.244,-6.5001 232.244,-10 242.244,-13.5001 242.244,-6.5001"/>
</g>
<!-- Node60537&#45;&gt;Node60531 -->
<g id="edge10" class="edge">
<title>Node60537&#45;&gt;Node60531</title>
<path fill="none" stroke="#191970" d="M371.2953,-22.2462C390.4547,-27.484 412.4938,-33.5091 430.4357,-38.4141"/>
<polygon fill="#191970" stroke="#191970" points="372.1446,-18.85 361.5756,-19.589 370.2986,-25.6022 372.1446,-18.85"/>
</g>
<!-- Node60538 -->
<g id="node9" class="node">
<title>Node60538</title>
<g id="a_node9"><a xlink:href="classqjs_1_1Runtime.html#a0860a1339ff567f9f603c7bed4d670f9" target="_top" xlink:title="qjs::Runtime::Runtime">
<polygon fill="none" stroke="#000000" points="408,-.5 408,-19.5 523,-19.5 523,-.5 408,-.5"/>
<text text-anchor="middle" x="465.5" y="-7.5" font-family="Helvetica,sans-Serif" font-size="10.00" fill="#000000">qjs::Runtime::Runtime</text>
</a>
</g>
</g>
<!-- Node60537&#45;&gt;Node60538 -->
<g id="edge9" class="edge">
<title>Node60537&#45;&gt;Node60538</title>
<path fill="none" stroke="#191970" d="M382.1119,-10C390.5346,-10 399.2411,-10 407.7088,-10"/>
<polygon fill="#191970" stroke="#191970" points="382.0138,-6.5001 372.0138,-10 382.0138,-13.5001 382.0138,-6.5001"/>
</g>
</g>
</svg>
