<?xml version="1.0" encoding="UTF-8" standalone="no"?>
<!DOCTYPE svg PUBLIC "-//W3C//DTD SVG 1.1//EN"
 "http://www.w3.org/Graphics/SVG/1.1/DTD/svg11.dtd">
<!-- Generated by graphviz version 2.40.1 (20161225.0304)
 -->
<!-- Title: js_async_function_resolve_call Pages: 1 -->
<svg width="589pt" height="66pt"
 viewBox="0.00 0.00 589.00 66.00" xmlns="http://www.w3.org/2000/svg" xmlns:xlink="http://www.w3.org/1999/xlink">
<g id="graph0" class="graph" transform="scale(1 1) rotate(0) translate(4 62)">
<title>js_async_function_resolve_call</title>
<!-- Node303088 -->
<g id="node1" class="node">
<title>Node303088</title>
<polygon fill="#bfbfbf" stroke="#000000" points="0,-19.5 0,-38.5 152,-38.5 152,-19.5 0,-19.5"/>
<text text-anchor="middle" x="76" y="-26.5" font-family="Helvetica,sans-Serif" font-size="10.00" fill="#000000">js_async_function_resolve_call</text>
</g>
<!-- Node303089 -->
<g id="node2" class="node">
<title>Node303089</title>
<g id="a_node2"><a xlink:href="quickjs_8c.html#a2e66fcf1bc1d19f346317f10ee590621" target="_top" xlink:title="JS_AddIntrinsicPromise">
<polygon fill="none" stroke="#000000" points="188,-19.5 188,-38.5 310,-38.5 310,-19.5 188,-19.5"/>
<text text-anchor="middle" x="249" y="-26.5" font-family="Helvetica,sans-Serif" font-size="10.00" fill="#000000">JS_AddIntrinsicPromise</text>
</a>
</g>
</g>
<!-- Node303088&#45;&gt;Node303089 -->
<g id="edge1" class="edge">
<title>Node303088&#45;&gt;Node303089</title>
<path fill="none" stroke="#191970" d="M162.2714,-29C170.9275,-29 179.5866,-29 187.9021,-29"/>
<polygon fill="#191970" stroke="#191970" points="162.1321,-25.5001 152.1321,-29 162.132,-32.5001 162.1321,-25.5001"/>
</g>
<!-- Node303090 -->
<g id="node3" class="node">
<title>Node303090</title>
<g id="a_node3"><a xlink:href="quickjs_8c.html#ad8aedb643b8753b7a15f6cb2df61945e" target="_top" xlink:title="JS_NewContext">
<polygon fill="none" stroke="#000000" points="346,-19.5 346,-38.5 435,-38.5 435,-19.5 346,-19.5"/>
<text text-anchor="middle" x="390.5" y="-26.5" font-family="Helvetica,sans-Serif" font-size="10.00" fill="#000000">JS_NewContext</text>
</a>
</g>
</g>
<!-- Node303089&#45;&gt;Node303090 -->
<g id="edge2" class="edge">
<title>Node303089&#45;&gt;Node303090</title>
<path fill="none" stroke="#191970" d="M320.3807,-29C329.0398,-29 337.6863,-29 345.8014,-29"/>
<polygon fill="#191970" stroke="#191970" points="320.241,-25.5001 310.241,-29 320.241,-32.5001 320.241,-25.5001"/>
</g>
<!-- Node303091 -->
<g id="node4" class="node">
<title>Node303091</title>
<g id="a_node4"><a xlink:href="classqjs_1_1Context.html#a4392a23648acfc4bf6b445336efb5007" target="_top" xlink:title="qjs::Context::Context">
<polygon fill="none" stroke="#ff0000" points="471,-38.5 471,-57.5 581,-57.5 581,-38.5 471,-38.5"/>
<text text-anchor="middle" x="526" y="-45.5" font-family="Helvetica,sans-Serif" font-size="10.00" fill="#000000">qjs::Context::Context</text>
</a>
</g>
</g>
<!-- Node303090&#45;&gt;Node303091 -->
<g id="edge3" class="edge">
<title>Node303090&#45;&gt;Node303091</title>
<path fill="none" stroke="#191970" d="M445.3476,-36.6908C453.7739,-37.8724 462.4767,-39.0927 470.9083,-40.275"/>
<polygon fill="#191970" stroke="#191970" points="445.6325,-33.1966 435.2433,-35.274 444.6604,-40.1288 445.6325,-33.1966"/>
</g>
<!-- Node303094 -->
<g id="node5" class="node">
<title>Node303094</title>
<g id="a_node5"><a xlink:href="quickjs-libc_8c.html#a1fbb3adc15e7b967479fc1940e99b67a" target="_top" xlink:title="worker_func">
<polygon fill="none" stroke="#ff0000" points="491,-.5 491,-19.5 561,-19.5 561,-.5 491,-.5"/>
<text text-anchor="middle" x="526" y="-7.5" font-family="Helvetica,sans-Serif" font-size="10.00" fill="#000000">worker_func</text>
</a>
</g>
</g>
<!-- Node303090&#45;&gt;Node303094 -->
<g id="edge4" class="edge">
<title>Node303090&#45;&gt;Node303094</title>
<path fill="none" stroke="#191970" d="M445.1712,-21.3339C460.5364,-19.1794 476.8347,-16.894 490.7403,-14.9442"/>
<polygon fill="#191970" stroke="#191970" points="444.6604,-17.8712 435.2433,-22.726 445.6325,-24.8034 444.6604,-17.8712"/>
</g>
</g>
</svg>
