<?xml version="1.0" encoding="UTF-8" standalone="no"?>
<!DOCTYPE svg PUBLIC "-//W3C//DTD SVG 1.1//EN"
 "http://www.w3.org/Graphics/SVG/1.1/DTD/svg11.dtd">
<!-- Generated by graphviz version 2.40.1 (20161225.0304)
 -->
<!-- Title: js_typed_array_base_constructor Pages: 1 -->
<svg width="563pt" height="66pt"
 viewBox="0.00 0.00 563.00 66.00" xmlns="http://www.w3.org/2000/svg" xmlns:xlink="http://www.w3.org/1999/xlink">
<g id="graph0" class="graph" transform="scale(1 1) rotate(0) translate(4 62)">
<title>js_typed_array_base_constructor</title>
<!-- Node481972 -->
<g id="node1" class="node">
<title>Node481972</title>
<polygon fill="#bfbfbf" stroke="#000000" points="0,-14 0,-44 107,-44 107,-14 0,-14"/>
<text text-anchor="start" x="8" y="-32" font-family="Helvetica,sans-Serif" font-size="10.00" fill="#000000">js_typed_array_base</text>
<text text-anchor="middle" x="53.5" y="-21" font-family="Helvetica,sans-Serif" font-size="10.00" fill="#000000">_constructor</text>
</g>
<!-- Node481973 -->
<g id="node2" class="node">
<title>Node481973</title>
<g id="a_node2"><a xlink:href="quickjs_8c.html#a177d09828596bfe6df4bd90b2e93989d" target="_top" xlink:title="JS_AddIntrinsicTypedArrays">
<polygon fill="none" stroke="#000000" points="143,-19.5 143,-38.5 284,-38.5 284,-19.5 143,-19.5"/>
<text text-anchor="middle" x="213.5" y="-26.5" font-family="Helvetica,sans-Serif" font-size="10.00" fill="#000000">JS_AddIntrinsicTypedArrays</text>
</a>
</g>
</g>
<!-- Node481972&#45;&gt;Node481973 -->
<g id="edge1" class="edge">
<title>Node481972&#45;&gt;Node481973</title>
<path fill="none" stroke="#191970" d="M117.3182,-29C125.7172,-29 134.3645,-29 142.8687,-29"/>
<polygon fill="#191970" stroke="#191970" points="117.2228,-25.5001 107.2228,-29 117.2227,-32.5001 117.2228,-25.5001"/>
</g>
<!-- Node481974 -->
<g id="node3" class="node">
<title>Node481974</title>
<g id="a_node3"><a xlink:href="quickjs_8c.html#ad8aedb643b8753b7a15f6cb2df61945e" target="_top" xlink:title="JS_NewContext">
<polygon fill="none" stroke="#000000" points="320,-19.5 320,-38.5 409,-38.5 409,-19.5 320,-19.5"/>
<text text-anchor="middle" x="364.5" y="-26.5" font-family="Helvetica,sans-Serif" font-size="10.00" fill="#000000">JS_NewContext</text>
</a>
</g>
</g>
<!-- Node481973&#45;&gt;Node481974 -->
<g id="edge2" class="edge">
<title>Node481973&#45;&gt;Node481974</title>
<path fill="none" stroke="#191970" d="M294.3813,-29C303.0943,-29 311.7113,-29 319.7649,-29"/>
<polygon fill="#191970" stroke="#191970" points="294.1368,-25.5001 284.1368,-29 294.1367,-32.5001 294.1368,-25.5001"/>
</g>
<!-- Node481975 -->
<g id="node4" class="node">
<title>Node481975</title>
<g id="a_node4"><a xlink:href="classqjs_1_1Context.html#a4392a23648acfc4bf6b445336efb5007" target="_top" xlink:title="qjs::Context::Context">
<polygon fill="none" stroke="#ff0000" points="445,-38.5 445,-57.5 555,-57.5 555,-38.5 445,-38.5"/>
<text text-anchor="middle" x="500" y="-45.5" font-family="Helvetica,sans-Serif" font-size="10.00" fill="#000000">qjs::Context::Context</text>
</a>
</g>
</g>
<!-- Node481974&#45;&gt;Node481975 -->
<g id="edge3" class="edge">
<title>Node481974&#45;&gt;Node481975</title>
<path fill="none" stroke="#191970" d="M419.3476,-36.6908C427.7739,-37.8724 436.4767,-39.0927 444.9083,-40.275"/>
<polygon fill="#191970" stroke="#191970" points="419.6325,-33.1966 409.2433,-35.274 418.6604,-40.1288 419.6325,-33.1966"/>
</g>
<!-- Node481978 -->
<g id="node5" class="node">
<title>Node481978</title>
<g id="a_node5"><a xlink:href="quickjs-libc_8c.html#a1fbb3adc15e7b967479fc1940e99b67a" target="_top" xlink:title="worker_func">
<polygon fill="none" stroke="#ff0000" points="465,-.5 465,-19.5 535,-19.5 535,-.5 465,-.5"/>
<text text-anchor="middle" x="500" y="-7.5" font-family="Helvetica,sans-Serif" font-size="10.00" fill="#000000">worker_func</text>
</a>
</g>
</g>
<!-- Node481974&#45;&gt;Node481978 -->
<g id="edge4" class="edge">
<title>Node481974&#45;&gt;Node481978</title>
<path fill="none" stroke="#191970" d="M419.1712,-21.3339C434.5364,-19.1794 450.8347,-16.894 464.7403,-14.9442"/>
<polygon fill="#191970" stroke="#191970" points="418.6604,-17.8712 409.2433,-22.726 419.6325,-24.8034 418.6604,-17.8712"/>
</g>
</g>
</svg>
