<?xml version="1.0" encoding="UTF-8" standalone="no"?>
<!DOCTYPE svg PUBLIC "-//W3C//DTD SVG 1.1//EN"
 "http://www.w3.org/Graphics/SVG/1.1/DTD/svg11.dtd">
<!-- Generated by graphviz version 2.40.1 (20161225.0304)
 -->
<!-- Title: js_date_constructor Pages: 1 -->
<svg width="524pt" height="66pt"
 viewBox="0.00 0.00 524.00 66.00" xmlns="http://www.w3.org/2000/svg" xmlns:xlink="http://www.w3.org/1999/xlink">
<g id="graph0" class="graph" transform="scale(1 1) rotate(0) translate(4 62)">
<title>js_date_constructor</title>
<!-- Node467249 -->
<g id="node1" class="node">
<title>Node467249</title>
<polygon fill="#bfbfbf" stroke="#000000" points="0,-19.5 0,-38.5 102,-38.5 102,-19.5 0,-19.5"/>
<text text-anchor="middle" x="51" y="-26.5" font-family="Helvetica,sans-Serif" font-size="10.00" fill="#000000">js_date_constructor</text>
</g>
<!-- Node467250 -->
<g id="node2" class="node">
<title>Node467250</title>
<g id="a_node2"><a xlink:href="quickjs_8c.html#a8ecbf5799518b7bfc3fefd47c7a0dd4e" target="_top" xlink:title="JS_AddIntrinsicDate">
<polygon fill="none" stroke="#000000" points="138,-19.5 138,-38.5 245,-38.5 245,-19.5 138,-19.5"/>
<text text-anchor="middle" x="191.5" y="-26.5" font-family="Helvetica,sans-Serif" font-size="10.00" fill="#000000">JS_AddIntrinsicDate</text>
</a>
</g>
</g>
<!-- Node467249&#45;&gt;Node467250 -->
<g id="edge1" class="edge">
<title>Node467249&#45;&gt;Node467250</title>
<path fill="none" stroke="#191970" d="M112.3465,-29C120.8288,-29 129.4872,-29 137.8161,-29"/>
<polygon fill="#191970" stroke="#191970" points="112.1212,-25.5001 102.1212,-29 112.1211,-32.5001 112.1212,-25.5001"/>
</g>
<!-- Node467251 -->
<g id="node3" class="node">
<title>Node467251</title>
<g id="a_node3"><a xlink:href="quickjs_8c.html#ad8aedb643b8753b7a15f6cb2df61945e" target="_top" xlink:title="JS_NewContext">
<polygon fill="none" stroke="#000000" points="281,-19.5 281,-38.5 370,-38.5 370,-19.5 281,-19.5"/>
<text text-anchor="middle" x="325.5" y="-26.5" font-family="Helvetica,sans-Serif" font-size="10.00" fill="#000000">JS_NewContext</text>
</a>
</g>
</g>
<!-- Node467250&#45;&gt;Node467251 -->
<g id="edge2" class="edge">
<title>Node467250&#45;&gt;Node467251</title>
<path fill="none" stroke="#191970" d="M255.2847,-29C263.9061,-29 272.5987,-29 280.7897,-29"/>
<polygon fill="#191970" stroke="#191970" points="255.2309,-25.5001 245.2308,-29 255.2308,-32.5001 255.2309,-25.5001"/>
</g>
<!-- Node467252 -->
<g id="node4" class="node">
<title>Node467252</title>
<g id="a_node4"><a xlink:href="classqjs_1_1Context.html#a4392a23648acfc4bf6b445336efb5007" target="_top" xlink:title="qjs::Context::Context">
<polygon fill="none" stroke="#ff0000" points="406,-38.5 406,-57.5 516,-57.5 516,-38.5 406,-38.5"/>
<text text-anchor="middle" x="461" y="-45.5" font-family="Helvetica,sans-Serif" font-size="10.00" fill="#000000">qjs::Context::Context</text>
</a>
</g>
</g>
<!-- Node467251&#45;&gt;Node467252 -->
<g id="edge3" class="edge">
<title>Node467251&#45;&gt;Node467252</title>
<path fill="none" stroke="#191970" d="M380.3476,-36.6908C388.7739,-37.8724 397.4767,-39.0927 405.9083,-40.275"/>
<polygon fill="#191970" stroke="#191970" points="380.6325,-33.1966 370.2433,-35.274 379.6604,-40.1288 380.6325,-33.1966"/>
</g>
<!-- Node467255 -->
<g id="node5" class="node">
<title>Node467255</title>
<g id="a_node5"><a xlink:href="quickjs-libc_8c.html#a1fbb3adc15e7b967479fc1940e99b67a" target="_top" xlink:title="worker_func">
<polygon fill="none" stroke="#ff0000" points="426,-.5 426,-19.5 496,-19.5 496,-.5 426,-.5"/>
<text text-anchor="middle" x="461" y="-7.5" font-family="Helvetica,sans-Serif" font-size="10.00" fill="#000000">worker_func</text>
</a>
</g>
</g>
<!-- Node467251&#45;&gt;Node467255 -->
<g id="edge4" class="edge">
<title>Node467251&#45;&gt;Node467255</title>
<path fill="none" stroke="#191970" d="M380.1712,-21.3339C395.5364,-19.1794 411.8347,-16.894 425.7403,-14.9442"/>
<polygon fill="#191970" stroke="#191970" points="379.6604,-17.8712 370.2433,-22.726 380.6325,-24.8034 379.6604,-17.8712"/>
</g>
</g>
</svg>
