<?xml version="1.0" encoding="UTF-8" standalone="no"?>
<!DOCTYPE svg PUBLIC "-//W3C//DTD SVG 1.1//EN"
 "http://www.w3.org/Graphics/SVG/1.1/DTD/svg11.dtd">
<!-- Generated by graphviz version 2.40.1 (20161225.0304)
 -->
<!-- Title: JS_AddIntrinsicTypedArrays Pages: 1 -->
<svg width="566pt" height="66pt"
 viewBox="0.00 0.00 566.00 66.00" xmlns="http://www.w3.org/2000/svg" xmlns:xlink="http://www.w3.org/1999/xlink">
<g id="graph0" class="graph" transform="scale(1 1) rotate(0) translate(4 62)">
<title>JS_AddIntrinsicTypedArrays</title>
<!-- Node488338 -->
<g id="node1" class="node">
<title>Node488338</title>
<polygon fill="#bfbfbf" stroke="#000000" points="0,-19.5 0,-38.5 141,-38.5 141,-19.5 0,-19.5"/>
<text text-anchor="middle" x="70.5" y="-26.5" font-family="Helvetica,sans-Serif" font-size="10.00" fill="#000000">JS_AddIntrinsicTypedArrays</text>
</g>
<!-- Node488339 -->
<g id="node2" class="node">
<title>Node488339</title>
<g id="a_node2"><a xlink:href="quickjs_8c.html#ad8aedb643b8753b7a15f6cb2df61945e" target="_top" xlink:title="JS_NewContext">
<polygon fill="none" stroke="#000000" points="177,-19.5 177,-38.5 266,-38.5 266,-19.5 177,-19.5"/>
<text text-anchor="middle" x="221.5" y="-26.5" font-family="Helvetica,sans-Serif" font-size="10.00" fill="#000000">JS_NewContext</text>
</a>
</g>
</g>
<!-- Node488338&#45;&gt;Node488339 -->
<g id="edge1" class="edge">
<title>Node488338&#45;&gt;Node488339</title>
<path fill="none" stroke="#191970" d="M151.3813,-29C160.0943,-29 168.7113,-29 176.7649,-29"/>
<polygon fill="#191970" stroke="#191970" points="151.1368,-25.5001 141.1368,-29 151.1367,-32.5001 151.1368,-25.5001"/>
</g>
<!-- Node488340 -->
<g id="node3" class="node">
<title>Node488340</title>
<g id="a_node3"><a xlink:href="classqjs_1_1Context.html#a4392a23648acfc4bf6b445336efb5007" target="_top" xlink:title="qjs::Context::Context">
<polygon fill="none" stroke="#000000" points="302,-38.5 302,-57.5 412,-57.5 412,-38.5 302,-38.5"/>
<text text-anchor="middle" x="357" y="-45.5" font-family="Helvetica,sans-Serif" font-size="10.00" fill="#000000">qjs::Context::Context</text>
</a>
</g>
</g>
<!-- Node488339&#45;&gt;Node488340 -->
<g id="edge2" class="edge">
<title>Node488339&#45;&gt;Node488340</title>
<path fill="none" stroke="#191970" d="M276.3476,-36.6908C284.7739,-37.8724 293.4767,-39.0927 301.9083,-40.275"/>
<polygon fill="#191970" stroke="#191970" points="276.6325,-33.1966 266.2433,-35.274 275.6604,-40.1288 276.6325,-33.1966"/>
</g>
<!-- Node488343 -->
<g id="node5" class="node">
<title>Node488343</title>
<g id="a_node5"><a xlink:href="quickjs-libc_8c.html#a1fbb3adc15e7b967479fc1940e99b67a" target="_top" xlink:title="worker_func">
<polygon fill="none" stroke="#000000" points="322,-.5 322,-19.5 392,-19.5 392,-.5 322,-.5"/>
<text text-anchor="middle" x="357" y="-7.5" font-family="Helvetica,sans-Serif" font-size="10.00" fill="#000000">worker_func</text>
</a>
</g>
</g>
<!-- Node488339&#45;&gt;Node488343 -->
<g id="edge4" class="edge">
<title>Node488339&#45;&gt;Node488343</title>
<path fill="none" stroke="#191970" d="M276.1712,-21.3339C291.5364,-19.1794 307.8347,-16.894 321.7403,-14.9442"/>
<polygon fill="#191970" stroke="#191970" points="275.6604,-17.8712 266.2433,-22.726 276.6325,-24.8034 275.6604,-17.8712"/>
</g>
<!-- Node488341 -->
<g id="node4" class="node">
<title>Node488341</title>
<g id="a_node4"><a xlink:href="classqjs_1_1Context.html#af725fb8083d8c33a37198d6acaf1a836" target="_top" xlink:title="qjs::Context::Context">
<polygon fill="none" stroke="#ff0000" points="448,-38.5 448,-57.5 558,-57.5 558,-38.5 448,-38.5"/>
<text text-anchor="middle" x="503" y="-45.5" font-family="Helvetica,sans-Serif" font-size="10.00" fill="#000000">qjs::Context::Context</text>
</a>
</g>
</g>
<!-- Node488340&#45;&gt;Node488341 -->
<g id="edge3" class="edge">
<title>Node488340&#45;&gt;Node488341</title>
<path fill="none" stroke="#191970" d="M422.4101,-48C430.8647,-48 439.4567,-48 447.7256,-48"/>
<polygon fill="#191970" stroke="#191970" points="422.1964,-44.5001 412.1963,-48 422.1963,-51.5001 422.1964,-44.5001"/>
</g>
<!-- Node488344 -->
<g id="node6" class="node">
<title>Node488344</title>
<g id="a_node6"><a xlink:href="quickjs-libc_8c.html#aff1e6131e8bf8b7eb25307623ad669e7" target="_top" xlink:title="js_worker_ctor">
<polygon fill="none" stroke="#ff0000" points="463,-.5 463,-19.5 543,-19.5 543,-.5 463,-.5"/>
<text text-anchor="middle" x="503" y="-7.5" font-family="Helvetica,sans-Serif" font-size="10.00" fill="#000000">js_worker_ctor</text>
</a>
</g>
</g>
<!-- Node488343&#45;&gt;Node488344 -->
<g id="edge5" class="edge">
<title>Node488343&#45;&gt;Node488344</title>
<path fill="none" stroke="#191970" d="M402.4324,-10C421.761,-10 444.112,-10 462.8272,-10"/>
<polygon fill="#191970" stroke="#191970" points="402.3426,-6.5001 392.3425,-10 402.3425,-13.5001 402.3426,-6.5001"/>
</g>
</g>
</svg>
