<?xml version="1.0" encoding="UTF-8" standalone="no"?>
<!DOCTYPE svg PUBLIC "-//W3C//DTD SVG 1.1//EN"
 "http://www.w3.org/Graphics/SVG/1.1/DTD/svg11.dtd">
<!-- Generated by graphviz version 2.40.1 (20161225.0304)
 -->
<!-- Title: JS_SetConstructorBit Pages: 1 -->
<!--zoomable 229 -->
<svg id="main" version="1.1" xmlns="http://www.w3.org/2000/svg" xmlns:xlink="http://www.w3.org/1999/xlink" xml:space="preserve" onload="init(evt)">
<style type="text/css"><![CDATA[
.edge:hover path { stroke: red; }
.edge:hover polygon { stroke: red; fill: red; }
]]></style>
<script type="text/javascript"><![CDATA[
var edges = document.getElementsByTagName('g');
if (edges && edges.length) {
  for (var i=0;i<edges.length;i++) {
    if (edges[i].id.substr(0,4)=='edge') {
      edges[i].setAttribute('class','edge');
    }
  }
}
]]></script>
        <defs>
                <circle id="rim" cx="0" cy="0" r="7"/>
                <circle id="rim2" cx="0" cy="0" r="3.5"/>
                <g id="zoomPlus">
                        <use xlink:href="#rim" fill="#404040">
                                <set attributeName="fill" to="#808080" begin="zoomplus.mouseover" end="zoomplus.mouseout"/>
                        </use>
                        <path d="M-4,0h8M0,-4v8" fill="none" stroke="white" stroke-width="1.5" pointer-events="none"/>
                </g>
                <g id="zoomMin">
                        <use xlink:href="#rim" fill="#404040">
                                <set attributeName="fill" to="#808080" begin="zoomminus.mouseover" end="zoomminus.mouseout"/>
                        </use>
                        <path d="M-4,0h8" fill="none" stroke="white" stroke-width="1.5" pointer-events="none"/>
                </g>
                <g id="dirArrow">
                        <path fill="none" stroke="white" stroke-width="1.5" d="M0,-3.0v7 M-2.5,-0.5L0,-3.0L2.5,-0.5"/>
                </g>
               <g id="resetDef">
                       <use xlink:href="#rim2" fill="#404040">
                               <set attributeName="fill" to="#808080" begin="reset.mouseover" end="reset.mouseout"/>
                       </use>
               </g>
        </defs>

<script type="text/javascript">
var viewWidth = 739;
var viewHeight = 229;
var sectionId = 'dynsection-648';
</script>
<script xlink:href="svgpan.js"/>
<svg id="graph" class="graph">
<g id="viewport">
<title>JS_SetConstructorBit</title>
<!-- Node224153 -->
<g id="node1" class="node">
<title>Node224153</title>
<polygon fill="#bfbfbf" stroke="#000000" points="0,-125.958 0,-144.958 112,-144.958 112,-125.958 0,-125.958"/>
<text text-anchor="middle" x="56" y="-132.958" font-family="Helvetica,sans-Serif" font-size="10.00" fill="#000000">JS_SetConstructorBit</text>
</g>
<!-- Node224154 -->
<g id="node2" class="node">
<title>Node224154</title>
<g id="a_node2"><a xlink:href="quickjs_8c.html#a3afdbdd7b58ef7e1dcc178c362071b3d" target="_top" xlink:title="JS_AddIntrinsicProxy">
<polygon fill="none" stroke="#000000" points="291,-182.958 291,-201.958 402,-201.958 402,-182.958 291,-182.958"/>
<text text-anchor="middle" x="346.5" y="-189.958" font-family="Helvetica,sans-Serif" font-size="10.00" fill="#000000">JS_AddIntrinsicProxy</text>
</a>
</g>
</g>
<!-- Node224153&#45;&gt;Node224154 -->
<g id="edge1" class="edge">
<title>Node224153&#45;&gt;Node224154</title>
<path fill="none" stroke="#191970" d="M83.7325,-149.4476C101.6213,-157.8278 125.6421,-167.9021 148,-173.458 195.3725,-185.2299 250.7782,-189.7982 290.9971,-191.5269"/>
<polygon fill="#191970" stroke="#191970" points="85.0047,-146.1761 74.4747,-145.0057 81.9766,-152.4872 85.0047,-146.1761"/>
</g>
<!-- Node224163 -->
<g id="node6" class="node">
<title>Node224163</title>
<g id="a_node6"><a xlink:href="quickjs_8c.html#aab4130a4c3108a127681be821818528a" target="_top" xlink:title="js_closure">
<polygon fill="none" stroke="#000000" points="171,-68.958 171,-87.958 232,-87.958 232,-68.958 171,-68.958"/>
<text text-anchor="middle" x="201.5" y="-75.958" font-family="Helvetica,sans-Serif" font-size="10.00" fill="#000000">js_closure</text>
</a>
</g>
</g>
<!-- Node224153&#45;&gt;Node224163 -->
<g id="edge5" class="edge">
<title>Node224153&#45;&gt;Node224163</title>
<path fill="none" stroke="#191970" d="M87.4704,-121.9987C105.1681,-114.546 127.7171,-105.2428 148,-97.458 156.2818,-94.2793 165.3529,-90.9874 173.6347,-88.0546"/>
<polygon fill="#191970" stroke="#191970" points="86.029,-118.8081 78.1826,-125.9274 88.7561,-125.2551 86.029,-118.8081"/>
</g>
<!-- Node224373 -->
<g id="node13" class="node">
<title>Node224373</title>
<g id="a_node13"><a xlink:href="quickjs_8c.html#a36322a209de4ef17f939e6d128578d7f" target="_top" xlink:title="js_op_define_class">
<polygon fill="none" stroke="#000000" points="151.5,-106.958 151.5,-125.958 251.5,-125.958 251.5,-106.958 151.5,-106.958"/>
<text text-anchor="middle" x="201.5" y="-113.958" font-family="Helvetica,sans-Serif" font-size="10.00" fill="#000000">js_op_define_class</text>
</a>
</g>
</g>
<!-- Node224153&#45;&gt;Node224373 -->
<g id="edge17" class="edge">
<title>Node224153&#45;&gt;Node224373</title>
<path fill="none" stroke="#191970" d="M122.2643,-126.8049C131.9518,-125.5399 141.7938,-124.2547 151.096,-123.04"/>
<polygon fill="#191970" stroke="#191970" points="121.7167,-123.3466 112.2541,-128.1121 122.6231,-130.2877 121.7167,-123.3466"/>
</g>
<!-- Node224760 -->
<g id="node14" class="node">
<title>Node224760</title>
<g id="a_node14"><a xlink:href="quickjs_8c.html#aabd74747b51e480d80dc19914e74a3a5" target="_top" xlink:title="js_proxy_constructor">
<polygon fill="none" stroke="#000000" points="148,-144.958 148,-163.958 255,-163.958 255,-144.958 148,-144.958"/>
<text text-anchor="middle" x="201.5" y="-151.958" font-family="Helvetica,sans-Serif" font-size="10.00" fill="#000000">js_proxy_constructor</text>
</a>
</g>
</g>
<!-- Node224153&#45;&gt;Node224760 -->
<g id="edge19" class="edge">
<title>Node224153&#45;&gt;Node224760</title>
<path fill="none" stroke="#191970" d="M122.2185,-144.1051C130.7786,-145.2229 139.4604,-146.3566 147.7846,-147.4436"/>
<polygon fill="#191970" stroke="#191970" points="122.6231,-140.6283 112.2541,-142.8039 121.7167,-147.5694 122.6231,-140.6283"/>
</g>
<!-- Node224155 -->
<g id="node3" class="node">
<title>Node224155</title>
<g id="a_node3"><a xlink:href="quickjs_8c.html#ad8aedb643b8753b7a15f6cb2df61945e" target="_top" xlink:title="JS_NewContext">
<polygon fill="none" stroke="#000000" points="460.5,-182.958 460.5,-201.958 549.5,-201.958 549.5,-182.958 460.5,-182.958"/>
<text text-anchor="middle" x="505" y="-189.958" font-family="Helvetica,sans-Serif" font-size="10.00" fill="#000000">JS_NewContext</text>
</a>
</g>
</g>
<!-- Node224154&#45;&gt;Node224155 -->
<g id="edge2" class="edge">
<title>Node224154&#45;&gt;Node224155</title>
<path fill="none" stroke="#191970" d="M412.7765,-192.458C428.7983,-192.458 445.5473,-192.458 460.3075,-192.458"/>
<polygon fill="#191970" stroke="#191970" points="412.3812,-188.9581 402.3812,-192.458 412.3811,-195.9581 412.3812,-188.9581"/>
</g>
<!-- Node224156 -->
<g id="node4" class="node">
<title>Node224156</title>
<g id="a_node4"><a xlink:href="classqjs_1_1Context.html#a4392a23648acfc4bf6b445336efb5007" target="_top" xlink:title="qjs::Context::Context">
<polygon fill="none" stroke="#ff0000" points="614.5,-163.958 614.5,-182.958 724.5,-182.958 724.5,-163.958 614.5,-163.958"/>
<text text-anchor="middle" x="669.5" y="-170.958" font-family="Helvetica,sans-Serif" font-size="10.00" fill="#000000">qjs::Context::Context</text>
</a>
</g>
</g>
<!-- Node224155&#45;&gt;Node224156 -->
<g id="edge3" class="edge">
<title>Node224155&#45;&gt;Node224156</title>
<path fill="none" stroke="#191970" d="M559.6286,-186.1483C577.2269,-184.1157 596.7339,-181.8626 614.3682,-179.8258"/>
<polygon fill="#191970" stroke="#191970" points="559.0484,-182.692 549.5161,-187.3163 559.8516,-189.6457 559.0484,-182.692"/>
</g>
<!-- Node224159 -->
<g id="node5" class="node">
<title>Node224159</title>
<g id="a_node5"><a xlink:href="quickjs-libc_8c.html#a1fbb3adc15e7b967479fc1940e99b67a" target="_top" xlink:title="worker_func">
<polygon fill="none" stroke="#ff0000" points="634.5,-201.958 634.5,-220.958 704.5,-220.958 704.5,-201.958 634.5,-201.958"/>
<text text-anchor="middle" x="669.5" y="-208.958" font-family="Helvetica,sans-Serif" font-size="10.00" fill="#000000">worker_func</text>
</a>
</g>
</g>
<!-- Node224155&#45;&gt;Node224159 -->
<g id="edge4" class="edge">
<title>Node224155&#45;&gt;Node224159</title>
<path fill="none" stroke="#191970" d="M559.4641,-198.7487C584.118,-201.5963 612.546,-204.8797 634.3305,-207.3959"/>
<polygon fill="#191970" stroke="#191970" points="559.8516,-195.2703 549.5161,-197.5997 559.0484,-202.224 559.8516,-195.2703"/>
</g>
<!-- Node224164 -->
<g id="node7" class="node">
<title>Node224164</title>
<g id="a_node7"><a xlink:href="quickjs_8c.html#ac2894ff4edcdb4e6841bcce9c76081e3" target="_top" xlink:title="JS_CallInternal">
<polygon fill="none" stroke="#000000" points="305,-88.958 305,-107.958 388,-107.958 388,-88.958 305,-88.958"/>
<text text-anchor="middle" x="346.5" y="-95.958" font-family="Helvetica,sans-Serif" font-size="10.00" fill="#000000">JS_CallInternal</text>
</a>
</g>
</g>
<!-- Node224163&#45;&gt;Node224164 -->
<g id="edge6" class="edge">
<title>Node224163&#45;&gt;Node224164</title>
<path fill="none" stroke="#191970" d="M242.3567,-84.0934C261.8643,-86.7841 285.1745,-89.9993 304.791,-92.705"/>
<polygon fill="#191970" stroke="#191970" points="242.6352,-80.5988 232.2508,-82.6995 241.6787,-87.5331 242.6352,-80.5988"/>
</g>
<!-- Node224364 -->
<g id="node12" class="node">
<title>Node224364</title>
<g id="a_node12"><a xlink:href="quickjs_8c.html#a5d217acce00892ab2b50a1dcc1eb4cc8" target="_top" xlink:title="JS_EvalFunctionInternal">
<polygon fill="none" stroke="#ff0000" points="608,-68.958 608,-87.958 731,-87.958 731,-68.958 608,-68.958"/>
<text text-anchor="middle" x="669.5" y="-75.958" font-family="Helvetica,sans-Serif" font-size="10.00" fill="#000000">JS_EvalFunctionInternal</text>
</a>
</g>
</g>
<!-- Node224163&#45;&gt;Node224364 -->
<g id="edge16" class="edge">
<title>Node224163&#45;&gt;Node224364</title>
<path fill="none" stroke="#191970" d="M229.6191,-64.577C292.2427,-35.5719 447.4852,25.7229 572,-12.458 608.3491,-23.604 643.348,-53.3944 659.7702,-68.8527"/>
<polygon fill="#191970" stroke="#191970" points="227.9331,-61.5024 220.3825,-68.9347 230.92,-67.8332 227.9331,-61.5024"/>
</g>
<!-- Node224164&#45;&gt;Node224164 -->
<g id="edge15" class="edge">
<title>Node224164&#45;&gt;Node224164</title>
<path fill="none" stroke="#191970" d="M319.6208,-117.112C320.7444,-122.3948 329.7041,-126.458 346.5,-126.458 372.0938,-126.458 379.4919,-117.0233 368.6946,-108.2151"/>
<polygon fill="#191970" stroke="#191970" points="322.7433,-118.6941 324.3054,-108.2151 316.5494,-115.4327 322.7433,-118.6941"/>
</g>
<!-- Node224165 -->
<g id="node8" class="node">
<title>Node224165</title>
<g id="a_node8"><a xlink:href="quickjs_8c.html#ade71a22dc56e7371392393df663b28b3" target="_top" xlink:title="async_func_resume">
<polygon fill="none" stroke="#ff0000" points="453,-59.958 453,-78.958 557,-78.958 557,-59.958 453,-59.958"/>
<text text-anchor="middle" x="505" y="-66.958" font-family="Helvetica,sans-Serif" font-size="10.00" fill="#000000">async_func_resume</text>
</a>
</g>
</g>
<!-- Node224164&#45;&gt;Node224165 -->
<g id="edge7" class="edge">
<title>Node224164&#45;&gt;Node224165</title>
<path fill="none" stroke="#191970" d="M398.1939,-88.9998C415.7179,-85.7935 435.2952,-82.2116 452.8542,-78.9989"/>
<polygon fill="#191970" stroke="#191970" points="397.3508,-85.5959 388.144,-90.8386 398.6107,-92.4816 397.3508,-85.5959"/>
</g>
<!-- Node224176 -->
<g id="node9" class="node">
<title>Node224176</title>
<g id="a_node9"><a xlink:href="quickjs_8c.html#a1a4c02a29525d5cb2085dd8bca3af350" target="_top" xlink:title="JS_Call">
<polygon fill="none" stroke="#ff0000" points="479.5,-21.958 479.5,-40.958 530.5,-40.958 530.5,-21.958 479.5,-21.958"/>
<text text-anchor="middle" x="505" y="-28.958" font-family="Helvetica,sans-Serif" font-size="10.00" fill="#000000">JS_Call</text>
</a>
</g>
</g>
<!-- Node224164&#45;&gt;Node224176 -->
<g id="edge8" class="edge">
<title>Node224164&#45;&gt;Node224176</title>
<path fill="none" stroke="#191970" d="M362.4787,-82.1909C380.3712,-69.2393 410.476,-52.4427 438,-41.458 451.3629,-36.1249 466.7799,-31.6444 479.4537,-29.2802"/>
<polygon fill="#191970" stroke="#191970" points="360.0444,-79.6509 354.3137,-88.5621 364.3507,-85.1696 360.0444,-79.6509"/>
</g>
<!-- Node224256 -->
<g id="node10" class="node">
<title>Node224256</title>
<g id="a_node10"><a xlink:href="quickjs_8c.html#ad35594576a14c10812efaf958c99af8a" target="_top" xlink:title="JS_CallConstructorInternal">
<polygon fill="none" stroke="#ff0000" points="438,-135.958 438,-154.958 572,-154.958 572,-135.958 438,-135.958"/>
<text text-anchor="middle" x="505" y="-142.958" font-family="Helvetica,sans-Serif" font-size="10.00" fill="#000000">JS_CallConstructorInternal</text>
</a>
</g>
</g>
<!-- Node224164&#45;&gt;Node224256 -->
<g id="edge10" class="edge">
<title>Node224164&#45;&gt;Node224256</title>
<path fill="none" stroke="#191970" d="M398.0862,-105.7356C411.0967,-109.4242 425.0481,-113.6403 438,-117.458 457.4835,-123.201 480.2494,-129.5889 493.5987,-135.8456"/>
<polygon fill="#191970" stroke="#191970" points="398.9244,-102.336 388.3525,-103.0331 397.0517,-109.0808 398.9244,-102.336"/>
</g>
<!-- Node224270 -->
<g id="node11" class="node">
<title>Node224270</title>
<g id="a_node11"><a xlink:href="quickjs_8c.html#a75f6ee5e4235a7dc99889f3d2eb2c147" target="_top" xlink:title="JS_CallFree">
<polygon fill="none" stroke="#ff0000" points="469.5,-97.958 469.5,-116.958 540.5,-116.958 540.5,-97.958 469.5,-97.958"/>
<text text-anchor="middle" x="505" y="-104.958" font-family="Helvetica,sans-Serif" font-size="10.00" fill="#000000">JS_CallFree</text>
</a>
</g>
</g>
<!-- Node224164&#45;&gt;Node224270 -->
<g id="edge12" class="edge">
<title>Node224164&#45;&gt;Node224270</title>
<path fill="none" stroke="#191970" d="M398.1973,-95.02C421.4466,-95.6797 448.3095,-97.4135 469.2782,-99.6813"/>
<polygon fill="#191970" stroke="#191970" points="398.2184,-91.5197 388.144,-94.7994 398.0648,-98.518 398.2184,-91.5197"/>
</g>
<!-- Node224176&#45;&gt;Node224164 -->
<g id="edge9" class="edge">
<title>Node224176&#45;&gt;Node224164</title>
<path fill="none" stroke="#191970" d="M482.2272,-44.5486C469.0786,-48.9843 452.3543,-53.7293 438,-59.458 416.5077,-68.0355 393.4418,-80.1567 375.8455,-88.9207"/>
<polygon fill="#191970" stroke="#191970" points="483.6836,-47.7435 491.8919,-41.0446 481.2977,-41.1627 483.6836,-47.7435"/>
</g>
<!-- Node224256&#45;&gt;Node224164 -->
<g id="edge11" class="edge">
<title>Node224256&#45;&gt;Node224164</title>
<path fill="none" stroke="#191970" d="M429.7859,-133.0166C402.4133,-124.8285 373.8971,-115.6922 358.321,-108.0321"/>
<polygon fill="#191970" stroke="#191970" points="428.8145,-136.3791 439.3971,-135.8692 430.8063,-129.6685 428.8145,-136.3791"/>
</g>
<!-- Node224270&#45;&gt;Node224164 -->
<g id="edge13" class="edge">
<title>Node224270&#45;&gt;Node224164</title>
<path fill="none" stroke="#191970" d="M459.0062,-111.0377C436.6241,-110.564 409.9186,-108.9916 388.144,-106.8459"/>
<polygon fill="#191970" stroke="#191970" points="459.2313,-114.541 469.2782,-111.178 459.327,-107.5416 459.2313,-114.541"/>
</g>
<!-- Node224270&#45;&gt;Node224364 -->
<g id="edge14" class="edge">
<title>Node224270&#45;&gt;Node224364</title>
<path fill="none" stroke="#191970" d="M550.8117,-99.3818C570.8549,-95.8483 594.5163,-91.677 615.4176,-87.9923"/>
<polygon fill="#191970" stroke="#191970" points="549.9345,-95.9824 540.6941,-101.1654 551.1499,-102.8761 549.9345,-95.9824"/>
</g>
<!-- Node224373&#45;&gt;Node224164 -->
<g id="edge18" class="edge">
<title>Node224373&#45;&gt;Node224164</title>
<path fill="none" stroke="#191970" d="M262.1484,-108.9292C276.5526,-107.1411 291.5983,-105.2734 304.9276,-103.6187"/>
<polygon fill="#191970" stroke="#191970" points="261.2997,-105.5077 251.807,-110.213 262.1621,-112.4543 261.2997,-105.5077"/>
</g>
<!-- Node224760&#45;&gt;Node224154 -->
<g id="edge21" class="edge">
<title>Node224760&#45;&gt;Node224154</title>
<path fill="none" stroke="#191970" d="M247.9928,-166.6423C268.1237,-171.918 291.3383,-178.0018 310.1735,-182.938"/>
<polygon fill="#191970" stroke="#191970" points="248.6503,-163.1965 238.0896,-164.047 246.8757,-169.9678 248.6503,-163.1965"/>
</g>
<!-- Node224424 -->
<g id="node15" class="node">
<title>Node224424</title>
<g id="a_node15"><a xlink:href="quickjs_8c.html#a537862df2984a40ceb9be7878c497cd2" target="_top" xlink:title="js_proxy_revocable">
<polygon fill="none" stroke="#000000" points="296,-144.958 296,-163.958 397,-163.958 397,-144.958 296,-144.958"/>
<text text-anchor="middle" x="346.5" y="-151.958" font-family="Helvetica,sans-Serif" font-size="10.00" fill="#000000">js_proxy_revocable</text>
</a>
</g>
</g>
<!-- Node224760&#45;&gt;Node224424 -->
<g id="edge20" class="edge">
<title>Node224760&#45;&gt;Node224424</title>
<path fill="none" stroke="#191970" d="M265.1428,-154.458C275.3139,-154.458 285.721,-154.458 295.5473,-154.458"/>
<polygon fill="#191970" stroke="#191970" points="265.0807,-150.9581 255.0807,-154.458 265.0806,-157.9581 265.0807,-150.9581"/>
</g>
</g>
</svg>
        <g id="navigator" transform="translate(0 0)" fill="#404254">
                <rect fill="#f2f5e9" fill-opacity="0.5" stroke="#606060" stroke-width=".5" x="0" y="0" width="60" height="60"/>
                <use id="zoomplus" xlink:href="#zoomPlus" x="17" y="9" onmousedown="handleZoom(evt,'in')"/>
                <use id="zoomminus" xlink:href="#zoomMin" x="42" y="9" onmousedown="handleZoom(evt,'out')"/>
                <use id="reset" xlink:href="#resetDef" x="30" y="36" onmousedown="handleReset()"/>
                <g id="arrowUp" xlink:href="#dirArrow" transform="translate(30 24)" onmousedown="handlePan(0,-1)">
                  <use xlink:href="#rim" fill="#404040">
                        <set attributeName="fill" to="#808080" begin="arrowUp.mouseover" end="arrowUp.mouseout"/>
                  </use>
                  <path fill="none" stroke="white" stroke-width="1.5" d="M0,-3.0v7 M-2.5,-0.5L0,-3.0L2.5,-0.5"/>
                </g>
                <g id="arrowRight" xlink:href="#dirArrow" transform="rotate(90) translate(36 -43)" onmousedown="handlePan(1,0)">
                  <use xlink:href="#rim" fill="#404040">
                        <set attributeName="fill" to="#808080" begin="arrowRight.mouseover" end="arrowRight.mouseout"/>
                  </use>
                  <path fill="none" stroke="white" stroke-width="1.5" d="M0,-3.0v7 M-2.5,-0.5L0,-3.0L2.5,-0.5"/>
                </g>
                <g id="arrowDown" xlink:href="#dirArrow" transform="rotate(180) translate(-30 -48)" onmousedown="handlePan(0,1)">
                  <use xlink:href="#rim" fill="#404040">
                        <set attributeName="fill" to="#808080" begin="arrowDown.mouseover" end="arrowDown.mouseout"/>
                  </use>
                  <path fill="none" stroke="white" stroke-width="1.5" d="M0,-3.0v7 M-2.5,-0.5L0,-3.0L2.5,-0.5"/>
                </g>
                <g id="arrowLeft" xlink:href="#dirArrow" transform="rotate(270) translate(-36 17)" onmousedown="handlePan(-1,0)">
                  <use xlink:href="#rim" fill="#404040">
                        <set attributeName="fill" to="#808080" begin="arrowLeft.mouseover" end="arrowLeft.mouseout"/>
                  </use>
                  <path fill="none" stroke="white" stroke-width="1.5" d="M0,-3.0v7 M-2.5,-0.5L0,-3.0L2.5,-0.5"/>
                </g>
        </g>
        <svg viewBox="0 0 15 15" width="100%" height="30px" preserveAspectRatio="xMaxYMin meet">
         <g id="arrow_out" transform="scale(0.3 0.3)">
          <a xlink:href="quickjs_8c_afa23cf32e0412f97cd08186c9842e58d_icgraph_org.svg" target="_base">
           <rect id="button" ry="5" rx="5" y="6" x="6" height="38" width="38"
                fill="#f2f5e9" fill-opacity="0.5" stroke="#606060" stroke-width="1.0"/>
           <path id="arrow"
             d="M 11.500037,31.436501 C 11.940474,20.09759 22.043105,11.32322 32.158766,21.979434 L 37.068811,17.246167 C 37.068811,17.246167 37.088388,32 37.088388,32 L 22.160133,31.978069 C 22.160133,31.978069 26.997745,27.140456 26.997745,27.140456 C 18.528582,18.264221 13.291696,25.230495 11.500037,31.436501 z"
             style="fill:#404040;"/>
          </a>
         </g>
        </svg>
</svg>
