<?xml version="1.0" encoding="UTF-8" standalone="no"?>
<!DOCTYPE svg PUBLIC "-//W3C//DTD SVG 1.1//EN"
 "http://www.w3.org/Graphics/SVG/1.1/DTD/svg11.dtd">
<!-- Generated by graphviz version 2.40.1 (20161225.0304)
 -->
<!-- Title: js_throw_type_error Pages: 1 -->
<svg width="714pt" height="66pt"
 viewBox="0.00 0.00 714.00 66.00" xmlns="http://www.w3.org/2000/svg" xmlns:xlink="http://www.w3.org/1999/xlink">
<g id="graph0" class="graph" transform="scale(1 1) rotate(0) translate(4 62)">
<title>js_throw_type_error</title>
<!-- Node270481 -->
<g id="node1" class="node">
<title>Node270481</title>
<polygon fill="#bfbfbf" stroke="#000000" points="0,-19.5 0,-38.5 102,-38.5 102,-19.5 0,-19.5"/>
<text text-anchor="middle" x="51" y="-26.5" font-family="Helvetica,sans-Serif" font-size="10.00" fill="#000000">js_throw_type_error</text>
</g>
<!-- Node270482 -->
<g id="node2" class="node">
<title>Node270482</title>
<g id="a_node2"><a xlink:href="quickjs_8c.html#a4c9489297c684663f30e517204a9ec14" target="_top" xlink:title="JS_AddIntrinsicBaseObjects">
<polygon fill="none" stroke="#000000" points="293,-19.5 293,-38.5 435,-38.5 435,-19.5 293,-19.5"/>
<text text-anchor="middle" x="364" y="-26.5" font-family="Helvetica,sans-Serif" font-size="10.00" fill="#000000">JS_AddIntrinsicBaseObjects</text>
</a>
</g>
</g>
<!-- Node270481&#45;&gt;Node270482 -->
<g id="edge1" class="edge">
<title>Node270481&#45;&gt;Node270482</title>
<path fill="none" stroke="#191970" d="M112.3816,-29C164.1693,-29 238.3454,-29 292.7453,-29"/>
<polygon fill="#191970" stroke="#191970" points="112.3351,-25.5001 102.3351,-29 112.3351,-32.5001 112.3351,-25.5001"/>
</g>
<!-- Node270491 -->
<g id="node6" class="node">
<title>Node270491</title>
<g id="a_node6"><a xlink:href="quickjs_8c.html#adaeef1b86e37da5560f25b630c2d090c" target="_top" xlink:title="js_function_proto_caller">
<polygon fill="none" stroke="#000000" points="138,-.5 138,-19.5 257,-19.5 257,-.5 138,-.5"/>
<text text-anchor="middle" x="197.5" y="-7.5" font-family="Helvetica,sans-Serif" font-size="10.00" fill="#000000">js_function_proto_caller</text>
</a>
</g>
</g>
<!-- Node270481&#45;&gt;Node270491 -->
<g id="edge5" class="edge">
<title>Node270481&#45;&gt;Node270491</title>
<path fill="none" stroke="#191970" d="M112.3527,-21.043C120.757,-19.953 129.376,-18.8352 137.7511,-17.749"/>
<polygon fill="#191970" stroke="#191970" points="111.7054,-17.5975 102.2386,-22.3547 112.6057,-24.5394 111.7054,-17.5975"/>
</g>
<!-- Node270483 -->
<g id="node3" class="node">
<title>Node270483</title>
<g id="a_node3"><a xlink:href="quickjs_8c.html#ad8aedb643b8753b7a15f6cb2df61945e" target="_top" xlink:title="JS_NewContext">
<polygon fill="none" stroke="#000000" points="471,-19.5 471,-38.5 560,-38.5 560,-19.5 471,-19.5"/>
<text text-anchor="middle" x="515.5" y="-26.5" font-family="Helvetica,sans-Serif" font-size="10.00" fill="#000000">JS_NewContext</text>
</a>
</g>
</g>
<!-- Node270482&#45;&gt;Node270483 -->
<g id="edge2" class="edge">
<title>Node270482&#45;&gt;Node270483</title>
<path fill="none" stroke="#191970" d="M445.5534,-29C454.2595,-29 462.8628,-29 470.8995,-29"/>
<polygon fill="#191970" stroke="#191970" points="445.3138,-25.5001 435.3138,-29 445.3137,-32.5001 445.3138,-25.5001"/>
</g>
<!-- Node270484 -->
<g id="node4" class="node">
<title>Node270484</title>
<g id="a_node4"><a xlink:href="classqjs_1_1Context.html#a4392a23648acfc4bf6b445336efb5007" target="_top" xlink:title="qjs::Context::Context">
<polygon fill="none" stroke="#ff0000" points="596,-38.5 596,-57.5 706,-57.5 706,-38.5 596,-38.5"/>
<text text-anchor="middle" x="651" y="-45.5" font-family="Helvetica,sans-Serif" font-size="10.00" fill="#000000">qjs::Context::Context</text>
</a>
</g>
</g>
<!-- Node270483&#45;&gt;Node270484 -->
<g id="edge3" class="edge">
<title>Node270483&#45;&gt;Node270484</title>
<path fill="none" stroke="#191970" d="M570.3476,-36.6908C578.7739,-37.8724 587.4767,-39.0927 595.9083,-40.275"/>
<polygon fill="#191970" stroke="#191970" points="570.6325,-33.1966 560.2433,-35.274 569.6604,-40.1288 570.6325,-33.1966"/>
</g>
<!-- Node270487 -->
<g id="node5" class="node">
<title>Node270487</title>
<g id="a_node5"><a xlink:href="quickjs-libc_8c.html#a1fbb3adc15e7b967479fc1940e99b67a" target="_top" xlink:title="worker_func">
<polygon fill="none" stroke="#ff0000" points="616,-.5 616,-19.5 686,-19.5 686,-.5 616,-.5"/>
<text text-anchor="middle" x="651" y="-7.5" font-family="Helvetica,sans-Serif" font-size="10.00" fill="#000000">worker_func</text>
</a>
</g>
</g>
<!-- Node270483&#45;&gt;Node270487 -->
<g id="edge4" class="edge">
<title>Node270483&#45;&gt;Node270487</title>
<path fill="none" stroke="#191970" d="M570.1712,-21.3339C585.5364,-19.1794 601.8347,-16.894 615.7403,-14.9442"/>
<polygon fill="#191970" stroke="#191970" points="569.6604,-17.8712 560.2433,-22.726 570.6325,-24.8034 569.6604,-17.8712"/>
</g>
<!-- Node270491&#45;&gt;Node270482 -->
<g id="edge6" class="edge">
<title>Node270491&#45;&gt;Node270482</title>
<path fill="none" stroke="#191970" d="M267.316,-17.967C275.7553,-18.93 284.3836,-19.9147 292.8419,-20.8799"/>
<polygon fill="#191970" stroke="#191970" points="267.4724,-14.4622 257.14,-16.8058 266.6787,-21.4171 267.4724,-14.4622"/>
</g>
</g>
</svg>
