<?xml version="1.0" encoding="UTF-8" standalone="no"?>
<!DOCTYPE svg PUBLIC "-//W3C//DTD SVG 1.1//EN"
 "http://www.w3.org/Graphics/SVG/1.1/DTD/svg11.dtd">
<!-- Generated by graphviz version 2.40.1 (20161225.0304)
 -->
<!-- Title: JS_AddIntrinsicAtomics Pages: 1 -->
<svg width="578pt" height="66pt"
 viewBox="0.00 0.00 578.00 66.00" xmlns="http://www.w3.org/2000/svg" xmlns:xlink="http://www.w3.org/1999/xlink">
<g id="graph0" class="graph" transform="scale(1 1) rotate(0) translate(4 62)">
<title>JS_AddIntrinsicAtomics</title>
<!-- Node487865 -->
<g id="node1" class="node">
<title>Node487865</title>
<polygon fill="#bfbfbf" stroke="#000000" points="0,-19.5 0,-38.5 122,-38.5 122,-19.5 0,-19.5"/>
<text text-anchor="middle" x="61" y="-26.5" font-family="Helvetica,sans-Serif" font-size="10.00" fill="#000000">JS_AddIntrinsicAtomics</text>
</g>
<!-- Node487866 -->
<g id="node2" class="node">
<title>Node487866</title>
<g id="a_node2"><a xlink:href="quickjs_8c.html#a177d09828596bfe6df4bd90b2e93989d" target="_top" xlink:title="JS_AddIntrinsicTypedArrays">
<polygon fill="none" stroke="#000000" points="158,-19.5 158,-38.5 299,-38.5 299,-19.5 158,-19.5"/>
<text text-anchor="middle" x="228.5" y="-26.5" font-family="Helvetica,sans-Serif" font-size="10.00" fill="#000000">JS_AddIntrinsicTypedArrays</text>
</a>
</g>
</g>
<!-- Node487865&#45;&gt;Node487866 -->
<g id="edge1" class="edge">
<title>Node487865&#45;&gt;Node487866</title>
<path fill="none" stroke="#191970" d="M132.5072,-29C140.8635,-29 149.3861,-29 157.7324,-29"/>
<polygon fill="#191970" stroke="#191970" points="132.4197,-25.5001 122.4197,-29 132.4197,-32.5001 132.4197,-25.5001"/>
</g>
<!-- Node487867 -->
<g id="node3" class="node">
<title>Node487867</title>
<g id="a_node3"><a xlink:href="quickjs_8c.html#ad8aedb643b8753b7a15f6cb2df61945e" target="_top" xlink:title="JS_NewContext">
<polygon fill="none" stroke="#000000" points="335,-19.5 335,-38.5 424,-38.5 424,-19.5 335,-19.5"/>
<text text-anchor="middle" x="379.5" y="-26.5" font-family="Helvetica,sans-Serif" font-size="10.00" fill="#000000">JS_NewContext</text>
</a>
</g>
</g>
<!-- Node487866&#45;&gt;Node487867 -->
<g id="edge2" class="edge">
<title>Node487866&#45;&gt;Node487867</title>
<path fill="none" stroke="#191970" d="M309.3813,-29C318.0943,-29 326.7113,-29 334.7649,-29"/>
<polygon fill="#191970" stroke="#191970" points="309.1368,-25.5001 299.1368,-29 309.1367,-32.5001 309.1368,-25.5001"/>
</g>
<!-- Node487868 -->
<g id="node4" class="node">
<title>Node487868</title>
<g id="a_node4"><a xlink:href="classqjs_1_1Context.html#a4392a23648acfc4bf6b445336efb5007" target="_top" xlink:title="qjs::Context::Context">
<polygon fill="none" stroke="#ff0000" points="460,-38.5 460,-57.5 570,-57.5 570,-38.5 460,-38.5"/>
<text text-anchor="middle" x="515" y="-45.5" font-family="Helvetica,sans-Serif" font-size="10.00" fill="#000000">qjs::Context::Context</text>
</a>
</g>
</g>
<!-- Node487867&#45;&gt;Node487868 -->
<g id="edge3" class="edge">
<title>Node487867&#45;&gt;Node487868</title>
<path fill="none" stroke="#191970" d="M434.3476,-36.6908C442.7739,-37.8724 451.4767,-39.0927 459.9083,-40.275"/>
<polygon fill="#191970" stroke="#191970" points="434.6325,-33.1966 424.2433,-35.274 433.6604,-40.1288 434.6325,-33.1966"/>
</g>
<!-- Node487871 -->
<g id="node5" class="node">
<title>Node487871</title>
<g id="a_node5"><a xlink:href="quickjs-libc_8c.html#a1fbb3adc15e7b967479fc1940e99b67a" target="_top" xlink:title="worker_func">
<polygon fill="none" stroke="#ff0000" points="480,-.5 480,-19.5 550,-19.5 550,-.5 480,-.5"/>
<text text-anchor="middle" x="515" y="-7.5" font-family="Helvetica,sans-Serif" font-size="10.00" fill="#000000">worker_func</text>
</a>
</g>
</g>
<!-- Node487867&#45;&gt;Node487871 -->
<g id="edge4" class="edge">
<title>Node487867&#45;&gt;Node487871</title>
<path fill="none" stroke="#191970" d="M434.1712,-21.3339C449.5364,-19.1794 465.8347,-16.894 479.7403,-14.9442"/>
<polygon fill="#191970" stroke="#191970" points="433.6604,-17.8712 424.2433,-22.726 434.6325,-24.8034 433.6604,-17.8712"/>
</g>
</g>
</svg>
