<?xml version="1.0" encoding="UTF-8" standalone="no"?>
<!DOCTYPE svg PUBLIC "-//W3C//DTD SVG 1.1//EN"
 "http://www.w3.org/Graphics/SVG/1.1/DTD/svg11.dtd">
<!-- Generated by graphviz version 2.40.1 (20161225.0304)
 -->
<!-- Title: js_async_function_call Pages: 1 -->
<svg width="553pt" height="66pt"
 viewBox="0.00 0.00 553.00 66.00" xmlns="http://www.w3.org/2000/svg" xmlns:xlink="http://www.w3.org/1999/xlink">
<g id="graph0" class="graph" transform="scale(1 1) rotate(0) translate(4 62)">
<title>js_async_function_call</title>
<!-- Node303544 -->
<g id="node1" class="node">
<title>Node303544</title>
<polygon fill="#bfbfbf" stroke="#000000" points="0,-19.5 0,-38.5 116,-38.5 116,-19.5 0,-19.5"/>
<text text-anchor="middle" x="58" y="-26.5" font-family="Helvetica,sans-Serif" font-size="10.00" fill="#000000">js_async_function_call</text>
</g>
<!-- Node303545 -->
<g id="node2" class="node">
<title>Node303545</title>
<g id="a_node2"><a xlink:href="quickjs_8c.html#a2e66fcf1bc1d19f346317f10ee590621" target="_top" xlink:title="JS_AddIntrinsicPromise">
<polygon fill="none" stroke="#000000" points="152,-19.5 152,-38.5 274,-38.5 274,-19.5 152,-19.5"/>
<text text-anchor="middle" x="213" y="-26.5" font-family="Helvetica,sans-Serif" font-size="10.00" fill="#000000">JS_AddIntrinsicPromise</text>
</a>
</g>
</g>
<!-- Node303544&#45;&gt;Node303545 -->
<g id="edge1" class="edge">
<title>Node303544&#45;&gt;Node303545</title>
<path fill="none" stroke="#191970" d="M126.4174,-29C134.9118,-29 143.5538,-29 151.9276,-29"/>
<polygon fill="#191970" stroke="#191970" points="126.1573,-25.5001 116.1573,-29 126.1572,-32.5001 126.1573,-25.5001"/>
</g>
<!-- Node303546 -->
<g id="node3" class="node">
<title>Node303546</title>
<g id="a_node3"><a xlink:href="quickjs_8c.html#ad8aedb643b8753b7a15f6cb2df61945e" target="_top" xlink:title="JS_NewContext">
<polygon fill="none" stroke="#000000" points="310,-19.5 310,-38.5 399,-38.5 399,-19.5 310,-19.5"/>
<text text-anchor="middle" x="354.5" y="-26.5" font-family="Helvetica,sans-Serif" font-size="10.00" fill="#000000">JS_NewContext</text>
</a>
</g>
</g>
<!-- Node303545&#45;&gt;Node303546 -->
<g id="edge2" class="edge">
<title>Node303545&#45;&gt;Node303546</title>
<path fill="none" stroke="#191970" d="M284.3807,-29C293.0398,-29 301.6863,-29 309.8014,-29"/>
<polygon fill="#191970" stroke="#191970" points="284.241,-25.5001 274.241,-29 284.241,-32.5001 284.241,-25.5001"/>
</g>
<!-- Node303547 -->
<g id="node4" class="node">
<title>Node303547</title>
<g id="a_node4"><a xlink:href="classqjs_1_1Context.html#a4392a23648acfc4bf6b445336efb5007" target="_top" xlink:title="qjs::Context::Context">
<polygon fill="none" stroke="#ff0000" points="435,-38.5 435,-57.5 545,-57.5 545,-38.5 435,-38.5"/>
<text text-anchor="middle" x="490" y="-45.5" font-family="Helvetica,sans-Serif" font-size="10.00" fill="#000000">qjs::Context::Context</text>
</a>
</g>
</g>
<!-- Node303546&#45;&gt;Node303547 -->
<g id="edge3" class="edge">
<title>Node303546&#45;&gt;Node303547</title>
<path fill="none" stroke="#191970" d="M409.3476,-36.6908C417.7739,-37.8724 426.4767,-39.0927 434.9083,-40.275"/>
<polygon fill="#191970" stroke="#191970" points="409.6325,-33.1966 399.2433,-35.274 408.6604,-40.1288 409.6325,-33.1966"/>
</g>
<!-- Node303550 -->
<g id="node5" class="node">
<title>Node303550</title>
<g id="a_node5"><a xlink:href="quickjs-libc_8c.html#a1fbb3adc15e7b967479fc1940e99b67a" target="_top" xlink:title="worker_func">
<polygon fill="none" stroke="#ff0000" points="455,-.5 455,-19.5 525,-19.5 525,-.5 455,-.5"/>
<text text-anchor="middle" x="490" y="-7.5" font-family="Helvetica,sans-Serif" font-size="10.00" fill="#000000">worker_func</text>
</a>
</g>
</g>
<!-- Node303546&#45;&gt;Node303550 -->
<g id="edge4" class="edge">
<title>Node303546&#45;&gt;Node303550</title>
<path fill="none" stroke="#191970" d="M409.1712,-21.3339C424.5364,-19.1794 440.8347,-16.894 454.7403,-14.9442"/>
<polygon fill="#191970" stroke="#191970" points="408.6604,-17.8712 399.2433,-22.726 409.6325,-24.8034 408.6604,-17.8712"/>
</g>
</g>
</svg>
