<?xml version="1.0" encoding="UTF-8" standalone="no"?>
<!DOCTYPE svg PUBLIC "-//W3C//DTD SVG 1.1//EN"
 "http://www.w3.org/Graphics/SVG/1.1/DTD/svg11.dtd">
<!-- Generated by graphviz version 2.40.1 (20161225.0304)
 -->
<!-- Title: js_typed_array_constructor Pages: 1 -->
<!--zoomable 332 -->
<svg id="main" version="1.1" xmlns="http://www.w3.org/2000/svg" xmlns:xlink="http://www.w3.org/1999/xlink" xml:space="preserve" onload="init(evt)">
<style type="text/css"><![CDATA[
.edge:hover path { stroke: red; }
.edge:hover polygon { stroke: red; fill: red; }
]]></style>
<script type="text/javascript"><![CDATA[
var edges = document.getElementsByTagName('g');
if (edges && edges.length) {
  for (var i=0;i<edges.length;i++) {
    if (edges[i].id.substr(0,4)=='edge') {
      edges[i].setAttribute('class','edge');
    }
  }
}
]]></script>
        <defs>
                <circle id="rim" cx="0" cy="0" r="7"/>
                <circle id="rim2" cx="0" cy="0" r="3.5"/>
                <g id="zoomPlus">
                        <use xlink:href="#rim" fill="#404040">
                                <set attributeName="fill" to="#808080" begin="zoomplus.mouseover" end="zoomplus.mouseout"/>
                        </use>
                        <path d="M-4,0h8M0,-4v8" fill="none" stroke="white" stroke-width="1.5" pointer-events="none"/>
                </g>
                <g id="zoomMin">
                        <use xlink:href="#rim" fill="#404040">
                                <set attributeName="fill" to="#808080" begin="zoomminus.mouseover" end="zoomminus.mouseout"/>
                        </use>
                        <path d="M-4,0h8" fill="none" stroke="white" stroke-width="1.5" pointer-events="none"/>
                </g>
                <g id="dirArrow">
                        <path fill="none" stroke="white" stroke-width="1.5" d="M0,-3.0v7 M-2.5,-0.5L0,-3.0L2.5,-0.5"/>
                </g>
               <g id="resetDef">
                       <use xlink:href="#rim2" fill="#404040">
                               <set attributeName="fill" to="#808080" begin="reset.mouseover" end="reset.mouseout"/>
                       </use>
               </g>
        </defs>

<script type="text/javascript">
var viewWidth = 625;
var viewHeight = 332;
var sectionId = 'dynsection-62';
</script>
<script xlink:href="svgpan.js"/>
<svg id="graph" class="graph">
<g id="viewport">
<title>js_typed_array_constructor</title>
<!-- Node22009 -->
<g id="node1" class="node">
<title>Node22009</title>
<polygon fill="#bfbfbf" stroke="#000000" points="0,-133.5 0,-152.5 134,-152.5 134,-133.5 0,-133.5"/>
<text text-anchor="middle" x="67" y="-140.5" font-family="Helvetica,sans-Serif" font-size="10.00" fill="#000000">js_typed_array_constructor</text>
</g>
<!-- Node22010 -->
<g id="node2" class="node">
<title>Node22010</title>
<g id="a_node2"><a xlink:href="quickjs_8c.html#a177d09828596bfe6df4bd90b2e93989d" target="_top" xlink:title="JS_AddIntrinsicTypedArrays">
<polygon fill="none" stroke="#000000" points="170,-228.5 170,-247.5 311,-247.5 311,-228.5 170,-228.5"/>
<text text-anchor="middle" x="240.5" y="-235.5" font-family="Helvetica,sans-Serif" font-size="10.00" fill="#000000">JS_AddIntrinsicTypedArrays</text>
</a>
</g>
</g>
<!-- Node22009&#45;&gt;Node22010 -->
<g id="edge1" class="edge">
<title>Node22009&#45;&gt;Node22010</title>
<path fill="none" stroke="#191970" d="M93.5336,-157.5285C129.4843,-177.2133 192.6662,-211.8086 223.1205,-228.4838"/>
<polygon fill="#191970" stroke="#191970" points="95.0431,-154.3647 84.5909,-152.6319 91.6812,-160.5046 95.0431,-154.3647"/>
</g>
<!-- Node22019 -->
<g id="node6" class="node">
<title>Node22019</title>
<g id="a_node6"><a xlink:href="quickjs_8c.html#a00910faacc776e3c2c225aa117aab450" target="_top" xlink:title="JS_ReadTypedArray">
<polygon fill="none" stroke="#000000" points="187,-133.5 187,-152.5 294,-152.5 294,-133.5 187,-133.5"/>
<text text-anchor="middle" x="240.5" y="-140.5" font-family="Helvetica,sans-Serif" font-size="10.00" fill="#000000">JS_ReadTypedArray</text>
</a>
</g>
</g>
<!-- Node22009&#45;&gt;Node22019 -->
<g id="edge5" class="edge">
<title>Node22009&#45;&gt;Node22019</title>
<path fill="none" stroke="#191970" d="M144.4102,-143C158.7116,-143 173.3556,-143 186.763,-143"/>
<polygon fill="#191970" stroke="#191970" points="144.0797,-139.5001 134.0796,-143 144.0796,-146.5001 144.0797,-139.5001"/>
</g>
<!-- Node22030 -->
<g id="node15" class="node">
<title>Node22030</title>
<g id="a_node15"><a xlink:href="quickjs_8c.html#ae5a8e884ec4a3364f63ebfeae6b08bdc" target="_top" xlink:title="js_typed_array___species\lCreate">
<polygon fill="none" stroke="#000000" points="175.5,-68 175.5,-98 305.5,-98 305.5,-68 175.5,-68"/>
<text text-anchor="start" x="183.5" y="-86" font-family="Helvetica,sans-Serif" font-size="10.00" fill="#000000">js_typed_array___species</text>
<text text-anchor="middle" x="240.5" y="-75" font-family="Helvetica,sans-Serif" font-size="10.00" fill="#000000">Create</text>
</a>
</g>
</g>
<!-- Node22009&#45;&gt;Node22030 -->
<g id="edge21" class="edge">
<title>Node22009&#45;&gt;Node22030</title>
<path fill="none" stroke="#191970" d="M104.0343,-130.1928C131.2368,-120.7856 168.2845,-107.9737 196.9146,-98.0728"/>
<polygon fill="#191970" stroke="#191970" points="102.7985,-126.9167 94.4916,-133.4928 105.0864,-133.5322 102.7985,-126.9167"/>
</g>
<!-- Node22011 -->
<g id="node3" class="node">
<title>Node22011</title>
<g id="a_node3"><a xlink:href="quickjs_8c.html#ad8aedb643b8753b7a15f6cb2df61945e" target="_top" xlink:title="JS_NewContext">
<polygon fill="none" stroke="#000000" points="364,-266.5 364,-285.5 453,-285.5 453,-266.5 364,-266.5"/>
<text text-anchor="middle" x="408.5" y="-273.5" font-family="Helvetica,sans-Serif" font-size="10.00" fill="#000000">JS_NewContext</text>
</a>
</g>
</g>
<!-- Node22010&#45;&gt;Node22011 -->
<g id="edge2" class="edge">
<title>Node22010&#45;&gt;Node22011</title>
<path fill="none" stroke="#191970" d="M292.7757,-249.8243C316.4607,-255.1816 344.0903,-261.4311 366.4114,-266.4799"/>
<polygon fill="#191970" stroke="#191970" points="293.4193,-246.3815 282.8935,-247.589 291.8749,-253.209 293.4193,-246.3815"/>
</g>
<!-- Node22012 -->
<g id="node4" class="node">
<title>Node22012</title>
<g id="a_node4"><a xlink:href="classqjs_1_1Context.html#a4392a23648acfc4bf6b445336efb5007" target="_top" xlink:title="qjs::Context::Context">
<polygon fill="none" stroke="#ff0000" points="506.5,-304.5 506.5,-323.5 616.5,-323.5 616.5,-304.5 506.5,-304.5"/>
<text text-anchor="middle" x="561.5" y="-311.5" font-family="Helvetica,sans-Serif" font-size="10.00" fill="#000000">qjs::Context::Context</text>
</a>
</g>
</g>
<!-- Node22011&#45;&gt;Node22012 -->
<g id="edge3" class="edge">
<title>Node22011&#45;&gt;Node22012</title>
<path fill="none" stroke="#191970" d="M456.9768,-288.04C478.3517,-293.3488 503.1134,-299.4988 523.1693,-304.4799"/>
<polygon fill="#191970" stroke="#191970" points="457.6572,-284.6027 447.1084,-285.589 455.9698,-291.3963 457.6572,-284.6027"/>
</g>
<!-- Node22015 -->
<g id="node5" class="node">
<title>Node22015</title>
<g id="a_node5"><a xlink:href="quickjs-libc_8c.html#a1fbb3adc15e7b967479fc1940e99b67a" target="_top" xlink:title="worker_func">
<polygon fill="none" stroke="#ff0000" points="526.5,-266.5 526.5,-285.5 596.5,-285.5 596.5,-266.5 526.5,-266.5"/>
<text text-anchor="middle" x="561.5" y="-273.5" font-family="Helvetica,sans-Serif" font-size="10.00" fill="#000000">worker_func</text>
</a>
</g>
</g>
<!-- Node22011&#45;&gt;Node22015 -->
<g id="edge4" class="edge">
<title>Node22011&#45;&gt;Node22015</title>
<path fill="none" stroke="#191970" d="M463.2421,-276C484.2216,-276 507.5825,-276 526.2607,-276"/>
<polygon fill="#191970" stroke="#191970" points="463.1653,-272.5001 453.1652,-276 463.1652,-279.5001 463.1653,-272.5001"/>
</g>
<!-- Node22020 -->
<g id="node7" class="node">
<title>Node22020</title>
<g id="a_node7"><a xlink:href="quickjs_8c.html#a4b8ef2bb3b35e4a5f6ed8bd837a50e7c" target="_top" xlink:title="JS_ReadObjectRec">
<polygon fill="none" stroke="#000000" points="356.5,-133.5 356.5,-152.5 460.5,-152.5 460.5,-133.5 356.5,-133.5"/>
<text text-anchor="middle" x="408.5" y="-140.5" font-family="Helvetica,sans-Serif" font-size="10.00" fill="#000000">JS_ReadObjectRec</text>
</a>
</g>
</g>
<!-- Node22019&#45;&gt;Node22020 -->
<g id="edge6" class="edge">
<title>Node22019&#45;&gt;Node22020</title>
<path fill="none" stroke="#191970" d="M304.5729,-136.4217C321.6496,-136.1223 339.8923,-136.2145 356.2512,-136.6983"/>
<polygon fill="#191970" stroke="#191970" points="304.0362,-132.9329 294.1182,-136.6588 304.195,-139.9311 304.0362,-132.9329"/>
</g>
<!-- Node22020&#45;&gt;Node22019 -->
<g id="edge15" class="edge">
<title>Node22020&#45;&gt;Node22019</title>
<path fill="none" stroke="#191970" d="M345.8493,-149.5524C328.8398,-149.8736 310.5795,-149.8032 294.1182,-149.3412"/>
<polygon fill="#191970" stroke="#191970" points="346.3384,-153.0417 356.2512,-149.3017 346.1698,-146.0437 346.3384,-153.0417"/>
</g>
<!-- Node22021 -->
<g id="node8" class="node">
<title>Node22021</title>
<g id="a_node8"><a xlink:href="quickjs_8c.html#a367627778ac537f4bb1f0fd07a2dee1b" target="_top" xlink:title="JS_ReadFunctionTag">
<polygon fill="none" stroke="#000000" points="506,-228.5 506,-247.5 617,-247.5 617,-228.5 506,-228.5"/>
<text text-anchor="middle" x="561.5" y="-235.5" font-family="Helvetica,sans-Serif" font-size="10.00" fill="#000000">JS_ReadFunctionTag</text>
</a>
</g>
</g>
<!-- Node22020&#45;&gt;Node22021 -->
<g id="edge7" class="edge">
<title>Node22020&#45;&gt;Node22021</title>
<path fill="none" stroke="#191970" d="M433.5959,-158.9043C452.3763,-173.8985 479.3185,-195.5631 506,-210 520.3316,-217.7546 538.4284,-223.2378 549.9856,-228.457"/>
<polygon fill="#191970" stroke="#191970" points="435.5799,-156.0106 425.5716,-152.5344 431.2277,-161.4932 435.5799,-156.0106"/>
</g>
<!-- Node22022 -->
<g id="node9" class="node">
<title>Node22022</title>
<g id="a_node9"><a xlink:href="quickjs_8c.html#a21c7b14be807f7ce7f71c19e2e80380c" target="_top" xlink:title="JS_ReadModule">
<polygon fill="none" stroke="#000000" points="517,-190.5 517,-209.5 606,-209.5 606,-190.5 517,-190.5"/>
<text text-anchor="middle" x="561.5" y="-197.5" font-family="Helvetica,sans-Serif" font-size="10.00" fill="#000000">JS_ReadModule</text>
</a>
</g>
</g>
<!-- Node22020&#45;&gt;Node22022 -->
<g id="edge9" class="edge">
<title>Node22020&#45;&gt;Node22022</title>
<path fill="none" stroke="#191970" d="M462.9766,-155.9914C476.9556,-161.1345 491.9991,-166.8776 506,-172 522.0682,-177.8787 540.9487,-184.2242 552.0304,-190.4357"/>
<polygon fill="#191970" stroke="#191970" points="464.0889,-152.6717 453.4948,-152.5417 461.6955,-159.2499 464.0889,-152.6717"/>
</g>
<!-- Node22023 -->
<g id="node10" class="node">
<title>Node22023</title>
<g id="a_node10"><a xlink:href="quickjs_8c.html#ad0e3230c3896c2048283a9302f184fb4" target="_top" xlink:title="JS_ReadObjectTag">
<polygon fill="none" stroke="#000000" points="510.5,-152.5 510.5,-171.5 612.5,-171.5 612.5,-152.5 510.5,-152.5"/>
<text text-anchor="middle" x="561.5" y="-159.5" font-family="Helvetica,sans-Serif" font-size="10.00" fill="#000000">JS_ReadObjectTag</text>
</a>
</g>
</g>
<!-- Node22020&#45;&gt;Node22023 -->
<g id="edge11" class="edge">
<title>Node22020&#45;&gt;Node22023</title>
<path fill="none" stroke="#191970" d="M470.809,-144.092C490.9893,-146.2983 512.5349,-149.3203 529.5601,-152.4269"/>
<polygon fill="#191970" stroke="#191970" points="471.0335,-140.5966 460.726,-143.0471 470.3119,-147.5593 471.0335,-140.5966"/>
</g>
<!-- Node22024 -->
<g id="node11" class="node">
<title>Node22024</title>
<g id="a_node11"><a xlink:href="quickjs_8c.html#a18da561cb430d36d47200cd3ab394984" target="_top" xlink:title="JS_ReadArray">
<polygon fill="none" stroke="#000000" points="521.5,-114.5 521.5,-133.5 601.5,-133.5 601.5,-114.5 521.5,-114.5"/>
<text text-anchor="middle" x="561.5" y="-121.5" font-family="Helvetica,sans-Serif" font-size="10.00" fill="#000000">JS_ReadArray</text>
</a>
</g>
</g>
<!-- Node22020&#45;&gt;Node22024 -->
<g id="edge13" class="edge">
<title>Node22020&#45;&gt;Node22024</title>
<path fill="none" stroke="#191970" d="M450.309,-131.7172C472.4456,-128.0663 499.4988,-124.7304 521.3776,-122.9626"/>
<polygon fill="#191970" stroke="#191970" points="449.4563,-128.3127 440.2017,-133.4705 450.6528,-135.2097 449.4563,-128.3127"/>
</g>
<!-- Node22025 -->
<g id="node12" class="node">
<title>Node22025</title>
<g id="a_node12"><a xlink:href="quickjs_8c.html#a8fce6f70a6fc880eabcdb9883e3753f2" target="_top" xlink:title="JS_ReadDate">
<polygon fill="none" stroke="#000000" points="522.5,-76.5 522.5,-95.5 600.5,-95.5 600.5,-76.5 522.5,-76.5"/>
<text text-anchor="middle" x="561.5" y="-83.5" font-family="Helvetica,sans-Serif" font-size="10.00" fill="#000000">JS_ReadDate</text>
</a>
</g>
</g>
<!-- Node22020&#45;&gt;Node22025 -->
<g id="edge16" class="edge">
<title>Node22020&#45;&gt;Node22025</title>
<path fill="none" stroke="#191970" d="M429.6663,-129.6076C441.687,-125.1371 456.9038,-120.4236 470,-115 486.715,-108.0777 489.3914,-103.1738 506,-96 511.2357,-93.7385 516.8366,-91.5572 522.3923,-89.6235"/>
<polygon fill="#191970" stroke="#191970" points="428.0221,-126.4968 420.0589,-133.4853 430.6421,-132.988 428.0221,-126.4968"/>
</g>
<!-- Node22026 -->
<g id="node13" class="node">
<title>Node22026</title>
<g id="a_node13"><a xlink:href="quickjs_8c.html#aa329df3dbab623ec017b77cb77bcce2f" target="_top" xlink:title="JS_ReadObjectValue">
<polygon fill="none" stroke="#000000" points="506.5,-38.5 506.5,-57.5 616.5,-57.5 616.5,-38.5 506.5,-38.5"/>
<text text-anchor="middle" x="561.5" y="-45.5" font-family="Helvetica,sans-Serif" font-size="10.00" fill="#000000">JS_ReadObjectValue</text>
</a>
</g>
</g>
<!-- Node22020&#45;&gt;Node22026 -->
<g id="edge18" class="edge">
<title>Node22020&#45;&gt;Node22026</title>
<path fill="none" stroke="#191970" d="M436.0934,-130.54C447.4556,-127.0538 460.2185,-122.491 470,-115 493.7883,-96.782 482.4895,-76.575 506,-58 506.1598,-57.8737 506.3205,-57.7483 506.4821,-57.6236"/>
<polygon fill="#191970" stroke="#191970" points="434.7637,-127.284 426.1783,-133.4921 436.7613,-133.9929 434.7637,-127.284"/>
</g>
<!-- Node22027 -->
<g id="node14" class="node">
<title>Node22027</title>
<g id="a_node14"><a xlink:href="quickjs_8c.html#a12be2ea9c010752715072489497594e9" target="_top" xlink:title="JS_ReadObject">
<polygon fill="none" stroke="#ff0000" points="518.5,-.5 518.5,-19.5 604.5,-19.5 604.5,-.5 518.5,-.5"/>
<text text-anchor="middle" x="561.5" y="-7.5" font-family="Helvetica,sans-Serif" font-size="10.00" fill="#000000">JS_ReadObject</text>
</a>
</g>
</g>
<!-- Node22020&#45;&gt;Node22027 -->
<g id="edge20" class="edge">
<title>Node22020&#45;&gt;Node22027</title>
<path fill="none" stroke="#191970" d="M464.5802,-128.3701C466.4951,-127.0382 468.3124,-125.5852 470,-124 502.9107,-93.0872 473.5598,-60.4062 506,-29 510.0244,-25.1039 514.8814,-22.0048 520.0273,-19.5403"/>
<polygon fill="#191970" stroke="#191970" points="462.6046,-125.4678 455.6586,-133.4681 466.0776,-131.5456 462.6046,-125.4678"/>
</g>
<!-- Node22021&#45;&gt;Node22020 -->
<g id="edge8" class="edge">
<title>Node22021&#45;&gt;Node22020</title>
<path fill="none" stroke="#191970" d="M498.0283,-223.4446C461.6174,-201.7967 427.0137,-169.5726 413.9597,-152.7326"/>
<polygon fill="#191970" stroke="#191970" points="496.3864,-226.5372 506.8101,-228.4338 499.8442,-220.4508 496.3864,-226.5372"/>
</g>
<!-- Node22022&#45;&gt;Node22020 -->
<g id="edge10" class="edge">
<title>Node22022&#45;&gt;Node22020</title>
<path fill="none" stroke="#191970" d="M507.3332,-190.4865C506.8868,-190.324 506.4424,-190.1618 506,-190 473.9249,-178.2649 436.3777,-163.2721 418.6939,-152.5707"/>
<polygon fill="#191970" stroke="#191970" points="506.3176,-193.8399 516.9124,-193.8913 508.6621,-187.2442 506.3176,-193.8399"/>
</g>
<!-- Node22023&#45;&gt;Node22020 -->
<g id="edge12" class="edge">
<title>Node22023&#45;&gt;Node22020</title>
<path fill="none" stroke="#191970" d="M500.3077,-161.0294C479.7141,-158.8031 457.5775,-155.7089 440.2017,-152.5295"/>
<polygon fill="#191970" stroke="#191970" points="499.9611,-164.5121 510.2657,-162.0491 500.6743,-157.5485 499.9611,-164.5121"/>
</g>
<!-- Node22024&#45;&gt;Node22020 -->
<g id="edge14" class="edge">
<title>Node22024&#45;&gt;Node22020</title>
<path fill="none" stroke="#191970" d="M519.5613,-135.3042C501.3879,-138.2978 479.9198,-141.0779 460.726,-142.9529"/>
<polygon fill="#191970" stroke="#191970" points="520.3038,-138.7278 529.5601,-133.5731 519.1096,-131.8304 520.3038,-138.7278"/>
</g>
<!-- Node22025&#45;&gt;Node22020 -->
<g id="edge17" class="edge">
<title>Node22025&#45;&gt;Node22020</title>
<path fill="none" stroke="#191970" d="M541.7695,-99.898C531.0378,-104.3572 517.6197,-108.9811 506,-114 489.3914,-121.1738 486.715,-126.0777 470,-133 467.0058,-134.24 463.9009,-135.4428 460.7486,-136.588"/>
<polygon fill="#191970" stroke="#191970" points="543.4314,-102.9874 551.0892,-95.6656 540.5369,-96.6138 543.4314,-102.9874"/>
</g>
<!-- Node22026&#45;&gt;Node22020 -->
<g id="edge19" class="edge">
<title>Node22026&#45;&gt;Node22020</title>
<path fill="none" stroke="#191970" d="M536.7914,-60.9028C526.4825,-64.489 514.8703,-68.9918 506,-76 482.4895,-94.575 493.7883,-114.782 470,-133 467.0722,-135.2422 463.8773,-137.2221 460.5328,-138.9507"/>
<polygon fill="#191970" stroke="#191970" points="538.1948,-64.1216 546.5158,-57.5633 535.9212,-57.5011 538.1948,-64.1216"/>
</g>
<!-- Node22031 -->
<g id="node16" class="node">
<title>Node22031</title>
<g id="a_node16"><a xlink:href="quickjs_8c.html#aa0bbf08a7e91459c68a312fba7016c6d" target="_top" xlink:title="js_array_every">
<polygon fill="none" stroke="#000000" points="368.5,-95.5 368.5,-114.5 448.5,-114.5 448.5,-95.5 368.5,-95.5"/>
<text text-anchor="middle" x="408.5" y="-102.5" font-family="Helvetica,sans-Serif" font-size="10.00" fill="#000000">js_array_every</text>
</a>
</g>
</g>
<!-- Node22030&#45;&gt;Node22031 -->
<g id="edge22" class="edge">
<title>Node22030&#45;&gt;Node22031</title>
<path fill="none" stroke="#191970" d="M315.8788,-92.871C333.917,-95.2332 352.491,-97.6655 368.2264,-99.7261"/>
<polygon fill="#191970" stroke="#191970" points="316.3041,-89.3969 305.9342,-91.5688 315.3951,-96.3377 316.3041,-89.3969"/>
</g>
<!-- Node22032 -->
<g id="node17" class="node">
<title>Node22032</title>
<g id="a_node17"><a xlink:href="quickjs_8c.html#a04f45f4b341a84aa1039cfd862adbcd2" target="_top" xlink:title="js_typed_array_slice">
<polygon fill="none" stroke="#000000" points="355.5,-57.5 355.5,-76.5 461.5,-76.5 461.5,-57.5 355.5,-57.5"/>
<text text-anchor="middle" x="408.5" y="-64.5" font-family="Helvetica,sans-Serif" font-size="10.00" fill="#000000">js_typed_array_slice</text>
</a>
</g>
</g>
<!-- Node22030&#45;&gt;Node22032 -->
<g id="edge23" class="edge">
<title>Node22030&#45;&gt;Node22032</title>
<path fill="none" stroke="#191970" d="M316.0283,-75.8068C329.3305,-74.54 342.919,-73.2458 355.4411,-72.0532"/>
<polygon fill="#191970" stroke="#191970" points="315.5573,-72.3358 305.9342,-76.7682 316.2211,-79.3042 315.5573,-72.3358"/>
</g>
<!-- Node22033 -->
<g id="node18" class="node">
<title>Node22033</title>
<g id="a_node18"><a xlink:href="quickjs_8c.html#a355310420e303302c981eb7c73a222fb" target="_top" xlink:title="js_typed_array_subarray">
<polygon fill="none" stroke="#000000" points="347,-19.5 347,-38.5 470,-38.5 470,-19.5 347,-19.5"/>
<text text-anchor="middle" x="408.5" y="-26.5" font-family="Helvetica,sans-Serif" font-size="10.00" fill="#000000">js_typed_array_subarray</text>
</a>
</g>
</g>
<!-- Node22030&#45;&gt;Node22033 -->
<g id="edge24" class="edge">
<title>Node22030&#45;&gt;Node22033</title>
<path fill="none" stroke="#191970" d="M295.3309,-64.7727C311.9121,-59.3167 330.1815,-53.3611 347,-48 356.7954,-44.8776 367.4931,-41.5456 377.1795,-38.5578"/>
<polygon fill="#191970" stroke="#191970" points="294.1884,-61.464 285.787,-67.9191 296.3801,-68.112 294.1884,-61.464"/>
</g>
</g>
</svg>
        <g id="navigator" transform="translate(0 0)" fill="#404254">
                <rect fill="#f2f5e9" fill-opacity="0.5" stroke="#606060" stroke-width=".5" x="0" y="0" width="60" height="60"/>
                <use id="zoomplus" xlink:href="#zoomPlus" x="17" y="9" onmousedown="handleZoom(evt,'in')"/>
                <use id="zoomminus" xlink:href="#zoomMin" x="42" y="9" onmousedown="handleZoom(evt,'out')"/>
                <use id="reset" xlink:href="#resetDef" x="30" y="36" onmousedown="handleReset()"/>
                <g id="arrowUp" xlink:href="#dirArrow" transform="translate(30 24)" onmousedown="handlePan(0,-1)">
                  <use xlink:href="#rim" fill="#404040">
                        <set attributeName="fill" to="#808080" begin="arrowUp.mouseover" end="arrowUp.mouseout"/>
                  </use>
                  <path fill="none" stroke="white" stroke-width="1.5" d="M0,-3.0v7 M-2.5,-0.5L0,-3.0L2.5,-0.5"/>
                </g>
                <g id="arrowRight" xlink:href="#dirArrow" transform="rotate(90) translate(36 -43)" onmousedown="handlePan(1,0)">
                  <use xlink:href="#rim" fill="#404040">
                        <set attributeName="fill" to="#808080" begin="arrowRight.mouseover" end="arrowRight.mouseout"/>
                  </use>
                  <path fill="none" stroke="white" stroke-width="1.5" d="M0,-3.0v7 M-2.5,-0.5L0,-3.0L2.5,-0.5"/>
                </g>
                <g id="arrowDown" xlink:href="#dirArrow" transform="rotate(180) translate(-30 -48)" onmousedown="handlePan(0,1)">
                  <use xlink:href="#rim" fill="#404040">
                        <set attributeName="fill" to="#808080" begin="arrowDown.mouseover" end="arrowDown.mouseout"/>
                  </use>
                  <path fill="none" stroke="white" stroke-width="1.5" d="M0,-3.0v7 M-2.5,-0.5L0,-3.0L2.5,-0.5"/>
                </g>
                <g id="arrowLeft" xlink:href="#dirArrow" transform="rotate(270) translate(-36 17)" onmousedown="handlePan(-1,0)">
                  <use xlink:href="#rim" fill="#404040">
                        <set attributeName="fill" to="#808080" begin="arrowLeft.mouseover" end="arrowLeft.mouseout"/>
                  </use>
                  <path fill="none" stroke="white" stroke-width="1.5" d="M0,-3.0v7 M-2.5,-0.5L0,-3.0L2.5,-0.5"/>
                </g>
        </g>
        <svg viewBox="0 0 15 15" width="100%" height="30px" preserveAspectRatio="xMaxYMin meet">
         <g id="arrow_out" transform="scale(0.3 0.3)">
          <a xlink:href="quickjs_8c_a3be661c1eaa7a31184410667862635a2_icgraph_org.svg" target="_base">
           <rect id="button" ry="5" rx="5" y="6" x="6" height="38" width="38"
                fill="#f2f5e9" fill-opacity="0.5" stroke="#606060" stroke-width="1.0"/>
           <path id="arrow"
             d="M 11.500037,31.436501 C 11.940474,20.09759 22.043105,11.32322 32.158766,21.979434 L 37.068811,17.246167 C 37.068811,17.246167 37.088388,32 37.088388,32 L 22.160133,31.978069 C 22.160133,31.978069 26.997745,27.140456 26.997745,27.140456 C 18.528582,18.264221 13.291696,25.230495 11.500037,31.436501 z"
             style="fill:#404040;"/>
          </a>
         </g>
        </svg>
</svg>
