<?xml version="1.0" encoding="UTF-8" standalone="no"?>
<!DOCTYPE svg PUBLIC "-//W3C//DTD SVG 1.1//EN"
 "http://www.w3.org/Graphics/SVG/1.1/DTD/svg11.dtd">
<!-- Generated by graphviz version 2.40.1 (20161225.0304)
 -->
<!-- Title: js_proxy_constructor Pages: 1 -->
<!--zoomable 85 -->
<svg id="main" version="1.1" xmlns="http://www.w3.org/2000/svg" xmlns:xlink="http://www.w3.org/1999/xlink" xml:space="preserve" onload="init(evt)">
<style type="text/css"><![CDATA[
.edge:hover path { stroke: red; }
.edge:hover polygon { stroke: red; fill: red; }
]]></style>
<script type="text/javascript"><![CDATA[
var edges = document.getElementsByTagName('g');
if (edges && edges.length) {
  for (var i=0;i<edges.length;i++) {
    if (edges[i].id.substr(0,4)=='edge') {
      edges[i].setAttribute('class','edge');
    }
  }
}
]]></script>
        <defs>
                <circle id="rim" cx="0" cy="0" r="7"/>
                <circle id="rim2" cx="0" cy="0" r="3.5"/>
                <g id="zoomPlus">
                        <use xlink:href="#rim" fill="#404040">
                                <set attributeName="fill" to="#808080" begin="zoomplus.mouseover" end="zoomplus.mouseout"/>
                        </use>
                        <path d="M-4,0h8M0,-4v8" fill="none" stroke="white" stroke-width="1.5" pointer-events="none"/>
                </g>
                <g id="zoomMin">
                        <use xlink:href="#rim" fill="#404040">
                                <set attributeName="fill" to="#808080" begin="zoomminus.mouseover" end="zoomminus.mouseout"/>
                        </use>
                        <path d="M-4,0h8" fill="none" stroke="white" stroke-width="1.5" pointer-events="none"/>
                </g>
                <g id="dirArrow">
                        <path fill="none" stroke="white" stroke-width="1.5" d="M0,-3.0v7 M-2.5,-0.5L0,-3.0L2.5,-0.5"/>
                </g>
               <g id="resetDef">
                       <use xlink:href="#rim2" fill="#404040">
                               <set attributeName="fill" to="#808080" begin="reset.mouseover" end="reset.mouseout"/>
                       </use>
               </g>
        </defs>

<script type="text/javascript">
var viewWidth = 533;
var viewHeight = 85;
var sectionId = 'dynsection-1664';
</script>
<script xlink:href="svgpan.js"/>
<svg id="graph" class="graph">
<g id="viewport">
<title>js_proxy_constructor</title>
<!-- Node445447 -->
<g id="node1" class="node">
<title>Node445447</title>
<polygon fill="#bfbfbf" stroke="#000000" points="0,-19.5 0,-38.5 107,-38.5 107,-19.5 0,-19.5"/>
<text text-anchor="middle" x="53.5" y="-26.5" font-family="Helvetica,sans-Serif" font-size="10.00" fill="#000000">js_proxy_constructor</text>
</g>
<!-- Node445448 -->
<g id="node2" class="node">
<title>Node445448</title>
<g id="a_node2"><a xlink:href="quickjs_8c.html#a3afdbdd7b58ef7e1dcc178c362071b3d" target="_top" xlink:title="JS_AddIntrinsicProxy">
<polygon fill="none" stroke="#000000" points="143,-38.5 143,-57.5 254,-57.5 254,-38.5 143,-38.5"/>
<text text-anchor="middle" x="198.5" y="-45.5" font-family="Helvetica,sans-Serif" font-size="10.00" fill="#000000">JS_AddIntrinsicProxy</text>
</a>
</g>
</g>
<!-- Node445447&#45;&gt;Node445448 -->
<g id="edge1" class="edge">
<title>Node445447&#45;&gt;Node445448</title>
<path fill="none" stroke="#191970" d="M117.0188,-37.3231C125.5757,-38.4444 134.3022,-39.5879 142.7114,-40.6898"/>
<polygon fill="#191970" stroke="#191970" points="117.4507,-33.8499 107.0807,-36.0209 116.5412,-40.7906 117.4507,-33.8499"/>
</g>
<!-- Node445457 -->
<g id="node6" class="node">
<title>Node445457</title>
<g id="a_node6"><a xlink:href="quickjs_8c.html#a537862df2984a40ceb9be7878c497cd2" target="_top" xlink:title="js_proxy_revocable">
<polygon fill="none" stroke="#000000" points="148,-.5 148,-19.5 249,-19.5 249,-.5 148,-.5"/>
<text text-anchor="middle" x="198.5" y="-7.5" font-family="Helvetica,sans-Serif" font-size="10.00" fill="#000000">js_proxy_revocable</text>
</a>
</g>
</g>
<!-- Node445447&#45;&gt;Node445457 -->
<g id="edge5" class="edge">
<title>Node445447&#45;&gt;Node445457</title>
<path fill="none" stroke="#191970" d="M117.1428,-20.6606C127.3139,-19.3278 137.721,-17.9641 147.5473,-16.6766"/>
<polygon fill="#191970" stroke="#191970" points="116.5412,-17.2094 107.0807,-21.9791 117.4507,-24.1501 116.5412,-17.2094"/>
</g>
<!-- Node445449 -->
<g id="node3" class="node">
<title>Node445449</title>
<g id="a_node3"><a xlink:href="quickjs_8c.html#ad8aedb643b8753b7a15f6cb2df61945e" target="_top" xlink:title="JS_NewContext">
<polygon fill="none" stroke="#000000" points="290,-38.5 290,-57.5 379,-57.5 379,-38.5 290,-38.5"/>
<text text-anchor="middle" x="334.5" y="-45.5" font-family="Helvetica,sans-Serif" font-size="10.00" fill="#000000">JS_NewContext</text>
</a>
</g>
</g>
<!-- Node445448&#45;&gt;Node445449 -->
<g id="edge2" class="edge">
<title>Node445448&#45;&gt;Node445449</title>
<path fill="none" stroke="#191970" d="M264.3248,-48C272.9894,-48 281.7011,-48 289.8964,-48"/>
<polygon fill="#191970" stroke="#191970" points="264.2088,-44.5001 254.2088,-48 264.2088,-51.5001 264.2088,-44.5001"/>
</g>
<!-- Node445450 -->
<g id="node4" class="node">
<title>Node445450</title>
<g id="a_node4"><a xlink:href="classqjs_1_1Context.html#a4392a23648acfc4bf6b445336efb5007" target="_top" xlink:title="qjs::Context::Context">
<polygon fill="none" stroke="#ff0000" points="415,-57.5 415,-76.5 525,-76.5 525,-57.5 415,-57.5"/>
<text text-anchor="middle" x="470" y="-64.5" font-family="Helvetica,sans-Serif" font-size="10.00" fill="#000000">qjs::Context::Context</text>
</a>
</g>
</g>
<!-- Node445449&#45;&gt;Node445450 -->
<g id="edge3" class="edge">
<title>Node445449&#45;&gt;Node445450</title>
<path fill="none" stroke="#191970" d="M389.3476,-55.6908C397.7739,-56.8724 406.4767,-58.0927 414.9083,-59.275"/>
<polygon fill="#191970" stroke="#191970" points="389.6325,-52.1966 379.2433,-54.274 388.6604,-59.1288 389.6325,-52.1966"/>
</g>
<!-- Node445453 -->
<g id="node5" class="node">
<title>Node445453</title>
<g id="a_node5"><a xlink:href="quickjs-libc_8c.html#a1fbb3adc15e7b967479fc1940e99b67a" target="_top" xlink:title="worker_func">
<polygon fill="none" stroke="#ff0000" points="435,-19.5 435,-38.5 505,-38.5 505,-19.5 435,-19.5"/>
<text text-anchor="middle" x="470" y="-26.5" font-family="Helvetica,sans-Serif" font-size="10.00" fill="#000000">worker_func</text>
</a>
</g>
</g>
<!-- Node445449&#45;&gt;Node445453 -->
<g id="edge4" class="edge">
<title>Node445449&#45;&gt;Node445453</title>
<path fill="none" stroke="#191970" d="M389.1712,-40.3339C404.5364,-38.1794 420.8347,-35.894 434.7403,-33.9442"/>
<polygon fill="#191970" stroke="#191970" points="388.6604,-36.8712 379.2433,-41.726 389.6325,-43.8034 388.6604,-36.8712"/>
</g>
</g>
</svg>
        <g id="navigator" transform="translate(0 0)" fill="#404254">
                <rect fill="#f2f5e9" fill-opacity="0.5" stroke="#606060" stroke-width=".5" x="0" y="0" width="60" height="60"/>
                <use id="zoomplus" xlink:href="#zoomPlus" x="17" y="9" onmousedown="handleZoom(evt,'in')"/>
                <use id="zoomminus" xlink:href="#zoomMin" x="42" y="9" onmousedown="handleZoom(evt,'out')"/>
                <use id="reset" xlink:href="#resetDef" x="30" y="36" onmousedown="handleReset()"/>
                <g id="arrowUp" xlink:href="#dirArrow" transform="translate(30 24)" onmousedown="handlePan(0,-1)">
                  <use xlink:href="#rim" fill="#404040">
                        <set attributeName="fill" to="#808080" begin="arrowUp.mouseover" end="arrowUp.mouseout"/>
                  </use>
                  <path fill="none" stroke="white" stroke-width="1.5" d="M0,-3.0v7 M-2.5,-0.5L0,-3.0L2.5,-0.5"/>
                </g>
                <g id="arrowRight" xlink:href="#dirArrow" transform="rotate(90) translate(36 -43)" onmousedown="handlePan(1,0)">
                  <use xlink:href="#rim" fill="#404040">
                        <set attributeName="fill" to="#808080" begin="arrowRight.mouseover" end="arrowRight.mouseout"/>
                  </use>
                  <path fill="none" stroke="white" stroke-width="1.5" d="M0,-3.0v7 M-2.5,-0.5L0,-3.0L2.5,-0.5"/>
                </g>
                <g id="arrowDown" xlink:href="#dirArrow" transform="rotate(180) translate(-30 -48)" onmousedown="handlePan(0,1)">
                  <use xlink:href="#rim" fill="#404040">
                        <set attributeName="fill" to="#808080" begin="arrowDown.mouseover" end="arrowDown.mouseout"/>
                  </use>
                  <path fill="none" stroke="white" stroke-width="1.5" d="M0,-3.0v7 M-2.5,-0.5L0,-3.0L2.5,-0.5"/>
                </g>
                <g id="arrowLeft" xlink:href="#dirArrow" transform="rotate(270) translate(-36 17)" onmousedown="handlePan(-1,0)">
                  <use xlink:href="#rim" fill="#404040">
                        <set attributeName="fill" to="#808080" begin="arrowLeft.mouseover" end="arrowLeft.mouseout"/>
                  </use>
                  <path fill="none" stroke="white" stroke-width="1.5" d="M0,-3.0v7 M-2.5,-0.5L0,-3.0L2.5,-0.5"/>
                </g>
        </g>
        <svg viewBox="0 0 15 15" width="100%" height="30px" preserveAspectRatio="xMaxYMin meet">
         <g id="arrow_out" transform="scale(0.3 0.3)">
          <a xlink:href="quickjs_8c_aabd74747b51e480d80dc19914e74a3a5_icgraph_org.svg" target="_base">
           <rect id="button" ry="5" rx="5" y="6" x="6" height="38" width="38"
                fill="#f2f5e9" fill-opacity="0.5" stroke="#606060" stroke-width="1.0"/>
           <path id="arrow"
             d="M 11.500037,31.436501 C 11.940474,20.09759 22.043105,11.32322 32.158766,21.979434 L 37.068811,17.246167 C 37.068811,17.246167 37.088388,32 37.088388,32 L 22.160133,31.978069 C 22.160133,31.978069 26.997745,27.140456 26.997745,27.140456 C 18.528582,18.264221 13.291696,25.230495 11.500037,31.436501 z"
             style="fill:#404040;"/>
          </a>
         </g>
        </svg>
</svg>
