<?xml version="1.0" encoding="UTF-8" standalone="no"?>
<!DOCTYPE svg PUBLIC "-//W3C//DTD SVG 1.1//EN"
 "http://www.w3.org/Graphics/SVG/1.1/DTD/svg11.dtd">
<!-- Generated by graphviz version 2.40.1 (20161225.0304)
 -->
<!-- Title: js_number_constructor Pages: 1 -->
<svg width="573pt" height="66pt"
 viewBox="0.00 0.00 573.00 66.00" xmlns="http://www.w3.org/2000/svg" xmlns:xlink="http://www.w3.org/1999/xlink">
<g id="graph0" class="graph" transform="scale(1 1) rotate(0) translate(4 62)">
<title>js_number_constructor</title>
<!-- Node365269 -->
<g id="node1" class="node">
<title>Node365269</title>
<polygon fill="#bfbfbf" stroke="#000000" points="0,-19.5 0,-38.5 116,-38.5 116,-19.5 0,-19.5"/>
<text text-anchor="middle" x="58" y="-26.5" font-family="Helvetica,sans-Serif" font-size="10.00" fill="#000000">js_number_constructor</text>
</g>
<!-- Node365270 -->
<g id="node2" class="node">
<title>Node365270</title>
<g id="a_node2"><a xlink:href="quickjs_8c.html#a4c9489297c684663f30e517204a9ec14" target="_top" xlink:title="JS_AddIntrinsicBaseObjects">
<polygon fill="none" stroke="#000000" points="152,-19.5 152,-38.5 294,-38.5 294,-19.5 152,-19.5"/>
<text text-anchor="middle" x="223" y="-26.5" font-family="Helvetica,sans-Serif" font-size="10.00" fill="#000000">JS_AddIntrinsicBaseObjects</text>
</a>
</g>
</g>
<!-- Node365269&#45;&gt;Node365270 -->
<g id="edge1" class="edge">
<title>Node365269&#45;&gt;Node365270</title>
<path fill="none" stroke="#191970" d="M126.2992,-29C134.7034,-29 143.3103,-29 151.7568,-29"/>
<polygon fill="#191970" stroke="#191970" points="126.1729,-25.5001 116.1728,-29 126.1728,-32.5001 126.1729,-25.5001"/>
</g>
<!-- Node365271 -->
<g id="node3" class="node">
<title>Node365271</title>
<g id="a_node3"><a xlink:href="quickjs_8c.html#ad8aedb643b8753b7a15f6cb2df61945e" target="_top" xlink:title="JS_NewContext">
<polygon fill="none" stroke="#000000" points="330,-19.5 330,-38.5 419,-38.5 419,-19.5 330,-19.5"/>
<text text-anchor="middle" x="374.5" y="-26.5" font-family="Helvetica,sans-Serif" font-size="10.00" fill="#000000">JS_NewContext</text>
</a>
</g>
</g>
<!-- Node365270&#45;&gt;Node365271 -->
<g id="edge2" class="edge">
<title>Node365270&#45;&gt;Node365271</title>
<path fill="none" stroke="#191970" d="M304.5534,-29C313.2595,-29 321.8628,-29 329.8995,-29"/>
<polygon fill="#191970" stroke="#191970" points="304.3138,-25.5001 294.3138,-29 304.3137,-32.5001 304.3138,-25.5001"/>
</g>
<!-- Node365272 -->
<g id="node4" class="node">
<title>Node365272</title>
<g id="a_node4"><a xlink:href="classqjs_1_1Context.html#a4392a23648acfc4bf6b445336efb5007" target="_top" xlink:title="qjs::Context::Context">
<polygon fill="none" stroke="#ff0000" points="455,-38.5 455,-57.5 565,-57.5 565,-38.5 455,-38.5"/>
<text text-anchor="middle" x="510" y="-45.5" font-family="Helvetica,sans-Serif" font-size="10.00" fill="#000000">qjs::Context::Context</text>
</a>
</g>
</g>
<!-- Node365271&#45;&gt;Node365272 -->
<g id="edge3" class="edge">
<title>Node365271&#45;&gt;Node365272</title>
<path fill="none" stroke="#191970" d="M429.3476,-36.6908C437.7739,-37.8724 446.4767,-39.0927 454.9083,-40.275"/>
<polygon fill="#191970" stroke="#191970" points="429.6325,-33.1966 419.2433,-35.274 428.6604,-40.1288 429.6325,-33.1966"/>
</g>
<!-- Node365275 -->
<g id="node5" class="node">
<title>Node365275</title>
<g id="a_node5"><a xlink:href="quickjs-libc_8c.html#a1fbb3adc15e7b967479fc1940e99b67a" target="_top" xlink:title="worker_func">
<polygon fill="none" stroke="#ff0000" points="475,-.5 475,-19.5 545,-19.5 545,-.5 475,-.5"/>
<text text-anchor="middle" x="510" y="-7.5" font-family="Helvetica,sans-Serif" font-size="10.00" fill="#000000">worker_func</text>
</a>
</g>
</g>
<!-- Node365271&#45;&gt;Node365275 -->
<g id="edge4" class="edge">
<title>Node365271&#45;&gt;Node365275</title>
<path fill="none" stroke="#191970" d="M429.1712,-21.3339C444.5364,-19.1794 460.8347,-16.894 474.7403,-14.9442"/>
<polygon fill="#191970" stroke="#191970" points="428.6604,-17.8712 419.2433,-22.726 429.6325,-24.8034 428.6604,-17.8712"/>
</g>
</g>
</svg>
