<?xml version="1.0" encoding="UTF-8" standalone="no"?>
<!DOCTYPE svg PUBLIC "-//W3C//DTD SVG 1.1//EN"
 "http://www.w3.org/Graphics/SVG/1.1/DTD/svg11.dtd">
<!-- Generated by graphviz version 2.40.1 (20161225.0304)
 -->
<!-- Title: js_boolean_constructor Pages: 1 -->
<svg width="574pt" height="66pt"
 viewBox="0.00 0.00 574.00 66.00" xmlns="http://www.w3.org/2000/svg" xmlns:xlink="http://www.w3.org/1999/xlink">
<g id="graph0" class="graph" transform="scale(1 1) rotate(0) translate(4 62)">
<title>js_boolean_constructor</title>
<!-- Node364825 -->
<g id="node1" class="node">
<title>Node364825</title>
<polygon fill="#bfbfbf" stroke="#000000" points="0,-19.5 0,-38.5 117,-38.5 117,-19.5 0,-19.5"/>
<text text-anchor="middle" x="58.5" y="-26.5" font-family="Helvetica,sans-Serif" font-size="10.00" fill="#000000">js_boolean_constructor</text>
</g>
<!-- Node364826 -->
<g id="node2" class="node">
<title>Node364826</title>
<g id="a_node2"><a xlink:href="quickjs_8c.html#a4c9489297c684663f30e517204a9ec14" target="_top" xlink:title="JS_AddIntrinsicBaseObjects">
<polygon fill="none" stroke="#000000" points="153,-19.5 153,-38.5 295,-38.5 295,-19.5 153,-19.5"/>
<text text-anchor="middle" x="224" y="-26.5" font-family="Helvetica,sans-Serif" font-size="10.00" fill="#000000">JS_AddIntrinsicBaseObjects</text>
</a>
</g>
</g>
<!-- Node364825&#45;&gt;Node364826 -->
<g id="edge1" class="edge">
<title>Node364825&#45;&gt;Node364826</title>
<path fill="none" stroke="#191970" d="M127.4513,-29C135.8605,-29 144.4654,-29 152.9052,-29"/>
<polygon fill="#191970" stroke="#191970" points="127.3151,-25.5001 117.3151,-29 127.3151,-32.5001 127.3151,-25.5001"/>
</g>
<!-- Node364827 -->
<g id="node3" class="node">
<title>Node364827</title>
<g id="a_node3"><a xlink:href="quickjs_8c.html#ad8aedb643b8753b7a15f6cb2df61945e" target="_top" xlink:title="JS_NewContext">
<polygon fill="none" stroke="#000000" points="331,-19.5 331,-38.5 420,-38.5 420,-19.5 331,-19.5"/>
<text text-anchor="middle" x="375.5" y="-26.5" font-family="Helvetica,sans-Serif" font-size="10.00" fill="#000000">JS_NewContext</text>
</a>
</g>
</g>
<!-- Node364826&#45;&gt;Node364827 -->
<g id="edge2" class="edge">
<title>Node364826&#45;&gt;Node364827</title>
<path fill="none" stroke="#191970" d="M305.5534,-29C314.2595,-29 322.8628,-29 330.8995,-29"/>
<polygon fill="#191970" stroke="#191970" points="305.3138,-25.5001 295.3138,-29 305.3137,-32.5001 305.3138,-25.5001"/>
</g>
<!-- Node364828 -->
<g id="node4" class="node">
<title>Node364828</title>
<g id="a_node4"><a xlink:href="classqjs_1_1Context.html#a4392a23648acfc4bf6b445336efb5007" target="_top" xlink:title="qjs::Context::Context">
<polygon fill="none" stroke="#ff0000" points="456,-38.5 456,-57.5 566,-57.5 566,-38.5 456,-38.5"/>
<text text-anchor="middle" x="511" y="-45.5" font-family="Helvetica,sans-Serif" font-size="10.00" fill="#000000">qjs::Context::Context</text>
</a>
</g>
</g>
<!-- Node364827&#45;&gt;Node364828 -->
<g id="edge3" class="edge">
<title>Node364827&#45;&gt;Node364828</title>
<path fill="none" stroke="#191970" d="M430.3476,-36.6908C438.7739,-37.8724 447.4767,-39.0927 455.9083,-40.275"/>
<polygon fill="#191970" stroke="#191970" points="430.6325,-33.1966 420.2433,-35.274 429.6604,-40.1288 430.6325,-33.1966"/>
</g>
<!-- Node364831 -->
<g id="node5" class="node">
<title>Node364831</title>
<g id="a_node5"><a xlink:href="quickjs-libc_8c.html#a1fbb3adc15e7b967479fc1940e99b67a" target="_top" xlink:title="worker_func">
<polygon fill="none" stroke="#ff0000" points="476,-.5 476,-19.5 546,-19.5 546,-.5 476,-.5"/>
<text text-anchor="middle" x="511" y="-7.5" font-family="Helvetica,sans-Serif" font-size="10.00" fill="#000000">worker_func</text>
</a>
</g>
</g>
<!-- Node364827&#45;&gt;Node364831 -->
<g id="edge4" class="edge">
<title>Node364827&#45;&gt;Node364831</title>
<path fill="none" stroke="#191970" d="M430.1712,-21.3339C445.5364,-19.1794 461.8347,-16.894 475.7403,-14.9442"/>
<polygon fill="#191970" stroke="#191970" points="429.6604,-17.8712 420.2433,-22.726 430.6325,-24.8034 429.6604,-17.8712"/>
</g>
</g>
</svg>
