<?xml version="1.0" encoding="UTF-8" standalone="no"?>
<!DOCTYPE svg PUBLIC "-//W3C//DTD SVG 1.1//EN"
 "http://www.w3.org/Graphics/SVG/1.1/DTD/svg11.dtd">
<!-- Generated by graphviz version 2.40.1 (20161225.0304)
 -->
<!-- Title: JS_AddIntrinsicStringNormalize Pages: 1 -->
<svg width="580pt" height="66pt"
 viewBox="0.00 0.00 580.00 66.00" xmlns="http://www.w3.org/2000/svg" xmlns:xlink="http://www.w3.org/1999/xlink">
<g id="graph0" class="graph" transform="scale(1 1) rotate(0) translate(4 62)">
<title>JS_AddIntrinsicStringNormalize</title>
<!-- Node7763 -->
<g id="node1" class="node">
<title>Node7763</title>
<polygon fill="#bfbfbf" stroke="#000000" points="0,-19.5 0,-38.5 155,-38.5 155,-19.5 0,-19.5"/>
<text text-anchor="middle" x="77.5" y="-26.5" font-family="Helvetica,sans-Serif" font-size="10.00" fill="#000000">JS_AddIntrinsicStringNormalize</text>
</g>
<!-- Node7764 -->
<g id="node2" class="node">
<title>Node7764</title>
<g id="a_node2"><a xlink:href="quickjs_8c.html#ad8aedb643b8753b7a15f6cb2df61945e" target="_top" xlink:title="JS_NewContext">
<polygon fill="none" stroke="#000000" points="191,-19.5 191,-38.5 280,-38.5 280,-19.5 191,-19.5"/>
<text text-anchor="middle" x="235.5" y="-26.5" font-family="Helvetica,sans-Serif" font-size="10.00" fill="#000000">JS_NewContext</text>
</a>
</g>
</g>
<!-- Node7763&#45;&gt;Node7764 -->
<g id="edge1" class="edge">
<title>Node7763&#45;&gt;Node7764</title>
<path fill="none" stroke="#191970" d="M165.3683,-29C174.0708,-29 182.6278,-29 190.6099,-29"/>
<polygon fill="#191970" stroke="#191970" points="165.1114,-25.5001 155.1114,-29 165.1114,-32.5001 165.1114,-25.5001"/>
</g>
<!-- Node7765 -->
<g id="node3" class="node">
<title>Node7765</title>
<g id="a_node3"><a xlink:href="classqjs_1_1Context.html#a4392a23648acfc4bf6b445336efb5007" target="_top" xlink:title="qjs::Context::Context">
<polygon fill="none" stroke="#000000" points="316,-38.5 316,-57.5 426,-57.5 426,-38.5 316,-38.5"/>
<text text-anchor="middle" x="371" y="-45.5" font-family="Helvetica,sans-Serif" font-size="10.00" fill="#000000">qjs::Context::Context</text>
</a>
</g>
</g>
<!-- Node7764&#45;&gt;Node7765 -->
<g id="edge2" class="edge">
<title>Node7764&#45;&gt;Node7765</title>
<path fill="none" stroke="#191970" d="M290.3476,-36.6908C298.7739,-37.8724 307.4767,-39.0927 315.9083,-40.275"/>
<polygon fill="#191970" stroke="#191970" points="290.6325,-33.1966 280.2433,-35.274 289.6604,-40.1288 290.6325,-33.1966"/>
</g>
<!-- Node7768 -->
<g id="node5" class="node">
<title>Node7768</title>
<g id="a_node5"><a xlink:href="quickjs-libc_8c.html#a1fbb3adc15e7b967479fc1940e99b67a" target="_top" xlink:title="worker_func">
<polygon fill="none" stroke="#000000" points="336,-.5 336,-19.5 406,-19.5 406,-.5 336,-.5"/>
<text text-anchor="middle" x="371" y="-7.5" font-family="Helvetica,sans-Serif" font-size="10.00" fill="#000000">worker_func</text>
</a>
</g>
</g>
<!-- Node7764&#45;&gt;Node7768 -->
<g id="edge4" class="edge">
<title>Node7764&#45;&gt;Node7768</title>
<path fill="none" stroke="#191970" d="M290.1712,-21.3339C305.5364,-19.1794 321.8347,-16.894 335.7403,-14.9442"/>
<polygon fill="#191970" stroke="#191970" points="289.6604,-17.8712 280.2433,-22.726 290.6325,-24.8034 289.6604,-17.8712"/>
</g>
<!-- Node7766 -->
<g id="node4" class="node">
<title>Node7766</title>
<g id="a_node4"><a xlink:href="classqjs_1_1Context.html#af725fb8083d8c33a37198d6acaf1a836" target="_top" xlink:title="qjs::Context::Context">
<polygon fill="none" stroke="#ff0000" points="462,-38.5 462,-57.5 572,-57.5 572,-38.5 462,-38.5"/>
<text text-anchor="middle" x="517" y="-45.5" font-family="Helvetica,sans-Serif" font-size="10.00" fill="#000000">qjs::Context::Context</text>
</a>
</g>
</g>
<!-- Node7765&#45;&gt;Node7766 -->
<g id="edge3" class="edge">
<title>Node7765&#45;&gt;Node7766</title>
<path fill="none" stroke="#191970" d="M436.4101,-48C444.8647,-48 453.4567,-48 461.7256,-48"/>
<polygon fill="#191970" stroke="#191970" points="436.1964,-44.5001 426.1963,-48 436.1963,-51.5001 436.1964,-44.5001"/>
</g>
<!-- Node7769 -->
<g id="node6" class="node">
<title>Node7769</title>
<g id="a_node6"><a xlink:href="quickjs-libc_8c.html#aff1e6131e8bf8b7eb25307623ad669e7" target="_top" xlink:title="js_worker_ctor">
<polygon fill="none" stroke="#ff0000" points="477,-.5 477,-19.5 557,-19.5 557,-.5 477,-.5"/>
<text text-anchor="middle" x="517" y="-7.5" font-family="Helvetica,sans-Serif" font-size="10.00" fill="#000000">js_worker_ctor</text>
</a>
</g>
</g>
<!-- Node7768&#45;&gt;Node7769 -->
<g id="edge5" class="edge">
<title>Node7768&#45;&gt;Node7769</title>
<path fill="none" stroke="#191970" d="M416.4324,-10C435.761,-10 458.112,-10 476.8272,-10"/>
<polygon fill="#191970" stroke="#191970" points="416.3426,-6.5001 406.3425,-10 416.3425,-13.5001 416.3426,-6.5001"/>
</g>
</g>
</svg>
