<?xml version="1.0" encoding="UTF-8" standalone="no"?>
<!DOCTYPE svg PUBLIC "-//W3C//DTD SVG 1.1//EN"
 "http://www.w3.org/Graphics/SVG/1.1/DTD/svg11.dtd">
<!-- Generated by graphviz version 2.40.1 (20161225.0304)
 -->
<!-- Title: JS_AddIntrinsicProxy Pages: 1 -->
<svg width="536pt" height="66pt"
 viewBox="0.00 0.00 536.00 66.00" xmlns="http://www.w3.org/2000/svg" xmlns:xlink="http://www.w3.org/1999/xlink">
<g id="graph0" class="graph" transform="scale(1 1) rotate(0) translate(4 62)">
<title>JS_AddIntrinsicProxy</title>
<!-- Node9696 -->
<g id="node1" class="node">
<title>Node9696</title>
<polygon fill="#bfbfbf" stroke="#000000" points="0,-19.5 0,-38.5 111,-38.5 111,-19.5 0,-19.5"/>
<text text-anchor="middle" x="55.5" y="-26.5" font-family="Helvetica,sans-Serif" font-size="10.00" fill="#000000">JS_AddIntrinsicProxy</text>
</g>
<!-- Node9697 -->
<g id="node2" class="node">
<title>Node9697</title>
<g id="a_node2"><a xlink:href="quickjs_8c.html#ad8aedb643b8753b7a15f6cb2df61945e" target="_top" xlink:title="JS_NewContext">
<polygon fill="none" stroke="#000000" points="147,-19.5 147,-38.5 236,-38.5 236,-19.5 147,-19.5"/>
<text text-anchor="middle" x="191.5" y="-26.5" font-family="Helvetica,sans-Serif" font-size="10.00" fill="#000000">JS_NewContext</text>
</a>
</g>
</g>
<!-- Node9696&#45;&gt;Node9697 -->
<g id="edge1" class="edge">
<title>Node9696&#45;&gt;Node9697</title>
<path fill="none" stroke="#191970" d="M121.3248,-29C129.9894,-29 138.7011,-29 146.8964,-29"/>
<polygon fill="#191970" stroke="#191970" points="121.2088,-25.5001 111.2088,-29 121.2088,-32.5001 121.2088,-25.5001"/>
</g>
<!-- Node9698 -->
<g id="node3" class="node">
<title>Node9698</title>
<g id="a_node3"><a xlink:href="classqjs_1_1Context.html#a4392a23648acfc4bf6b445336efb5007" target="_top" xlink:title="qjs::Context::Context">
<polygon fill="none" stroke="#000000" points="272,-38.5 272,-57.5 382,-57.5 382,-38.5 272,-38.5"/>
<text text-anchor="middle" x="327" y="-45.5" font-family="Helvetica,sans-Serif" font-size="10.00" fill="#000000">qjs::Context::Context</text>
</a>
</g>
</g>
<!-- Node9697&#45;&gt;Node9698 -->
<g id="edge2" class="edge">
<title>Node9697&#45;&gt;Node9698</title>
<path fill="none" stroke="#191970" d="M246.3476,-36.6908C254.7739,-37.8724 263.4767,-39.0927 271.9083,-40.275"/>
<polygon fill="#191970" stroke="#191970" points="246.6325,-33.1966 236.2433,-35.274 245.6604,-40.1288 246.6325,-33.1966"/>
</g>
<!-- Node9701 -->
<g id="node5" class="node">
<title>Node9701</title>
<g id="a_node5"><a xlink:href="quickjs-libc_8c.html#a1fbb3adc15e7b967479fc1940e99b67a" target="_top" xlink:title="worker_func">
<polygon fill="none" stroke="#000000" points="292,-.5 292,-19.5 362,-19.5 362,-.5 292,-.5"/>
<text text-anchor="middle" x="327" y="-7.5" font-family="Helvetica,sans-Serif" font-size="10.00" fill="#000000">worker_func</text>
</a>
</g>
</g>
<!-- Node9697&#45;&gt;Node9701 -->
<g id="edge4" class="edge">
<title>Node9697&#45;&gt;Node9701</title>
<path fill="none" stroke="#191970" d="M246.1712,-21.3339C261.5364,-19.1794 277.8347,-16.894 291.7403,-14.9442"/>
<polygon fill="#191970" stroke="#191970" points="245.6604,-17.8712 236.2433,-22.726 246.6325,-24.8034 245.6604,-17.8712"/>
</g>
<!-- Node9699 -->
<g id="node4" class="node">
<title>Node9699</title>
<g id="a_node4"><a xlink:href="classqjs_1_1Context.html#af725fb8083d8c33a37198d6acaf1a836" target="_top" xlink:title="qjs::Context::Context">
<polygon fill="none" stroke="#ff0000" points="418,-38.5 418,-57.5 528,-57.5 528,-38.5 418,-38.5"/>
<text text-anchor="middle" x="473" y="-45.5" font-family="Helvetica,sans-Serif" font-size="10.00" fill="#000000">qjs::Context::Context</text>
</a>
</g>
</g>
<!-- Node9698&#45;&gt;Node9699 -->
<g id="edge3" class="edge">
<title>Node9698&#45;&gt;Node9699</title>
<path fill="none" stroke="#191970" d="M392.4101,-48C400.8647,-48 409.4567,-48 417.7256,-48"/>
<polygon fill="#191970" stroke="#191970" points="392.1964,-44.5001 382.1963,-48 392.1963,-51.5001 392.1964,-44.5001"/>
</g>
<!-- Node9702 -->
<g id="node6" class="node">
<title>Node9702</title>
<g id="a_node6"><a xlink:href="quickjs-libc_8c.html#aff1e6131e8bf8b7eb25307623ad669e7" target="_top" xlink:title="js_worker_ctor">
<polygon fill="none" stroke="#ff0000" points="433,-.5 433,-19.5 513,-19.5 513,-.5 433,-.5"/>
<text text-anchor="middle" x="473" y="-7.5" font-family="Helvetica,sans-Serif" font-size="10.00" fill="#000000">js_worker_ctor</text>
</a>
</g>
</g>
<!-- Node9701&#45;&gt;Node9702 -->
<g id="edge5" class="edge">
<title>Node9701&#45;&gt;Node9702</title>
<path fill="none" stroke="#191970" d="M372.4324,-10C391.761,-10 414.112,-10 432.8272,-10"/>
<polygon fill="#191970" stroke="#191970" points="372.3426,-6.5001 362.3425,-10 372.3425,-13.5001 372.3426,-6.5001"/>
</g>
</g>
</svg>
