<?xml version="1.0" encoding="UTF-8" standalone="no"?>
<!DOCTYPE svg PUBLIC "-//W3C//DTD SVG 1.1//EN"
 "http://www.w3.org/Graphics/SVG/1.1/DTD/svg11.dtd">
<!-- Generated by graphviz version 2.40.1 (20161225.0304)
 -->
<!-- Title: JS_NewCFunction Pages: 1 -->
<svg width="556pt" height="123pt"
 viewBox="0.00 0.00 556.00 123.00" xmlns="http://www.w3.org/2000/svg" xmlns:xlink="http://www.w3.org/1999/xlink">
<g id="graph0" class="graph" transform="scale(1 1) rotate(0) translate(4 119)">
<title>JS_NewCFunction</title>
<!-- Node85937 -->
<g id="node1" class="node">
<title>Node85937</title>
<polygon fill="#bfbfbf" stroke="#000000" points="0,-57.5 0,-76.5 99,-76.5 99,-57.5 0,-57.5"/>
<text text-anchor="middle" x="49.5" y="-64.5" font-family="Helvetica,sans-Serif" font-size="10.00" fill="#000000">JS_NewCFunction</text>
</g>
<!-- Node85938 -->
<g id="node2" class="node">
<title>Node85938</title>
<g id="a_node2"><a xlink:href="quickjs_8c.html#a4c9489297c684663f30e517204a9ec14" target="_top" xlink:title="JS_AddIntrinsicBaseObjects">
<polygon fill="none" stroke="#000000" points="135,-95.5 135,-114.5 277,-114.5 277,-95.5 135,-95.5"/>
<text text-anchor="middle" x="206" y="-102.5" font-family="Helvetica,sans-Serif" font-size="10.00" fill="#000000">JS_AddIntrinsicBaseObjects</text>
</a>
</g>
</g>
<!-- Node85937&#45;&gt;Node85938 -->
<g id="edge1" class="edge">
<title>Node85937&#45;&gt;Node85938</title>
<path fill="none" stroke="#191970" d="M98.7892,-78.968C120.7203,-84.2931 146.1849,-90.4762 166.7924,-95.4799"/>
<polygon fill="#191970" stroke="#191970" points="99.5351,-75.5475 88.9916,-76.589 97.8833,-82.3498 99.5351,-75.5475"/>
</g>
<!-- Node85947 -->
<g id="node6" class="node">
<title>Node85947</title>
<g id="a_node6"><a xlink:href="quickjs_8c.html#a177d09828596bfe6df4bd90b2e93989d" target="_top" xlink:title="JS_AddIntrinsicTypedArrays">
<polygon fill="none" stroke="#000000" points="135.5,-57.5 135.5,-76.5 276.5,-76.5 276.5,-57.5 135.5,-57.5"/>
<text text-anchor="middle" x="206" y="-64.5" font-family="Helvetica,sans-Serif" font-size="10.00" fill="#000000">JS_AddIntrinsicTypedArrays</text>
</a>
</g>
</g>
<!-- Node85937&#45;&gt;Node85947 -->
<g id="edge5" class="edge">
<title>Node85937&#45;&gt;Node85947</title>
<path fill="none" stroke="#191970" d="M109.249,-67C117.7878,-67 126.6385,-67 135.3618,-67"/>
<polygon fill="#191970" stroke="#191970" points="109.0176,-63.5001 99.0176,-67 109.0175,-70.5001 109.0176,-63.5001"/>
</g>
<!-- Node85948 -->
<g id="node7" class="node">
<title>Node85948</title>
<g id="a_node7"><a xlink:href="quickjs-libc_8c.html#ad04466feec6822a3b838baf229f6dfa0" target="_top" xlink:title="js_std_add_helpers">
<polygon fill="none" stroke="#000000" points="155.5,-19.5 155.5,-38.5 256.5,-38.5 256.5,-19.5 155.5,-19.5"/>
<text text-anchor="middle" x="206" y="-26.5" font-family="Helvetica,sans-Serif" font-size="10.00" fill="#000000">js_std_add_helpers</text>
</a>
</g>
</g>
<!-- Node85937&#45;&gt;Node85948 -->
<g id="edge7" class="edge">
<title>Node85937&#45;&gt;Node85948</title>
<path fill="none" stroke="#191970" d="M98.7892,-55.032C120.7203,-49.7069 146.1849,-43.5238 166.7924,-38.5201"/>
<polygon fill="#191970" stroke="#191970" points="97.8833,-51.6502 88.9916,-57.411 99.5351,-58.4525 97.8833,-51.6502"/>
</g>
<!-- Node85939 -->
<g id="node3" class="node">
<title>Node85939</title>
<g id="a_node3"><a xlink:href="quickjs_8c.html#ad8aedb643b8753b7a15f6cb2df61945e" target="_top" xlink:title="JS_NewContext">
<polygon fill="none" stroke="#000000" points="313,-76.5 313,-95.5 402,-95.5 402,-76.5 313,-76.5"/>
<text text-anchor="middle" x="357.5" y="-83.5" font-family="Helvetica,sans-Serif" font-size="10.00" fill="#000000">JS_NewContext</text>
</a>
</g>
</g>
<!-- Node85938&#45;&gt;Node85939 -->
<g id="edge2" class="edge">
<title>Node85938&#45;&gt;Node85939</title>
<path fill="none" stroke="#191970" d="M287.2695,-94.8078C296.0724,-93.7038 304.7754,-92.6123 312.8995,-91.5935"/>
<polygon fill="#191970" stroke="#191970" points="286.8005,-91.3391 277.3138,-96.0564 287.6716,-98.2847 286.8005,-91.3391"/>
</g>
<!-- Node85940 -->
<g id="node4" class="node">
<title>Node85940</title>
<g id="a_node4"><a xlink:href="classqjs_1_1Context.html#a4392a23648acfc4bf6b445336efb5007" target="_top" xlink:title="qjs::Context::Context">
<polygon fill="none" stroke="#ff0000" points="438,-76.5 438,-95.5 548,-95.5 548,-76.5 438,-76.5"/>
<text text-anchor="middle" x="493" y="-83.5" font-family="Helvetica,sans-Serif" font-size="10.00" fill="#000000">qjs::Context::Context</text>
</a>
</g>
</g>
<!-- Node85939&#45;&gt;Node85940 -->
<g id="edge3" class="edge">
<title>Node85939&#45;&gt;Node85940</title>
<path fill="none" stroke="#191970" d="M412.3476,-86C420.7739,-86 429.4767,-86 437.9083,-86"/>
<polygon fill="#191970" stroke="#191970" points="412.2433,-82.5001 402.2433,-86 412.2433,-89.5001 412.2433,-82.5001"/>
</g>
<!-- Node85943 -->
<g id="node5" class="node">
<title>Node85943</title>
<g id="a_node5"><a xlink:href="quickjs-libc_8c.html#a1fbb3adc15e7b967479fc1940e99b67a" target="_top" xlink:title="worker_func">
<polygon fill="none" stroke="#ff0000" points="458,-38.5 458,-57.5 528,-57.5 528,-38.5 458,-38.5"/>
<text text-anchor="middle" x="493" y="-45.5" font-family="Helvetica,sans-Serif" font-size="10.00" fill="#000000">worker_func</text>
</a>
</g>
</g>
<!-- Node85939&#45;&gt;Node85943 -->
<g id="edge4" class="edge">
<title>Node85939&#45;&gt;Node85943</title>
<path fill="none" stroke="#191970" d="M401.4246,-73.6817C420.0414,-68.4607 441.4087,-62.4684 458.8186,-57.5859"/>
<polygon fill="#191970" stroke="#191970" points="400.3758,-70.3407 391.6924,-76.411 402.266,-77.0807 400.3758,-70.3407"/>
</g>
<!-- Node85947&#45;&gt;Node85939 -->
<g id="edge6" class="edge">
<title>Node85947&#45;&gt;Node85939</title>
<path fill="none" stroke="#191970" d="M286.864,-77.1414C295.703,-78.2499 304.4487,-79.3467 312.6168,-80.3711"/>
<polygon fill="#191970" stroke="#191970" points="287.2285,-73.6597 276.8707,-75.8881 286.3574,-80.6053 287.2285,-73.6597"/>
</g>
<!-- Node85948&#45;&gt;Node85943 -->
<g id="edge9" class="edge">
<title>Node85948&#45;&gt;Node85943</title>
<path fill="none" stroke="#191970" d="M266.7903,-33.0244C324.8138,-36.8657 410.2309,-42.5205 457.7734,-45.6679"/>
<polygon fill="#191970" stroke="#191970" points="266.8586,-29.5214 256.6492,-32.3531 266.3961,-36.5061 266.8586,-29.5214"/>
</g>
<!-- Node85942 -->
<g id="node8" class="node">
<title>Node85942</title>
<g id="a_node8"><a xlink:href="qjs_8cpp.html#a3c04138a5bfe5d72780bb7e82a18e627" target="_top" xlink:title="main">
<polygon fill="none" stroke="#000000" points="338.5,-.5 338.5,-19.5 376.5,-19.5 376.5,-.5 338.5,-.5"/>
<text text-anchor="middle" x="357.5" y="-7.5" font-family="Helvetica,sans-Serif" font-size="10.00" fill="#000000">main</text>
</a>
</g>
</g>
<!-- Node85948&#45;&gt;Node85942 -->
<g id="edge8" class="edge">
<title>Node85948&#45;&gt;Node85942</title>
<path fill="none" stroke="#191970" d="M266.9026,-21.3621C292.4829,-18.154 320.4144,-14.651 338.4024,-12.3951"/>
<polygon fill="#191970" stroke="#191970" points="266.3555,-17.9032 256.8688,-22.6204 267.2266,-24.8488 266.3555,-17.9032"/>
</g>
</g>
</svg>
