<?xml version="1.0" encoding="UTF-8" standalone="no"?>
<!DOCTYPE svg PUBLIC "-//W3C//DTD SVG 1.1//EN"
 "http://www.w3.org/Graphics/SVG/1.1/DTD/svg11.dtd">
<!-- Generated by graphviz version 2.40.1 (20161225.0304)
 -->
<!-- Title: JS_NewGlobalCConstructorOnly Pages: 1 -->
<svg width="617pt" height="66pt"
 viewBox="0.00 0.00 617.00 66.00" xmlns="http://www.w3.org/2000/svg" xmlns:xlink="http://www.w3.org/1999/xlink">
<g id="graph0" class="graph" transform="scale(1 1) rotate(0) translate(4 62)">
<title>JS_NewGlobalCConstructorOnly</title>
<!-- Node369227 -->
<g id="node1" class="node">
<title>Node369227</title>
<polygon fill="#bfbfbf" stroke="#000000" points="0,-19.5 0,-38.5 161,-38.5 161,-19.5 0,-19.5"/>
<text text-anchor="middle" x="80.5" y="-26.5" font-family="Helvetica,sans-Serif" font-size="10.00" fill="#000000">JS_NewGlobalCConstructorOnly</text>
</g>
<!-- Node369228 -->
<g id="node2" class="node">
<title>Node369228</title>
<g id="a_node2"><a xlink:href="quickjs_8c.html#a177d09828596bfe6df4bd90b2e93989d" target="_top" xlink:title="JS_AddIntrinsicTypedArrays">
<polygon fill="none" stroke="#000000" points="197,-19.5 197,-38.5 338,-38.5 338,-19.5 197,-19.5"/>
<text text-anchor="middle" x="267.5" y="-26.5" font-family="Helvetica,sans-Serif" font-size="10.00" fill="#000000">JS_AddIntrinsicTypedArrays</text>
</a>
</g>
</g>
<!-- Node369227&#45;&gt;Node369228 -->
<g id="edge1" class="edge">
<title>Node369227&#45;&gt;Node369228</title>
<path fill="none" stroke="#191970" d="M171.2195,-29C179.8144,-29 188.4407,-29 196.8075,-29"/>
<polygon fill="#191970" stroke="#191970" points="171.1617,-25.5001 161.1617,-29 171.1616,-32.5001 171.1617,-25.5001"/>
</g>
<!-- Node369229 -->
<g id="node3" class="node">
<title>Node369229</title>
<g id="a_node3"><a xlink:href="quickjs_8c.html#ad8aedb643b8753b7a15f6cb2df61945e" target="_top" xlink:title="JS_NewContext">
<polygon fill="none" stroke="#000000" points="374,-19.5 374,-38.5 463,-38.5 463,-19.5 374,-19.5"/>
<text text-anchor="middle" x="418.5" y="-26.5" font-family="Helvetica,sans-Serif" font-size="10.00" fill="#000000">JS_NewContext</text>
</a>
</g>
</g>
<!-- Node369228&#45;&gt;Node369229 -->
<g id="edge2" class="edge">
<title>Node369228&#45;&gt;Node369229</title>
<path fill="none" stroke="#191970" d="M348.3813,-29C357.0943,-29 365.7113,-29 373.7649,-29"/>
<polygon fill="#191970" stroke="#191970" points="348.1368,-25.5001 338.1368,-29 348.1367,-32.5001 348.1368,-25.5001"/>
</g>
<!-- Node369230 -->
<g id="node4" class="node">
<title>Node369230</title>
<g id="a_node4"><a xlink:href="classqjs_1_1Context.html#a4392a23648acfc4bf6b445336efb5007" target="_top" xlink:title="qjs::Context::Context">
<polygon fill="none" stroke="#ff0000" points="499,-38.5 499,-57.5 609,-57.5 609,-38.5 499,-38.5"/>
<text text-anchor="middle" x="554" y="-45.5" font-family="Helvetica,sans-Serif" font-size="10.00" fill="#000000">qjs::Context::Context</text>
</a>
</g>
</g>
<!-- Node369229&#45;&gt;Node369230 -->
<g id="edge3" class="edge">
<title>Node369229&#45;&gt;Node369230</title>
<path fill="none" stroke="#191970" d="M473.3476,-36.6908C481.7739,-37.8724 490.4767,-39.0927 498.9083,-40.275"/>
<polygon fill="#191970" stroke="#191970" points="473.6325,-33.1966 463.2433,-35.274 472.6604,-40.1288 473.6325,-33.1966"/>
</g>
<!-- Node369233 -->
<g id="node5" class="node">
<title>Node369233</title>
<g id="a_node5"><a xlink:href="quickjs-libc_8c.html#a1fbb3adc15e7b967479fc1940e99b67a" target="_top" xlink:title="worker_func">
<polygon fill="none" stroke="#ff0000" points="519,-.5 519,-19.5 589,-19.5 589,-.5 519,-.5"/>
<text text-anchor="middle" x="554" y="-7.5" font-family="Helvetica,sans-Serif" font-size="10.00" fill="#000000">worker_func</text>
</a>
</g>
</g>
<!-- Node369229&#45;&gt;Node369233 -->
<g id="edge4" class="edge">
<title>Node369229&#45;&gt;Node369233</title>
<path fill="none" stroke="#191970" d="M473.1712,-21.3339C488.5364,-19.1794 504.8347,-16.894 518.7403,-14.9442"/>
<polygon fill="#191970" stroke="#191970" points="472.6604,-17.8712 463.2433,-22.726 473.6325,-24.8034 472.6604,-17.8712"/>
</g>
</g>
</svg>
