<?xml version="1.0" encoding="UTF-8" standalone="no"?>
<!DOCTYPE svg PUBLIC "-//W3C//DTD SVG 1.1//EN"
 "http://www.w3.org/Graphics/SVG/1.1/DTD/svg11.dtd">
<!-- Generated by graphviz version 2.40.1 (20161225.0304)
 -->
<!-- Title: js_object_constructor Pages: 1 -->
<svg width="567pt" height="66pt"
 viewBox="0.00 0.00 567.00 66.00" xmlns="http://www.w3.org/2000/svg" xmlns:xlink="http://www.w3.org/1999/xlink">
<g id="graph0" class="graph" transform="scale(1 1) rotate(0) translate(4 62)">
<title>js_object_constructor</title>
<!-- Node372294 -->
<g id="node1" class="node">
<title>Node372294</title>
<polygon fill="#bfbfbf" stroke="#000000" points="0,-19.5 0,-38.5 110,-38.5 110,-19.5 0,-19.5"/>
<text text-anchor="middle" x="55" y="-26.5" font-family="Helvetica,sans-Serif" font-size="10.00" fill="#000000">js_object_constructor</text>
</g>
<!-- Node372295 -->
<g id="node2" class="node">
<title>Node372295</title>
<g id="a_node2"><a xlink:href="quickjs_8c.html#a4c9489297c684663f30e517204a9ec14" target="_top" xlink:title="JS_AddIntrinsicBaseObjects">
<polygon fill="none" stroke="#000000" points="146,-19.5 146,-38.5 288,-38.5 288,-19.5 146,-19.5"/>
<text text-anchor="middle" x="217" y="-26.5" font-family="Helvetica,sans-Serif" font-size="10.00" fill="#000000">JS_AddIntrinsicBaseObjects</text>
</a>
</g>
</g>
<!-- Node372294&#45;&gt;Node372295 -->
<g id="edge1" class="edge">
<title>Node372294&#45;&gt;Node372295</title>
<path fill="none" stroke="#191970" d="M120.4003,-29C128.7977,-29 137.4277,-29 145.9104,-29"/>
<polygon fill="#191970" stroke="#191970" points="120.2981,-25.5001 110.2981,-29 120.2981,-32.5001 120.2981,-25.5001"/>
</g>
<!-- Node372296 -->
<g id="node3" class="node">
<title>Node372296</title>
<g id="a_node3"><a xlink:href="quickjs_8c.html#ad8aedb643b8753b7a15f6cb2df61945e" target="_top" xlink:title="JS_NewContext">
<polygon fill="none" stroke="#000000" points="324,-19.5 324,-38.5 413,-38.5 413,-19.5 324,-19.5"/>
<text text-anchor="middle" x="368.5" y="-26.5" font-family="Helvetica,sans-Serif" font-size="10.00" fill="#000000">JS_NewContext</text>
</a>
</g>
</g>
<!-- Node372295&#45;&gt;Node372296 -->
<g id="edge2" class="edge">
<title>Node372295&#45;&gt;Node372296</title>
<path fill="none" stroke="#191970" d="M298.5534,-29C307.2595,-29 315.8628,-29 323.8995,-29"/>
<polygon fill="#191970" stroke="#191970" points="298.3138,-25.5001 288.3138,-29 298.3137,-32.5001 298.3138,-25.5001"/>
</g>
<!-- Node372297 -->
<g id="node4" class="node">
<title>Node372297</title>
<g id="a_node4"><a xlink:href="classqjs_1_1Context.html#a4392a23648acfc4bf6b445336efb5007" target="_top" xlink:title="qjs::Context::Context">
<polygon fill="none" stroke="#ff0000" points="449,-38.5 449,-57.5 559,-57.5 559,-38.5 449,-38.5"/>
<text text-anchor="middle" x="504" y="-45.5" font-family="Helvetica,sans-Serif" font-size="10.00" fill="#000000">qjs::Context::Context</text>
</a>
</g>
</g>
<!-- Node372296&#45;&gt;Node372297 -->
<g id="edge3" class="edge">
<title>Node372296&#45;&gt;Node372297</title>
<path fill="none" stroke="#191970" d="M423.3476,-36.6908C431.7739,-37.8724 440.4767,-39.0927 448.9083,-40.275"/>
<polygon fill="#191970" stroke="#191970" points="423.6325,-33.1966 413.2433,-35.274 422.6604,-40.1288 423.6325,-33.1966"/>
</g>
<!-- Node372300 -->
<g id="node5" class="node">
<title>Node372300</title>
<g id="a_node5"><a xlink:href="quickjs-libc_8c.html#a1fbb3adc15e7b967479fc1940e99b67a" target="_top" xlink:title="worker_func">
<polygon fill="none" stroke="#ff0000" points="469,-.5 469,-19.5 539,-19.5 539,-.5 469,-.5"/>
<text text-anchor="middle" x="504" y="-7.5" font-family="Helvetica,sans-Serif" font-size="10.00" fill="#000000">worker_func</text>
</a>
</g>
</g>
<!-- Node372296&#45;&gt;Node372300 -->
<g id="edge4" class="edge">
<title>Node372296&#45;&gt;Node372300</title>
<path fill="none" stroke="#191970" d="M423.1712,-21.3339C438.5364,-19.1794 454.8347,-16.894 468.7403,-14.9442"/>
<polygon fill="#191970" stroke="#191970" points="422.6604,-17.8712 413.2433,-22.726 423.6325,-24.8034 422.6604,-17.8712"/>
</g>
</g>
</svg>
