<?xml version="1.0" encoding="UTF-8" standalone="no"?>
<!DOCTYPE svg PUBLIC "-//W3C//DTD SVG 1.1//EN"
 "http://www.w3.org/Graphics/SVG/1.1/DTD/svg11.dtd">
<!-- Generated by graphviz version 2.40.1 (20161225.0304)
 -->
<!-- Title: JS_AddIntrinsicPromise Pages: 1 -->
<svg width="547pt" height="66pt"
 viewBox="0.00 0.00 547.00 66.00" xmlns="http://www.w3.org/2000/svg" xmlns:xlink="http://www.w3.org/1999/xlink">
<g id="graph0" class="graph" transform="scale(1 1) rotate(0) translate(4 62)">
<title>JS_AddIntrinsicPromise</title>
<!-- Node11099 -->
<g id="node1" class="node">
<title>Node11099</title>
<polygon fill="#bfbfbf" stroke="#000000" points="0,-19.5 0,-38.5 122,-38.5 122,-19.5 0,-19.5"/>
<text text-anchor="middle" x="61" y="-26.5" font-family="Helvetica,sans-Serif" font-size="10.00" fill="#000000">JS_AddIntrinsicPromise</text>
</g>
<!-- Node11100 -->
<g id="node2" class="node">
<title>Node11100</title>
<g id="a_node2"><a xlink:href="quickjs_8c.html#ad8aedb643b8753b7a15f6cb2df61945e" target="_top" xlink:title="JS_NewContext">
<polygon fill="none" stroke="#000000" points="158,-19.5 158,-38.5 247,-38.5 247,-19.5 158,-19.5"/>
<text text-anchor="middle" x="202.5" y="-26.5" font-family="Helvetica,sans-Serif" font-size="10.00" fill="#000000">JS_NewContext</text>
</a>
</g>
</g>
<!-- Node11099&#45;&gt;Node11100 -->
<g id="edge1" class="edge">
<title>Node11099&#45;&gt;Node11100</title>
<path fill="none" stroke="#191970" d="M132.3807,-29C141.0398,-29 149.6863,-29 157.8014,-29"/>
<polygon fill="#191970" stroke="#191970" points="132.241,-25.5001 122.241,-29 132.241,-32.5001 132.241,-25.5001"/>
</g>
<!-- Node11101 -->
<g id="node3" class="node">
<title>Node11101</title>
<g id="a_node3"><a xlink:href="classqjs_1_1Context.html#a4392a23648acfc4bf6b445336efb5007" target="_top" xlink:title="qjs::Context::Context">
<polygon fill="none" stroke="#000000" points="283,-38.5 283,-57.5 393,-57.5 393,-38.5 283,-38.5"/>
<text text-anchor="middle" x="338" y="-45.5" font-family="Helvetica,sans-Serif" font-size="10.00" fill="#000000">qjs::Context::Context</text>
</a>
</g>
</g>
<!-- Node11100&#45;&gt;Node11101 -->
<g id="edge2" class="edge">
<title>Node11100&#45;&gt;Node11101</title>
<path fill="none" stroke="#191970" d="M257.3476,-36.6908C265.7739,-37.8724 274.4767,-39.0927 282.9083,-40.275"/>
<polygon fill="#191970" stroke="#191970" points="257.6325,-33.1966 247.2433,-35.274 256.6604,-40.1288 257.6325,-33.1966"/>
</g>
<!-- Node11104 -->
<g id="node5" class="node">
<title>Node11104</title>
<g id="a_node5"><a xlink:href="quickjs-libc_8c.html#a1fbb3adc15e7b967479fc1940e99b67a" target="_top" xlink:title="worker_func">
<polygon fill="none" stroke="#000000" points="303,-.5 303,-19.5 373,-19.5 373,-.5 303,-.5"/>
<text text-anchor="middle" x="338" y="-7.5" font-family="Helvetica,sans-Serif" font-size="10.00" fill="#000000">worker_func</text>
</a>
</g>
</g>
<!-- Node11100&#45;&gt;Node11104 -->
<g id="edge4" class="edge">
<title>Node11100&#45;&gt;Node11104</title>
<path fill="none" stroke="#191970" d="M257.1712,-21.3339C272.5364,-19.1794 288.8347,-16.894 302.7403,-14.9442"/>
<polygon fill="#191970" stroke="#191970" points="256.6604,-17.8712 247.2433,-22.726 257.6325,-24.8034 256.6604,-17.8712"/>
</g>
<!-- Node11102 -->
<g id="node4" class="node">
<title>Node11102</title>
<g id="a_node4"><a xlink:href="classqjs_1_1Context.html#af725fb8083d8c33a37198d6acaf1a836" target="_top" xlink:title="qjs::Context::Context">
<polygon fill="none" stroke="#ff0000" points="429,-38.5 429,-57.5 539,-57.5 539,-38.5 429,-38.5"/>
<text text-anchor="middle" x="484" y="-45.5" font-family="Helvetica,sans-Serif" font-size="10.00" fill="#000000">qjs::Context::Context</text>
</a>
</g>
</g>
<!-- Node11101&#45;&gt;Node11102 -->
<g id="edge3" class="edge">
<title>Node11101&#45;&gt;Node11102</title>
<path fill="none" stroke="#191970" d="M403.4101,-48C411.8647,-48 420.4567,-48 428.7256,-48"/>
<polygon fill="#191970" stroke="#191970" points="403.1964,-44.5001 393.1963,-48 403.1963,-51.5001 403.1964,-44.5001"/>
</g>
<!-- Node11105 -->
<g id="node6" class="node">
<title>Node11105</title>
<g id="a_node6"><a xlink:href="quickjs-libc_8c.html#aff1e6131e8bf8b7eb25307623ad669e7" target="_top" xlink:title="js_worker_ctor">
<polygon fill="none" stroke="#ff0000" points="444,-.5 444,-19.5 524,-19.5 524,-.5 444,-.5"/>
<text text-anchor="middle" x="484" y="-7.5" font-family="Helvetica,sans-Serif" font-size="10.00" fill="#000000">js_worker_ctor</text>
</a>
</g>
</g>
<!-- Node11104&#45;&gt;Node11105 -->
<g id="edge5" class="edge">
<title>Node11104&#45;&gt;Node11105</title>
<path fill="none" stroke="#191970" d="M383.4324,-10C402.761,-10 425.112,-10 443.8272,-10"/>
<polygon fill="#191970" stroke="#191970" points="383.3426,-6.5001 373.3425,-10 383.3425,-13.5001 383.3426,-6.5001"/>
</g>
</g>
</svg>
