<?xml version="1.0" encoding="UTF-8" standalone="no"?>
<!DOCTYPE svg PUBLIC "-//W3C//DTD SVG 1.1//EN"
 "http://www.w3.org/Graphics/SVG/1.1/DTD/svg11.dtd">
<!-- Generated by graphviz version 2.40.1 (20161225.0304)
 -->
<!-- Title: JS_NewClassID Pages: 1 -->
<svg width="577pt" height="176pt"
 viewBox="0.00 0.00 577.00 175.50" xmlns="http://www.w3.org/2000/svg" xmlns:xlink="http://www.w3.org/1999/xlink">
<g id="graph0" class="graph" transform="scale(1 1) rotate(0) translate(4 171.5)">
<title>JS_NewClassID</title>
<!-- Node25865 -->
<g id="node1" class="node">
<title>Node25865</title>
<polygon fill="#bfbfbf" stroke="#000000" points="0,-85 0,-104 90,-104 90,-85 0,-85"/>
<text text-anchor="middle" x="45" y="-92" font-family="Helvetica,sans-Serif" font-size="10.00" fill="#000000">JS_NewClassID</text>
</g>
<!-- Node25866 -->
<g id="node2" class="node">
<title>Node25866</title>
<g id="a_node2"><a xlink:href="quickjs-libc_8c.html#a066e7962ce24f22d5df20968a8baa346" target="_top" xlink:title="js_os_init">
<polygon fill="none" stroke="#000000" points="163.5,-148 163.5,-167 221.5,-167 221.5,-148 163.5,-148"/>
<text text-anchor="middle" x="192.5" y="-155" font-family="Helvetica,sans-Serif" font-size="10.00" fill="#000000">js_os_init</text>
</a>
</g>
</g>
<!-- Node25865&#45;&gt;Node25866 -->
<g id="edge1" class="edge">
<title>Node25865&#45;&gt;Node25866</title>
<path fill="none" stroke="#191970" d="M68.923,-109.3053C84.7008,-118.6103 106.0624,-130.3521 126,-138.5 137.8928,-143.3602 151.4614,-147.4769 163.2273,-150.6225"/>
<polygon fill="#191970" stroke="#191970" points="70.7078,-106.2946 60.3315,-104.1539 67.1081,-112.2981 70.7078,-106.2946"/>
</g>
<!-- Node25871 -->
<g id="node6" class="node">
<title>Node25871</title>
<g id="a_node6"><a xlink:href="quickjs-libc_8c.html#a08cea1a0226b7603e6969e2208d99d55" target="_top" xlink:title="js_std_init">
<polygon fill="none" stroke="#000000" points="162,-110 162,-129 223,-129 223,-110 162,-110"/>
<text text-anchor="middle" x="192.5" y="-117" font-family="Helvetica,sans-Serif" font-size="10.00" fill="#000000">js_std_init</text>
</a>
</g>
</g>
<!-- Node25865&#45;&gt;Node25871 -->
<g id="edge5" class="edge">
<title>Node25865&#45;&gt;Node25871</title>
<path fill="none" stroke="#191970" d="M100.0842,-103.8363C120.9247,-107.3686 143.8937,-111.2616 161.7195,-114.283"/>
<polygon fill="#191970" stroke="#191970" points="100.5006,-100.357 90.0563,-102.1367 99.3308,-107.2586 100.5006,-100.357"/>
</g>
<!-- Node25873 -->
<g id="node8" class="node">
<title>Node25873</title>
<g id="a_node8"><a xlink:href="structqjs_1_1js__traits_3_01std_1_1shared__ptr_3_01T_01_4_01_4.html#af3558afeef079826c58411353c8ccce0" target="_top" xlink:title="Register class in QuickJS context. ">
<polygon fill="none" stroke="#000000" points="142,-50 142,-91 243,-91 243,-50 142,-50"/>
<text text-anchor="start" x="150" y="-79" font-family="Helvetica,sans-Serif" font-size="10.00" fill="#000000">qjs::js_traits&lt; std</text>
<text text-anchor="start" x="150" y="-68" font-family="Helvetica,sans-Serif" font-size="10.00" fill="#000000">::shared_ptr&lt; T &gt; &gt;</text>
<text text-anchor="middle" x="192.5" y="-57" font-family="Helvetica,sans-Serif" font-size="10.00" fill="#000000">::register_class</text>
</a>
</g>
</g>
<!-- Node25865&#45;&gt;Node25873 -->
<g id="edge9" class="edge">
<title>Node25865&#45;&gt;Node25873</title>
<path fill="none" stroke="#191970" d="M100.2627,-85.5081C113.8825,-83.292 128.4016,-80.9296 141.7937,-78.7505"/>
<polygon fill="#191970" stroke="#191970" points="99.3644,-82.1082 90.0563,-87.1688 100.4887,-89.0173 99.3644,-82.1082"/>
</g>
<!-- Node25875 -->
<g id="node10" class="node">
<title>Node25875</title>
<g id="a_node10"><a xlink:href="structqjs_1_1js__traits_3_01detail_1_1function_01_4.html#afe383c63f389edaf9f878cd30062d37f" target="_top" xlink:title="qjs::js_traits\&lt; detail\l::function \&gt;::register_class">
<polygon fill="none" stroke="#000000" points="126,-.5 126,-30.5 259,-30.5 259,-.5 126,-.5"/>
<text text-anchor="start" x="134" y="-18.5" font-family="Helvetica,sans-Serif" font-size="10.00" fill="#000000">qjs::js_traits&lt; detail</text>
<text text-anchor="middle" x="192.5" y="-7.5" font-family="Helvetica,sans-Serif" font-size="10.00" fill="#000000">::function &gt;::register_class</text>
</a>
</g>
</g>
<!-- Node25865&#45;&gt;Node25875 -->
<g id="edge11" class="edge">
<title>Node25865&#45;&gt;Node25875</title>
<path fill="none" stroke="#191970" d="M65.4171,-78.9805C81.3321,-67.3637 104.3012,-51.6261 126,-40.5 133.0242,-36.8983 140.6926,-33.535 148.244,-30.5159"/>
<polygon fill="#191970" stroke="#191970" points="63.3051,-76.1893 57.354,-84.9549 67.4725,-81.8136 63.3051,-76.1893"/>
</g>
<!-- Node25867 -->
<g id="node3" class="node">
<title>Node25867</title>
<g id="a_node3"><a xlink:href="quickjs-libc_8c.html#adcca2b4a661355e6ff87a0def2339894" target="_top" xlink:title="js_init_module_os">
<polygon fill="none" stroke="#000000" points="311.5,-148 311.5,-167 406.5,-167 406.5,-148 311.5,-148"/>
<text text-anchor="middle" x="359" y="-155" font-family="Helvetica,sans-Serif" font-size="10.00" fill="#000000">js_init_module_os</text>
</a>
</g>
</g>
<!-- Node25866&#45;&gt;Node25867 -->
<g id="edge2" class="edge">
<title>Node25866&#45;&gt;Node25867</title>
<path fill="none" stroke="#191970" d="M231.613,-157.5C255.4854,-157.5 286.1695,-157.5 311.441,-157.5"/>
<polygon fill="#191970" stroke="#191970" points="231.5021,-154.0001 221.5021,-157.5 231.5021,-161.0001 231.5021,-154.0001"/>
</g>
<!-- Node25868 -->
<g id="node4" class="node">
<title>Node25868</title>
<g id="a_node4"><a xlink:href="qjs_8cpp.html#a3c04138a5bfe5d72780bb7e82a18e627" target="_top" xlink:title="main">
<polygon fill="none" stroke="#000000" points="495,-110 495,-129 533,-129 533,-110 495,-110"/>
<text text-anchor="middle" x="514" y="-117" font-family="Helvetica,sans-Serif" font-size="10.00" fill="#000000">main</text>
</a>
</g>
</g>
<!-- Node25867&#45;&gt;Node25868 -->
<g id="edge3" class="edge">
<title>Node25867&#45;&gt;Node25868</title>
<path fill="none" stroke="#191970" d="M408.2033,-145.4373C437.5653,-138.2388 473.2086,-129.5005 494.7216,-124.2263"/>
<polygon fill="#191970" stroke="#191970" points="406.992,-142.1305 398.113,-147.911 408.6588,-148.9292 406.992,-142.1305"/>
</g>
<!-- Node25869 -->
<g id="node5" class="node">
<title>Node25869</title>
<g id="a_node5"><a xlink:href="quickjs-libc_8c.html#a1fbb3adc15e7b967479fc1940e99b67a" target="_top" xlink:title="worker_func">
<polygon fill="none" stroke="#ff0000" points="479,-148 479,-167 549,-167 549,-148 479,-148"/>
<text text-anchor="middle" x="514" y="-155" font-family="Helvetica,sans-Serif" font-size="10.00" fill="#000000">worker_func</text>
</a>
</g>
</g>
<!-- Node25867&#45;&gt;Node25869 -->
<g id="edge4" class="edge">
<title>Node25867&#45;&gt;Node25869</title>
<path fill="none" stroke="#191970" d="M416.8235,-157.5C437.6958,-157.5 460.6072,-157.5 478.9386,-157.5"/>
<polygon fill="#191970" stroke="#191970" points="416.7699,-154.0001 406.7699,-157.5 416.7698,-161.0001 416.7699,-154.0001"/>
</g>
<!-- Node25872 -->
<g id="node7" class="node">
<title>Node25872</title>
<g id="a_node7"><a xlink:href="quickjs-libc_8c.html#a0e65c67dfff872a664f8d29e7eae5a61" target="_top" xlink:title="js_init_module_std">
<polygon fill="none" stroke="#000000" points="310,-110 310,-129 408,-129 408,-110 310,-110"/>
<text text-anchor="middle" x="359" y="-117" font-family="Helvetica,sans-Serif" font-size="10.00" fill="#000000">js_init_module_std</text>
</a>
</g>
</g>
<!-- Node25871&#45;&gt;Node25872 -->
<g id="edge6" class="edge">
<title>Node25871&#45;&gt;Node25872</title>
<path fill="none" stroke="#191970" d="M233.1862,-119.5C256.2702,-119.5 285.327,-119.5 309.6992,-119.5"/>
<polygon fill="#191970" stroke="#191970" points="233.0387,-116.0001 223.0387,-119.5 233.0386,-123.0001 233.0387,-116.0001"/>
</g>
<!-- Node25872&#45;&gt;Node25868 -->
<g id="edge7" class="edge">
<title>Node25872&#45;&gt;Node25868</title>
<path fill="none" stroke="#191970" d="M418.2649,-119.5C445.4187,-119.5 475.7389,-119.5 494.8385,-119.5"/>
<polygon fill="#191970" stroke="#191970" points="418.043,-116.0001 408.043,-119.5 418.0429,-123.0001 418.043,-116.0001"/>
</g>
<!-- Node25872&#45;&gt;Node25869 -->
<g id="edge8" class="edge">
<title>Node25872&#45;&gt;Node25869</title>
<path fill="none" stroke="#191970" d="M408.039,-131.5225C431.0443,-137.1625 457.9352,-143.7551 478.8705,-148.8876"/>
<polygon fill="#191970" stroke="#191970" points="408.6588,-128.0708 398.113,-129.089 406.992,-134.8695 408.6588,-128.0708"/>
</g>
<!-- Node25874 -->
<g id="node9" class="node">
<title>Node25874</title>
<g id="a_node9"><a xlink:href="structqjs_1_1js__traits_3_01std_1_1shared__ptr_3_01T_01_4_01_4.html#a046f811ae16e0cb24170a8425f3e8780" target="_top" xlink:title="Create a JSValue from std::shared_ptr&lt;T&gt;. ">
<polygon fill="none" stroke="#000000" points="295,-55.5 295,-85.5 423,-85.5 423,-55.5 295,-55.5"/>
<text text-anchor="start" x="303" y="-73.5" font-family="Helvetica,sans-Serif" font-size="10.00" fill="#000000">qjs::js_traits&lt; std</text>
<text text-anchor="middle" x="359" y="-62.5" font-family="Helvetica,sans-Serif" font-size="10.00" fill="#000000">::shared_ptr&lt; T &gt; &gt;::wrap</text>
</a>
</g>
</g>
<!-- Node25873&#45;&gt;Node25874 -->
<g id="edge10" class="edge">
<title>Node25873&#45;&gt;Node25874</title>
<path fill="none" stroke="#191970" d="M253.4831,-70.5C266.969,-70.5 281.2964,-70.5 294.9021,-70.5"/>
<polygon fill="#191970" stroke="#191970" points="253.3602,-67.0001 243.3602,-70.5 253.3602,-74.0001 253.3602,-67.0001"/>
</g>
<!-- Node25876 -->
<g id="node11" class="node">
<title>Node25876</title>
<g id="a_node11"><a xlink:href="classqjs_1_1Context.html#aae629cc551168d549a405db5c762b61e" target="_top" xlink:title="qjs::Context::init">
<polygon fill="none" stroke="#000000" points="314.5,-6 314.5,-25 403.5,-25 403.5,-6 314.5,-6"/>
<text text-anchor="middle" x="359" y="-13" font-family="Helvetica,sans-Serif" font-size="10.00" fill="#000000">qjs::Context::init</text>
</a>
</g>
</g>
<!-- Node25875&#45;&gt;Node25876 -->
<g id="edge12" class="edge">
<title>Node25875&#45;&gt;Node25876</title>
<path fill="none" stroke="#191970" d="M269.2985,-15.5C284.669,-15.5 300.3347,-15.5 314.1826,-15.5"/>
<polygon fill="#191970" stroke="#191970" points="269.2626,-12.0001 259.2626,-15.5 269.2625,-19.0001 269.2626,-12.0001"/>
</g>
<!-- Node25877 -->
<g id="node12" class="node">
<title>Node25877</title>
<g id="a_node12"><a xlink:href="classqjs_1_1Context.html#a4392a23648acfc4bf6b445336efb5007" target="_top" xlink:title="qjs::Context::Context">
<polygon fill="none" stroke="#ff0000" points="459,-6 459,-25 569,-25 569,-6 459,-6"/>
<text text-anchor="middle" x="514" y="-13" font-family="Helvetica,sans-Serif" font-size="10.00" fill="#000000">qjs::Context::Context</text>
</a>
</g>
</g>
<!-- Node25876&#45;&gt;Node25877 -->
<g id="edge13" class="edge">
<title>Node25876&#45;&gt;Node25877</title>
<path fill="none" stroke="#191970" d="M414.1579,-15.5C428.6599,-15.5 444.3033,-15.5 458.8072,-15.5"/>
<polygon fill="#191970" stroke="#191970" points="413.8325,-12.0001 403.8324,-15.5 413.8324,-19.0001 413.8325,-12.0001"/>
</g>
</g>
</svg>
