<?xml version="1.0" encoding="UTF-8" standalone="no"?>
<!DOCTYPE svg PUBLIC "-//W3C//DTD SVG 1.1//EN"
 "http://www.w3.org/Graphics/SVG/1.1/DTD/svg11.dtd">
<!-- Generated by graphviz version 2.40.1 (20161225.0304)
 -->
<!-- Title: JS_DefineProperty Pages: 1 -->
<svg width="895pt" height="540pt"
 viewBox="0.00 0.00 895.00 539.81" xmlns="http://www.w3.org/2000/svg" xmlns:xlink="http://www.w3.org/1999/xlink">
<g id="graph0" class="graph" transform="scale(1 1) rotate(0) translate(4 535.8052)">
<title>JS_DefineProperty</title>
<!-- Node74085 -->
<g id="node1" class="node">
<title>Node74085</title>
<polygon fill="#bfbfbf" stroke="#000000" points="0,-271 0,-290 99,-290 99,-271 0,-271"/>
<text text-anchor="middle" x="49.5" y="-278" font-family="Helvetica,sans-Serif" font-size="10.00" fill="#000000">JS_DefineProperty</text>
</g>
<!-- Node74086 -->
<g id="node2" class="node">
<title>Node74086</title>
<g id="a_node2"><a xlink:href="quickjs_8c.html#a4c9489297c684663f30e517204a9ec14" target="_top" xlink:title="JS_AddIntrinsicBaseObjects">
<polygon fill="none" stroke="#000000" points="306,-480 306,-499 448,-499 448,-480 306,-480"/>
<text text-anchor="middle" x="377" y="-487" font-family="Helvetica,sans-Serif" font-size="10.00" fill="#000000">JS_AddIntrinsicBaseObjects</text>
</a>
</g>
</g>
<!-- Node74085&#45;&gt;Node74086 -->
<g id="edge1" class="edge">
<title>Node74085&#45;&gt;Node74086</title>
<path fill="none" stroke="#191970" d="M53.8483,-300.0685C65.5294,-350.6737 99.1428,-483.6509 135,-508.5 203.9307,-556.269 311.9274,-518.2911 356.6024,-499.0109"/>
<polygon fill="#191970" stroke="#191970" points="57.2086,-299.0603 51.5829,-290.0825 50.3821,-300.6091 57.2086,-299.0603"/>
</g>
<!-- Node74095 -->
<g id="node6" class="node">
<title>Node74095</title>
<g id="a_node6"><a xlink:href="quickjs_8c.html#a9105ee38f5a557a7922fe6cfee0f9bb2" target="_top" xlink:title="js_arguments_define\l_own_property">
<polygon fill="none" stroke="#000000" points="149,-164.5 149,-194.5 256,-194.5 256,-164.5 149,-164.5"/>
<text text-anchor="start" x="157" y="-182.5" font-family="Helvetica,sans-Serif" font-size="10.00" fill="#000000">js_arguments_define</text>
<text text-anchor="middle" x="202.5" y="-171.5" font-family="Helvetica,sans-Serif" font-size="10.00" fill="#000000">_own_property</text>
</a>
</g>
</g>
<!-- Node74085&#45;&gt;Node74095 -->
<g id="edge5" class="edge">
<title>Node74085&#45;&gt;Node74095</title>
<path fill="none" stroke="#191970" d="M66.6117,-263.8509C83.1365,-248.3877 109.3617,-225.4178 135,-209.5 143.9339,-203.9533 154.07,-198.882 163.7216,-194.5505"/>
<polygon fill="#191970" stroke="#191970" points="64.1627,-261.3499 59.3238,-270.7752 68.9842,-266.4246 64.1627,-261.3499"/>
</g>
<!-- Node74096 -->
<g id="node7" class="node">
<title>Node74096</title>
<g id="a_node7"><a xlink:href="quickjs_8c.html#a04d312757919ff6b4d79cd0c2c3e5bb2" target="_top" xlink:title="js_build_arguments">
<polygon fill="none" stroke="#000000" points="326.5,-366 326.5,-385 427.5,-385 427.5,-366 326.5,-366"/>
<text text-anchor="middle" x="377" y="-373" font-family="Helvetica,sans-Serif" font-size="10.00" fill="#000000">js_build_arguments</text>
</a>
</g>
</g>
<!-- Node74085&#45;&gt;Node74096 -->
<g id="edge6" class="edge">
<title>Node74085&#45;&gt;Node74096</title>
<path fill="none" stroke="#191970" d="M71.8524,-295.6808C88.5664,-306.3639 112.3469,-320.1875 135,-328.5 198.6841,-351.8687 276.2765,-364.3171 326.1424,-370.4096"/>
<polygon fill="#191970" stroke="#191970" points="73.632,-292.6627 63.3458,-290.1238 69.8036,-298.5231 73.632,-292.6627"/>
</g>
<!-- Node74097 -->
<g id="node8" class="node">
<title>Node74097</title>
<g id="a_node8"><a xlink:href="quickjs_8c.html#ac2894ff4edcdb4e6841bcce9c76081e3" target="_top" xlink:title="JS_CallInternal">
<polygon fill="none" stroke="#000000" points="487,-328 487,-347 570,-347 570,-328 487,-328"/>
<text text-anchor="middle" x="528.5" y="-335" font-family="Helvetica,sans-Serif" font-size="10.00" fill="#000000">JS_CallInternal</text>
</a>
</g>
</g>
<!-- Node74085&#45;&gt;Node74097 -->
<g id="edge17" class="edge">
<title>Node74085&#45;&gt;Node74097</title>
<path fill="none" stroke="#191970" d="M63.4675,-298.1559C78.9484,-316.4534 105.6374,-344.4406 135,-359.5 204.0265,-394.9022 228.8193,-386.6824 306,-394.5 368.7898,-400.8599 387.86,-413.6361 448,-394.5 477.3729,-385.1538 505.2382,-360.7707 519.1944,-347.117"/>
<polygon fill="#191970" stroke="#191970" points="65.8593,-295.5538 56.8056,-290.051 60.4516,-299.9987 65.8593,-295.5538"/>
</g>
<!-- Node74299 -->
<g id="node13" class="node">
<title>Node74299</title>
<g id="a_node13"><a xlink:href="quickjs_8c.html#a7e5b77a4851eee6f666581d051979392" target="_top" xlink:title="js_proxy_define_own\l_property">
<polygon fill="none" stroke="#000000" points="779,-265.5 779,-295.5 887,-295.5 887,-265.5 779,-265.5"/>
<text text-anchor="start" x="787" y="-283.5" font-family="Helvetica,sans-Serif" font-size="10.00" fill="#000000">js_proxy_define_own</text>
<text text-anchor="middle" x="833" y="-272.5" font-family="Helvetica,sans-Serif" font-size="10.00" fill="#000000">_property</text>
</a>
</g>
</g>
<!-- Node74085&#45;&gt;Node74299 -->
<g id="edge29" class="edge">
<title>Node74085&#45;&gt;Node74299</title>
<path fill="none" stroke="#191970" d="M91.9977,-268.274C154.0647,-251.5257 273.4023,-223.5 377,-223.5 377,-223.5 377,-223.5 528.5,-223.5 624.2066,-223.5 650.1267,-219.385 743,-242.5 764.067,-247.7433 786.567,-257.2433 803.8002,-265.4325"/>
<polygon fill="#191970" stroke="#191970" points="90.8995,-264.9457 82.1769,-270.9595 92.746,-271.6978 90.8995,-264.9457"/>
</g>
<!-- Node74243 -->
<g id="node14" class="node">
<title>Node74243</title>
<g id="a_node14"><a xlink:href="quickjs_8c.html#afda32fadaf7f938b5d1a2458a596a4b9" target="_top" xlink:title="JS_DefineGlobalFunction">
<polygon fill="none" stroke="#000000" points="313,-328 313,-347 441,-347 441,-328 313,-328"/>
<text text-anchor="middle" x="377" y="-335" font-family="Helvetica,sans-Serif" font-size="10.00" fill="#000000">JS_DefineGlobalFunction</text>
</a>
</g>
</g>
<!-- Node74085&#45;&gt;Node74243 -->
<g id="edge18" class="edge">
<title>Node74085&#45;&gt;Node74243</title>
<path fill="none" stroke="#191970" d="M91.1084,-292.7959C104.9818,-296.5997 120.5775,-300.5586 135,-303.5 194.862,-315.7084 263.9495,-324.9402 312.9432,-330.6812"/>
<polygon fill="#191970" stroke="#191970" points="91.9252,-289.3901 81.3523,-290.0704 90.0417,-296.132 91.9252,-289.3901"/>
</g>
<!-- Node74244 -->
<g id="node15" class="node">
<title>Node74244</title>
<g id="a_node15"><a xlink:href="quickjs_8c.html#af40540b5f7e973f44e4e89d87938bfc6" target="_top" xlink:title="JS_DefinePropertyDesc">
<polygon fill="none" stroke="#ff0000" points="141.5,-126 141.5,-145 263.5,-145 263.5,-126 141.5,-126"/>
<text text-anchor="middle" x="202.5" y="-133" font-family="Helvetica,sans-Serif" font-size="10.00" fill="#000000">JS_DefinePropertyDesc</text>
</a>
</g>
</g>
<!-- Node74085&#45;&gt;Node74244 -->
<g id="edge20" class="edge">
<title>Node74085&#45;&gt;Node74244</title>
<path fill="none" stroke="#191970" d="M57.2427,-261.5461C69.5465,-233.8169 96.2055,-182.4595 135,-154.5 140.432,-150.5851 146.6456,-147.4754 153.0543,-145.0056"/>
<polygon fill="#191970" stroke="#191970" points="53.9485,-260.348 53.2346,-270.9187 60.3847,-263.1004 53.9485,-260.348"/>
</g>
<!-- Node74249 -->
<g id="node16" class="node">
<title>Node74249</title>
<g id="a_node16"><a xlink:href="quickjs_8c.html#abfb24c507e9a341c0a98e61d86fd8663" target="_top" xlink:title="JS_DefinePropertyGetSet">
<polygon fill="none" stroke="#000000" points="137.5,-88 137.5,-107 267.5,-107 267.5,-88 137.5,-88"/>
<text text-anchor="middle" x="202.5" y="-95" font-family="Helvetica,sans-Serif" font-size="10.00" fill="#000000">JS_DefinePropertyGetSet</text>
</a>
</g>
</g>
<!-- Node74085&#45;&gt;Node74249 -->
<g id="edge21" class="edge">
<title>Node74085&#45;&gt;Node74249</title>
<path fill="none" stroke="#191970" d="M54.252,-260.813C63.6178,-226.2913 87.7771,-154.8674 135,-116.5 139.8188,-112.5848 145.3966,-109.4755 151.2396,-107.0064"/>
<polygon fill="#191970" stroke="#191970" points="50.8269,-260.079 51.7205,-270.636 57.6054,-261.8259 50.8269,-260.079"/>
</g>
<!-- Node74250 -->
<g id="node17" class="node">
<title>Node74250</title>
<g id="a_node17"><a xlink:href="quickjs_8c.html#a0a8765bd4012467d9139bc24aabcb3ca" target="_top" xlink:title="JS_DefinePropertyValue">
<polygon fill="none" stroke="#ff0000" points="140.5,-442 140.5,-461 264.5,-461 264.5,-442 140.5,-442"/>
<text text-anchor="middle" x="202.5" y="-449" font-family="Helvetica,sans-Serif" font-size="10.00" fill="#000000">JS_DefinePropertyValue</text>
</a>
</g>
</g>
<!-- Node74085&#45;&gt;Node74250 -->
<g id="edge22" class="edge">
<title>Node74085&#45;&gt;Node74250</title>
<path fill="none" stroke="#191970" d="M55.8535,-300.0144C66.9903,-331.2705 92.9349,-392.5834 135,-427.5 142.5604,-433.7756 151.8826,-438.4635 161.1593,-441.9459"/>
<polygon fill="#191970" stroke="#191970" points="59.0798,-298.6323 52.5297,-290.3049 52.4571,-300.8994 59.0798,-298.6323"/>
</g>
<!-- Node74390 -->
<g id="node18" class="node">
<title>Node74390</title>
<g id="a_node18"><a xlink:href="quickjs_8c.html#ad47910027b4f50d5ff3239df19de556d" target="_top" xlink:title="js_object___defineGetter__">
<polygon fill="none" stroke="#000000" points="135,-50 135,-69 270,-69 270,-50 135,-50"/>
<text text-anchor="middle" x="202.5" y="-57" font-family="Helvetica,sans-Serif" font-size="10.00" fill="#000000">js_object___defineGetter__</text>
</a>
</g>
</g>
<!-- Node74085&#45;&gt;Node74390 -->
<g id="edge26" class="edge">
<title>Node74085&#45;&gt;Node74390</title>
<path fill="none" stroke="#191970" d="M52.1088,-260.8688C58.5244,-220.5343 78.8535,-127.982 135,-78.5 139.384,-74.6363 144.4971,-71.5536 149.9117,-69.0947"/>
<polygon fill="#191970" stroke="#191970" points="48.6434,-260.3783 50.6501,-270.7813 55.5688,-261.3975 48.6434,-260.3783"/>
</g>
<!-- Node74403 -->
<g id="node19" class="node">
<title>Node74403</title>
<g id="a_node19"><a xlink:href="quickjs_8c.html#a3b1f61e0c2e39eb52d8b1c5c8713873e" target="_top" xlink:title="js_object_seal">
<polygon fill="none" stroke="#000000" points="163,-480 163,-499 242,-499 242,-480 163,-480"/>
<text text-anchor="middle" x="202.5" y="-487" font-family="Helvetica,sans-Serif" font-size="10.00" fill="#000000">js_object_seal</text>
</a>
</g>
</g>
<!-- Node74085&#45;&gt;Node74403 -->
<g id="edge27" class="edge">
<title>Node74085&#45;&gt;Node74403</title>
<path fill="none" stroke="#191970" d="M52.6732,-300.0144C59.9753,-338.5184 81.6241,-424.5139 135,-470.5 142.8397,-477.2543 152.9149,-481.618 162.8767,-484.4339"/>
<polygon fill="#191970" stroke="#191970" points="56.1048,-299.3202 50.9134,-290.0844 49.2122,-300.5418 56.1048,-299.3202"/>
</g>
<!-- Node74205 -->
<g id="node20" class="node">
<title>Node74205</title>
<g id="a_node20"><a xlink:href="quickjs_8c.html#a638e637d492ee889691691baba33c4bd" target="_top" xlink:title="JS_SetPropertyGeneric">
<polygon fill="none" stroke="#ff0000" points="317.5,-290 317.5,-309 436.5,-309 436.5,-290 317.5,-290"/>
<text text-anchor="middle" x="377" y="-297" font-family="Helvetica,sans-Serif" font-size="10.00" fill="#000000">JS_SetPropertyGeneric</text>
</a>
</g>
</g>
<!-- Node74085&#45;&gt;Node74205 -->
<g id="edge30" class="edge">
<title>Node74085&#45;&gt;Node74205</title>
<path fill="none" stroke="#191970" d="M109.5407,-283.9833C168.6389,-287.4119 258.3645,-292.6173 317.3331,-296.0384"/>
<polygon fill="#191970" stroke="#191970" points="109.4262,-280.4708 99.2402,-283.3857 109.0207,-287.4591 109.4262,-280.4708"/>
</g>
<!-- Node74208 -->
<g id="node21" class="node">
<title>Node74208</title>
<g id="a_node21"><a xlink:href="quickjs_8c.html#ad7f03358a8088ca920ab308225c6b2e6" target="_top" xlink:title="JS_SetPropertyInternal">
<polygon fill="none" stroke="#ff0000" points="318,-252 318,-271 436,-271 436,-252 318,-252"/>
<text text-anchor="middle" x="377" y="-259" font-family="Helvetica,sans-Serif" font-size="10.00" fill="#000000">JS_SetPropertyInternal</text>
</a>
</g>
</g>
<!-- Node74085&#45;&gt;Node74208 -->
<g id="edge32" class="edge">
<title>Node74085&#45;&gt;Node74208</title>
<path fill="none" stroke="#191970" d="M109.5732,-277.0148C168.8634,-273.5751 258.9573,-268.3483 317.9056,-264.9284"/>
<polygon fill="#191970" stroke="#191970" points="109.0207,-273.5409 99.2402,-277.6143 109.4262,-280.5292 109.0207,-273.5409"/>
</g>
<!-- Node74286 -->
<g id="node22" class="node">
<title>Node74286</title>
<g id="a_node22"><a xlink:href="quickjs_8c.html#a1fdb56277638da2aef63b9be0c12895f" target="_top" xlink:title="js_string_define_own\l_property">
<polygon fill="none" stroke="#000000" points="148.5,-.5 148.5,-30.5 256.5,-30.5 256.5,-.5 148.5,-.5"/>
<text text-anchor="start" x="156.5" y="-18.5" font-family="Helvetica,sans-Serif" font-size="10.00" fill="#000000">js_string_define_own</text>
<text text-anchor="middle" x="202.5" y="-7.5" font-family="Helvetica,sans-Serif" font-size="10.00" fill="#000000">_property</text>
</a>
</g>
</g>
<!-- Node74085&#45;&gt;Node74286 -->
<g id="edge34" class="edge">
<title>Node74085&#45;&gt;Node74286</title>
<path fill="none" stroke="#191970" d="M50.995,-260.7647C55.4534,-215.5987 72.5371,-103.7469 135,-40.5 138.8637,-36.5878 143.3933,-33.2818 148.2457,-30.4894"/>
<polygon fill="#191970" stroke="#191970" points="47.5074,-260.4714 50.1136,-270.7406 54.4802,-261.0875 47.5074,-260.4714"/>
</g>
<!-- Node74087 -->
<g id="node3" class="node">
<title>Node74087</title>
<g id="a_node3"><a xlink:href="quickjs_8c.html#ad8aedb643b8753b7a15f6cb2df61945e" target="_top" xlink:title="JS_NewContext">
<polygon fill="none" stroke="#000000" points="484,-480 484,-499 573,-499 573,-480 484,-480"/>
<text text-anchor="middle" x="528.5" y="-487" font-family="Helvetica,sans-Serif" font-size="10.00" fill="#000000">JS_NewContext</text>
</a>
</g>
</g>
<!-- Node74086&#45;&gt;Node74087 -->
<g id="edge2" class="edge">
<title>Node74086&#45;&gt;Node74087</title>
<path fill="none" stroke="#191970" d="M458.5534,-489.5C467.2595,-489.5 475.8628,-489.5 483.8995,-489.5"/>
<polygon fill="#191970" stroke="#191970" points="458.3138,-486.0001 448.3138,-489.5 458.3137,-493.0001 458.3138,-486.0001"/>
</g>
<!-- Node74088 -->
<g id="node4" class="node">
<title>Node74088</title>
<g id="a_node4"><a xlink:href="classqjs_1_1Context.html#a4392a23648acfc4bf6b445336efb5007" target="_top" xlink:title="qjs::Context::Context">
<polygon fill="none" stroke="#ff0000" points="621,-499 621,-518 731,-518 731,-499 621,-499"/>
<text text-anchor="middle" x="676" y="-506" font-family="Helvetica,sans-Serif" font-size="10.00" fill="#000000">qjs::Context::Context</text>
</a>
</g>
</g>
<!-- Node74087&#45;&gt;Node74088 -->
<g id="edge3" class="edge">
<title>Node74087&#45;&gt;Node74088</title>
<path fill="none" stroke="#191970" d="M583.2464,-496.5521C595.5092,-498.1317 608.5243,-499.8082 620.8052,-501.3902"/>
<polygon fill="#191970" stroke="#191970" points="583.5204,-493.0585 573.1551,-495.2522 582.626,-500.0012 583.5204,-493.0585"/>
</g>
<!-- Node74091 -->
<g id="node5" class="node">
<title>Node74091</title>
<g id="a_node5"><a xlink:href="quickjs-libc_8c.html#a1fbb3adc15e7b967479fc1940e99b67a" target="_top" xlink:title="worker_func">
<polygon fill="none" stroke="#ff0000" points="641,-461 641,-480 711,-480 711,-461 641,-461"/>
<text text-anchor="middle" x="676" y="-468" font-family="Helvetica,sans-Serif" font-size="10.00" fill="#000000">worker_func</text>
</a>
</g>
</g>
<!-- Node74087&#45;&gt;Node74091 -->
<g id="edge4" class="edge">
<title>Node74087&#45;&gt;Node74091</title>
<path fill="none" stroke="#191970" d="M583.3212,-482.4383C602.5696,-479.9588 623.6631,-477.2417 640.8575,-475.0268"/>
<polygon fill="#191970" stroke="#191970" points="582.626,-478.9988 573.1551,-483.7478 583.5204,-485.9415 582.626,-478.9988"/>
</g>
<!-- Node74096&#45;&gt;Node74097 -->
<g id="edge7" class="edge">
<title>Node74096&#45;&gt;Node74097</title>
<path fill="none" stroke="#191970" d="M425.0016,-363.46C446.1668,-358.1512 470.6858,-352.0012 490.5451,-347.0201"/>
<polygon fill="#191970" stroke="#191970" points="424.0779,-360.0832 415.2298,-365.911 425.7809,-366.8729 424.0779,-360.0832"/>
</g>
<!-- Node74097&#45;&gt;Node74097 -->
<g id="edge16" class="edge">
<title>Node74097&#45;&gt;Node74097</title>
<path fill="none" stroke="#191970" d="M501.2475,-356.1539C502.3867,-361.4368 511.4708,-365.5 528.5,-365.5 554.4492,-365.5 561.9502,-356.0653 551.0028,-347.2571"/>
<polygon fill="#191970" stroke="#191970" points="504.3752,-357.727 505.9972,-347.2571 498.2001,-354.4303 504.3752,-357.727"/>
</g>
<!-- Node74098 -->
<g id="node9" class="node">
<title>Node74098</title>
<g id="a_node9"><a xlink:href="quickjs_8c.html#ade71a22dc56e7371392393df663b28b3" target="_top" xlink:title="async_func_resume">
<polygon fill="none" stroke="#ff0000" points="624,-290 624,-309 728,-309 728,-290 624,-290"/>
<text text-anchor="middle" x="676" y="-297" font-family="Helvetica,sans-Serif" font-size="10.00" fill="#000000">async_func_resume</text>
</a>
</g>
</g>
<!-- Node74097&#45;&gt;Node74098 -->
<g id="edge8" class="edge">
<title>Node74097&#45;&gt;Node74098</title>
<path fill="none" stroke="#191970" d="M575.5141,-325.3879C596.0566,-320.0956 619.7998,-313.9787 639.0472,-309.0201"/>
<polygon fill="#191970" stroke="#191970" points="574.5311,-322.0268 565.7205,-327.911 576.2775,-328.8054 574.5311,-322.0268"/>
</g>
<!-- Node74109 -->
<g id="node10" class="node">
<title>Node74109</title>
<g id="a_node10"><a xlink:href="quickjs_8c.html#a1a4c02a29525d5cb2085dd8bca3af350" target="_top" xlink:title="JS_Call">
<polygon fill="none" stroke="#ff0000" points="650.5,-252 650.5,-271 701.5,-271 701.5,-252 650.5,-252"/>
<text text-anchor="middle" x="676" y="-259" font-family="Helvetica,sans-Serif" font-size="10.00" fill="#000000">JS_Call</text>
</a>
</g>
</g>
<!-- Node74097&#45;&gt;Node74109 -->
<g id="edge9" class="edge">
<title>Node74097&#45;&gt;Node74109</title>
<path fill="none" stroke="#191970" d="M540.6763,-320.4975C555.7582,-305.1542 582.6907,-284.0866 609,-271.5 622.0881,-265.2385 637.6278,-260.6724 650.4449,-258.515"/>
<polygon fill="#191970" stroke="#191970" points="538.0649,-318.167 533.9357,-327.924 543.2482,-322.8716 538.0649,-318.167"/>
</g>
<!-- Node74189 -->
<g id="node11" class="node">
<title>Node74189</title>
<g id="a_node11"><a xlink:href="quickjs_8c.html#ad35594576a14c10812efaf958c99af8a" target="_top" xlink:title="JS_CallConstructorInternal">
<polygon fill="none" stroke="#ff0000" points="609,-366 609,-385 743,-385 743,-366 609,-366"/>
<text text-anchor="middle" x="676" y="-373" font-family="Helvetica,sans-Serif" font-size="10.00" fill="#000000">JS_CallConstructorInternal</text>
</a>
</g>
</g>
<!-- Node74097&#45;&gt;Node74189 -->
<g id="edge11" class="edge">
<title>Node74097&#45;&gt;Node74189</title>
<path fill="none" stroke="#191970" d="M580.3098,-344.3704C606.8543,-350.5304 637.5708,-359.0313 656.8918,-365.8626"/>
<polygon fill="#191970" stroke="#191970" points="580.8977,-340.9152 570.373,-342.1325 579.3597,-347.7442 580.8977,-340.9152"/>
</g>
<!-- Node74203 -->
<g id="node12" class="node">
<title>Node74203</title>
<g id="a_node12"><a xlink:href="quickjs_8c.html#a75f6ee5e4235a7dc99889f3d2eb2c147" target="_top" xlink:title="JS_CallFree">
<polygon fill="none" stroke="#ff0000" points="640.5,-328 640.5,-347 711.5,-347 711.5,-328 640.5,-328"/>
<text text-anchor="middle" x="676" y="-335" font-family="Helvetica,sans-Serif" font-size="10.00" fill="#000000">JS_CallFree</text>
</a>
</g>
</g>
<!-- Node74097&#45;&gt;Node74203 -->
<g id="edge13" class="edge">
<title>Node74097&#45;&gt;Node74203</title>
<path fill="none" stroke="#191970" d="M580.4337,-331.0197C600.1349,-330.5191 622.1185,-330.7154 640.0295,-331.6085"/>
<polygon fill="#191970" stroke="#191970" points="580.2547,-327.5235 570.373,-331.3449 580.4809,-334.5199 580.2547,-327.5235"/>
</g>
<!-- Node74109&#45;&gt;Node74097 -->
<g id="edge10" class="edge">
<title>Node74109&#45;&gt;Node74097</title>
<path fill="none" stroke="#191970" d="M651.6803,-274.2734C638.636,-278.3787 622.5116,-283.0359 609,-289.5 586.7553,-300.142 564.0652,-316.8469 548.4691,-327.825"/>
<polygon fill="#191970" stroke="#191970" points="652.9728,-277.5326 661.3725,-271.0753 650.7794,-270.8851 652.9728,-277.5326"/>
</g>
<!-- Node74189&#45;&gt;Node74097 -->
<g id="edge12" class="edge">
<title>Node74189&#45;&gt;Node74097</title>
<path fill="none" stroke="#191970" d="M603.2211,-363.4997C582.5889,-358.2064 561.8554,-352.1825 547.4811,-347.0924"/>
<polygon fill="#191970" stroke="#191970" points="602.4391,-366.9119 612.9905,-365.953 604.1441,-360.1227 602.4391,-366.9119"/>
</g>
<!-- Node74203&#45;&gt;Node74097 -->
<g id="edge14" class="edge">
<title>Node74203&#45;&gt;Node74097</title>
<path fill="none" stroke="#191970" d="M629.7981,-343.8127C610.7826,-344.4443 588.9137,-344.3917 570.373,-343.6551"/>
<polygon fill="#191970" stroke="#191970" points="630.1819,-347.3 640.0295,-343.3915 629.8939,-340.3059 630.1819,-347.3"/>
</g>
<!-- Node74203&#45;&gt;Node74299 -->
<g id="edge15" class="edge">
<title>Node74203&#45;&gt;Node74299</title>
<path fill="none" stroke="#191970" d="M721.4685,-325.4248C728.7176,-323.2651 736.0989,-320.9251 743,-318.5 762.2018,-311.7525 783.1773,-302.9812 800.0445,-295.566"/>
<polygon fill="#191970" stroke="#191970" points="720.3534,-322.1038 711.7229,-328.2492 722.302,-328.8272 720.3534,-322.1038"/>
</g>
<!-- Node74243&#45;&gt;Node74097 -->
<g id="edge19" class="edge">
<title>Node74243&#45;&gt;Node74097</title>
<path fill="none" stroke="#191970" d="M451.3705,-337.5C463.4646,-337.5 475.6055,-337.5 486.5597,-337.5"/>
<polygon fill="#191970" stroke="#191970" points="451.2497,-334.0001 441.2496,-337.5 451.2496,-341.0001 451.2497,-334.0001"/>
</g>
<!-- Node74250&#45;&gt;Node74086 -->
<g id="edge23" class="edge">
<title>Node74250&#45;&gt;Node74086</title>
<path fill="none" stroke="#191970" d="M256.4691,-463.2526C281.1433,-468.6258 309.9948,-474.9086 333.2829,-479.9799"/>
<polygon fill="#191970" stroke="#191970" points="257.0495,-459.797 246.5337,-461.089 255.56,-466.6367 257.0495,-459.797"/>
</g>
<!-- Node74250&#45;&gt;Node74096 -->
<g id="edge24" class="edge">
<title>Node74250&#45;&gt;Node74096</title>
<path fill="none" stroke="#191970" d="M233.8784,-437.8338C268.851,-422.6022 324.4953,-398.3674 355.0789,-385.0473"/>
<polygon fill="#191970" stroke="#191970" points="232.3712,-434.6726 224.6005,-441.8745 235.1663,-441.0903 232.3712,-434.6726"/>
</g>
<!-- Node74250&#45;&gt;Node74097 -->
<g id="edge25" class="edge">
<title>Node74250&#45;&gt;Node74097</title>
<path fill="none" stroke="#191970" d="M274.9935,-457.8802C326.0212,-459.2552 394.4887,-454.6318 448,-427.5 484.4597,-409.0139 512.0827,-366.4708 523.1766,-347.246"/>
<polygon fill="#191970" stroke="#191970" points="274.8236,-454.3721 264.706,-457.5161 274.5758,-461.3677 274.8236,-454.3721"/>
</g>
<!-- Node74403&#45;&gt;Node74086 -->
<g id="edge28" class="edge">
<title>Node74403&#45;&gt;Node74086</title>
<path fill="none" stroke="#191970" d="M252.1416,-489.5C268.7888,-489.5 287.6949,-489.5 305.6682,-489.5"/>
<polygon fill="#191970" stroke="#191970" points="252.0968,-486.0001 242.0968,-489.5 252.0967,-493.0001 252.0968,-486.0001"/>
</g>
<!-- Node74205&#45;&gt;Node74097 -->
<g id="edge31" class="edge">
<title>Node74205&#45;&gt;Node74097</title>
<path fill="none" stroke="#191970" d="M425.0016,-311.54C446.1668,-316.8488 470.6858,-322.9988 490.5451,-327.9799"/>
<polygon fill="#191970" stroke="#191970" points="425.7809,-308.1271 415.2298,-309.089 424.0779,-314.9168 425.7809,-308.1271"/>
</g>
<!-- Node74208&#45;&gt;Node74097 -->
<g id="edge33" class="edge">
<title>Node74208&#45;&gt;Node74097</title>
<path fill="none" stroke="#191970" d="M432.066,-274.1338C437.5463,-276.0122 442.9463,-278.1282 448,-280.5 475.1287,-293.232 502.7851,-315.1931 517.5704,-327.8157"/>
<polygon fill="#191970" stroke="#191970" points="432.762,-270.6831 422.1721,-271.0053 430.6515,-277.3574 432.762,-270.6831"/>
</g>
</g>
</svg>
