<?xml version="1.0" encoding="UTF-8" standalone="no"?>
<!DOCTYPE svg PUBLIC "-//W3C//DTD SVG 1.1//EN"
 "http://www.w3.org/Graphics/SVG/1.1/DTD/svg11.dtd">
<!-- Generated by graphviz version 2.40.1 (20161225.0304)
 -->
<!-- Title: js_random_init Pages: 1 -->
<svg width="537pt" height="66pt"
 viewBox="0.00 0.00 537.00 66.00" xmlns="http://www.w3.org/2000/svg" xmlns:xlink="http://www.w3.org/1999/xlink">
<g id="graph0" class="graph" transform="scale(1 1) rotate(0) translate(4 62)">
<title>js_random_init</title>
<!-- Node422041 -->
<g id="node1" class="node">
<title>Node422041</title>
<polygon fill="#bfbfbf" stroke="#000000" points="0,-19.5 0,-38.5 80,-38.5 80,-19.5 0,-19.5"/>
<text text-anchor="middle" x="40" y="-26.5" font-family="Helvetica,sans-Serif" font-size="10.00" fill="#000000">js_random_init</text>
</g>
<!-- Node422042 -->
<g id="node2" class="node">
<title>Node422042</title>
<g id="a_node2"><a xlink:href="quickjs_8c.html#a4c9489297c684663f30e517204a9ec14" target="_top" xlink:title="JS_AddIntrinsicBaseObjects">
<polygon fill="none" stroke="#000000" points="116,-19.5 116,-38.5 258,-38.5 258,-19.5 116,-19.5"/>
<text text-anchor="middle" x="187" y="-26.5" font-family="Helvetica,sans-Serif" font-size="10.00" fill="#000000">JS_AddIntrinsicBaseObjects</text>
</a>
</g>
</g>
<!-- Node422041&#45;&gt;Node422042 -->
<g id="edge1" class="edge">
<title>Node422041&#45;&gt;Node422042</title>
<path fill="none" stroke="#191970" d="M90.3123,-29C98.5308,-29 107.1801,-29 115.7876,-29"/>
<polygon fill="#191970" stroke="#191970" points="90.1684,-25.5001 80.1684,-29 90.1684,-32.5001 90.1684,-25.5001"/>
</g>
<!-- Node422043 -->
<g id="node3" class="node">
<title>Node422043</title>
<g id="a_node3"><a xlink:href="quickjs_8c.html#ad8aedb643b8753b7a15f6cb2df61945e" target="_top" xlink:title="JS_NewContext">
<polygon fill="none" stroke="#000000" points="294,-19.5 294,-38.5 383,-38.5 383,-19.5 294,-19.5"/>
<text text-anchor="middle" x="338.5" y="-26.5" font-family="Helvetica,sans-Serif" font-size="10.00" fill="#000000">JS_NewContext</text>
</a>
</g>
</g>
<!-- Node422042&#45;&gt;Node422043 -->
<g id="edge2" class="edge">
<title>Node422042&#45;&gt;Node422043</title>
<path fill="none" stroke="#191970" d="M268.5534,-29C277.2595,-29 285.8628,-29 293.8995,-29"/>
<polygon fill="#191970" stroke="#191970" points="268.3138,-25.5001 258.3138,-29 268.3137,-32.5001 268.3138,-25.5001"/>
</g>
<!-- Node422044 -->
<g id="node4" class="node">
<title>Node422044</title>
<g id="a_node4"><a xlink:href="classqjs_1_1Context.html#a4392a23648acfc4bf6b445336efb5007" target="_top" xlink:title="qjs::Context::Context">
<polygon fill="none" stroke="#ff0000" points="419,-38.5 419,-57.5 529,-57.5 529,-38.5 419,-38.5"/>
<text text-anchor="middle" x="474" y="-45.5" font-family="Helvetica,sans-Serif" font-size="10.00" fill="#000000">qjs::Context::Context</text>
</a>
</g>
</g>
<!-- Node422043&#45;&gt;Node422044 -->
<g id="edge3" class="edge">
<title>Node422043&#45;&gt;Node422044</title>
<path fill="none" stroke="#191970" d="M393.3476,-36.6908C401.7739,-37.8724 410.4767,-39.0927 418.9083,-40.275"/>
<polygon fill="#191970" stroke="#191970" points="393.6325,-33.1966 383.2433,-35.274 392.6604,-40.1288 393.6325,-33.1966"/>
</g>
<!-- Node422047 -->
<g id="node5" class="node">
<title>Node422047</title>
<g id="a_node5"><a xlink:href="quickjs-libc_8c.html#a1fbb3adc15e7b967479fc1940e99b67a" target="_top" xlink:title="worker_func">
<polygon fill="none" stroke="#ff0000" points="439,-.5 439,-19.5 509,-19.5 509,-.5 439,-.5"/>
<text text-anchor="middle" x="474" y="-7.5" font-family="Helvetica,sans-Serif" font-size="10.00" fill="#000000">worker_func</text>
</a>
</g>
</g>
<!-- Node422043&#45;&gt;Node422047 -->
<g id="edge4" class="edge">
<title>Node422043&#45;&gt;Node422047</title>
<path fill="none" stroke="#191970" d="M393.1712,-21.3339C408.5364,-19.1794 424.8347,-16.894 438.7403,-14.9442"/>
<polygon fill="#191970" stroke="#191970" points="392.6604,-17.8712 383.2433,-22.726 393.6325,-24.8034 392.6604,-17.8712"/>
</g>
</g>
</svg>
