<?xml version="1.0" encoding="UTF-8" standalone="no"?>
<!DOCTYPE svg PUBLIC "-//W3C//DTD SVG 1.1//EN"
 "http://www.w3.org/Graphics/SVG/1.1/DTD/svg11.dtd">
<!-- Generated by graphviz version 2.40.1 (20161225.0304)
 -->
<!-- Title: js_proxy_call Pages: 1 -->
<svg width="500pt" height="66pt"
 viewBox="0.00 0.00 500.00 66.00" xmlns="http://www.w3.org/2000/svg" xmlns:xlink="http://www.w3.org/1999/xlink">
<g id="graph0" class="graph" transform="scale(1 1) rotate(0) translate(4 62)">
<title>js_proxy_call</title>
<!-- Node445349 -->
<g id="node1" class="node">
<title>Node445349</title>
<polygon fill="#bfbfbf" stroke="#000000" points="0,-19.5 0,-38.5 74,-38.5 74,-19.5 0,-19.5"/>
<text text-anchor="middle" x="37" y="-26.5" font-family="Helvetica,sans-Serif" font-size="10.00" fill="#000000">js_proxy_call</text>
</g>
<!-- Node445350 -->
<g id="node2" class="node">
<title>Node445350</title>
<g id="a_node2"><a xlink:href="quickjs_8c.html#a3afdbdd7b58ef7e1dcc178c362071b3d" target="_top" xlink:title="JS_AddIntrinsicProxy">
<polygon fill="none" stroke="#000000" points="110,-19.5 110,-38.5 221,-38.5 221,-19.5 110,-19.5"/>
<text text-anchor="middle" x="165.5" y="-26.5" font-family="Helvetica,sans-Serif" font-size="10.00" fill="#000000">JS_AddIntrinsicProxy</text>
</a>
</g>
</g>
<!-- Node445349&#45;&gt;Node445350 -->
<g id="edge1" class="edge">
<title>Node445349&#45;&gt;Node445350</title>
<path fill="none" stroke="#191970" d="M84.3748,-29C92.6381,-29 101.3023,-29 109.7658,-29"/>
<polygon fill="#191970" stroke="#191970" points="84.1676,-25.5001 74.1675,-29 84.1675,-32.5001 84.1676,-25.5001"/>
</g>
<!-- Node445351 -->
<g id="node3" class="node">
<title>Node445351</title>
<g id="a_node3"><a xlink:href="quickjs_8c.html#ad8aedb643b8753b7a15f6cb2df61945e" target="_top" xlink:title="JS_NewContext">
<polygon fill="none" stroke="#000000" points="257,-19.5 257,-38.5 346,-38.5 346,-19.5 257,-19.5"/>
<text text-anchor="middle" x="301.5" y="-26.5" font-family="Helvetica,sans-Serif" font-size="10.00" fill="#000000">JS_NewContext</text>
</a>
</g>
</g>
<!-- Node445350&#45;&gt;Node445351 -->
<g id="edge2" class="edge">
<title>Node445350&#45;&gt;Node445351</title>
<path fill="none" stroke="#191970" d="M231.3248,-29C239.9894,-29 248.7011,-29 256.8964,-29"/>
<polygon fill="#191970" stroke="#191970" points="231.2088,-25.5001 221.2088,-29 231.2088,-32.5001 231.2088,-25.5001"/>
</g>
<!-- Node445352 -->
<g id="node4" class="node">
<title>Node445352</title>
<g id="a_node4"><a xlink:href="classqjs_1_1Context.html#a4392a23648acfc4bf6b445336efb5007" target="_top" xlink:title="qjs::Context::Context">
<polygon fill="none" stroke="#ff0000" points="382,-38.5 382,-57.5 492,-57.5 492,-38.5 382,-38.5"/>
<text text-anchor="middle" x="437" y="-45.5" font-family="Helvetica,sans-Serif" font-size="10.00" fill="#000000">qjs::Context::Context</text>
</a>
</g>
</g>
<!-- Node445351&#45;&gt;Node445352 -->
<g id="edge3" class="edge">
<title>Node445351&#45;&gt;Node445352</title>
<path fill="none" stroke="#191970" d="M356.3476,-36.6908C364.7739,-37.8724 373.4767,-39.0927 381.9083,-40.275"/>
<polygon fill="#191970" stroke="#191970" points="356.6325,-33.1966 346.2433,-35.274 355.6604,-40.1288 356.6325,-33.1966"/>
</g>
<!-- Node445355 -->
<g id="node5" class="node">
<title>Node445355</title>
<g id="a_node5"><a xlink:href="quickjs-libc_8c.html#a1fbb3adc15e7b967479fc1940e99b67a" target="_top" xlink:title="worker_func">
<polygon fill="none" stroke="#ff0000" points="402,-.5 402,-19.5 472,-19.5 472,-.5 402,-.5"/>
<text text-anchor="middle" x="437" y="-7.5" font-family="Helvetica,sans-Serif" font-size="10.00" fill="#000000">worker_func</text>
</a>
</g>
</g>
<!-- Node445351&#45;&gt;Node445355 -->
<g id="edge4" class="edge">
<title>Node445351&#45;&gt;Node445355</title>
<path fill="none" stroke="#191970" d="M356.1712,-21.3339C371.5364,-19.1794 387.8347,-16.894 401.7403,-14.9442"/>
<polygon fill="#191970" stroke="#191970" points="355.6604,-17.8712 346.2433,-22.726 356.6325,-24.8034 355.6604,-17.8712"/>
</g>
</g>
</svg>
