<?xml version="1.0" encoding="UTF-8" standalone="no"?>
<!DOCTYPE svg PUBLIC "-//W3C//DTD SVG 1.1//EN"
 "http://www.w3.org/Graphics/SVG/1.1/DTD/svg11.dtd">
<!-- Generated by graphviz version 2.40.1 (20161225.0304)
 -->
<!-- Title: JS_AddIntrinsicRegExpCompiler Pages: 1 -->
<svg width="596pt" height="66pt"
 viewBox="0.00 0.00 596.00 66.00" xmlns="http://www.w3.org/2000/svg" xmlns:xlink="http://www.w3.org/1999/xlink">
<g id="graph0" class="graph" transform="scale(1 1) rotate(0) translate(4 62)">
<title>JS_AddIntrinsicRegExpCompiler</title>
<!-- Node8272 -->
<g id="node1" class="node">
<title>Node8272</title>
<polygon fill="#bfbfbf" stroke="#000000" points="0,-19.5 0,-38.5 160,-38.5 160,-19.5 0,-19.5"/>
<text text-anchor="middle" x="80" y="-26.5" font-family="Helvetica,sans-Serif" font-size="10.00" fill="#000000">JS_AddIntrinsicRegExpCompiler</text>
</g>
<!-- Node8273 -->
<g id="node2" class="node">
<title>Node8273</title>
<g id="a_node2"><a xlink:href="quickjs_8c.html#aafc8241682ce24b6d72e0f237ee85a51" target="_top" xlink:title="JS_AddIntrinsicRegExp">
<polygon fill="none" stroke="#000000" points="196,-19.5 196,-38.5 317,-38.5 317,-19.5 196,-19.5"/>
<text text-anchor="middle" x="256.5" y="-26.5" font-family="Helvetica,sans-Serif" font-size="10.00" fill="#000000">JS_AddIntrinsicRegExp</text>
</a>
</g>
</g>
<!-- Node8272&#45;&gt;Node8273 -->
<g id="edge1" class="edge">
<title>Node8272&#45;&gt;Node8273</title>
<path fill="none" stroke="#191970" d="M170.3375,-29C178.9412,-29 187.5184,-29 195.7418,-29"/>
<polygon fill="#191970" stroke="#191970" points="170.2449,-25.5001 160.2449,-29 170.2449,-32.5001 170.2449,-25.5001"/>
</g>
<!-- Node8274 -->
<g id="node3" class="node">
<title>Node8274</title>
<g id="a_node3"><a xlink:href="quickjs_8c.html#ad8aedb643b8753b7a15f6cb2df61945e" target="_top" xlink:title="JS_NewContext">
<polygon fill="none" stroke="#000000" points="353,-19.5 353,-38.5 442,-38.5 442,-19.5 353,-19.5"/>
<text text-anchor="middle" x="397.5" y="-26.5" font-family="Helvetica,sans-Serif" font-size="10.00" fill="#000000">JS_NewContext</text>
</a>
</g>
</g>
<!-- Node8273&#45;&gt;Node8274 -->
<g id="edge2" class="edge">
<title>Node8273&#45;&gt;Node8274</title>
<path fill="none" stroke="#191970" d="M327.2517,-29C335.9114,-29 344.5661,-29 352.693,-29"/>
<polygon fill="#191970" stroke="#191970" points="327.115,-25.5001 317.115,-29 327.1149,-32.5001 327.115,-25.5001"/>
</g>
<!-- Node8275 -->
<g id="node4" class="node">
<title>Node8275</title>
<g id="a_node4"><a xlink:href="classqjs_1_1Context.html#a4392a23648acfc4bf6b445336efb5007" target="_top" xlink:title="qjs::Context::Context">
<polygon fill="none" stroke="#ff0000" points="478,-38.5 478,-57.5 588,-57.5 588,-38.5 478,-38.5"/>
<text text-anchor="middle" x="533" y="-45.5" font-family="Helvetica,sans-Serif" font-size="10.00" fill="#000000">qjs::Context::Context</text>
</a>
</g>
</g>
<!-- Node8274&#45;&gt;Node8275 -->
<g id="edge3" class="edge">
<title>Node8274&#45;&gt;Node8275</title>
<path fill="none" stroke="#191970" d="M452.3476,-36.6908C460.7739,-37.8724 469.4767,-39.0927 477.9083,-40.275"/>
<polygon fill="#191970" stroke="#191970" points="452.6325,-33.1966 442.2433,-35.274 451.6604,-40.1288 452.6325,-33.1966"/>
</g>
<!-- Node8278 -->
<g id="node5" class="node">
<title>Node8278</title>
<g id="a_node5"><a xlink:href="quickjs-libc_8c.html#a1fbb3adc15e7b967479fc1940e99b67a" target="_top" xlink:title="worker_func">
<polygon fill="none" stroke="#ff0000" points="498,-.5 498,-19.5 568,-19.5 568,-.5 498,-.5"/>
<text text-anchor="middle" x="533" y="-7.5" font-family="Helvetica,sans-Serif" font-size="10.00" fill="#000000">worker_func</text>
</a>
</g>
</g>
<!-- Node8274&#45;&gt;Node8278 -->
<g id="edge4" class="edge">
<title>Node8274&#45;&gt;Node8278</title>
<path fill="none" stroke="#191970" d="M452.1712,-21.3339C467.5364,-19.1794 483.8347,-16.894 497.7403,-14.9442"/>
<polygon fill="#191970" stroke="#191970" points="451.6604,-17.8712 442.2433,-22.726 452.6325,-24.8034 451.6604,-17.8712"/>
</g>
</g>
</svg>
