<?xml version="1.0" encoding="UTF-8" standalone="no"?>
<!DOCTYPE svg PUBLIC "-//W3C//DTD SVG 1.1//EN"
 "http://www.w3.org/Graphics/SVG/1.1/DTD/svg11.dtd">
<!-- Generated by graphviz version 2.40.1 (20161225.0304)
 -->
<!-- Title: JS_NewObjectProto Pages: 1 -->
<svg width="1414pt" height="565pt"
 viewBox="0.00 0.00 1414.00 564.53" xmlns="http://www.w3.org/2000/svg" xmlns:xlink="http://www.w3.org/1999/xlink">
<g id="graph0" class="graph" transform="scale(1 1) rotate(0) translate(4 560.5299)">
<title>JS_NewObjectProto</title>
<!-- Node52858 -->
<g id="node1" class="node">
<title>Node52858</title>
<polygon fill="#bfbfbf" stroke="#000000" points="0,-308.5 0,-327.5 106,-327.5 106,-308.5 0,-308.5"/>
<text text-anchor="middle" x="53" y="-315.5" font-family="Helvetica,sans-Serif" font-size="10.00" fill="#000000">JS_NewObjectProto</text>
</g>
<!-- Node52859 -->
<g id="node2" class="node">
<title>Node52859</title>
<g id="a_node2"><a xlink:href="quickjs_8c.html#a4c9489297c684663f30e517204a9ec14" target="_top" xlink:title="JS_AddIntrinsicBaseObjects">
<polygon fill="none" stroke="#000000" points="495,-517.5 495,-536.5 637,-536.5 637,-517.5 495,-517.5"/>
<text text-anchor="middle" x="566" y="-524.5" font-family="Helvetica,sans-Serif" font-size="10.00" fill="#000000">JS_AddIntrinsicBaseObjects</text>
</a>
</g>
</g>
<!-- Node52858&#45;&gt;Node52859 -->
<g id="edge1" class="edge">
<title>Node52858&#45;&gt;Node52859</title>
<path fill="none" stroke="#191970" d="M56.6538,-337.749C64.698,-375.0355 87.725,-455.3388 142,-492 259.2107,-571.1724 438.3226,-551.4806 521.1377,-536.5318"/>
<polygon fill="#191970" stroke="#191970" points="60.0262,-336.7662 54.6204,-327.6543 53.1641,-338.1485 60.0262,-336.7662"/>
</g>
<!-- Node52868 -->
<g id="node6" class="node">
<title>Node52868</title>
<g id="a_node6"><a xlink:href="quickjs_8c.html#a7efb53c2f76fd5cc0e584449437ec09c" target="_top" xlink:title="JS_AddIntrinsicBasicObjects">
<polygon fill="none" stroke="#000000" points="494,-479.5 494,-498.5 638,-498.5 638,-479.5 494,-479.5"/>
<text text-anchor="middle" x="566" y="-486.5" font-family="Helvetica,sans-Serif" font-size="10.00" fill="#000000">JS_AddIntrinsicBasicObjects</text>
</a>
</g>
</g>
<!-- Node52858&#45;&gt;Node52868 -->
<g id="edge5" class="edge">
<title>Node52858&#45;&gt;Node52868</title>
<path fill="none" stroke="#191970" d="M58.3655,-337.6057C68.5288,-370.5234 93.9933,-436.1278 142,-465 199.338,-499.4843 388.4999,-497.1348 493.742,-492.8468"/>
<polygon fill="#191970" stroke="#191970" points="61.6626,-336.4103 55.495,-327.7957 54.9443,-338.3762 61.6626,-336.4103"/>
</g>
<!-- Node52870 -->
<g id="node8" class="node">
<title>Node52870</title>
<g id="a_node8"><a xlink:href="quickjs_8c.html#a4497f8c7cf2ec38da989910ae8b1f042" target="_top" xlink:title="JS_AddIntrinsicMapSet">
<polygon fill="none" stroke="#000000" points="1014.5,-399.5 1014.5,-418.5 1133.5,-418.5 1133.5,-399.5 1014.5,-399.5"/>
<text text-anchor="middle" x="1074" y="-406.5" font-family="Helvetica,sans-Serif" font-size="10.00" fill="#000000">JS_AddIntrinsicMapSet</text>
</a>
</g>
</g>
<!-- Node52858&#45;&gt;Node52870 -->
<g id="edge8" class="edge">
<title>Node52858&#45;&gt;Node52870</title>
<path fill="none" stroke="#191970" d="M68.0533,-335.5942C84.4181,-353.5622 112.2415,-380.8995 142,-396 242.0996,-446.7939 276.2505,-451 388.5,-451 388.5,-451 388.5,-451 741,-451 846.2283,-451 873.059,-448.4088 977,-432 997.8565,-428.7075 1020.864,-423.3295 1039.2356,-418.6017"/>
<polygon fill="#191970" stroke="#191970" points="70.2357,-332.7801 60.9819,-327.6209 64.9986,-337.4248 70.2357,-332.7801"/>
</g>
<!-- Node52871 -->
<g id="node9" class="node">
<title>Node52871</title>
<g id="a_node9"><a xlink:href="quickjs_8c.html#a2e66fcf1bc1d19f346317f10ee590621" target="_top" xlink:title="JS_AddIntrinsicPromise">
<polygon fill="none" stroke="#000000" points="1013,-272.5 1013,-291.5 1135,-291.5 1135,-272.5 1013,-272.5"/>
<text text-anchor="middle" x="1074" y="-279.5" font-family="Helvetica,sans-Serif" font-size="10.00" fill="#000000">JS_AddIntrinsicPromise</text>
</a>
</g>
</g>
<!-- Node52858&#45;&gt;Node52871 -->
<g id="edge10" class="edge">
<title>Node52858&#45;&gt;Node52871</title>
<path fill="none" stroke="#191970" d="M68.5831,-300.7525C113.3073,-253.2479 247.9089,-124 388.5,-124 388.5,-124 388.5,-124 741,-124 846.2283,-124 886.5175,-89.2794 977,-143 1002.1213,-157.9148 996.4117,-173.9509 1013,-198 1031.8294,-225.2982 1055.1042,-256.7497 1066.7069,-272.2819"/>
<polygon fill="#191970" stroke="#191970" points="65.7459,-298.665 61.5174,-308.3795 70.881,-303.4223 65.7459,-298.665"/>
</g>
<!-- Node52872 -->
<g id="node10" class="node">
<title>Node52872</title>
<g id="a_node10"><a xlink:href="quickjs_8c.html#aafc8241682ce24b6d72e0f237ee85a51" target="_top" xlink:title="JS_AddIntrinsicRegExp">
<polygon fill="none" stroke="#000000" points="505.5,-76.5 505.5,-95.5 626.5,-95.5 626.5,-76.5 505.5,-76.5"/>
<text text-anchor="middle" x="566" y="-83.5" font-family="Helvetica,sans-Serif" font-size="10.00" fill="#000000">JS_AddIntrinsicRegExp</text>
</a>
</g>
</g>
<!-- Node52858&#45;&gt;Node52872 -->
<g id="edge12" class="edge">
<title>Node52858&#45;&gt;Node52872</title>
<path fill="none" stroke="#191970" d="M54.7705,-298.186C59.7626,-255.4423 78.0739,-154.8234 142,-110 198.9721,-70.0526 402.4267,-75.9652 505.3883,-81.8283"/>
<polygon fill="#191970" stroke="#191970" points="51.2619,-298.0872 53.7084,-308.3957 58.2244,-298.8115 51.2619,-298.0872"/>
</g>
<!-- Node52873 -->
<g id="node11" class="node">
<title>Node52873</title>
<g id="a_node11"><a xlink:href="quickjs_8c.html#a177d09828596bfe6df4bd90b2e93989d" target="_top" xlink:title="JS_AddIntrinsicTypedArrays">
<polygon fill="none" stroke="#000000" points="142,-38.5 142,-57.5 283,-57.5 283,-38.5 142,-38.5"/>
<text text-anchor="middle" x="212.5" y="-45.5" font-family="Helvetica,sans-Serif" font-size="10.00" fill="#000000">JS_AddIntrinsicTypedArrays</text>
</a>
</g>
</g>
<!-- Node52858&#45;&gt;Node52873 -->
<g id="edge14" class="edge">
<title>Node52858&#45;&gt;Node52873</title>
<path fill="none" stroke="#191970" d="M54.4754,-298.2824C58.9789,-252.1453 76.5492,-136.2177 142,-72 148.4603,-65.6614 156.6587,-60.9948 165.1618,-57.5598"/>
<polygon fill="#191970" stroke="#191970" points="50.9721,-298.1685 53.5908,-308.4346 57.9457,-298.7762 50.9721,-298.1685"/>
</g>
<!-- Node52874 -->
<g id="node12" class="node">
<title>Node52874</title>
<g id="a_node12"><a xlink:href="quickjs_8c.html#ac2894ff4edcdb4e6841bcce9c76081e3" target="_top" xlink:title="JS_CallInternal">
<polygon fill="none" stroke="#000000" points="524.5,-289.5 524.5,-308.5 607.5,-308.5 607.5,-289.5 524.5,-289.5"/>
<text text-anchor="middle" x="566" y="-296.5" font-family="Helvetica,sans-Serif" font-size="10.00" fill="#000000">JS_CallInternal</text>
</a>
</g>
</g>
<!-- Node52858&#45;&gt;Node52874 -->
<g id="edge16" class="edge">
<title>Node52858&#45;&gt;Node52874</title>
<path fill="none" stroke="#191970" d="M82.0233,-304.0592C148.8673,-273.7959 318.6333,-207.4791 458,-242 495.0427,-251.1754 533.3876,-275.6278 552.8902,-289.3378"/>
<polygon fill="#191970" stroke="#191970" points="80.1802,-301.0546 72.5608,-308.4163 83.108,-307.4129 80.1802,-301.0546"/>
</g>
<!-- Node53071 -->
<g id="node24" class="node">
<title>Node53071</title>
<g id="a_node24"><a xlink:href="quickjs_8c.html#aab4130a4c3108a127681be821818528a" target="_top" xlink:title="js_closure">
<polygon fill="none" stroke="#000000" points="358,-403.5 358,-422.5 419,-422.5 419,-403.5 358,-403.5"/>
<text text-anchor="middle" x="388.5" y="-410.5" font-family="Helvetica,sans-Serif" font-size="10.00" fill="#000000">js_closure</text>
</a>
</g>
</g>
<!-- Node52858&#45;&gt;Node53071 -->
<g id="edge34" class="edge">
<title>Node52858&#45;&gt;Node53071</title>
<path fill="none" stroke="#191970" d="M76.7126,-332.9916C94.1587,-343.397 118.7806,-356.8101 142,-365 217.0372,-391.4669 310.3623,-404.592 357.7658,-409.947"/>
<polygon fill="#191970" stroke="#191970" points="78.1746,-329.7841 67.8131,-327.5726 74.534,-335.7629 78.1746,-329.7841"/>
</g>
<!-- Node53465 -->
<g id="node25" class="node">
<title>Node53465</title>
<g id="a_node25"><a xlink:href="quickjs_8c.html#a44504e6de8f6e13870e695d360d9cd3e" target="_top" xlink:title="JS_GetImportMeta">
<polygon fill="none" stroke="#000000" points="163,-289.5 163,-308.5 262,-308.5 262,-289.5 163,-289.5"/>
<text text-anchor="middle" x="212.5" y="-296.5" font-family="Helvetica,sans-Serif" font-size="10.00" fill="#000000">JS_GetImportMeta</text>
</a>
</g>
</g>
<!-- Node52858&#45;&gt;Node53465 -->
<g id="edge37" class="edge">
<title>Node52858&#45;&gt;Node53465</title>
<path fill="none" stroke="#191970" d="M116.1578,-310.4765C131.6782,-308.6277 148.0758,-306.6744 162.8564,-304.9137"/>
<polygon fill="#191970" stroke="#191970" points="115.627,-307.0149 106.1112,-311.6733 116.455,-313.9658 115.627,-307.0149"/>
</g>
<!-- Node53023 -->
<g id="node28" class="node">
<title>Node53023</title>
<g id="a_node28"><a xlink:href="quickjs_8c.html#a044c9fa96a633f551f51655924c570c7" target="_top" xlink:title="js_object_create">
<polygon fill="none" stroke="#000000" points="168.5,-.5 168.5,-19.5 256.5,-19.5 256.5,-.5 168.5,-.5"/>
<text text-anchor="middle" x="212.5" y="-7.5" font-family="Helvetica,sans-Serif" font-size="10.00" fill="#000000">js_object_create</text>
</a>
</g>
</g>
<!-- Node52858&#45;&gt;Node53023 -->
<g id="edge41" class="edge">
<title>Node52858&#45;&gt;Node53023</title>
<path fill="none" stroke="#191970" d="M56.5261,-298.2552C67.395,-239.5108 102.0704,-67.537 142,-29 149.2057,-22.0456 158.6779,-17.574 168.3314,-14.7151"/>
<polygon fill="#191970" stroke="#191970" points="53.0231,-297.9561 54.6752,-308.4213 59.9099,-299.21 53.0231,-297.9561"/>
</g>
<!-- Node53079 -->
<g id="node29" class="node">
<title>Node53079</title>
<g id="a_node29"><a xlink:href="quickjs_8c.html#a36322a209de4ef17f939e6d128578d7f" target="_top" xlink:title="js_op_define_class">
<polygon fill="none" stroke="#000000" points="338.5,-327.5 338.5,-346.5 438.5,-346.5 438.5,-327.5 338.5,-327.5"/>
<text text-anchor="middle" x="388.5" y="-334.5" font-family="Helvetica,sans-Serif" font-size="10.00" fill="#000000">js_op_define_class</text>
</a>
</g>
</g>
<!-- Node52858&#45;&gt;Node53079 -->
<g id="edge42" class="edge">
<title>Node52858&#45;&gt;Node53079</title>
<path fill="none" stroke="#191970" d="M116.1881,-321.5785C180.5628,-325.2241 279.1075,-330.8049 338.3275,-334.1586"/>
<polygon fill="#191970" stroke="#191970" points="116.3429,-318.0817 106.161,-321.0106 115.947,-325.0705 116.3429,-318.0817"/>
</g>
<!-- Node53000 -->
<g id="node30" class="node">
<title>Node53000</title>
<g id="a_node30"><a xlink:href="quickjs_8c.html#a9eb2d90f27f684820f9de13189502b7c" target="_top" xlink:title="js_regexp_exec">
<polygon fill="none" stroke="#ff0000" points="346,-365.5 346,-384.5 431,-384.5 431,-365.5 346,-365.5"/>
<text text-anchor="middle" x="388.5" y="-372.5" font-family="Helvetica,sans-Serif" font-size="10.00" fill="#000000">js_regexp_exec</text>
</a>
</g>
</g>
<!-- Node52858&#45;&gt;Node53000 -->
<g id="edge44" class="edge">
<title>Node52858&#45;&gt;Node53000</title>
<path fill="none" stroke="#191970" d="M98.2014,-330.1138C112.1774,-333.6052 127.6666,-337.2183 142,-340 213.0747,-353.7936 296.6692,-364.5206 345.9728,-370.2889"/>
<polygon fill="#191970" stroke="#191970" points="98.8841,-326.6762 88.3302,-327.6067 97.1608,-333.4607 98.8841,-326.6762"/>
</g>
<!-- Node52860 -->
<g id="node3" class="node">
<title>Node52860</title>
<g id="a_node3"><a xlink:href="quickjs_8c.html#ad8aedb643b8753b7a15f6cb2df61945e" target="_top" xlink:title="JS_NewContext">
<polygon fill="none" stroke="#000000" points="1171,-356.5 1171,-375.5 1260,-375.5 1260,-356.5 1171,-356.5"/>
<text text-anchor="middle" x="1215.5" y="-363.5" font-family="Helvetica,sans-Serif" font-size="10.00" fill="#000000">JS_NewContext</text>
</a>
</g>
</g>
<!-- Node52859&#45;&gt;Node52860 -->
<g id="edge2" class="edge">
<title>Node52859&#45;&gt;Node52860</title>
<path fill="none" stroke="#191970" d="M621.9602,-538.3114C729.6278,-556.9717 969.5762,-583.2515 1135,-487 1179.4888,-461.1143 1204.1919,-399.6477 1212.3919,-375.745"/>
<polygon fill="#191970" stroke="#191970" points="622.4189,-534.8382 611.9607,-536.5338 621.1937,-541.7301 622.4189,-534.8382"/>
</g>
<!-- Node52861 -->
<g id="node4" class="node">
<title>Node52861</title>
<g id="a_node4"><a xlink:href="classqjs_1_1Context.html#a4392a23648acfc4bf6b445336efb5007" target="_top" xlink:title="qjs::Context::Context">
<polygon fill="none" stroke="#ff0000" points="1296,-375.5 1296,-394.5 1406,-394.5 1406,-375.5 1296,-375.5"/>
<text text-anchor="middle" x="1351" y="-382.5" font-family="Helvetica,sans-Serif" font-size="10.00" fill="#000000">qjs::Context::Context</text>
</a>
</g>
</g>
<!-- Node52860&#45;&gt;Node52861 -->
<g id="edge3" class="edge">
<title>Node52860&#45;&gt;Node52861</title>
<path fill="none" stroke="#191970" d="M1270.3476,-373.6908C1278.7739,-374.8724 1287.4767,-376.0927 1295.9083,-377.275"/>
<polygon fill="#191970" stroke="#191970" points="1270.6325,-370.1966 1260.2433,-372.274 1269.6604,-377.1288 1270.6325,-370.1966"/>
</g>
<!-- Node52864 -->
<g id="node5" class="node">
<title>Node52864</title>
<g id="a_node5"><a xlink:href="quickjs-libc_8c.html#a1fbb3adc15e7b967479fc1940e99b67a" target="_top" xlink:title="worker_func">
<polygon fill="none" stroke="#ff0000" points="1316,-337.5 1316,-356.5 1386,-356.5 1386,-337.5 1316,-337.5"/>
<text text-anchor="middle" x="1351" y="-344.5" font-family="Helvetica,sans-Serif" font-size="10.00" fill="#000000">worker_func</text>
</a>
</g>
</g>
<!-- Node52860&#45;&gt;Node52864 -->
<g id="edge4" class="edge">
<title>Node52860&#45;&gt;Node52864</title>
<path fill="none" stroke="#191970" d="M1270.1712,-358.3339C1285.5364,-356.1794 1301.8347,-353.894 1315.7403,-351.9442"/>
<polygon fill="#191970" stroke="#191970" points="1269.6604,-354.8712 1260.2433,-359.726 1270.6325,-361.8034 1269.6604,-354.8712"/>
</g>
<!-- Node52869 -->
<g id="node7" class="node">
<title>Node52869</title>
<g id="a_node7"><a xlink:href="quickjs_8c.html#a442ff496ba00319ad39eb0a129b9eb8b" target="_top" xlink:title="JS_NewContextRaw">
<polygon fill="none" stroke="#000000" points="1019.5,-458.5 1019.5,-477.5 1128.5,-477.5 1128.5,-458.5 1019.5,-458.5"/>
<text text-anchor="middle" x="1074" y="-465.5" font-family="Helvetica,sans-Serif" font-size="10.00" fill="#000000">JS_NewContextRaw</text>
</a>
</g>
</g>
<!-- Node52868&#45;&gt;Node52869 -->
<g id="edge6" class="edge">
<title>Node52868&#45;&gt;Node52869</title>
<path fill="none" stroke="#191970" d="M648.4292,-485.5925C752.8579,-481.2756 929.9452,-473.955 1019.1628,-470.2669"/>
<polygon fill="#191970" stroke="#191970" points="648.0914,-482.1034 638.2445,-486.0135 648.3806,-489.0974 648.0914,-482.1034"/>
</g>
<!-- Node52869&#45;&gt;Node52860 -->
<g id="edge7" class="edge">
<title>Node52869&#45;&gt;Node52860</title>
<path fill="none" stroke="#191970" d="M1097.8077,-452.9837C1109.199,-445.6485 1122.9491,-436.5732 1135,-428 1160.0108,-410.2069 1188.2115,-387.9589 1203.7115,-375.5318"/>
<polygon fill="#191970" stroke="#191970" points="1095.7959,-450.1157 1089.2553,-458.4506 1099.5661,-456.0137 1095.7959,-450.1157"/>
</g>
<!-- Node52870&#45;&gt;Node52860 -->
<g id="edge9" class="edge">
<title>Node52870&#45;&gt;Node52860</title>
<path fill="none" stroke="#191970" d="M1115.1541,-396.4938C1137.1774,-389.8012 1163.868,-381.6903 1184.1843,-375.5164"/>
<polygon fill="#191970" stroke="#191970" points="1113.9537,-393.2005 1105.4034,-399.4569 1115.9891,-399.898 1113.9537,-393.2005"/>
</g>
<!-- Node52871&#45;&gt;Node52860 -->
<g id="edge11" class="edge">
<title>Node52871&#45;&gt;Node52860</title>
<path fill="none" stroke="#191970" d="M1098.963,-296.819C1127.9595,-314.0325 1174.9432,-341.9239 1199.4575,-356.4765"/>
<polygon fill="#191970" stroke="#191970" points="1100.6175,-293.731 1090.2318,-291.6359 1097.0442,-299.7502 1100.6175,-293.731"/>
</g>
<!-- Node52872&#45;&gt;Node52860 -->
<g id="edge13" class="edge">
<title>Node52872&#45;&gt;Node52860</title>
<path fill="none" stroke="#191970" d="M636.5504,-75.7385C721.2728,-66.5786 865.8489,-61.1839 977,-110 1100.1899,-164.1033 1188.7519,-316.232 1210.3848,-356.2528"/>
<polygon fill="#191970" stroke="#191970" points="636.0656,-72.2709 626.5214,-76.8708 636.851,-79.2267 636.0656,-72.2709"/>
</g>
<!-- Node52873&#45;&gt;Node52860 -->
<g id="edge15" class="edge">
<title>Node52873&#45;&gt;Node52860</title>
<path fill="none" stroke="#191970" d="M293.565,-48C365.2146,-48 472.5547,-48 566,-48 566,-48 566,-48 910.5,-48 1015.9835,-48 1060.7123,-50.1127 1135,-125 1202.7255,-193.2721 1213.4813,-320.0315 1215.1822,-356.1589"/>
<polygon fill="#191970" stroke="#191970" points="293.2586,-44.5001 283.2586,-48 293.2585,-51.5001 293.2586,-44.5001"/>
</g>
<!-- Node52874&#45;&gt;Node52874 -->
<g id="edge33" class="edge">
<title>Node52874&#45;&gt;Node52874</title>
<path fill="none" stroke="#191970" d="M533.4401,-317.2746C534.3684,-322.741 545.2217,-327 566,-327 596.9258,-327 605.8653,-317.5653 592.8185,-308.7571"/>
<polygon fill="#191970" stroke="#191970" points="536.4943,-319.0054 539.1815,-308.7571 530.6898,-315.0928 536.4943,-319.0054"/>
</g>
<!-- Node52875 -->
<g id="node13" class="node">
<title>Node52875</title>
<g id="a_node13"><a xlink:href="quickjs_8c.html#ade71a22dc56e7371392393df663b28b3" target="_top" xlink:title="async_func_resume">
<polygon fill="none" stroke="#000000" points="689,-251.5 689,-270.5 793,-270.5 793,-251.5 689,-251.5"/>
<text text-anchor="middle" x="741" y="-258.5" font-family="Helvetica,sans-Serif" font-size="10.00" fill="#000000">async_func_resume</text>
</a>
</g>
</g>
<!-- Node52874&#45;&gt;Node52875 -->
<g id="edge17" class="edge">
<title>Node52874&#45;&gt;Node52875</title>
<path fill="none" stroke="#191970" d="M618.0113,-287.7061C643.1482,-282.2478 672.99,-275.7679 696.9831,-270.558"/>
<polygon fill="#191970" stroke="#191970" points="616.9464,-284.3557 607.9169,-289.8981 618.4318,-291.1963 616.9464,-284.3557"/>
</g>
<!-- Node52885 -->
<g id="node18" class="node">
<title>Node52885</title>
<g id="a_node18"><a xlink:href="quickjs_8c.html#a1a4c02a29525d5cb2085dd8bca3af350" target="_top" xlink:title="JS_Call">
<polygon fill="none" stroke="#ff0000" points="715.5,-201.5 715.5,-220.5 766.5,-220.5 766.5,-201.5 715.5,-201.5"/>
<text text-anchor="middle" x="741" y="-208.5" font-family="Helvetica,sans-Serif" font-size="10.00" fill="#000000">JS_Call</text>
</a>
</g>
</g>
<!-- Node52874&#45;&gt;Node52885 -->
<g id="edge23" class="edge">
<title>Node52874&#45;&gt;Node52885</title>
<path fill="none" stroke="#191970" d="M582.8416,-283.4718C603.9704,-269.2513 641.3912,-249.1352 674,-233 687.5551,-226.2928 702.8491,-219.1824 715.399,-214.347"/>
<polygon fill="#191970" stroke="#191970" points="580.6983,-280.7016 574.6003,-289.3656 584.7703,-286.3954 580.6983,-280.7016"/>
</g>
<!-- Node52963 -->
<g id="node20" class="node">
<title>Node52963</title>
<g id="a_node20"><a xlink:href="quickjs_8c.html#ad35594576a14c10812efaf958c99af8a" target="_top" xlink:title="JS_CallConstructorInternal">
<polygon fill="none" stroke="#ff0000" points="674,-289.5 674,-308.5 808,-308.5 808,-289.5 674,-289.5"/>
<text text-anchor="middle" x="741" y="-296.5" font-family="Helvetica,sans-Serif" font-size="10.00" fill="#000000">JS_CallConstructorInternal</text>
</a>
</g>
</g>
<!-- Node52874&#45;&gt;Node52963 -->
<g id="edge27" class="edge">
<title>Node52874&#45;&gt;Node52963</title>
<path fill="none" stroke="#191970" d="M617.9407,-292.772C635.4611,-292.2289 655.2736,-292.1096 673.8009,-292.4141"/>
<polygon fill="#191970" stroke="#191970" points="617.7814,-289.2754 607.9169,-293.1408 618.0388,-296.2707 617.7814,-289.2754"/>
</g>
<!-- Node52977 -->
<g id="node21" class="node">
<title>Node52977</title>
<g id="a_node21"><a xlink:href="quickjs_8c.html#a75f6ee5e4235a7dc99889f3d2eb2c147" target="_top" xlink:title="JS_CallFree">
<polygon fill="none" stroke="#ff0000" points="705.5,-327.5 705.5,-346.5 776.5,-346.5 776.5,-327.5 705.5,-327.5"/>
<text text-anchor="middle" x="741" y="-334.5" font-family="Helvetica,sans-Serif" font-size="10.00" fill="#000000">JS_CallFree</text>
</a>
</g>
</g>
<!-- Node52874&#45;&gt;Node52977 -->
<g id="edge29" class="edge">
<title>Node52874&#45;&gt;Node52977</title>
<path fill="none" stroke="#191970" d="M618.0239,-304.0661C651.5453,-310.3088 693.4293,-319.9177 718.6528,-327.4592"/>
<polygon fill="#191970" stroke="#191970" points="618.3794,-300.5738 607.9169,-302.2428 617.1366,-307.4626 618.3794,-300.5738"/>
</g>
<!-- Node52876 -->
<g id="node14" class="node">
<title>Node52876</title>
<g id="a_node14"><a xlink:href="quickjs_8c.html#a1bf6b62983e8fff99c0a5d5a9f486115" target="_top" xlink:title="js_async_function_resume">
<polygon fill="none" stroke="#ff0000" points="844,-190.5 844,-209.5 977,-209.5 977,-190.5 844,-190.5"/>
<text text-anchor="middle" x="910.5" y="-197.5" font-family="Helvetica,sans-Serif" font-size="10.00" fill="#000000">js_async_function_resume</text>
</a>
</g>
</g>
<!-- Node52875&#45;&gt;Node52876 -->
<g id="edge18" class="edge">
<title>Node52875&#45;&gt;Node52876</title>
<path fill="none" stroke="#191970" d="M771.8005,-247.4131C792.0952,-238.7167 819.3738,-227.5106 844,-219 853.7597,-215.6271 864.467,-212.3762 874.3836,-209.5459"/>
<polygon fill="#191970" stroke="#191970" points="770.232,-244.278 762.4409,-251.4577 773.0088,-250.7037 770.232,-244.278"/>
</g>
<!-- Node52879 -->
<g id="node15" class="node">
<title>Node52879</title>
<g id="a_node15"><a xlink:href="quickjs_8c.html#ae19867da709929c072f05e90301835a4" target="_top" xlink:title="js_async_generator\l_function_call">
<polygon fill="none" stroke="#000000" points="860,-267 860,-297 961,-297 961,-267 860,-267"/>
<text text-anchor="start" x="868" y="-285" font-family="Helvetica,sans-Serif" font-size="10.00" fill="#000000">js_async_generator</text>
<text text-anchor="middle" x="910.5" y="-274" font-family="Helvetica,sans-Serif" font-size="10.00" fill="#000000">_function_call</text>
</a>
</g>
</g>
<!-- Node52875&#45;&gt;Node52879 -->
<g id="edge19" class="edge">
<title>Node52875&#45;&gt;Node52879</title>
<path fill="none" stroke="#191970" d="M803.388,-268.7295C821.9885,-271.034 842.1368,-273.5302 859.8866,-275.7293"/>
<polygon fill="#191970" stroke="#191970" points="803.5931,-265.2282 793.2387,-267.472 802.7324,-272.1751 803.5931,-265.2282"/>
</g>
<!-- Node52880 -->
<g id="node16" class="node">
<title>Node52880</title>
<g id="a_node16"><a xlink:href="quickjs_8c.html#a89b019c704a2d2914bc30b30a72040b3" target="_top" xlink:title="js_async_generator\l_resume_next">
<polygon fill="none" stroke="#000000" points="860,-316 860,-346 961,-346 961,-316 860,-316"/>
<text text-anchor="start" x="868" y="-334" font-family="Helvetica,sans-Serif" font-size="10.00" fill="#000000">js_async_generator</text>
<text text-anchor="middle" x="910.5" y="-323" font-family="Helvetica,sans-Serif" font-size="10.00" fill="#000000">_resume_next</text>
</a>
</g>
</g>
<!-- Node52875&#45;&gt;Node52880 -->
<g id="edge21" class="edge">
<title>Node52875&#45;&gt;Node52880</title>
<path fill="none" stroke="#191970" d="M793.4102,-273.8236C798.4369,-275.6569 803.3785,-277.7108 808,-280 825.9218,-288.8774 826.3999,-297.5006 844,-307 850.0487,-310.2647 856.6332,-313.2495 863.2296,-315.9207"/>
<polygon fill="#191970" stroke="#191970" points="794.2945,-270.4285 783.7005,-270.5657 792.0678,-277.065 794.2945,-270.4285"/>
</g>
<!-- Node52881 -->
<g id="node17" class="node">
<title>Node52881</title>
<g id="a_node17"><a xlink:href="quickjs_8c.html#ac90552b1f1659acb3dae9a4c62479a30" target="_top" xlink:title="js_generator_function_call">
<polygon fill="none" stroke="#ff0000" points="845.5,-228.5 845.5,-247.5 975.5,-247.5 975.5,-228.5 845.5,-228.5"/>
<text text-anchor="middle" x="910.5" y="-235.5" font-family="Helvetica,sans-Serif" font-size="10.00" fill="#000000">js_generator_function_call</text>
</a>
</g>
</g>
<!-- Node52875&#45;&gt;Node52881 -->
<g id="edge22" class="edge">
<title>Node52875&#45;&gt;Node52881</title>
<path fill="none" stroke="#191970" d="M803.4686,-252.5234C817.0904,-250.675 831.5389,-248.7145 845.2652,-246.8519"/>
<polygon fill="#191970" stroke="#191970" points="802.6772,-249.0987 793.2387,-253.9116 803.6185,-256.0351 802.6772,-249.0987"/>
</g>
<!-- Node52879&#45;&gt;Node52871 -->
<g id="edge20" class="edge">
<title>Node52879&#45;&gt;Node52871</title>
<path fill="none" stroke="#191970" d="M971.4873,-282C985.0036,-282 999.3308,-282 1012.8534,-282"/>
<polygon fill="#191970" stroke="#191970" points="971.3362,-278.5001 961.3362,-282 971.3361,-285.5001 971.3362,-278.5001"/>
</g>
<!-- Node52885&#45;&gt;Node52874 -->
<g id="edge26" class="edge">
<title>Node52885&#45;&gt;Node52874</title>
<path fill="none" stroke="#191970" d="M723.4852,-226.1714C709.8975,-233.9265 690.6387,-242.767 674,-251 647.967,-263.8814 618.8671,-279.3 597.4385,-289.4718"/>
<polygon fill="#191970" stroke="#191970" points="725.5977,-228.9801 732.2582,-220.7406 721.9132,-223.0282 725.5977,-228.9801"/>
</g>
<!-- Node52885&#45;&gt;Node52876 -->
<g id="edge25" class="edge">
<title>Node52885&#45;&gt;Node52876</title>
<path fill="none" stroke="#191970" d="M776.9604,-208.6663C796.3923,-207.4052 821.0137,-205.8074 843.8075,-204.3281"/>
<polygon fill="#191970" stroke="#191970" points="776.4957,-205.189 766.7434,-209.3293 776.9491,-212.1743 776.4957,-205.189"/>
</g>
<!-- Node52886 -->
<g id="node19" class="node">
<title>Node52886</title>
<g id="a_node19"><a xlink:href="quickjs-libc_8c.html#abb1cbe3fdf905e81f603a3a0bfce475a" target="_top" xlink:title="call_handler">
<polygon fill="none" stroke="#000000" points="876.5,-152.5 876.5,-171.5 944.5,-171.5 944.5,-152.5 876.5,-152.5"/>
<text text-anchor="middle" x="910.5" y="-159.5" font-family="Helvetica,sans-Serif" font-size="10.00" fill="#000000">call_handler</text>
</a>
</g>
</g>
<!-- Node52885&#45;&gt;Node52886 -->
<g id="edge24" class="edge">
<title>Node52885&#45;&gt;Node52886</title>
<path fill="none" stroke="#191970" d="M776.6524,-200.5671C796.4775,-194.778 821.5988,-187.4624 844,-181 854.7291,-177.9048 866.439,-174.551 877.0013,-171.5349"/>
<polygon fill="#191970" stroke="#191970" points="775.4275,-197.2786 766.8104,-203.4427 777.3907,-203.9976 775.4275,-197.2786"/>
</g>
<!-- Node52963&#45;&gt;Node52874 -->
<g id="edge28" class="edge">
<title>Node52963&#45;&gt;Node52874</title>
<path fill="none" stroke="#191970" d="M663.5651,-305.7101C644.4236,-305.8623 624.6309,-305.5787 607.9169,-304.8592"/>
<polygon fill="#191970" stroke="#191970" points="663.8441,-309.2071 673.8009,-305.5859 663.7591,-302.2076 663.8441,-309.2071"/>
</g>
<!-- Node52977&#45;&gt;Node52874 -->
<g id="edge30" class="edge">
<title>Node52977&#45;&gt;Node52874</title>
<path fill="none" stroke="#191970" d="M694.9582,-333.028C660.6535,-326.8738 615.291,-316.5826 588.5199,-308.5924"/>
<polygon fill="#191970" stroke="#191970" points="694.7672,-336.5467 705.2167,-334.798 695.9574,-329.6486 694.7672,-336.5467"/>
</g>
<!-- Node53069 -->
<g id="node22" class="node">
<title>Node53069</title>
<g id="a_node22"><a xlink:href="quickjs_8c.html#a5d217acce00892ab2b50a1dcc1eb4cc8" target="_top" xlink:title="JS_EvalFunctionInternal">
<polygon fill="none" stroke="#ff0000" points="849,-403.5 849,-422.5 972,-422.5 972,-403.5 849,-403.5"/>
<text text-anchor="middle" x="910.5" y="-410.5" font-family="Helvetica,sans-Serif" font-size="10.00" fill="#000000">JS_EvalFunctionInternal</text>
</a>
</g>
</g>
<!-- Node52977&#45;&gt;Node53069 -->
<g id="edge31" class="edge">
<title>Node52977&#45;&gt;Node53069</title>
<path fill="none" stroke="#191970" d="M764.4186,-351.9799C784.8129,-364.526 815.4994,-382.2222 844,-394 852.6556,-397.5769 862.2102,-400.738 871.3124,-403.4046"/>
<polygon fill="#191970" stroke="#191970" points="766.1551,-348.938 755.8174,-346.6177 762.4517,-354.8782 766.1551,-348.938"/>
</g>
<!-- Node53002 -->
<g id="node23" class="node">
<title>Node53002</title>
<g id="a_node23"><a xlink:href="quickjs_8c.html#ab737681b4f1a426c560df37c1304c9d6" target="_top" xlink:title="JS_RegExpExec">
<polygon fill="none" stroke="#ff0000" points="864.5,-365.5 864.5,-384.5 956.5,-384.5 956.5,-365.5 864.5,-365.5"/>
<text text-anchor="middle" x="910.5" y="-372.5" font-family="Helvetica,sans-Serif" font-size="10.00" fill="#000000">JS_RegExpExec</text>
</a>
</g>
</g>
<!-- Node52977&#45;&gt;Node53002 -->
<g id="edge32" class="edge">
<title>Node52977&#45;&gt;Node53002</title>
<path fill="none" stroke="#191970" d="M786.2992,-347.1556C811.7064,-352.8516 843.2026,-359.9127 868.12,-365.4989"/>
<polygon fill="#191970" stroke="#191970" points="787.0562,-343.7385 776.5328,-344.966 785.5249,-350.5689 787.0562,-343.7385"/>
</g>
<!-- Node53071&#45;&gt;Node52874 -->
<g id="edge35" class="edge">
<title>Node53071&#45;&gt;Node52874</title>
<path fill="none" stroke="#191970" d="M428.7518,-405.3162C438.6572,-402.54 448.9974,-398.85 458,-394 500.8694,-370.9048 541.0932,-327.8732 557.8283,-308.6773"/>
<polygon fill="#191970" stroke="#191970" points="427.8771,-401.9272 419.0569,-407.797 429.6124,-408.7087 427.8771,-401.9272"/>
</g>
<!-- Node53071&#45;&gt;Node53069 -->
<g id="edge36" class="edge">
<title>Node53071&#45;&gt;Node53069</title>
<path fill="none" stroke="#191970" d="M429.4047,-413C520.5087,-413 740.5755,-413 848.5931,-413"/>
<polygon fill="#191970" stroke="#191970" points="429.2047,-409.5001 419.2047,-413 429.2046,-416.5001 429.2047,-409.5001"/>
</g>
<!-- Node53466 -->
<g id="node26" class="node">
<title>Node53466</title>
<g id="a_node26"><a xlink:href="quickjs_8c.html#a2c15f4e9fa1344bb2d7caca8e21b34f4" target="_top" xlink:title="js_import_meta">
<polygon fill="none" stroke="#000000" points="347,-289.5 347,-308.5 430,-308.5 430,-289.5 347,-289.5"/>
<text text-anchor="middle" x="388.5" y="-296.5" font-family="Helvetica,sans-Serif" font-size="10.00" fill="#000000">js_import_meta</text>
</a>
</g>
</g>
<!-- Node53465&#45;&gt;Node53466 -->
<g id="edge38" class="edge">
<title>Node53465&#45;&gt;Node53466</title>
<path fill="none" stroke="#191970" d="M272.6932,-299C297.074,-299 324.6285,-299 346.7417,-299"/>
<polygon fill="#191970" stroke="#191970" points="272.4638,-295.5001 262.4638,-299 272.4637,-302.5001 272.4638,-295.5001"/>
</g>
<!-- Node53082 -->
<g id="node27" class="node">
<title>Node53082</title>
<g id="a_node27"><a xlink:href="quickjs-libc_8c.html#a5cc3e22713f1916d49867f60a7375505" target="_top" xlink:title="js_module_set_import_meta">
<polygon fill="none" stroke="#ff0000" points="319,-251.5 319,-270.5 458,-270.5 458,-251.5 319,-251.5"/>
<text text-anchor="middle" x="388.5" y="-258.5" font-family="Helvetica,sans-Serif" font-size="10.00" fill="#000000">js_module_set_import_meta</text>
</a>
</g>
</g>
<!-- Node53465&#45;&gt;Node53082 -->
<g id="edge40" class="edge">
<title>Node53465&#45;&gt;Node53082</title>
<path fill="none" stroke="#191970" d="M266.933,-287.2474C291.8194,-281.8742 320.9188,-275.5914 344.4071,-270.5201"/>
<polygon fill="#191970" stroke="#191970" points="265.9483,-283.8793 256.9122,-289.411 267.4257,-290.7216 265.9483,-283.8793"/>
</g>
<!-- Node53466&#45;&gt;Node52874 -->
<g id="edge39" class="edge">
<title>Node53466&#45;&gt;Node52874</title>
<path fill="none" stroke="#191970" d="M440.4386,-299C467.1513,-299 499.2715,-299 524.3377,-299"/>
<polygon fill="#191970" stroke="#191970" points="440.1159,-295.5001 430.1159,-299 440.1158,-302.5001 440.1159,-295.5001"/>
</g>
<!-- Node53079&#45;&gt;Node52874 -->
<g id="edge43" class="edge">
<title>Node53079&#45;&gt;Node52874</title>
<path fill="none" stroke="#191970" d="M443.4058,-325.2455C469.4796,-319.6635 500.1373,-313.1002 524.272,-307.9333"/>
<polygon fill="#191970" stroke="#191970" points="442.3365,-321.8951 433.2907,-327.411 443.8019,-328.74 442.3365,-321.8951"/>
</g>
<!-- Node53000&#45;&gt;Node53002 -->
<g id="edge45" class="edge">
<title>Node53000&#45;&gt;Node53002</title>
<path fill="none" stroke="#191970" d="M441.3201,-375C543.6409,-375 767.3136,-375 864.2118,-375"/>
<polygon fill="#191970" stroke="#191970" points="441.2175,-371.5001 431.2175,-375 441.2174,-378.5001 441.2175,-371.5001"/>
</g>
</g>
</svg>
