<?xml version="1.0" encoding="UTF-8" standalone="no"?>
<!DOCTYPE svg PUBLIC "-//W3C//DTD SVG 1.1//EN"
 "http://www.w3.org/Graphics/SVG/1.1/DTD/svg11.dtd">
<!-- Generated by graphviz version 2.40.1 (20161225.0304)
 -->
<!-- Title: JS_AddIntrinsicJSON Pages: 1 -->
<svg width="538pt" height="66pt"
 viewBox="0.00 0.00 538.00 66.00" xmlns="http://www.w3.org/2000/svg" xmlns:xlink="http://www.w3.org/1999/xlink">
<g id="graph0" class="graph" transform="scale(1 1) rotate(0) translate(4 62)">
<title>JS_AddIntrinsicJSON</title>
<!-- Node436908 -->
<g id="node1" class="node">
<title>Node436908</title>
<polygon fill="#bfbfbf" stroke="#000000" points="0,-19.5 0,-38.5 113,-38.5 113,-19.5 0,-19.5"/>
<text text-anchor="middle" x="56.5" y="-26.5" font-family="Helvetica,sans-Serif" font-size="10.00" fill="#000000">JS_AddIntrinsicJSON</text>
</g>
<!-- Node436909 -->
<g id="node2" class="node">
<title>Node436909</title>
<g id="a_node2"><a xlink:href="quickjs_8c.html#ad8aedb643b8753b7a15f6cb2df61945e" target="_top" xlink:title="JS_NewContext">
<polygon fill="none" stroke="#000000" points="149,-19.5 149,-38.5 238,-38.5 238,-19.5 149,-19.5"/>
<text text-anchor="middle" x="193.5" y="-26.5" font-family="Helvetica,sans-Serif" font-size="10.00" fill="#000000">JS_NewContext</text>
</a>
</g>
</g>
<!-- Node436908&#45;&gt;Node436909 -->
<g id="edge1" class="edge">
<title>Node436908&#45;&gt;Node436909</title>
<path fill="none" stroke="#191970" d="M123.1743,-29C131.8734,-29 140.6118,-29 148.8277,-29"/>
<polygon fill="#191970" stroke="#191970" points="123.0141,-25.5001 113.0141,-29 123.0141,-32.5001 123.0141,-25.5001"/>
</g>
<!-- Node436910 -->
<g id="node3" class="node">
<title>Node436910</title>
<g id="a_node3"><a xlink:href="classqjs_1_1Context.html#a4392a23648acfc4bf6b445336efb5007" target="_top" xlink:title="qjs::Context::Context">
<polygon fill="none" stroke="#000000" points="274,-38.5 274,-57.5 384,-57.5 384,-38.5 274,-38.5"/>
<text text-anchor="middle" x="329" y="-45.5" font-family="Helvetica,sans-Serif" font-size="10.00" fill="#000000">qjs::Context::Context</text>
</a>
</g>
</g>
<!-- Node436909&#45;&gt;Node436910 -->
<g id="edge2" class="edge">
<title>Node436909&#45;&gt;Node436910</title>
<path fill="none" stroke="#191970" d="M248.3476,-36.6908C256.7739,-37.8724 265.4767,-39.0927 273.9083,-40.275"/>
<polygon fill="#191970" stroke="#191970" points="248.6325,-33.1966 238.2433,-35.274 247.6604,-40.1288 248.6325,-33.1966"/>
</g>
<!-- Node436913 -->
<g id="node5" class="node">
<title>Node436913</title>
<g id="a_node5"><a xlink:href="quickjs-libc_8c.html#a1fbb3adc15e7b967479fc1940e99b67a" target="_top" xlink:title="worker_func">
<polygon fill="none" stroke="#000000" points="294,-.5 294,-19.5 364,-19.5 364,-.5 294,-.5"/>
<text text-anchor="middle" x="329" y="-7.5" font-family="Helvetica,sans-Serif" font-size="10.00" fill="#000000">worker_func</text>
</a>
</g>
</g>
<!-- Node436909&#45;&gt;Node436913 -->
<g id="edge4" class="edge">
<title>Node436909&#45;&gt;Node436913</title>
<path fill="none" stroke="#191970" d="M248.1712,-21.3339C263.5364,-19.1794 279.8347,-16.894 293.7403,-14.9442"/>
<polygon fill="#191970" stroke="#191970" points="247.6604,-17.8712 238.2433,-22.726 248.6325,-24.8034 247.6604,-17.8712"/>
</g>
<!-- Node436911 -->
<g id="node4" class="node">
<title>Node436911</title>
<g id="a_node4"><a xlink:href="classqjs_1_1Context.html#af725fb8083d8c33a37198d6acaf1a836" target="_top" xlink:title="qjs::Context::Context">
<polygon fill="none" stroke="#ff0000" points="420,-38.5 420,-57.5 530,-57.5 530,-38.5 420,-38.5"/>
<text text-anchor="middle" x="475" y="-45.5" font-family="Helvetica,sans-Serif" font-size="10.00" fill="#000000">qjs::Context::Context</text>
</a>
</g>
</g>
<!-- Node436910&#45;&gt;Node436911 -->
<g id="edge3" class="edge">
<title>Node436910&#45;&gt;Node436911</title>
<path fill="none" stroke="#191970" d="M394.4101,-48C402.8647,-48 411.4567,-48 419.7256,-48"/>
<polygon fill="#191970" stroke="#191970" points="394.1964,-44.5001 384.1963,-48 394.1963,-51.5001 394.1964,-44.5001"/>
</g>
<!-- Node436914 -->
<g id="node6" class="node">
<title>Node436914</title>
<g id="a_node6"><a xlink:href="quickjs-libc_8c.html#aff1e6131e8bf8b7eb25307623ad669e7" target="_top" xlink:title="js_worker_ctor">
<polygon fill="none" stroke="#ff0000" points="435,-.5 435,-19.5 515,-19.5 515,-.5 435,-.5"/>
<text text-anchor="middle" x="475" y="-7.5" font-family="Helvetica,sans-Serif" font-size="10.00" fill="#000000">js_worker_ctor</text>
</a>
</g>
</g>
<!-- Node436913&#45;&gt;Node436914 -->
<g id="edge5" class="edge">
<title>Node436913&#45;&gt;Node436914</title>
<path fill="none" stroke="#191970" d="M374.4324,-10C393.761,-10 416.112,-10 434.8272,-10"/>
<polygon fill="#191970" stroke="#191970" points="374.3426,-6.5001 364.3425,-10 374.3425,-13.5001 374.3426,-6.5001"/>
</g>
</g>
</svg>
