<?xml version="1.0" encoding="UTF-8" standalone="no"?>
<!DOCTYPE svg PUBLIC "-//W3C//DTD SVG 1.1//EN"
 "http://www.w3.org/Graphics/SVG/1.1/DTD/svg11.dtd">
<!-- Generated by graphviz version 2.40.1 (20161225.0304)
 -->
<!-- Title: js_regexp_constructor Pages: 1 -->
<svg width="549pt" height="66pt"
 viewBox="0.00 0.00 549.00 66.00" xmlns="http://www.w3.org/2000/svg" xmlns:xlink="http://www.w3.org/1999/xlink">
<g id="graph0" class="graph" transform="scale(1 1) rotate(0) translate(4 62)">
<title>js_regexp_constructor</title>
<!-- Node424204 -->
<g id="node1" class="node">
<title>Node424204</title>
<polygon fill="#bfbfbf" stroke="#000000" points="0,-19.5 0,-38.5 113,-38.5 113,-19.5 0,-19.5"/>
<text text-anchor="middle" x="56.5" y="-26.5" font-family="Helvetica,sans-Serif" font-size="10.00" fill="#000000">js_regexp_constructor</text>
</g>
<!-- Node424205 -->
<g id="node2" class="node">
<title>Node424205</title>
<g id="a_node2"><a xlink:href="quickjs_8c.html#aafc8241682ce24b6d72e0f237ee85a51" target="_top" xlink:title="JS_AddIntrinsicRegExp">
<polygon fill="none" stroke="#000000" points="149,-19.5 149,-38.5 270,-38.5 270,-19.5 149,-19.5"/>
<text text-anchor="middle" x="209.5" y="-26.5" font-family="Helvetica,sans-Serif" font-size="10.00" fill="#000000">JS_AddIntrinsicRegExp</text>
</a>
</g>
</g>
<!-- Node424204&#45;&gt;Node424205 -->
<g id="edge1" class="edge">
<title>Node424204&#45;&gt;Node424205</title>
<path fill="none" stroke="#191970" d="M123.2882,-29C131.782,-29 140.4381,-29 148.8286,-29"/>
<polygon fill="#191970" stroke="#191970" points="123.0369,-25.5001 113.0369,-29 123.0368,-32.5001 123.0369,-25.5001"/>
</g>
<!-- Node424206 -->
<g id="node3" class="node">
<title>Node424206</title>
<g id="a_node3"><a xlink:href="quickjs_8c.html#ad8aedb643b8753b7a15f6cb2df61945e" target="_top" xlink:title="JS_NewContext">
<polygon fill="none" stroke="#000000" points="306,-19.5 306,-38.5 395,-38.5 395,-19.5 306,-19.5"/>
<text text-anchor="middle" x="350.5" y="-26.5" font-family="Helvetica,sans-Serif" font-size="10.00" fill="#000000">JS_NewContext</text>
</a>
</g>
</g>
<!-- Node424205&#45;&gt;Node424206 -->
<g id="edge2" class="edge">
<title>Node424205&#45;&gt;Node424206</title>
<path fill="none" stroke="#191970" d="M280.2517,-29C288.9114,-29 297.5661,-29 305.693,-29"/>
<polygon fill="#191970" stroke="#191970" points="280.115,-25.5001 270.115,-29 280.1149,-32.5001 280.115,-25.5001"/>
</g>
<!-- Node424207 -->
<g id="node4" class="node">
<title>Node424207</title>
<g id="a_node4"><a xlink:href="classqjs_1_1Context.html#a4392a23648acfc4bf6b445336efb5007" target="_top" xlink:title="qjs::Context::Context">
<polygon fill="none" stroke="#ff0000" points="431,-38.5 431,-57.5 541,-57.5 541,-38.5 431,-38.5"/>
<text text-anchor="middle" x="486" y="-45.5" font-family="Helvetica,sans-Serif" font-size="10.00" fill="#000000">qjs::Context::Context</text>
</a>
</g>
</g>
<!-- Node424206&#45;&gt;Node424207 -->
<g id="edge3" class="edge">
<title>Node424206&#45;&gt;Node424207</title>
<path fill="none" stroke="#191970" d="M405.3476,-36.6908C413.7739,-37.8724 422.4767,-39.0927 430.9083,-40.275"/>
<polygon fill="#191970" stroke="#191970" points="405.6325,-33.1966 395.2433,-35.274 404.6604,-40.1288 405.6325,-33.1966"/>
</g>
<!-- Node424210 -->
<g id="node5" class="node">
<title>Node424210</title>
<g id="a_node5"><a xlink:href="quickjs-libc_8c.html#a1fbb3adc15e7b967479fc1940e99b67a" target="_top" xlink:title="worker_func">
<polygon fill="none" stroke="#ff0000" points="451,-.5 451,-19.5 521,-19.5 521,-.5 451,-.5"/>
<text text-anchor="middle" x="486" y="-7.5" font-family="Helvetica,sans-Serif" font-size="10.00" fill="#000000">worker_func</text>
</a>
</g>
</g>
<!-- Node424206&#45;&gt;Node424210 -->
<g id="edge4" class="edge">
<title>Node424206&#45;&gt;Node424210</title>
<path fill="none" stroke="#191970" d="M405.1712,-21.3339C420.5364,-19.1794 436.8347,-16.894 450.7403,-14.9442"/>
<polygon fill="#191970" stroke="#191970" points="404.6604,-17.8712 395.2433,-22.726 405.6325,-24.8034 404.6604,-17.8712"/>
</g>
</g>
</svg>
