<?xml version="1.0" encoding="UTF-8" standalone="no"?>
<!DOCTYPE svg PUBLIC "-//W3C//DTD SVG 1.1//EN"
 "http://www.w3.org/Graphics/SVG/1.1/DTD/svg11.dtd">
<!-- Generated by graphviz version 2.40.1 (20161225.0304)
 -->
<!-- Title: js_shared_array_buffer_constructor Pages: 1 -->
<svg width="572pt" height="66pt"
 viewBox="0.00 0.00 572.00 66.00" xmlns="http://www.w3.org/2000/svg" xmlns:xlink="http://www.w3.org/1999/xlink">
<g id="graph0" class="graph" transform="scale(1 1) rotate(0) translate(4 62)">
<title>js_shared_array_buffer_constructor</title>
<!-- Node474733 -->
<g id="node1" class="node">
<title>Node474733</title>
<polygon fill="#bfbfbf" stroke="#000000" points="0,-14 0,-44 116,-44 116,-14 0,-14"/>
<text text-anchor="start" x="8" y="-32" font-family="Helvetica,sans-Serif" font-size="10.00" fill="#000000">js_shared_array_buffer</text>
<text text-anchor="middle" x="58" y="-21" font-family="Helvetica,sans-Serif" font-size="10.00" fill="#000000">_constructor</text>
</g>
<!-- Node474734 -->
<g id="node2" class="node">
<title>Node474734</title>
<g id="a_node2"><a xlink:href="quickjs_8c.html#a177d09828596bfe6df4bd90b2e93989d" target="_top" xlink:title="JS_AddIntrinsicTypedArrays">
<polygon fill="none" stroke="#000000" points="152,-19.5 152,-38.5 293,-38.5 293,-19.5 152,-19.5"/>
<text text-anchor="middle" x="222.5" y="-26.5" font-family="Helvetica,sans-Serif" font-size="10.00" fill="#000000">JS_AddIntrinsicTypedArrays</text>
</a>
</g>
</g>
<!-- Node474733&#45;&gt;Node474734 -->
<g id="edge1" class="edge">
<title>Node474733&#45;&gt;Node474734</title>
<path fill="none" stroke="#191970" d="M126.5346,-29C134.8931,-29 143.4459,-29 151.8348,-29"/>
<polygon fill="#191970" stroke="#191970" points="126.4598,-25.5001 116.4597,-29 126.4597,-32.5001 126.4598,-25.5001"/>
</g>
<!-- Node474735 -->
<g id="node3" class="node">
<title>Node474735</title>
<g id="a_node3"><a xlink:href="quickjs_8c.html#ad8aedb643b8753b7a15f6cb2df61945e" target="_top" xlink:title="JS_NewContext">
<polygon fill="none" stroke="#000000" points="329,-19.5 329,-38.5 418,-38.5 418,-19.5 329,-19.5"/>
<text text-anchor="middle" x="373.5" y="-26.5" font-family="Helvetica,sans-Serif" font-size="10.00" fill="#000000">JS_NewContext</text>
</a>
</g>
</g>
<!-- Node474734&#45;&gt;Node474735 -->
<g id="edge2" class="edge">
<title>Node474734&#45;&gt;Node474735</title>
<path fill="none" stroke="#191970" d="M303.3813,-29C312.0943,-29 320.7113,-29 328.7649,-29"/>
<polygon fill="#191970" stroke="#191970" points="303.1368,-25.5001 293.1368,-29 303.1367,-32.5001 303.1368,-25.5001"/>
</g>
<!-- Node474736 -->
<g id="node4" class="node">
<title>Node474736</title>
<g id="a_node4"><a xlink:href="classqjs_1_1Context.html#a4392a23648acfc4bf6b445336efb5007" target="_top" xlink:title="qjs::Context::Context">
<polygon fill="none" stroke="#ff0000" points="454,-38.5 454,-57.5 564,-57.5 564,-38.5 454,-38.5"/>
<text text-anchor="middle" x="509" y="-45.5" font-family="Helvetica,sans-Serif" font-size="10.00" fill="#000000">qjs::Context::Context</text>
</a>
</g>
</g>
<!-- Node474735&#45;&gt;Node474736 -->
<g id="edge3" class="edge">
<title>Node474735&#45;&gt;Node474736</title>
<path fill="none" stroke="#191970" d="M428.3476,-36.6908C436.7739,-37.8724 445.4767,-39.0927 453.9083,-40.275"/>
<polygon fill="#191970" stroke="#191970" points="428.6325,-33.1966 418.2433,-35.274 427.6604,-40.1288 428.6325,-33.1966"/>
</g>
<!-- Node474739 -->
<g id="node5" class="node">
<title>Node474739</title>
<g id="a_node5"><a xlink:href="quickjs-libc_8c.html#a1fbb3adc15e7b967479fc1940e99b67a" target="_top" xlink:title="worker_func">
<polygon fill="none" stroke="#ff0000" points="474,-.5 474,-19.5 544,-19.5 544,-.5 474,-.5"/>
<text text-anchor="middle" x="509" y="-7.5" font-family="Helvetica,sans-Serif" font-size="10.00" fill="#000000">worker_func</text>
</a>
</g>
</g>
<!-- Node474735&#45;&gt;Node474739 -->
<g id="edge4" class="edge">
<title>Node474735&#45;&gt;Node474739</title>
<path fill="none" stroke="#191970" d="M428.1712,-21.3339C443.5364,-19.1794 459.8347,-16.894 473.7403,-14.9442"/>
<polygon fill="#191970" stroke="#191970" points="427.6604,-17.8712 418.2433,-22.726 428.6325,-24.8034 427.6604,-17.8712"/>
</g>
</g>
</svg>
