<?xml version="1.0" encoding="UTF-8" standalone="no"?>
<!DOCTYPE svg PUBLIC "-//W3C//DTD SVG 1.1//EN"
 "http://www.w3.org/Graphics/SVG/1.1/DTD/svg11.dtd">
<!-- Generated by graphviz version 2.40.1 (20161225.0304)
 -->
<!-- Title: JS_NewContextRaw Pages: 1 -->
<svg width="534pt" height="66pt"
 viewBox="0.00 0.00 534.00 66.00" xmlns="http://www.w3.org/2000/svg" xmlns:xlink="http://www.w3.org/1999/xlink">
<g id="graph0" class="graph" transform="scale(1 1) rotate(0) translate(4 62)">
<title>JS_NewContextRaw</title>
<!-- Node67986 -->
<g id="node1" class="node">
<title>Node67986</title>
<polygon fill="#bfbfbf" stroke="#000000" points="0,-19.5 0,-38.5 109,-38.5 109,-19.5 0,-19.5"/>
<text text-anchor="middle" x="54.5" y="-26.5" font-family="Helvetica,sans-Serif" font-size="10.00" fill="#000000">JS_NewContextRaw</text>
</g>
<!-- Node67987 -->
<g id="node2" class="node">
<title>Node67987</title>
<g id="a_node2"><a xlink:href="quickjs_8c.html#ad8aedb643b8753b7a15f6cb2df61945e" target="_top" xlink:title="JS_NewContext">
<polygon fill="none" stroke="#000000" points="145,-19.5 145,-38.5 234,-38.5 234,-19.5 145,-19.5"/>
<text text-anchor="middle" x="189.5" y="-26.5" font-family="Helvetica,sans-Serif" font-size="10.00" fill="#000000">JS_NewContext</text>
</a>
</g>
</g>
<!-- Node67986&#45;&gt;Node67987 -->
<g id="edge1" class="edge">
<title>Node67986&#45;&gt;Node67987</title>
<path fill="none" stroke="#191970" d="M119.1206,-29C127.7784,-29 136.4993,-29 144.7125,-29"/>
<polygon fill="#191970" stroke="#191970" points="119.0206,-25.5001 109.0205,-29 119.0205,-32.5001 119.0206,-25.5001"/>
</g>
<!-- Node67988 -->
<g id="node3" class="node">
<title>Node67988</title>
<g id="a_node3"><a xlink:href="classqjs_1_1Context.html#a4392a23648acfc4bf6b445336efb5007" target="_top" xlink:title="qjs::Context::Context">
<polygon fill="none" stroke="#000000" points="270,-38.5 270,-57.5 380,-57.5 380,-38.5 270,-38.5"/>
<text text-anchor="middle" x="325" y="-45.5" font-family="Helvetica,sans-Serif" font-size="10.00" fill="#000000">qjs::Context::Context</text>
</a>
</g>
</g>
<!-- Node67987&#45;&gt;Node67988 -->
<g id="edge2" class="edge">
<title>Node67987&#45;&gt;Node67988</title>
<path fill="none" stroke="#191970" d="M244.3476,-36.6908C252.7739,-37.8724 261.4767,-39.0927 269.9083,-40.275"/>
<polygon fill="#191970" stroke="#191970" points="244.6325,-33.1966 234.2433,-35.274 243.6604,-40.1288 244.6325,-33.1966"/>
</g>
<!-- Node67991 -->
<g id="node5" class="node">
<title>Node67991</title>
<g id="a_node5"><a xlink:href="quickjs-libc_8c.html#a1fbb3adc15e7b967479fc1940e99b67a" target="_top" xlink:title="worker_func">
<polygon fill="none" stroke="#000000" points="290,-.5 290,-19.5 360,-19.5 360,-.5 290,-.5"/>
<text text-anchor="middle" x="325" y="-7.5" font-family="Helvetica,sans-Serif" font-size="10.00" fill="#000000">worker_func</text>
</a>
</g>
</g>
<!-- Node67987&#45;&gt;Node67991 -->
<g id="edge4" class="edge">
<title>Node67987&#45;&gt;Node67991</title>
<path fill="none" stroke="#191970" d="M244.1712,-21.3339C259.5364,-19.1794 275.8347,-16.894 289.7403,-14.9442"/>
<polygon fill="#191970" stroke="#191970" points="243.6604,-17.8712 234.2433,-22.726 244.6325,-24.8034 243.6604,-17.8712"/>
</g>
<!-- Node67989 -->
<g id="node4" class="node">
<title>Node67989</title>
<g id="a_node4"><a xlink:href="classqjs_1_1Context.html#af725fb8083d8c33a37198d6acaf1a836" target="_top" xlink:title="qjs::Context::Context">
<polygon fill="none" stroke="#ff0000" points="416,-38.5 416,-57.5 526,-57.5 526,-38.5 416,-38.5"/>
<text text-anchor="middle" x="471" y="-45.5" font-family="Helvetica,sans-Serif" font-size="10.00" fill="#000000">qjs::Context::Context</text>
</a>
</g>
</g>
<!-- Node67988&#45;&gt;Node67989 -->
<g id="edge3" class="edge">
<title>Node67988&#45;&gt;Node67989</title>
<path fill="none" stroke="#191970" d="M390.4101,-48C398.8647,-48 407.4567,-48 415.7256,-48"/>
<polygon fill="#191970" stroke="#191970" points="390.1964,-44.5001 380.1963,-48 390.1963,-51.5001 390.1964,-44.5001"/>
</g>
<!-- Node67992 -->
<g id="node6" class="node">
<title>Node67992</title>
<g id="a_node6"><a xlink:href="quickjs-libc_8c.html#aff1e6131e8bf8b7eb25307623ad669e7" target="_top" xlink:title="js_worker_ctor">
<polygon fill="none" stroke="#ff0000" points="431,-.5 431,-19.5 511,-19.5 511,-.5 431,-.5"/>
<text text-anchor="middle" x="471" y="-7.5" font-family="Helvetica,sans-Serif" font-size="10.00" fill="#000000">js_worker_ctor</text>
</a>
</g>
</g>
<!-- Node67991&#45;&gt;Node67992 -->
<g id="edge5" class="edge">
<title>Node67991&#45;&gt;Node67992</title>
<path fill="none" stroke="#191970" d="M370.4324,-10C389.761,-10 412.112,-10 430.8272,-10"/>
<polygon fill="#191970" stroke="#191970" points="370.3426,-6.5001 360.3425,-10 370.3425,-13.5001 370.3426,-6.5001"/>
</g>
</g>
</svg>
