<?xml version="1.0" encoding="UTF-8" standalone="no"?>
<!DOCTYPE svg PUBLIC "-//W3C//DTD SVG 1.1//EN"
 "http://www.w3.org/Graphics/SVG/1.1/DTD/svg11.dtd">
<!-- Generated by graphviz version 2.40.1 (20161225.0304)
 -->
<!-- Title: js_promise_resolve_function_call Pages: 1 -->
<svg width="538pt" height="66pt"
 viewBox="0.00 0.00 538.00 66.00" xmlns="http://www.w3.org/2000/svg" xmlns:xlink="http://www.w3.org/1999/xlink">
<g id="graph0" class="graph" transform="scale(1 1) rotate(0) translate(4 62)">
<title>js_promise_resolve_function_call</title>
<!-- Node453026 -->
<g id="node1" class="node">
<title>Node453026</title>
<polygon fill="#bfbfbf" stroke="#000000" points="0,-14 0,-44 101,-44 101,-14 0,-14"/>
<text text-anchor="start" x="8" y="-32" font-family="Helvetica,sans-Serif" font-size="10.00" fill="#000000">js_promise_resolve</text>
<text text-anchor="middle" x="50.5" y="-21" font-family="Helvetica,sans-Serif" font-size="10.00" fill="#000000">_function_call</text>
</g>
<!-- Node453027 -->
<g id="node2" class="node">
<title>Node453027</title>
<g id="a_node2"><a xlink:href="quickjs_8c.html#a2e66fcf1bc1d19f346317f10ee590621" target="_top" xlink:title="JS_AddIntrinsicPromise">
<polygon fill="none" stroke="#000000" points="137,-19.5 137,-38.5 259,-38.5 259,-19.5 137,-19.5"/>
<text text-anchor="middle" x="198" y="-26.5" font-family="Helvetica,sans-Serif" font-size="10.00" fill="#000000">JS_AddIntrinsicPromise</text>
</a>
</g>
</g>
<!-- Node453026&#45;&gt;Node453027 -->
<g id="edge1" class="edge">
<title>Node453026&#45;&gt;Node453027</title>
<path fill="none" stroke="#191970" d="M111.4105,-29C119.8506,-29 128.5223,-29 136.9647,-29"/>
<polygon fill="#191970" stroke="#191970" points="111.2612,-25.5001 101.2611,-29 111.2611,-32.5001 111.2612,-25.5001"/>
</g>
<!-- Node453028 -->
<g id="node3" class="node">
<title>Node453028</title>
<g id="a_node3"><a xlink:href="quickjs_8c.html#ad8aedb643b8753b7a15f6cb2df61945e" target="_top" xlink:title="JS_NewContext">
<polygon fill="none" stroke="#000000" points="295,-19.5 295,-38.5 384,-38.5 384,-19.5 295,-19.5"/>
<text text-anchor="middle" x="339.5" y="-26.5" font-family="Helvetica,sans-Serif" font-size="10.00" fill="#000000">JS_NewContext</text>
</a>
</g>
</g>
<!-- Node453027&#45;&gt;Node453028 -->
<g id="edge2" class="edge">
<title>Node453027&#45;&gt;Node453028</title>
<path fill="none" stroke="#191970" d="M269.3807,-29C278.0398,-29 286.6863,-29 294.8014,-29"/>
<polygon fill="#191970" stroke="#191970" points="269.241,-25.5001 259.241,-29 269.241,-32.5001 269.241,-25.5001"/>
</g>
<!-- Node453029 -->
<g id="node4" class="node">
<title>Node453029</title>
<g id="a_node4"><a xlink:href="classqjs_1_1Context.html#a4392a23648acfc4bf6b445336efb5007" target="_top" xlink:title="qjs::Context::Context">
<polygon fill="none" stroke="#ff0000" points="420,-38.5 420,-57.5 530,-57.5 530,-38.5 420,-38.5"/>
<text text-anchor="middle" x="475" y="-45.5" font-family="Helvetica,sans-Serif" font-size="10.00" fill="#000000">qjs::Context::Context</text>
</a>
</g>
</g>
<!-- Node453028&#45;&gt;Node453029 -->
<g id="edge3" class="edge">
<title>Node453028&#45;&gt;Node453029</title>
<path fill="none" stroke="#191970" d="M394.3476,-36.6908C402.7739,-37.8724 411.4767,-39.0927 419.9083,-40.275"/>
<polygon fill="#191970" stroke="#191970" points="394.6325,-33.1966 384.2433,-35.274 393.6604,-40.1288 394.6325,-33.1966"/>
</g>
<!-- Node453032 -->
<g id="node5" class="node">
<title>Node453032</title>
<g id="a_node5"><a xlink:href="quickjs-libc_8c.html#a1fbb3adc15e7b967479fc1940e99b67a" target="_top" xlink:title="worker_func">
<polygon fill="none" stroke="#ff0000" points="440,-.5 440,-19.5 510,-19.5 510,-.5 440,-.5"/>
<text text-anchor="middle" x="475" y="-7.5" font-family="Helvetica,sans-Serif" font-size="10.00" fill="#000000">worker_func</text>
</a>
</g>
</g>
<!-- Node453028&#45;&gt;Node453032 -->
<g id="edge4" class="edge">
<title>Node453028&#45;&gt;Node453032</title>
<path fill="none" stroke="#191970" d="M394.1712,-21.3339C409.5364,-19.1794 425.8347,-16.894 439.7403,-14.9442"/>
<polygon fill="#191970" stroke="#191970" points="393.6604,-17.8712 384.2433,-22.726 394.6325,-24.8034 393.6604,-17.8712"/>
</g>
</g>
</svg>
