<?xml version="1.0" encoding="UTF-8" standalone="no"?>
<!DOCTYPE svg PUBLIC "-//W3C//DTD SVG 1.1//EN"
 "http://www.w3.org/Graphics/SVG/1.1/DTD/svg11.dtd">
<!-- Generated by graphviz version 2.40.1 (20161225.0304)
 -->
<!-- Title: JS_NewCFunction2 Pages: 1 -->
<svg width="758pt" height="294pt"
 viewBox="0.00 0.00 758.00 294.00" xmlns="http://www.w3.org/2000/svg" xmlns:xlink="http://www.w3.org/1999/xlink">
<g id="graph0" class="graph" transform="scale(1 1) rotate(0) translate(4 290)">
<title>JS_NewCFunction2</title>
<!-- Node142182 -->
<g id="node1" class="node">
<title>Node142182</title>
<polygon fill="#bfbfbf" stroke="#000000" points="0,-114.5 0,-133.5 104,-133.5 104,-114.5 0,-114.5"/>
<text text-anchor="middle" x="52" y="-121.5" font-family="Helvetica,sans-Serif" font-size="10.00" fill="#000000">JS_NewCFunction2</text>
</g>
<!-- Node142183 -->
<g id="node2" class="node">
<title>Node142183</title>
<g id="a_node2"><a xlink:href="quickjs_8c.html#a2e66fcf1bc1d19f346317f10ee590621" target="_top" xlink:title="JS_AddIntrinsicPromise">
<polygon fill="none" stroke="#000000" points="347,-266.5 347,-285.5 469,-285.5 469,-266.5 347,-266.5"/>
<text text-anchor="middle" x="408" y="-273.5" font-family="Helvetica,sans-Serif" font-size="10.00" fill="#000000">JS_AddIntrinsicPromise</text>
</a>
</g>
</g>
<!-- Node142182&#45;&gt;Node142183 -->
<g id="edge1" class="edge">
<title>Node142182&#45;&gt;Node142183</title>
<path fill="none" stroke="#191970" d="M60.7451,-142.9206C73.9157,-169.0718 101.4661,-215.5706 140,-238 203.561,-274.9968 289.5663,-280.9607 346.82,-280.0077"/>
<polygon fill="#191970" stroke="#191970" points="63.78,-141.1574 56.2683,-133.6859 57.4812,-144.2111 63.78,-141.1574"/>
</g>
<!-- Node142192 -->
<g id="node6" class="node">
<title>Node142192</title>
<g id="a_node6"><a xlink:href="quickjs_8c.html#a3afdbdd7b58ef7e1dcc178c362071b3d" target="_top" xlink:title="JS_AddIntrinsicProxy">
<polygon fill="none" stroke="#000000" points="165,-209.5 165,-228.5 276,-228.5 276,-209.5 165,-209.5"/>
<text text-anchor="middle" x="220.5" y="-216.5" font-family="Helvetica,sans-Serif" font-size="10.00" fill="#000000">JS_AddIntrinsicProxy</text>
</a>
</g>
</g>
<!-- Node142182&#45;&gt;Node142192 -->
<g id="edge5" class="edge">
<title>Node142182&#45;&gt;Node142192</title>
<path fill="none" stroke="#191970" d="M74.0557,-139.4631C91.5548,-151.4405 116.8398,-168.1087 140,-181 159.1752,-191.6732 181.846,-202.1976 198.2347,-209.4543"/>
<polygon fill="#191970" stroke="#191970" points="75.885,-136.4729 65.6671,-133.6721 71.9082,-142.2336 75.885,-136.4729"/>
</g>
<!-- Node142193 -->
<g id="node7" class="node">
<title>Node142193</title>
<g id="a_node7"><a xlink:href="quickjs_8h.html#aa68c88001ca8a8662d8f9f321a72f421" target="_top" xlink:title="JS_NewCFunction">
<polygon fill="none" stroke="#000000" points="171,-76.5 171,-95.5 270,-95.5 270,-76.5 171,-76.5"/>
<text text-anchor="middle" x="220.5" y="-83.5" font-family="Helvetica,sans-Serif" font-size="10.00" fill="#000000">JS_NewCFunction</text>
</a>
</g>
</g>
<!-- Node142182&#45;&gt;Node142193 -->
<g id="edge7" class="edge">
<title>Node142182&#45;&gt;Node142193</title>
<path fill="none" stroke="#191970" d="M104.4313,-112.1757C128.1868,-106.8184 155.8986,-100.5689 178.2861,-95.5201"/>
<polygon fill="#191970" stroke="#191970" points="103.5047,-108.7967 94.5197,-114.411 105.0447,-115.6252 103.5047,-108.7967"/>
</g>
<!-- Node142197 -->
<g id="node12" class="node">
<title>Node142197</title>
<g id="a_node12"><a xlink:href="quickjs_8h.html#ae75598e7954a062f9890bc2ecf435fa1" target="_top" xlink:title="JS_NewCFunctionMagic">
<polygon fill="none" stroke="#000000" points="158,-152.5 158,-171.5 283,-171.5 283,-152.5 158,-152.5"/>
<text text-anchor="middle" x="220.5" y="-159.5" font-family="Helvetica,sans-Serif" font-size="10.00" fill="#000000">JS_NewCFunctionMagic</text>
</a>
</g>
</g>
<!-- Node142182&#45;&gt;Node142197 -->
<g id="edge15" class="edge">
<title>Node142182&#45;&gt;Node142197</title>
<path fill="none" stroke="#191970" d="M104.4313,-135.8243C128.1868,-141.1816 155.8986,-147.4311 178.2861,-152.4799"/>
<polygon fill="#191970" stroke="#191970" points="105.0447,-132.3748 94.5197,-133.589 103.5047,-139.2033 105.0447,-132.3748"/>
</g>
<!-- Node142199 -->
<g id="node14" class="node">
<title>Node142199</title>
<g id="a_node14"><a xlink:href="quickjs_8c.html#a293feb2179c9a722b2bd410bc2c5c173" target="_top" xlink:title="JS_NewGlobalCConstructor">
<polygon fill="none" stroke="#000000" points="150.5,-114.5 150.5,-133.5 290.5,-133.5 290.5,-114.5 150.5,-114.5"/>
<text text-anchor="middle" x="220.5" y="-121.5" font-family="Helvetica,sans-Serif" font-size="10.00" fill="#000000">JS_NewGlobalCConstructor</text>
</a>
</g>
</g>
<!-- Node142182&#45;&gt;Node142199 -->
<g id="edge19" class="edge">
<title>Node142182&#45;&gt;Node142199</title>
<path fill="none" stroke="#191970" d="M114.5111,-124C126.2323,-124 138.5561,-124 150.4875,-124"/>
<polygon fill="#191970" stroke="#191970" points="114.3908,-120.5001 104.3908,-124 114.3908,-127.5001 114.3908,-120.5001"/>
</g>
<!-- Node142202 -->
<g id="node17" class="node">
<title>Node142202</title>
<g id="a_node17"><a xlink:href="quickjs_8c.html#abc33a664e231090ec89f9d9975e21229" target="_top" xlink:title="JS_NewGlobalCConstructorOnly">
<polygon fill="none" stroke="#000000" points="140,-38.5 140,-57.5 301,-57.5 301,-38.5 140,-38.5"/>
<text text-anchor="middle" x="220.5" y="-45.5" font-family="Helvetica,sans-Serif" font-size="10.00" fill="#000000">JS_NewGlobalCConstructorOnly</text>
</a>
</g>
</g>
<!-- Node142182&#45;&gt;Node142202 -->
<g id="edge25" class="edge">
<title>Node142182&#45;&gt;Node142202</title>
<path fill="none" stroke="#191970" d="M71.8938,-108.2544C89.0335,-95.4133 114.9072,-77.7062 140,-67 148.8492,-63.2244 158.5804,-60.1236 168.1257,-57.6031"/>
<polygon fill="#191970" stroke="#191970" points="69.5935,-105.6074 63.7773,-114.4631 73.8465,-111.1673 69.5935,-105.6074"/>
</g>
<!-- Node142190 -->
<g id="node18" class="node">
<title>Node142190</title>
<g id="a_node18"><a xlink:href="quickjs-libc_8c.html#a066e7962ce24f22d5df20968a8baa346" target="_top" xlink:title="js_os_init">
<polygon fill="none" stroke="#ff0000" points="191.5,-.5 191.5,-19.5 249.5,-19.5 249.5,-.5 191.5,-.5"/>
<text text-anchor="middle" x="220.5" y="-7.5" font-family="Helvetica,sans-Serif" font-size="10.00" fill="#000000">js_os_init</text>
</a>
</g>
</g>
<!-- Node142182&#45;&gt;Node142190 -->
<g id="edge27" class="edge">
<title>Node142182&#45;&gt;Node142190</title>
<path fill="none" stroke="#191970" d="M63.5459,-106.1276C78.5154,-84.4526 106.6888,-48.4152 140,-29 155.6319,-19.8891 175.3771,-15.144 191.3999,-12.6743"/>
<polygon fill="#191970" stroke="#191970" points="60.6288,-104.1934 57.9623,-114.4473 66.4412,-108.0943 60.6288,-104.1934"/>
</g>
<!-- Node142184 -->
<g id="node3" class="node">
<title>Node142184</title>
<g id="a_node3"><a xlink:href="quickjs_8c.html#ad8aedb643b8753b7a15f6cb2df61945e" target="_top" xlink:title="JS_NewContext">
<polygon fill="none" stroke="#000000" points="515,-133.5 515,-152.5 604,-152.5 604,-133.5 515,-133.5"/>
<text text-anchor="middle" x="559.5" y="-140.5" font-family="Helvetica,sans-Serif" font-size="10.00" fill="#000000">JS_NewContext</text>
</a>
</g>
</g>
<!-- Node142183&#45;&gt;Node142184 -->
<g id="edge2" class="edge">
<title>Node142183&#45;&gt;Node142184</title>
<path fill="none" stroke="#191970" d="M459.6312,-262.7573C466.4801,-259.8191 473.1466,-256.2707 479,-252 516.8186,-224.4072 544.4843,-173.8479 554.9293,-152.7011"/>
<polygon fill="#191970" stroke="#191970" points="458.2984,-259.5201 450.2381,-266.3962 460.8272,-266.0474 458.2984,-259.5201"/>
</g>
<!-- Node142185 -->
<g id="node4" class="node">
<title>Node142185</title>
<g id="a_node4"><a xlink:href="classqjs_1_1Context.html#a4392a23648acfc4bf6b445336efb5007" target="_top" xlink:title="qjs::Context::Context">
<polygon fill="none" stroke="#ff0000" points="640,-133.5 640,-152.5 750,-152.5 750,-133.5 640,-133.5"/>
<text text-anchor="middle" x="695" y="-140.5" font-family="Helvetica,sans-Serif" font-size="10.00" fill="#000000">qjs::Context::Context</text>
</a>
</g>
</g>
<!-- Node142184&#45;&gt;Node142185 -->
<g id="edge3" class="edge">
<title>Node142184&#45;&gt;Node142185</title>
<path fill="none" stroke="#191970" d="M614.3476,-143C622.7739,-143 631.4767,-143 639.9083,-143"/>
<polygon fill="#191970" stroke="#191970" points="614.2433,-139.5001 604.2433,-143 614.2433,-146.5001 614.2433,-139.5001"/>
</g>
<!-- Node142188 -->
<g id="node5" class="node">
<title>Node142188</title>
<g id="a_node5"><a xlink:href="quickjs-libc_8c.html#a1fbb3adc15e7b967479fc1940e99b67a" target="_top" xlink:title="worker_func">
<polygon fill="none" stroke="#ff0000" points="660,-81.5 660,-100.5 730,-100.5 730,-81.5 660,-81.5"/>
<text text-anchor="middle" x="695" y="-88.5" font-family="Helvetica,sans-Serif" font-size="10.00" fill="#000000">worker_func</text>
</a>
</g>
</g>
<!-- Node142184&#45;&gt;Node142188 -->
<g id="edge4" class="edge">
<title>Node142184&#45;&gt;Node142188</title>
<path fill="none" stroke="#191970" d="M594.0011,-129.7597C617.6545,-120.6824 648.4972,-108.8461 669.8459,-100.6532"/>
<polygon fill="#191970" stroke="#191970" points="592.4349,-126.6118 584.3528,-133.4624 594.9429,-133.1471 592.4349,-126.6118"/>
</g>
<!-- Node142192&#45;&gt;Node142184 -->
<g id="edge6" class="edge">
<title>Node142192&#45;&gt;Node142184</title>
<path fill="none" stroke="#191970" d="M274.4363,-230.237C328.2862,-238.916 412.3944,-245.4739 479,-219 513.1144,-205.4404 541.1345,-169.8084 553.1642,-152.5882"/>
<polygon fill="#191970" stroke="#191970" points="274.8583,-226.7587 264.4144,-228.5407 273.69,-233.6605 274.8583,-226.7587"/>
</g>
<!-- Node142194 -->
<g id="node8" class="node">
<title>Node142194</title>
<g id="a_node8"><a xlink:href="quickjs-libc_8c.html#ad04466feec6822a3b838baf229f6dfa0" target="_top" xlink:title="js_std_add_helpers">
<polygon fill="none" stroke="#000000" points="357.5,-.5 357.5,-19.5 458.5,-19.5 458.5,-.5 357.5,-.5"/>
<text text-anchor="middle" x="408" y="-7.5" font-family="Helvetica,sans-Serif" font-size="10.00" fill="#000000">js_std_add_helpers</text>
</a>
</g>
</g>
<!-- Node142193&#45;&gt;Node142194 -->
<g id="edge8" class="edge">
<title>Node142193&#45;&gt;Node142194</title>
<path fill="none" stroke="#191970" d="M280.2397,-76.0664C287.484,-73.6683 294.5822,-70.6925 301,-67 321.165,-55.398 317.0095,-40.9001 337,-29 343.469,-25.1491 350.7274,-22.064 358.0678,-19.5963"/>
<polygon fill="#191970" stroke="#191970" points="278.9225,-72.8058 270.3209,-78.9915 280.9026,-79.5199 278.9225,-72.8058"/>
</g>
<!-- Node142195 -->
<g id="node10" class="node">
<title>Node142195</title>
<g id="a_node10"><a xlink:href="quickjs_8c.html#a4c9489297c684663f30e517204a9ec14" target="_top" xlink:title="JS_AddIntrinsicBaseObjects">
<polygon fill="none" stroke="#000000" points="337,-152.5 337,-171.5 479,-171.5 479,-152.5 337,-152.5"/>
<text text-anchor="middle" x="408" y="-159.5" font-family="Helvetica,sans-Serif" font-size="10.00" fill="#000000">JS_AddIntrinsicBaseObjects</text>
</a>
</g>
</g>
<!-- Node142193&#45;&gt;Node142195 -->
<g id="edge11" class="edge">
<title>Node142193&#45;&gt;Node142195</title>
<path fill="none" stroke="#191970" d="M280.2397,-95.9336C287.484,-98.3317 294.5822,-101.3075 301,-105 321.165,-116.602 317.0095,-131.0999 337,-143 343.469,-146.8509 350.7274,-149.936 358.0678,-152.4037"/>
<polygon fill="#191970" stroke="#191970" points="280.9026,-92.4801 270.3209,-93.0085 278.9225,-99.1942 280.9026,-92.4801"/>
</g>
<!-- Node142196 -->
<g id="node11" class="node">
<title>Node142196</title>
<g id="a_node11"><a xlink:href="quickjs_8c.html#a177d09828596bfe6df4bd90b2e93989d" target="_top" xlink:title="JS_AddIntrinsicTypedArrays">
<polygon fill="none" stroke="#000000" points="337.5,-38.5 337.5,-57.5 478.5,-57.5 478.5,-38.5 337.5,-38.5"/>
<text text-anchor="middle" x="408" y="-45.5" font-family="Helvetica,sans-Serif" font-size="10.00" fill="#000000">JS_AddIntrinsicTypedArrays</text>
</a>
</g>
</g>
<!-- Node142193&#45;&gt;Node142196 -->
<g id="edge13" class="edge">
<title>Node142193&#45;&gt;Node142196</title>
<path fill="none" stroke="#191970" d="M277.7838,-74.3905C304.4506,-68.986 335.7805,-62.6365 361.0261,-57.5201"/>
<polygon fill="#191970" stroke="#191970" points="276.9197,-70.9944 267.8142,-76.411 278.3101,-77.8549 276.9197,-70.9944"/>
</g>
<!-- Node142194&#45;&gt;Node142188 -->
<g id="edge10" class="edge">
<title>Node142194&#45;&gt;Node142188</title>
<path fill="none" stroke="#191970" d="M453.8173,-22.1309C462.2017,-24.3878 470.8692,-26.7453 479,-29 544.2283,-47.0876 620.2557,-69.1361 662.4833,-81.4686"/>
<polygon fill="#191970" stroke="#191970" points="454.7191,-18.7491 444.1538,-19.54 452.9062,-25.5103 454.7191,-18.7491"/>
</g>
<!-- Node142187 -->
<g id="node9" class="node">
<title>Node142187</title>
<g id="a_node9"><a xlink:href="qjs_8cpp.html#a3c04138a5bfe5d72780bb7e82a18e627" target="_top" xlink:title="main">
<polygon fill="none" stroke="#000000" points="540.5,-.5 540.5,-19.5 578.5,-19.5 578.5,-.5 540.5,-.5"/>
<text text-anchor="middle" x="559.5" y="-7.5" font-family="Helvetica,sans-Serif" font-size="10.00" fill="#000000">main</text>
</a>
</g>
</g>
<!-- Node142194&#45;&gt;Node142187 -->
<g id="edge9" class="edge">
<title>Node142194&#45;&gt;Node142187</title>
<path fill="none" stroke="#191970" d="M468.9026,-10C494.4829,-10 522.4144,-10 540.4024,-10"/>
<polygon fill="#191970" stroke="#191970" points="468.8688,-6.5001 458.8688,-10 468.8687,-13.5001 468.8688,-6.5001"/>
</g>
<!-- Node142195&#45;&gt;Node142184 -->
<g id="edge12" class="edge">
<title>Node142195&#45;&gt;Node142184</title>
<path fill="none" stroke="#191970" d="M489.2695,-151.8078C498.0724,-150.7038 506.7754,-149.6123 514.8995,-148.5935"/>
<polygon fill="#191970" stroke="#191970" points="488.8005,-148.3391 479.3138,-153.0564 489.6716,-155.2847 488.8005,-148.3391"/>
</g>
<!-- Node142196&#45;&gt;Node142184 -->
<g id="edge14" class="edge">
<title>Node142196&#45;&gt;Node142184</title>
<path fill="none" stroke="#191970" d="M466.353,-61.0412C470.739,-62.7936 475.0062,-64.771 479,-67 510.5521,-84.6102 539.1762,-117.3427 552.1566,-133.4894"/>
<polygon fill="#191970" stroke="#191970" points="467.2167,-57.6328 456.6221,-57.5538 464.855,-64.2224 467.2167,-57.6328"/>
</g>
<!-- Node142197&#45;&gt;Node142195 -->
<g id="edge18" class="edge">
<title>Node142197&#45;&gt;Node142195</title>
<path fill="none" stroke="#191970" d="M293.4614,-162C307.7527,-162 322.7226,-162 336.9503,-162"/>
<polygon fill="#191970" stroke="#191970" points="293.1955,-158.5001 283.1955,-162 293.1954,-165.5001 293.1955,-158.5001"/>
</g>
<!-- Node142198 -->
<g id="node13" class="node">
<title>Node142198</title>
<g id="a_node13"><a xlink:href="quickjs_8c.html#a4497f8c7cf2ec38da989910ae8b1f042" target="_top" xlink:title="JS_AddIntrinsicMapSet">
<polygon fill="none" stroke="#000000" points="348.5,-190.5 348.5,-209.5 467.5,-209.5 467.5,-190.5 348.5,-190.5"/>
<text text-anchor="middle" x="408" y="-197.5" font-family="Helvetica,sans-Serif" font-size="10.00" fill="#000000">JS_AddIntrinsicMapSet</text>
</a>
</g>
</g>
<!-- Node142197&#45;&gt;Node142198 -->
<g id="edge16" class="edge">
<title>Node142197&#45;&gt;Node142198</title>
<path fill="none" stroke="#191970" d="M277.7838,-173.6095C304.4506,-179.014 335.7805,-185.3635 361.0261,-190.4799"/>
<polygon fill="#191970" stroke="#191970" points="278.3101,-170.1451 267.8142,-171.589 276.9197,-177.0056 278.3101,-170.1451"/>
</g>
<!-- Node142198&#45;&gt;Node142184 -->
<g id="edge17" class="edge">
<title>Node142198&#45;&gt;Node142184</title>
<path fill="none" stroke="#191970" d="M458.6101,-187.6553C465.523,-185.6215 472.4797,-183.3894 479,-181 501.2017,-172.8641 525.6195,-160.8798 541.6741,-152.5532"/>
<polygon fill="#191970" stroke="#191970" points="457.2429,-184.4043 448.5691,-190.4883 459.1438,-191.1413 457.2429,-184.4043"/>
</g>
<!-- Node142199&#45;&gt;Node142195 -->
<g id="edge24" class="edge">
<title>Node142199&#45;&gt;Node142195</title>
<path fill="none" stroke="#191970" d="M277.7838,-135.6095C304.4506,-141.014 335.7805,-147.3635 361.0261,-152.4799"/>
<polygon fill="#191970" stroke="#191970" points="278.3101,-132.1451 267.8142,-133.589 276.9197,-139.0056 278.3101,-132.1451"/>
</g>
<!-- Node142200 -->
<g id="node15" class="node">
<title>Node142200</title>
<g id="a_node15"><a xlink:href="quickjs_8c.html#aafc8241682ce24b6d72e0f237ee85a51" target="_top" xlink:title="JS_AddIntrinsicRegExp">
<polygon fill="none" stroke="#000000" points="347.5,-76.5 347.5,-95.5 468.5,-95.5 468.5,-76.5 347.5,-76.5"/>
<text text-anchor="middle" x="408" y="-83.5" font-family="Helvetica,sans-Serif" font-size="10.00" fill="#000000">JS_AddIntrinsicRegExp</text>
</a>
</g>
</g>
<!-- Node142199&#45;&gt;Node142200 -->
<g id="edge20" class="edge">
<title>Node142199&#45;&gt;Node142200</title>
<path fill="none" stroke="#191970" d="M277.7838,-112.3905C304.4506,-106.986 335.7805,-100.6365 361.0261,-95.5201"/>
<polygon fill="#191970" stroke="#191970" points="276.9197,-108.9944 267.8142,-114.411 278.3101,-115.8549 276.9197,-108.9944"/>
</g>
<!-- Node142201 -->
<g id="node16" class="node">
<title>Node142201</title>
<g id="a_node16"><a xlink:href="quickjs_8c.html#a8ecbf5799518b7bfc3fefd47c7a0dd4e" target="_top" xlink:title="JS_AddIntrinsicDate">
<polygon fill="none" stroke="#000000" points="354.5,-114.5 354.5,-133.5 461.5,-133.5 461.5,-114.5 354.5,-114.5"/>
<text text-anchor="middle" x="408" y="-121.5" font-family="Helvetica,sans-Serif" font-size="10.00" fill="#000000">JS_AddIntrinsicDate</text>
</a>
</g>
</g>
<!-- Node142199&#45;&gt;Node142201 -->
<g id="edge22" class="edge">
<title>Node142199&#45;&gt;Node142201</title>
<path fill="none" stroke="#191970" d="M300.5903,-124C318.7619,-124 337.6332,-124 354.3941,-124"/>
<polygon fill="#191970" stroke="#191970" points="300.5848,-120.5001 290.5847,-124 300.5847,-127.5001 300.5848,-120.5001"/>
</g>
<!-- Node142200&#45;&gt;Node142184 -->
<g id="edge21" class="edge">
<title>Node142200&#45;&gt;Node142184</title>
<path fill="none" stroke="#191970" d="M458.6101,-98.3447C465.523,-100.3785 472.4797,-102.6106 479,-105 501.2017,-113.1359 525.6195,-125.1202 541.6741,-133.4468"/>
<polygon fill="#191970" stroke="#191970" points="459.1438,-94.8587 448.5691,-95.5117 457.2429,-101.5957 459.1438,-94.8587"/>
</g>
<!-- Node142201&#45;&gt;Node142184 -->
<g id="edge23" class="edge">
<title>Node142201&#45;&gt;Node142184</title>
<path fill="none" stroke="#191970" d="M472.1674,-132.0474C486.5307,-133.8487 501.463,-135.7214 514.8325,-137.3981"/>
<polygon fill="#191970" stroke="#191970" points="472.1976,-128.5239 461.8398,-130.7522 471.3265,-135.4694 472.1976,-128.5239"/>
</g>
<!-- Node142202&#45;&gt;Node142196 -->
<g id="edge26" class="edge">
<title>Node142202&#45;&gt;Node142196</title>
<path fill="none" stroke="#191970" d="M311.3745,-48C320.1515,-48 328.9621,-48 337.4983,-48"/>
<polygon fill="#191970" stroke="#191970" points="311.1051,-44.5001 301.105,-48 311.105,-51.5001 311.1051,-44.5001"/>
</g>
</g>
</svg>
