<?xml version="1.0" encoding="UTF-8" standalone="no"?>
<!DOCTYPE svg PUBLIC "-//W3C//DTD SVG 1.1//EN"
 "http://www.w3.org/Graphics/SVG/1.1/DTD/svg11.dtd">
<!-- Generated by graphviz version 2.40.1 (20161225.0304)
 -->
<!-- Title: js_map_constructor Pages: 1 -->
<svg width="536pt" height="66pt"
 viewBox="0.00 0.00 536.00 66.00" xmlns="http://www.w3.org/2000/svg" xmlns:xlink="http://www.w3.org/1999/xlink">
<g id="graph0" class="graph" transform="scale(1 1) rotate(0) translate(4 62)">
<title>js_map_constructor</title>
<!-- Node448649 -->
<g id="node1" class="node">
<title>Node448649</title>
<polygon fill="#bfbfbf" stroke="#000000" points="0,-19.5 0,-38.5 102,-38.5 102,-19.5 0,-19.5"/>
<text text-anchor="middle" x="51" y="-26.5" font-family="Helvetica,sans-Serif" font-size="10.00" fill="#000000">js_map_constructor</text>
</g>
<!-- Node448650 -->
<g id="node2" class="node">
<title>Node448650</title>
<g id="a_node2"><a xlink:href="quickjs_8c.html#a4497f8c7cf2ec38da989910ae8b1f042" target="_top" xlink:title="JS_AddIntrinsicMapSet">
<polygon fill="none" stroke="#000000" points="138,-19.5 138,-38.5 257,-38.5 257,-19.5 138,-19.5"/>
<text text-anchor="middle" x="197.5" y="-26.5" font-family="Helvetica,sans-Serif" font-size="10.00" fill="#000000">JS_AddIntrinsicMapSet</text>
</a>
</g>
</g>
<!-- Node448649&#45;&gt;Node448650 -->
<g id="edge1" class="edge">
<title>Node448649&#45;&gt;Node448650</title>
<path fill="none" stroke="#191970" d="M112.3527,-29C120.757,-29 129.376,-29 137.7511,-29"/>
<polygon fill="#191970" stroke="#191970" points="112.2386,-25.5001 102.2386,-29 112.2386,-32.5001 112.2386,-25.5001"/>
</g>
<!-- Node448651 -->
<g id="node3" class="node">
<title>Node448651</title>
<g id="a_node3"><a xlink:href="quickjs_8c.html#ad8aedb643b8753b7a15f6cb2df61945e" target="_top" xlink:title="JS_NewContext">
<polygon fill="none" stroke="#000000" points="293,-19.5 293,-38.5 382,-38.5 382,-19.5 293,-19.5"/>
<text text-anchor="middle" x="337.5" y="-26.5" font-family="Helvetica,sans-Serif" font-size="10.00" fill="#000000">JS_NewContext</text>
</a>
</g>
</g>
<!-- Node448650&#45;&gt;Node448651 -->
<g id="edge2" class="edge">
<title>Node448650&#45;&gt;Node448651</title>
<path fill="none" stroke="#191970" d="M267.3758,-29C276.0049,-29 284.6364,-29 292.7459,-29"/>
<polygon fill="#191970" stroke="#191970" points="267.2787,-25.5001 257.2787,-29 267.2787,-32.5001 267.2787,-25.5001"/>
</g>
<!-- Node448652 -->
<g id="node4" class="node">
<title>Node448652</title>
<g id="a_node4"><a xlink:href="classqjs_1_1Context.html#a4392a23648acfc4bf6b445336efb5007" target="_top" xlink:title="qjs::Context::Context">
<polygon fill="none" stroke="#ff0000" points="418,-38.5 418,-57.5 528,-57.5 528,-38.5 418,-38.5"/>
<text text-anchor="middle" x="473" y="-45.5" font-family="Helvetica,sans-Serif" font-size="10.00" fill="#000000">qjs::Context::Context</text>
</a>
</g>
</g>
<!-- Node448651&#45;&gt;Node448652 -->
<g id="edge3" class="edge">
<title>Node448651&#45;&gt;Node448652</title>
<path fill="none" stroke="#191970" d="M392.3476,-36.6908C400.7739,-37.8724 409.4767,-39.0927 417.9083,-40.275"/>
<polygon fill="#191970" stroke="#191970" points="392.6325,-33.1966 382.2433,-35.274 391.6604,-40.1288 392.6325,-33.1966"/>
</g>
<!-- Node448655 -->
<g id="node5" class="node">
<title>Node448655</title>
<g id="a_node5"><a xlink:href="quickjs-libc_8c.html#a1fbb3adc15e7b967479fc1940e99b67a" target="_top" xlink:title="worker_func">
<polygon fill="none" stroke="#ff0000" points="438,-.5 438,-19.5 508,-19.5 508,-.5 438,-.5"/>
<text text-anchor="middle" x="473" y="-7.5" font-family="Helvetica,sans-Serif" font-size="10.00" fill="#000000">worker_func</text>
</a>
</g>
</g>
<!-- Node448651&#45;&gt;Node448655 -->
<g id="edge4" class="edge">
<title>Node448651&#45;&gt;Node448655</title>
<path fill="none" stroke="#191970" d="M392.1712,-21.3339C407.5364,-19.1794 423.8347,-16.894 437.7403,-14.9442"/>
<polygon fill="#191970" stroke="#191970" points="391.6604,-17.8712 382.2433,-22.726 392.6325,-24.8034 391.6604,-17.8712"/>
</g>
</g>
</svg>
