<?xml version="1.0" encoding="UTF-8" standalone="no"?>
<!DOCTYPE svg PUBLIC "-//W3C//DTD SVG 1.1//EN"
 "http://www.w3.org/Graphics/SVG/1.1/DTD/svg11.dtd">
<!-- Generated by graphviz version 2.40.1 (20161225.0304)
 -->
<!-- Title: JS_AddIntrinsicEval Pages: 1 -->
<svg width="530pt" height="66pt"
 viewBox="0.00 0.00 530.00 66.00" xmlns="http://www.w3.org/2000/svg" xmlns:xlink="http://www.w3.org/1999/xlink">
<g id="graph0" class="graph" transform="scale(1 1) rotate(0) translate(4 62)">
<title>JS_AddIntrinsicEval</title>
<!-- Node471511 -->
<g id="node1" class="node">
<title>Node471511</title>
<polygon fill="#bfbfbf" stroke="#000000" points="0,-19.5 0,-38.5 105,-38.5 105,-19.5 0,-19.5"/>
<text text-anchor="middle" x="52.5" y="-26.5" font-family="Helvetica,sans-Serif" font-size="10.00" fill="#000000">JS_AddIntrinsicEval</text>
</g>
<!-- Node471512 -->
<g id="node2" class="node">
<title>Node471512</title>
<g id="a_node2"><a xlink:href="quickjs_8c.html#ad8aedb643b8753b7a15f6cb2df61945e" target="_top" xlink:title="JS_NewContext">
<polygon fill="none" stroke="#000000" points="141,-19.5 141,-38.5 230,-38.5 230,-19.5 141,-19.5"/>
<text text-anchor="middle" x="185.5" y="-26.5" font-family="Helvetica,sans-Serif" font-size="10.00" fill="#000000">JS_NewContext</text>
</a>
</g>
</g>
<!-- Node471511&#45;&gt;Node471512 -->
<g id="edge1" class="edge">
<title>Node471511&#45;&gt;Node471512</title>
<path fill="none" stroke="#191970" d="M115.0996,-29C123.7114,-29 132.4107,-29 140.6171,-29"/>
<polygon fill="#191970" stroke="#191970" points="115.0652,-25.5001 105.0651,-29 115.0651,-32.5001 115.0652,-25.5001"/>
</g>
<!-- Node471513 -->
<g id="node3" class="node">
<title>Node471513</title>
<g id="a_node3"><a xlink:href="classqjs_1_1Context.html#a4392a23648acfc4bf6b445336efb5007" target="_top" xlink:title="qjs::Context::Context">
<polygon fill="none" stroke="#000000" points="266,-38.5 266,-57.5 376,-57.5 376,-38.5 266,-38.5"/>
<text text-anchor="middle" x="321" y="-45.5" font-family="Helvetica,sans-Serif" font-size="10.00" fill="#000000">qjs::Context::Context</text>
</a>
</g>
</g>
<!-- Node471512&#45;&gt;Node471513 -->
<g id="edge2" class="edge">
<title>Node471512&#45;&gt;Node471513</title>
<path fill="none" stroke="#191970" d="M240.3476,-36.6908C248.7739,-37.8724 257.4767,-39.0927 265.9083,-40.275"/>
<polygon fill="#191970" stroke="#191970" points="240.6325,-33.1966 230.2433,-35.274 239.6604,-40.1288 240.6325,-33.1966"/>
</g>
<!-- Node471516 -->
<g id="node5" class="node">
<title>Node471516</title>
<g id="a_node5"><a xlink:href="quickjs-libc_8c.html#a1fbb3adc15e7b967479fc1940e99b67a" target="_top" xlink:title="worker_func">
<polygon fill="none" stroke="#000000" points="286,-.5 286,-19.5 356,-19.5 356,-.5 286,-.5"/>
<text text-anchor="middle" x="321" y="-7.5" font-family="Helvetica,sans-Serif" font-size="10.00" fill="#000000">worker_func</text>
</a>
</g>
</g>
<!-- Node471512&#45;&gt;Node471516 -->
<g id="edge4" class="edge">
<title>Node471512&#45;&gt;Node471516</title>
<path fill="none" stroke="#191970" d="M240.1712,-21.3339C255.5364,-19.1794 271.8347,-16.894 285.7403,-14.9442"/>
<polygon fill="#191970" stroke="#191970" points="239.6604,-17.8712 230.2433,-22.726 240.6325,-24.8034 239.6604,-17.8712"/>
</g>
<!-- Node471514 -->
<g id="node4" class="node">
<title>Node471514</title>
<g id="a_node4"><a xlink:href="classqjs_1_1Context.html#af725fb8083d8c33a37198d6acaf1a836" target="_top" xlink:title="qjs::Context::Context">
<polygon fill="none" stroke="#ff0000" points="412,-38.5 412,-57.5 522,-57.5 522,-38.5 412,-38.5"/>
<text text-anchor="middle" x="467" y="-45.5" font-family="Helvetica,sans-Serif" font-size="10.00" fill="#000000">qjs::Context::Context</text>
</a>
</g>
</g>
<!-- Node471513&#45;&gt;Node471514 -->
<g id="edge3" class="edge">
<title>Node471513&#45;&gt;Node471514</title>
<path fill="none" stroke="#191970" d="M386.4101,-48C394.8647,-48 403.4567,-48 411.7256,-48"/>
<polygon fill="#191970" stroke="#191970" points="386.1964,-44.5001 376.1963,-48 386.1963,-51.5001 386.1964,-44.5001"/>
</g>
<!-- Node471517 -->
<g id="node6" class="node">
<title>Node471517</title>
<g id="a_node6"><a xlink:href="quickjs-libc_8c.html#aff1e6131e8bf8b7eb25307623ad669e7" target="_top" xlink:title="js_worker_ctor">
<polygon fill="none" stroke="#ff0000" points="427,-.5 427,-19.5 507,-19.5 507,-.5 427,-.5"/>
<text text-anchor="middle" x="467" y="-7.5" font-family="Helvetica,sans-Serif" font-size="10.00" fill="#000000">js_worker_ctor</text>
</a>
</g>
</g>
<!-- Node471516&#45;&gt;Node471517 -->
<g id="edge5" class="edge">
<title>Node471516&#45;&gt;Node471517</title>
<path fill="none" stroke="#191970" d="M366.4324,-10C385.761,-10 408.112,-10 426.8272,-10"/>
<polygon fill="#191970" stroke="#191970" points="366.3426,-6.5001 356.3425,-10 366.3425,-13.5001 366.3426,-6.5001"/>
</g>
</g>
</svg>
