<?xml version="1.0" encoding="UTF-8" standalone="no"?>
<!DOCTYPE svg PUBLIC "-//W3C//DTD SVG 1.1//EN"
 "http://www.w3.org/Graphics/SVG/1.1/DTD/svg11.dtd">
<!-- Generated by graphviz version 2.40.1 (20161225.0304)
 -->
<!-- Title: JS_AddIntrinsicAtomics Pages: 1 -->
<!--zoomable 66 -->
<svg id="main" version="1.1" xmlns="http://www.w3.org/2000/svg" xmlns:xlink="http://www.w3.org/1999/xlink" xml:space="preserve" onload="init(evt)">
<style type="text/css"><![CDATA[
.edge:hover path { stroke: red; }
.edge:hover polygon { stroke: red; fill: red; }
]]></style>
<script type="text/javascript"><![CDATA[
var edges = document.getElementsByTagName('g');
if (edges && edges.length) {
  for (var i=0;i<edges.length;i++) {
    if (edges[i].id.substr(0,4)=='edge') {
      edges[i].setAttribute('class','edge');
    }
  }
}
]]></script>
        <defs>
                <circle id="rim" cx="0" cy="0" r="7"/>
                <circle id="rim2" cx="0" cy="0" r="3.5"/>
                <g id="zoomPlus">
                        <use xlink:href="#rim" fill="#404040">
                                <set attributeName="fill" to="#808080" begin="zoomplus.mouseover" end="zoomplus.mouseout"/>
                        </use>
                        <path d="M-4,0h8M0,-4v8" fill="none" stroke="white" stroke-width="1.5" pointer-events="none"/>
                </g>
                <g id="zoomMin">
                        <use xlink:href="#rim" fill="#404040">
                                <set attributeName="fill" to="#808080" begin="zoomminus.mouseover" end="zoomminus.mouseout"/>
                        </use>
                        <path d="M-4,0h8" fill="none" stroke="white" stroke-width="1.5" pointer-events="none"/>
                </g>
                <g id="dirArrow">
                        <path fill="none" stroke="white" stroke-width="1.5" d="M0,-3.0v7 M-2.5,-0.5L0,-3.0L2.5,-0.5"/>
                </g>
               <g id="resetDef">
                       <use xlink:href="#rim2" fill="#404040">
                               <set attributeName="fill" to="#808080" begin="reset.mouseover" end="reset.mouseout"/>
                       </use>
               </g>
        </defs>

<script type="text/javascript">
var viewWidth = 578;
var viewHeight = 66;
var sectionId = 'dynsection-1921';
</script>
<script xlink:href="svgpan.js"/>
<svg id="graph" class="graph">
<g id="viewport">
<title>JS_AddIntrinsicAtomics</title>
<!-- Node487865 -->
<g id="node1" class="node">
<title>Node487865</title>
<polygon fill="#bfbfbf" stroke="#000000" points="0,-19.5 0,-38.5 122,-38.5 122,-19.5 0,-19.5"/>
<text text-anchor="middle" x="61" y="-26.5" font-family="Helvetica,sans-Serif" font-size="10.00" fill="#000000">JS_AddIntrinsicAtomics</text>
</g>
<!-- Node487866 -->
<g id="node2" class="node">
<title>Node487866</title>
<g id="a_node2"><a xlink:href="quickjs_8c.html#a177d09828596bfe6df4bd90b2e93989d" target="_top" xlink:title="JS_AddIntrinsicTypedArrays">
<polygon fill="none" stroke="#000000" points="158,-19.5 158,-38.5 299,-38.5 299,-19.5 158,-19.5"/>
<text text-anchor="middle" x="228.5" y="-26.5" font-family="Helvetica,sans-Serif" font-size="10.00" fill="#000000">JS_AddIntrinsicTypedArrays</text>
</a>
</g>
</g>
<!-- Node487865&#45;&gt;Node487866 -->
<g id="edge1" class="edge">
<title>Node487865&#45;&gt;Node487866</title>
<path fill="none" stroke="#191970" d="M132.5072,-29C140.8635,-29 149.3861,-29 157.7324,-29"/>
<polygon fill="#191970" stroke="#191970" points="132.4197,-25.5001 122.4197,-29 132.4197,-32.5001 132.4197,-25.5001"/>
</g>
<!-- Node487867 -->
<g id="node3" class="node">
<title>Node487867</title>
<g id="a_node3"><a xlink:href="quickjs_8c.html#ad8aedb643b8753b7a15f6cb2df61945e" target="_top" xlink:title="JS_NewContext">
<polygon fill="none" stroke="#000000" points="335,-19.5 335,-38.5 424,-38.5 424,-19.5 335,-19.5"/>
<text text-anchor="middle" x="379.5" y="-26.5" font-family="Helvetica,sans-Serif" font-size="10.00" fill="#000000">JS_NewContext</text>
</a>
</g>
</g>
<!-- Node487866&#45;&gt;Node487867 -->
<g id="edge2" class="edge">
<title>Node487866&#45;&gt;Node487867</title>
<path fill="none" stroke="#191970" d="M309.3813,-29C318.0943,-29 326.7113,-29 334.7649,-29"/>
<polygon fill="#191970" stroke="#191970" points="309.1368,-25.5001 299.1368,-29 309.1367,-32.5001 309.1368,-25.5001"/>
</g>
<!-- Node487868 -->
<g id="node4" class="node">
<title>Node487868</title>
<g id="a_node4"><a xlink:href="classqjs_1_1Context.html#a4392a23648acfc4bf6b445336efb5007" target="_top" xlink:title="qjs::Context::Context">
<polygon fill="none" stroke="#ff0000" points="460,-38.5 460,-57.5 570,-57.5 570,-38.5 460,-38.5"/>
<text text-anchor="middle" x="515" y="-45.5" font-family="Helvetica,sans-Serif" font-size="10.00" fill="#000000">qjs::Context::Context</text>
</a>
</g>
</g>
<!-- Node487867&#45;&gt;Node487868 -->
<g id="edge3" class="edge">
<title>Node487867&#45;&gt;Node487868</title>
<path fill="none" stroke="#191970" d="M434.3476,-36.6908C442.7739,-37.8724 451.4767,-39.0927 459.9083,-40.275"/>
<polygon fill="#191970" stroke="#191970" points="434.6325,-33.1966 424.2433,-35.274 433.6604,-40.1288 434.6325,-33.1966"/>
</g>
<!-- Node487871 -->
<g id="node5" class="node">
<title>Node487871</title>
<g id="a_node5"><a xlink:href="quickjs-libc_8c.html#a1fbb3adc15e7b967479fc1940e99b67a" target="_top" xlink:title="worker_func">
<polygon fill="none" stroke="#ff0000" points="480,-.5 480,-19.5 550,-19.5 550,-.5 480,-.5"/>
<text text-anchor="middle" x="515" y="-7.5" font-family="Helvetica,sans-Serif" font-size="10.00" fill="#000000">worker_func</text>
</a>
</g>
</g>
<!-- Node487867&#45;&gt;Node487871 -->
<g id="edge4" class="edge">
<title>Node487867&#45;&gt;Node487871</title>
<path fill="none" stroke="#191970" d="M434.1712,-21.3339C449.5364,-19.1794 465.8347,-16.894 479.7403,-14.9442"/>
<polygon fill="#191970" stroke="#191970" points="433.6604,-17.8712 424.2433,-22.726 434.6325,-24.8034 433.6604,-17.8712"/>
</g>
</g>
</svg>
        <g id="navigator" transform="translate(0 0)" fill="#404254">
                <rect fill="#f2f5e9" fill-opacity="0.5" stroke="#606060" stroke-width=".5" x="0" y="0" width="60" height="60"/>
                <use id="zoomplus" xlink:href="#zoomPlus" x="17" y="9" onmousedown="handleZoom(evt,'in')"/>
                <use id="zoomminus" xlink:href="#zoomMin" x="42" y="9" onmousedown="handleZoom(evt,'out')"/>
                <use id="reset" xlink:href="#resetDef" x="30" y="36" onmousedown="handleReset()"/>
                <g id="arrowUp" xlink:href="#dirArrow" transform="translate(30 24)" onmousedown="handlePan(0,-1)">
                  <use xlink:href="#rim" fill="#404040">
                        <set attributeName="fill" to="#808080" begin="arrowUp.mouseover" end="arrowUp.mouseout"/>
                  </use>
                  <path fill="none" stroke="white" stroke-width="1.5" d="M0,-3.0v7 M-2.5,-0.5L0,-3.0L2.5,-0.5"/>
                </g>
                <g id="arrowRight" xlink:href="#dirArrow" transform="rotate(90) translate(36 -43)" onmousedown="handlePan(1,0)">
                  <use xlink:href="#rim" fill="#404040">
                        <set attributeName="fill" to="#808080" begin="arrowRight.mouseover" end="arrowRight.mouseout"/>
                  </use>
                  <path fill="none" stroke="white" stroke-width="1.5" d="M0,-3.0v7 M-2.5,-0.5L0,-3.0L2.5,-0.5"/>
                </g>
                <g id="arrowDown" xlink:href="#dirArrow" transform="rotate(180) translate(-30 -48)" onmousedown="handlePan(0,1)">
                  <use xlink:href="#rim" fill="#404040">
                        <set attributeName="fill" to="#808080" begin="arrowDown.mouseover" end="arrowDown.mouseout"/>
                  </use>
                  <path fill="none" stroke="white" stroke-width="1.5" d="M0,-3.0v7 M-2.5,-0.5L0,-3.0L2.5,-0.5"/>
                </g>
                <g id="arrowLeft" xlink:href="#dirArrow" transform="rotate(270) translate(-36 17)" onmousedown="handlePan(-1,0)">
                  <use xlink:href="#rim" fill="#404040">
                        <set attributeName="fill" to="#808080" begin="arrowLeft.mouseover" end="arrowLeft.mouseout"/>
                  </use>
                  <path fill="none" stroke="white" stroke-width="1.5" d="M0,-3.0v7 M-2.5,-0.5L0,-3.0L2.5,-0.5"/>
                </g>
        </g>
        <svg viewBox="0 0 15 15" width="100%" height="30px" preserveAspectRatio="xMaxYMin meet">
         <g id="arrow_out" transform="scale(0.3 0.3)">
          <a xlink:href="quickjs_8c_ae022a327d9fa7079ad2f1d179ba5bdf0_icgraph_org.svg" target="_base">
           <rect id="button" ry="5" rx="5" y="6" x="6" height="38" width="38"
                fill="#f2f5e9" fill-opacity="0.5" stroke="#606060" stroke-width="1.0"/>
           <path id="arrow"
             d="M 11.500037,31.436501 C 11.940474,20.09759 22.043105,11.32322 32.158766,21.979434 L 37.068811,17.246167 C 37.068811,17.246167 37.088388,32 37.088388,32 L 22.160133,31.978069 C 22.160133,31.978069 26.997745,27.140456 26.997745,27.140456 C 18.528582,18.264221 13.291696,25.230495 11.500037,31.436501 z"
             style="fill:#404040;"/>
          </a>
         </g>
        </svg>
</svg>
