<?xml version="1.0" encoding="UTF-8" standalone="no"?>
<!DOCTYPE svg PUBLIC "-//W3C//DTD SVG 1.1//EN"
 "http://www.w3.org/Graphics/SVG/1.1/DTD/svg11.dtd">
<!-- Generated by graphviz version 2.40.1 (20161225.0304)
 -->
<!-- Title: js_string_constructor Pages: 1 -->
<svg width="564pt" height="85pt"
 viewBox="0.00 0.00 564.00 85.00" xmlns="http://www.w3.org/2000/svg" xmlns:xlink="http://www.w3.org/1999/xlink">
<g id="graph0" class="graph" transform="scale(1 1) rotate(0) translate(4 81)">
<title>js_string_constructor</title>
<!-- Node364381 -->
<g id="node1" class="node">
<title>Node364381</title>
<polygon fill="#bfbfbf" stroke="#000000" points="0,-19.5 0,-38.5 107,-38.5 107,-19.5 0,-19.5"/>
<text text-anchor="middle" x="53.5" y="-26.5" font-family="Helvetica,sans-Serif" font-size="10.00" fill="#000000">js_string_constructor</text>
</g>
<!-- Node364382 -->
<g id="node2" class="node">
<title>Node364382</title>
<g id="a_node2"><a xlink:href="quickjs_8c.html#a4c9489297c684663f30e517204a9ec14" target="_top" xlink:title="JS_AddIntrinsicBaseObjects">
<polygon fill="none" stroke="#000000" points="143,-38.5 143,-57.5 285,-57.5 285,-38.5 143,-38.5"/>
<text text-anchor="middle" x="214" y="-45.5" font-family="Helvetica,sans-Serif" font-size="10.00" fill="#000000">JS_AddIntrinsicBaseObjects</text>
</a>
</g>
</g>
<!-- Node364381&#45;&gt;Node364382 -->
<g id="edge1" class="edge">
<title>Node364381&#45;&gt;Node364382</title>
<path fill="none" stroke="#191970" d="M117.4361,-36.5688C125.7929,-37.558 134.3961,-38.5765 142.8622,-39.5787"/>
<polygon fill="#191970" stroke="#191970" points="117.7328,-33.0795 107.3907,-35.3796 116.9098,-40.031 117.7328,-33.0795"/>
</g>
<!-- Node364391 -->
<g id="node6" class="node">
<title>Node364391</title>
<g id="a_node6"><a xlink:href="quickjs_8c.html#a11d88785d98bd7ff5d35128d7a59e630" target="_top" xlink:title="js_symbol_toString">
<polygon fill="none" stroke="#000000" points="164,-.5 164,-19.5 264,-19.5 264,-.5 164,-.5"/>
<text text-anchor="middle" x="214" y="-7.5" font-family="Helvetica,sans-Serif" font-size="10.00" fill="#000000">js_symbol_toString</text>
</a>
</g>
</g>
<!-- Node364381&#45;&gt;Node364391 -->
<g id="edge5" class="edge">
<title>Node364381&#45;&gt;Node364391</title>
<path fill="none" stroke="#191970" d="M117.381,-21.4378C132.8069,-19.6116 149.0755,-17.6858 163.774,-15.9458"/>
<polygon fill="#191970" stroke="#191970" points="116.9098,-17.969 107.3907,-22.6204 117.7328,-24.9205 116.9098,-17.969"/>
</g>
<!-- Node364383 -->
<g id="node3" class="node">
<title>Node364383</title>
<g id="a_node3"><a xlink:href="quickjs_8c.html#ad8aedb643b8753b7a15f6cb2df61945e" target="_top" xlink:title="JS_NewContext">
<polygon fill="none" stroke="#000000" points="321,-38.5 321,-57.5 410,-57.5 410,-38.5 321,-38.5"/>
<text text-anchor="middle" x="365.5" y="-45.5" font-family="Helvetica,sans-Serif" font-size="10.00" fill="#000000">JS_NewContext</text>
</a>
</g>
</g>
<!-- Node364382&#45;&gt;Node364383 -->
<g id="edge2" class="edge">
<title>Node364382&#45;&gt;Node364383</title>
<path fill="none" stroke="#191970" d="M295.5534,-48C304.2595,-48 312.8628,-48 320.8995,-48"/>
<polygon fill="#191970" stroke="#191970" points="295.3138,-44.5001 285.3138,-48 295.3137,-51.5001 295.3138,-44.5001"/>
</g>
<!-- Node364384 -->
<g id="node4" class="node">
<title>Node364384</title>
<g id="a_node4"><a xlink:href="classqjs_1_1Context.html#a4392a23648acfc4bf6b445336efb5007" target="_top" xlink:title="qjs::Context::Context">
<polygon fill="none" stroke="#ff0000" points="446,-57.5 446,-76.5 556,-76.5 556,-57.5 446,-57.5"/>
<text text-anchor="middle" x="501" y="-64.5" font-family="Helvetica,sans-Serif" font-size="10.00" fill="#000000">qjs::Context::Context</text>
</a>
</g>
</g>
<!-- Node364383&#45;&gt;Node364384 -->
<g id="edge3" class="edge">
<title>Node364383&#45;&gt;Node364384</title>
<path fill="none" stroke="#191970" d="M420.3476,-55.6908C428.7739,-56.8724 437.4767,-58.0927 445.9083,-59.275"/>
<polygon fill="#191970" stroke="#191970" points="420.6325,-52.1966 410.2433,-54.274 419.6604,-59.1288 420.6325,-52.1966"/>
</g>
<!-- Node364387 -->
<g id="node5" class="node">
<title>Node364387</title>
<g id="a_node5"><a xlink:href="quickjs-libc_8c.html#a1fbb3adc15e7b967479fc1940e99b67a" target="_top" xlink:title="worker_func">
<polygon fill="none" stroke="#ff0000" points="466,-19.5 466,-38.5 536,-38.5 536,-19.5 466,-19.5"/>
<text text-anchor="middle" x="501" y="-26.5" font-family="Helvetica,sans-Serif" font-size="10.00" fill="#000000">worker_func</text>
</a>
</g>
</g>
<!-- Node364383&#45;&gt;Node364387 -->
<g id="edge4" class="edge">
<title>Node364383&#45;&gt;Node364387</title>
<path fill="none" stroke="#191970" d="M420.1712,-40.3339C435.5364,-38.1794 451.8347,-35.894 465.7403,-33.9442"/>
<polygon fill="#191970" stroke="#191970" points="419.6604,-36.8712 410.2433,-41.726 420.6325,-43.8034 419.6604,-36.8712"/>
</g>
</g>
</svg>
