<?xml version="1.0" encoding="UTF-8" standalone="no"?>
<!DOCTYPE svg PUBLIC "-//W3C//DTD SVG 1.1//EN"
 "http://www.w3.org/Graphics/SVG/1.1/DTD/svg11.dtd">
<!-- Generated by graphviz version 2.40.1 (20161225.0304)
 -->
<!-- Title: JS_GetRuntime Pages: 1 -->
<!--zoomable 616 -->
<svg id="main" version="1.1" xmlns="http://www.w3.org/2000/svg" xmlns:xlink="http://www.w3.org/1999/xlink" xml:space="preserve" onload="init(evt)">
<style type="text/css"><![CDATA[
.edge:hover path { stroke: red; }
.edge:hover polygon { stroke: red; fill: red; }
]]></style>
<script type="text/javascript"><![CDATA[
var edges = document.getElementsByTagName('g');
if (edges && edges.length) {
  for (var i=0;i<edges.length;i++) {
    if (edges[i].id.substr(0,4)=='edge') {
      edges[i].setAttribute('class','edge');
    }
  }
}
]]></script>
        <defs>
                <circle id="rim" cx="0" cy="0" r="7"/>
                <circle id="rim2" cx="0" cy="0" r="3.5"/>
                <g id="zoomPlus">
                        <use xlink:href="#rim" fill="#404040">
                                <set attributeName="fill" to="#808080" begin="zoomplus.mouseover" end="zoomplus.mouseout"/>
                        </use>
                        <path d="M-4,0h8M0,-4v8" fill="none" stroke="white" stroke-width="1.5" pointer-events="none"/>
                </g>
                <g id="zoomMin">
                        <use xlink:href="#rim" fill="#404040">
                                <set attributeName="fill" to="#808080" begin="zoomminus.mouseover" end="zoomminus.mouseout"/>
                        </use>
                        <path d="M-4,0h8" fill="none" stroke="white" stroke-width="1.5" pointer-events="none"/>
                </g>
                <g id="dirArrow">
                        <path fill="none" stroke="white" stroke-width="1.5" d="M0,-3.0v7 M-2.5,-0.5L0,-3.0L2.5,-0.5"/>
                </g>
               <g id="resetDef">
                       <use xlink:href="#rim2" fill="#404040">
                               <set attributeName="fill" to="#808080" begin="reset.mouseover" end="reset.mouseout"/>
                       </use>
               </g>
        </defs>

<script type="text/javascript">
var viewWidth = 795;
var viewHeight = 616;
var sectionId = 'dynsection-215';
</script>
<script xlink:href="svgpan.js"/>
<svg id="graph" class="graph">
<g id="viewport">
<title>JS_GetRuntime</title>
<!-- Node72324 -->
<g id="node1" class="node">
<title>Node72324</title>
<polygon fill="#bfbfbf" stroke="#000000" points="0,-322.5 0,-341.5 86,-341.5 86,-322.5 0,-322.5"/>
<text text-anchor="middle" x="43" y="-329.5" font-family="Helvetica,sans-Serif" font-size="10.00" fill="#000000">JS_GetRuntime</text>
</g>
<!-- Node72325 -->
<g id="node2" class="node">
<title>Node72325</title>
<g id="a_node2"><a xlink:href="quickjs-libc_8c.html#a55f6cd4bbd0e676992642d066fd1d9fd" target="_top" xlink:title="js_evalScript">
<polygon fill="none" stroke="#000000" points="152,-588.5 152,-607.5 225,-607.5 225,-588.5 152,-588.5"/>
<text text-anchor="middle" x="188.5" y="-595.5" font-family="Helvetica,sans-Serif" font-size="10.00" fill="#000000">js_evalScript</text>
</a>
</g>
</g>
<!-- Node72324&#45;&gt;Node72325 -->
<g id="edge1" class="edge">
<title>Node72324&#45;&gt;Node72325</title>
<path fill="none" stroke="#191970" d="M43.8108,-351.901C46.7313,-397.4458 60.1699,-510.2347 122,-574 130.0316,-582.283 141.131,-587.719 151.9624,-591.282"/>
<polygon fill="#191970" stroke="#191970" points="47.3019,-351.6397 43.2718,-341.8413 40.3119,-352.0143 47.3019,-351.6397"/>
</g>
<!-- Node72326 -->
<g id="node3" class="node">
<title>Node72326</title>
<g id="a_node3"><a xlink:href="quickjs-libc_8c.html#a066e7962ce24f22d5df20968a8baa346" target="_top" xlink:title="js_os_init">
<polygon fill="none" stroke="#000000" points="326,-531.5 326,-550.5 384,-550.5 384,-531.5 326,-531.5"/>
<text text-anchor="middle" x="355" y="-538.5" font-family="Helvetica,sans-Serif" font-size="10.00" fill="#000000">js_os_init</text>
</a>
</g>
</g>
<!-- Node72324&#45;&gt;Node72326 -->
<g id="edge2" class="edge">
<title>Node72324&#45;&gt;Node72326</title>
<path fill="none" stroke="#191970" d="M47.4032,-351.4882C58.5701,-398.987 89.4286,-518.4911 122,-541 183.8974,-583.7751 278.8492,-564.3926 326.1481,-550.5946"/>
<polygon fill="#191970" stroke="#191970" points="50.7664,-350.4962 45.1065,-341.5398 43.9458,-352.0709 50.7664,-350.4962"/>
</g>
<!-- Node72330 -->
<g id="node7" class="node">
<title>Node72330</title>
<g id="a_node7"><a xlink:href="quickjs-libc_8c.html#aff1e6131e8bf8b7eb25307623ad669e7" target="_top" xlink:title="js_worker_ctor">
<polygon fill="none" stroke="#000000" points="707,-493.5 707,-512.5 787,-512.5 787,-493.5 707,-493.5"/>
<text text-anchor="middle" x="747" y="-500.5" font-family="Helvetica,sans-Serif" font-size="10.00" fill="#000000">js_worker_ctor</text>
</a>
</g>
</g>
<!-- Node72324&#45;&gt;Node72330 -->
<g id="edge29" class="edge">
<title>Node72324&#45;&gt;Node72330</title>
<path fill="none" stroke="#191970" d="M60.1176,-348.6609C75.1081,-362.1186 98.1673,-380.214 122,-389 219.4859,-424.9384 251.1007,-408 355,-408 355,-408 355,-408 510,-408 583.5216,-408 604.4075,-414.8412 671,-446 697.292,-458.3021 723.3544,-480.6302 737.0758,-493.3839"/>
<polygon fill="#191970" stroke="#191970" points="62.3782,-345.9839 52.666,-341.7501 57.6181,-351.1164 62.3782,-345.9839"/>
</g>
<!-- Node72331 -->
<g id="node8" class="node">
<title>Node72331</title>
<g id="a_node8"><a xlink:href="quickjs-libc_8c.html#ac6c5f34cb0df6ab0d7579f0f20908a2c" target="_top" xlink:title="js_os_poll">
<polygon fill="none" stroke="#000000" points="158.5,-512.5 158.5,-531.5 218.5,-531.5 218.5,-512.5 158.5,-512.5"/>
<text text-anchor="middle" x="188.5" y="-519.5" font-family="Helvetica,sans-Serif" font-size="10.00" fill="#000000">js_os_poll</text>
</a>
</g>
</g>
<!-- Node72324&#45;&gt;Node72331 -->
<g id="edge8" class="edge">
<title>Node72324&#45;&gt;Node72331</title>
<path fill="none" stroke="#191970" d="M47.1533,-351.565C55.4352,-385.9408 77.1947,-457.3768 122,-498 132.0933,-507.1512 145.936,-512.8786 158.3792,-516.4309"/>
<polygon fill="#191970" stroke="#191970" points="50.5607,-350.7644 44.9258,-341.7923 43.7357,-352.3201 50.5607,-350.7644"/>
</g>
<!-- Node72332 -->
<g id="node9" class="node">
<title>Node72332</title>
<g id="a_node9"><a xlink:href="quickjs-libc_8c.html#a786f04aebbd56e14572bc82c0920be2c" target="_top" xlink:title="js_os_setReadHandler">
<polygon fill="none" stroke="#000000" points="130.5,-360.5 130.5,-379.5 246.5,-379.5 246.5,-360.5 130.5,-360.5"/>
<text text-anchor="middle" x="188.5" y="-367.5" font-family="Helvetica,sans-Serif" font-size="10.00" fill="#000000">js_os_setReadHandler</text>
</a>
</g>
</g>
<!-- Node72324&#45;&gt;Node72332 -->
<g id="edge10" class="edge">
<title>Node72324&#45;&gt;Node72332</title>
<path fill="none" stroke="#191970" d="M89.6532,-344.1843C109.8534,-349.46 133.1481,-355.5438 152.0482,-360.4799"/>
<polygon fill="#191970" stroke="#191970" points="90.2757,-340.7296 79.7158,-341.589 88.5068,-347.5024 90.2757,-340.7296"/>
</g>
<!-- Node72333 -->
<g id="node10" class="node">
<title>Node72333</title>
<g id="a_node10"><a xlink:href="quickjs-libc_8c.html#acd6d7f2e207ed1d263e55bed721a7288" target="_top" xlink:title="js_os_setTimeout">
<polygon fill="none" stroke="#000000" points="141.5,-322.5 141.5,-341.5 235.5,-341.5 235.5,-322.5 141.5,-322.5"/>
<text text-anchor="middle" x="188.5" y="-329.5" font-family="Helvetica,sans-Serif" font-size="10.00" fill="#000000">js_os_setTimeout</text>
</a>
</g>
</g>
<!-- Node72324&#45;&gt;Node72333 -->
<g id="edge11" class="edge">
<title>Node72324&#45;&gt;Node72333</title>
<path fill="none" stroke="#191970" d="M96.2654,-332C111.0309,-332 126.9524,-332 141.3428,-332"/>
<polygon fill="#191970" stroke="#191970" points="96.2609,-328.5001 86.2609,-332 96.2608,-335.5001 96.2609,-328.5001"/>
</g>
<!-- Node72334 -->
<g id="node11" class="node">
<title>Node72334</title>
<g id="a_node11"><a xlink:href="quickjs-libc_8c.html#a87465e0686e72ba005afdf9f31a1cbf7" target="_top" xlink:title="js_os_signal">
<polygon fill="none" stroke="#000000" points="153,-284.5 153,-303.5 224,-303.5 224,-284.5 153,-284.5"/>
<text text-anchor="middle" x="188.5" y="-291.5" font-family="Helvetica,sans-Serif" font-size="10.00" fill="#000000">js_os_signal</text>
</a>
</g>
</g>
<!-- Node72324&#45;&gt;Node72334 -->
<g id="edge12" class="edge">
<title>Node72324&#45;&gt;Node72334</title>
<path fill="none" stroke="#191970" d="M89.4901,-319.8582C109.9971,-314.5025 133.7193,-308.307 152.8019,-303.3232"/>
<polygon fill="#191970" stroke="#191970" points="88.5068,-316.4976 79.7158,-322.411 90.2757,-323.2704 88.5068,-316.4976"/>
</g>
<!-- Node72335 -->
<g id="node12" class="node">
<title>Node72335</title>
<g id="a_node12"><a xlink:href="quickjs-libc_8c.html#abc010e21334ba999f6ad18a681caf4fb" target="_top" xlink:title="js_std_dbuf_init">
<polygon fill="none" stroke="#000000" points="146,-246.5 146,-265.5 231,-265.5 231,-246.5 146,-246.5"/>
<text text-anchor="middle" x="188.5" y="-253.5" font-family="Helvetica,sans-Serif" font-size="10.00" fill="#000000">js_std_dbuf_init</text>
</a>
</g>
</g>
<!-- Node72324&#45;&gt;Node72335 -->
<g id="edge13" class="edge">
<title>Node72324&#45;&gt;Node72335</title>
<path fill="none" stroke="#191970" d="M61.3997,-315.87C76.7004,-303.1884 99.5316,-285.8995 122,-275 129.6702,-271.2791 138.201,-268.1607 146.525,-265.5968"/>
<polygon fill="#191970" stroke="#191970" points="59.0925,-313.2375 53.7241,-322.3716 63.6169,-318.5788 59.0925,-313.2375"/>
</g>
<!-- Node72343 -->
<g id="node20" class="node">
<title>Node72343</title>
<g id="a_node20"><a xlink:href="quickjs-libc_8c.html#a9d1d581951398643c2791e45231f87db" target="_top" xlink:title="js_std_gc">
<polygon fill="none" stroke="#000000" points="159,-208.5 159,-227.5 218,-227.5 218,-208.5 159,-208.5"/>
<text text-anchor="middle" x="188.5" y="-215.5" font-family="Helvetica,sans-Serif" font-size="10.00" fill="#000000">js_std_gc</text>
</a>
</g>
</g>
<!-- Node72324&#45;&gt;Node72343 -->
<g id="edge21" class="edge">
<title>Node72324&#45;&gt;Node72343</title>
<path fill="none" stroke="#191970" d="M53.6244,-313.4398C66.9004,-291.8994 91.613,-256.8087 122,-237 132.9639,-229.8528 146.6471,-225.3474 158.7464,-222.5298"/>
<polygon fill="#191970" stroke="#191970" points="50.4683,-311.8987 48.3501,-322.2797 56.4796,-315.4854 50.4683,-311.8987"/>
</g>
<!-- Node72344 -->
<g id="node21" class="node">
<title>Node72344</title>
<g id="a_node21"><a xlink:href="quickjs-libc_8c.html#a08cea1a0226b7603e6969e2208d99d55" target="_top" xlink:title="js_std_init">
<polygon fill="none" stroke="#000000" points="324.5,-474.5 324.5,-493.5 385.5,-493.5 385.5,-474.5 324.5,-474.5"/>
<text text-anchor="middle" x="355" y="-481.5" font-family="Helvetica,sans-Serif" font-size="10.00" fill="#000000">js_std_init</text>
</a>
</g>
</g>
<!-- Node72324&#45;&gt;Node72344 -->
<g id="edge22" class="edge">
<title>Node72324&#45;&gt;Node72344</title>
<path fill="none" stroke="#191970" d="M48.9308,-351.6789C58.8507,-380.8361 81.7875,-434.7754 122,-460 185.0414,-499.5447 277.0166,-494.8169 324.3451,-488.905"/>
<polygon fill="#191970" stroke="#191970" points="52.1553,-350.274 45.7573,-341.8291 45.4926,-352.4206 52.1553,-350.274"/>
</g>
<!-- Node72346 -->
<g id="node23" class="node">
<title>Node72346</title>
<g id="a_node23"><a xlink:href="quickjs-libc_8c.html#af7480dad10e937004e36b2b409b084a4" target="_top" xlink:title="js_std_loop">
<polygon fill="none" stroke="#000000" points="477,-436.5 477,-455.5 543,-455.5 543,-436.5 477,-436.5"/>
<text text-anchor="middle" x="510" y="-443.5" font-family="Helvetica,sans-Serif" font-size="10.00" fill="#000000">js_std_loop</text>
</a>
</g>
</g>
<!-- Node72324&#45;&gt;Node72346 -->
<g id="edge26" class="edge">
<title>Node72324&#45;&gt;Node72346</title>
<path fill="none" stroke="#191970" d="M53.0204,-350.3879C65.8522,-371.8656 90.2746,-406.436 122,-422 241.5163,-480.6327 407.2048,-463.1599 476.9588,-452.0521"/>
<polygon fill="#191970" stroke="#191970" points="55.9667,-348.49 47.9557,-341.5564 49.8944,-351.9724 55.9667,-348.49"/>
</g>
<!-- Node72347 -->
<g id="node24" class="node">
<title>Node72347</title>
<g id="a_node24"><a xlink:href="quickjs-libc_8c.html#a0a99fb986f4b8862e7e44dcb16a9dc96" target="_top" xlink:title="js_worker_set_onmessage">
<polygon fill="none" stroke="#000000" points="122,-170.5 122,-189.5 255,-189.5 255,-170.5 122,-170.5"/>
<text text-anchor="middle" x="188.5" y="-177.5" font-family="Helvetica,sans-Serif" font-size="10.00" fill="#000000">js_worker_set_onmessage</text>
</a>
</g>
</g>
<!-- Node72324&#45;&gt;Node72347 -->
<g id="edge30" class="edge">
<title>Node72324&#45;&gt;Node72347</title>
<path fill="none" stroke="#191970" d="M49.3199,-312.4574C59.7454,-283.3373 83.3305,-228.7987 122,-199 127.0407,-195.1156 132.8446,-192.0252 138.8796,-189.5665"/>
<polygon fill="#191970" stroke="#191970" points="45.8887,-311.6743 45.9645,-322.2688 52.5121,-313.9394 45.8887,-311.6743"/>
</g>
<!-- Node72348 -->
<g id="node25" class="node">
<title>Node72348</title>
<g id="a_node25"><a xlink:href="structqjs_1_1js__traits_3_01std_1_1shared__ptr_3_01T_01_4_01_4.html#af3558afeef079826c58411353c8ccce0" target="_top" xlink:title="Register class in QuickJS context. ">
<polygon fill="none" stroke="#000000" points="138,-110.5 138,-151.5 239,-151.5 239,-110.5 138,-110.5"/>
<text text-anchor="start" x="146" y="-139.5" font-family="Helvetica,sans-Serif" font-size="10.00" fill="#000000">qjs::js_traits&lt; std</text>
<text text-anchor="start" x="146" y="-128.5" font-family="Helvetica,sans-Serif" font-size="10.00" fill="#000000">::shared_ptr&lt; T &gt; &gt;</text>
<text text-anchor="middle" x="188.5" y="-117.5" font-family="Helvetica,sans-Serif" font-size="10.00" fill="#000000">::register_class</text>
</a>
</g>
</g>
<!-- Node72324&#45;&gt;Node72348 -->
<g id="edge31" class="edge">
<title>Node72324&#45;&gt;Node72348</title>
<path fill="none" stroke="#191970" d="M47.3134,-312.2049C55.8459,-277.3564 77.985,-204.6212 122,-161 126.588,-156.4531 131.9872,-152.5271 137.6924,-149.1553"/>
<polygon fill="#191970" stroke="#191970" points="43.8676,-311.5702 45.0107,-322.1032 50.6856,-313.1563 43.8676,-311.5702"/>
</g>
<!-- Node72350 -->
<g id="node27" class="node">
<title>Node72350</title>
<g id="a_node27"><a xlink:href="structqjs_1_1js__traits_3_01detail_1_1function_01_4.html#afe383c63f389edaf9f878cd30062d37f" target="_top" xlink:title="qjs::js_traits\&lt; detail\l::function \&gt;::register_class">
<polygon fill="none" stroke="#000000" points="122,-61 122,-91 255,-91 255,-61 122,-61"/>
<text text-anchor="start" x="130" y="-79" font-family="Helvetica,sans-Serif" font-size="10.00" fill="#000000">qjs::js_traits&lt; detail</text>
<text text-anchor="middle" x="188.5" y="-68" font-family="Helvetica,sans-Serif" font-size="10.00" fill="#000000">::function &gt;::register_class</text>
</a>
</g>
</g>
<!-- Node72324&#45;&gt;Node72350 -->
<g id="edge33" class="edge">
<title>Node72324&#45;&gt;Node72350</title>
<path fill="none" stroke="#191970" d="M44.2338,-312.1597C48.0121,-268.2043 63.0784,-161.7207 122,-101 125.7793,-97.1053 130.224,-93.8109 134.9936,-91.0254"/>
<polygon fill="#191970" stroke="#191970" points="40.7427,-311.9112 43.4822,-322.1457 47.723,-312.4366 40.7427,-311.9112"/>
</g>
<!-- Node72354 -->
<g id="node30" class="node">
<title>Node72354</title>
<g id="a_node30"><a xlink:href="structqjs_1_1js__traits_3_01std_1_1function_3_01R_07Args_8_8_8_08_4_01_4.html#a6812a672334111ba5228e64816e55490" target="_top" xlink:title="Convert from function object functor to JSValue. ">
<polygon fill="none" stroke="#000000" points="134,-.5 134,-41.5 243,-41.5 243,-.5 134,-.5"/>
<text text-anchor="start" x="142" y="-29.5" font-family="Helvetica,sans-Serif" font-size="10.00" fill="#000000">qjs::js_traits&lt; std</text>
<text text-anchor="start" x="142" y="-18.5" font-family="Helvetica,sans-Serif" font-size="10.00" fill="#000000">::function&lt; R(Args...)</text>
<text text-anchor="middle" x="188.5" y="-7.5" font-family="Helvetica,sans-Serif" font-size="10.00" fill="#000000">&gt; &gt;::wrap</text>
</a>
</g>
</g>
<!-- Node72324&#45;&gt;Node72354 -->
<g id="edge36" class="edge">
<title>Node72324&#45;&gt;Node72354</title>
<path fill="none" stroke="#191970" d="M46.3072,-312.3315C56.2296,-255.3128 87.217,-91.4238 122,-51 125.387,-47.0637 129.3948,-43.6188 133.7378,-40.6088"/>
<polygon fill="#191970" stroke="#191970" points="42.8483,-311.7945 44.6087,-322.2421 49.7477,-312.977 42.8483,-311.7945"/>
</g>
<!-- Node72327 -->
<g id="node4" class="node">
<title>Node72327</title>
<g id="a_node4"><a xlink:href="quickjs-libc_8c.html#adcca2b4a661355e6ff87a0def2339894" target="_top" xlink:title="js_init_module_os">
<polygon fill="none" stroke="#000000" points="462.5,-512.5 462.5,-531.5 557.5,-531.5 557.5,-512.5 462.5,-512.5"/>
<text text-anchor="middle" x="510" y="-519.5" font-family="Helvetica,sans-Serif" font-size="10.00" fill="#000000">js_init_module_os</text>
</a>
</g>
</g>
<!-- Node72326&#45;&gt;Node72327 -->
<g id="edge3" class="edge">
<title>Node72326&#45;&gt;Node72327</title>
<path fill="none" stroke="#191970" d="M394.1996,-536.1949C414.9255,-533.6543 440.5334,-530.5153 462.3936,-527.8356"/>
<polygon fill="#191970" stroke="#191970" points="393.6541,-532.7355 384.1543,-537.4262 394.5059,-539.6835 393.6541,-532.7355"/>
</g>
<!-- Node72328 -->
<g id="node5" class="node">
<title>Node72328</title>
<g id="a_node5"><a xlink:href="qjs_8cpp.html#a3c04138a5bfe5d72780bb7e82a18e627" target="_top" xlink:title="main">
<polygon fill="none" stroke="#000000" points="617,-455.5 617,-474.5 655,-474.5 655,-455.5 617,-455.5"/>
<text text-anchor="middle" x="636" y="-462.5" font-family="Helvetica,sans-Serif" font-size="10.00" fill="#000000">main</text>
</a>
</g>
</g>
<!-- Node72327&#45;&gt;Node72328 -->
<g id="edge4" class="edge">
<title>Node72327&#45;&gt;Node72328</title>
<path fill="none" stroke="#191970" d="M550.004,-509.0186C555.0991,-507.1208 560.2052,-505.0955 565,-503 567.7223,-501.8103 598.1386,-485.4434 618.2673,-474.5813"/>
<polygon fill="#191970" stroke="#191970" points="548.5363,-505.8266 540.304,-512.4959 550.8985,-512.416 548.5363,-505.8266"/>
</g>
<!-- Node72329 -->
<g id="node6" class="node">
<title>Node72329</title>
<g id="a_node6"><a xlink:href="quickjs-libc_8c.html#a1fbb3adc15e7b967479fc1940e99b67a" target="_top" xlink:title="worker_func">
<polygon fill="none" stroke="#000000" points="601,-493.5 601,-512.5 671,-512.5 671,-493.5 601,-493.5"/>
<text text-anchor="middle" x="636" y="-500.5" font-family="Helvetica,sans-Serif" font-size="10.00" fill="#000000">worker_func</text>
</a>
</g>
</g>
<!-- Node72327&#45;&gt;Node72329 -->
<g id="edge5" class="edge">
<title>Node72327&#45;&gt;Node72329</title>
<path fill="none" stroke="#191970" d="M567.5297,-513.3249C578.902,-511.61 590.5139,-509.859 600.868,-508.2977"/>
<polygon fill="#191970" stroke="#191970" points="567.0015,-509.8649 557.6352,-514.8169 568.0453,-516.7866 567.0015,-509.8649"/>
</g>
<!-- Node72329&#45;&gt;Node72330 -->
<g id="edge6" class="edge">
<title>Node72329&#45;&gt;Node72330</title>
<path fill="none" stroke="#191970" d="M681.1986,-503C689.6394,-503 698.4096,-503 706.691,-503"/>
<polygon fill="#191970" stroke="#191970" points="681.1211,-499.5001 671.1211,-503 681.1211,-506.5001 681.1211,-499.5001"/>
</g>
<!-- Node72330&#45;&gt;Node72326 -->
<g id="edge7" class="edge">
<title>Node72330&#45;&gt;Node72326</title>
<path fill="none" stroke="#191970" d="M700.7899,-515.0824C690.9837,-517.4976 680.6725,-519.9265 671,-522 624.2012,-532.0321 612.6739,-536.7611 565,-541 500.7223,-546.7152 424.9397,-544.5273 384.2887,-542.6328"/>
<polygon fill="#191970" stroke="#191970" points="701.9252,-518.4064 710.7782,-512.5861 700.2279,-511.6153 701.9252,-518.4064"/>
</g>
<!-- Node72331&#45;&gt;Node72326 -->
<g id="edge9" class="edge">
<title>Node72331&#45;&gt;Node72326</title>
<path fill="none" stroke="#191970" d="M228.7929,-526.598C258.7801,-530.02 299.0094,-534.6107 325.9094,-537.6804"/>
<polygon fill="#191970" stroke="#191970" points="228.9843,-523.0972 218.6519,-525.4408 228.1906,-530.0521 228.9843,-523.0972"/>
</g>
<!-- Node72336 -->
<g id="node13" class="node">
<title>Node72336</title>
<g id="a_node13"><a xlink:href="quickjs-libc_8c.html#a2abec3aeee82a6dd3dd063725bbeecfe" target="_top" xlink:title="js_printf_internal">
<polygon fill="none" stroke="#000000" points="311,-303.5 311,-322.5 399,-322.5 399,-303.5 311,-303.5"/>
<text text-anchor="middle" x="355" y="-310.5" font-family="Helvetica,sans-Serif" font-size="10.00" fill="#000000">js_printf_internal</text>
</a>
</g>
</g>
<!-- Node72335&#45;&gt;Node72336 -->
<g id="edge14" class="edge">
<title>Node72335&#45;&gt;Node72336</title>
<path fill="none" stroke="#191970" d="M236.6679,-268.4762C242.9035,-270.4653 249.1505,-272.6503 255,-275 271.7879,-281.7435 274.247,-287.1702 291,-294 299.6936,-297.5441 309.293,-300.7477 318.3546,-303.4713"/>
<polygon fill="#191970" stroke="#191970" points="237.5232,-265.0781 226.9374,-265.5163 235.4859,-271.7751 237.5232,-265.0781"/>
</g>
<!-- Node72340 -->
<g id="node17" class="node">
<title>Node72340</title>
<g id="a_node17"><a xlink:href="quickjs-libc_8c.html#af31f002f20b3b7e983dd4efabd18d65e" target="_top" xlink:title="js_std_file_getline">
<polygon fill="none" stroke="#000000" points="307.5,-265.5 307.5,-284.5 402.5,-284.5 402.5,-265.5 307.5,-265.5"/>
<text text-anchor="middle" x="355" y="-272.5" font-family="Helvetica,sans-Serif" font-size="10.00" fill="#000000">js_std_file_getline</text>
</a>
</g>
</g>
<!-- Node72335&#45;&gt;Node72340 -->
<g id="edge18" class="edge">
<title>Node72335&#45;&gt;Node72340</title>
<path fill="none" stroke="#191970" d="M241.4735,-262.045C262.5897,-264.4547 286.7146,-267.2077 307.2791,-269.5544"/>
<polygon fill="#191970" stroke="#191970" points="241.7103,-258.5494 231.3779,-260.893 240.9166,-265.5043 241.7103,-258.5494"/>
</g>
<!-- Node72341 -->
<g id="node18" class="node">
<title>Node72341</title>
<g id="a_node18"><a xlink:href="quickjs-libc_8c.html#ae8abf0c32bf9b0acd85adffaf8345dfe" target="_top" xlink:title="js_std_file_readAsString">
<polygon fill="none" stroke="#000000" points="294,-227.5 294,-246.5 416,-246.5 416,-227.5 294,-227.5"/>
<text text-anchor="middle" x="355" y="-234.5" font-family="Helvetica,sans-Serif" font-size="10.00" fill="#000000">js_std_file_readAsString</text>
</a>
</g>
</g>
<!-- Node72335&#45;&gt;Node72341 -->
<g id="edge19" class="edge">
<title>Node72335&#45;&gt;Node72341</title>
<path fill="none" stroke="#191970" d="M241.464,-249.9561C258.0965,-248.0581 276.5965,-245.9469 293.7533,-243.9891"/>
<polygon fill="#191970" stroke="#191970" points="240.9166,-246.4957 231.3779,-251.107 241.7103,-253.4506 240.9166,-246.4957"/>
</g>
<!-- Node72342 -->
<g id="node19" class="node">
<title>Node72342</title>
<g id="a_node19"><a xlink:href="quickjs-libc_8c.html#a7aebce2172c6aa4a6645aef600a69e6b" target="_top" xlink:title="js_std_urlGet">
<polygon fill="none" stroke="#000000" points="318,-189.5 318,-208.5 392,-208.5 392,-189.5 318,-189.5"/>
<text text-anchor="middle" x="355" y="-196.5" font-family="Helvetica,sans-Serif" font-size="10.00" fill="#000000">js_std_urlGet</text>
</a>
</g>
</g>
<!-- Node72335&#45;&gt;Node72342 -->
<g id="edge20" class="edge">
<title>Node72335&#45;&gt;Node72342</title>
<path fill="none" stroke="#191970" d="M236.6679,-243.5238C242.9035,-241.5347 249.1505,-239.3497 255,-237 271.7879,-230.2565 274.247,-224.8298 291,-218 299.6936,-214.4559 309.293,-211.2523 318.3546,-208.5287"/>
<polygon fill="#191970" stroke="#191970" points="235.4859,-240.2249 226.9374,-246.4837 237.5232,-246.9219 235.4859,-240.2249"/>
</g>
<!-- Node72337 -->
<g id="node14" class="node">
<title>Node72337</title>
<g id="a_node14"><a xlink:href="quickjs-libc_8c.html#a2770356a19e5d09edcb7da0cecbfe0f8" target="_top" xlink:title="js_std_file_printf">
<polygon fill="none" stroke="#000000" points="466,-341.5 466,-360.5 554,-360.5 554,-341.5 466,-341.5"/>
<text text-anchor="middle" x="510" y="-348.5" font-family="Helvetica,sans-Serif" font-size="10.00" fill="#000000">js_std_file_printf</text>
</a>
</g>
</g>
<!-- Node72336&#45;&gt;Node72337 -->
<g id="edge15" class="edge">
<title>Node72336&#45;&gt;Node72337</title>
<path fill="none" stroke="#191970" d="M404.1105,-325.04C425.7647,-330.3488 450.8502,-336.4988 471.1682,-341.4799"/>
<polygon fill="#191970" stroke="#191970" points="404.6588,-321.5708 394.113,-322.589 402.992,-328.3695 404.6588,-321.5708"/>
</g>
<!-- Node72338 -->
<g id="node15" class="node">
<title>Node72338</title>
<g id="a_node15"><a xlink:href="quickjs-libc_8c.html#a6f5e9fa6d24e8fabd0b97f88179c1b29" target="_top" xlink:title="js_std_printf">
<polygon fill="none" stroke="#000000" points="475,-303.5 475,-322.5 545,-322.5 545,-303.5 475,-303.5"/>
<text text-anchor="middle" x="510" y="-310.5" font-family="Helvetica,sans-Serif" font-size="10.00" fill="#000000">js_std_printf</text>
</a>
</g>
</g>
<!-- Node72336&#45;&gt;Node72338 -->
<g id="edge16" class="edge">
<title>Node72336&#45;&gt;Node72338</title>
<path fill="none" stroke="#191970" d="M409.1452,-313C430.9924,-313 455.5709,-313 474.9945,-313"/>
<polygon fill="#191970" stroke="#191970" points="409.0022,-309.5001 399.0022,-313 409.0021,-316.5001 409.0022,-309.5001"/>
</g>
<!-- Node72339 -->
<g id="node16" class="node">
<title>Node72339</title>
<g id="a_node16"><a xlink:href="quickjs-libc_8c.html#ac49c945b1cbeb056236cfb479ec1ffd5" target="_top" xlink:title="js_std_sprintf">
<polygon fill="none" stroke="#000000" points="472.5,-265.5 472.5,-284.5 547.5,-284.5 547.5,-265.5 472.5,-265.5"/>
<text text-anchor="middle" x="510" y="-272.5" font-family="Helvetica,sans-Serif" font-size="10.00" fill="#000000">js_std_sprintf</text>
</a>
</g>
</g>
<!-- Node72336&#45;&gt;Node72339 -->
<g id="edge17" class="edge">
<title>Node72336&#45;&gt;Node72339</title>
<path fill="none" stroke="#191970" d="M403.9686,-300.9948C426.0363,-295.5846 451.6911,-289.2951 472.2376,-284.2579"/>
<polygon fill="#191970" stroke="#191970" points="402.992,-297.6305 394.113,-303.411 404.6588,-304.4292 402.992,-297.6305"/>
</g>
<!-- Node72345 -->
<g id="node22" class="node">
<title>Node72345</title>
<g id="a_node22"><a xlink:href="quickjs-libc_8c.html#a0e65c67dfff872a664f8d29e7eae5a61" target="_top" xlink:title="js_init_module_std">
<polygon fill="none" stroke="#000000" points="461,-474.5 461,-493.5 559,-493.5 559,-474.5 461,-474.5"/>
<text text-anchor="middle" x="510" y="-481.5" font-family="Helvetica,sans-Serif" font-size="10.00" fill="#000000">js_init_module_std</text>
</a>
</g>
</g>
<!-- Node72344&#45;&gt;Node72345 -->
<g id="edge23" class="edge">
<title>Node72344&#45;&gt;Node72345</title>
<path fill="none" stroke="#191970" d="M395.6372,-484C415.6047,-484 439.8283,-484 460.8323,-484"/>
<polygon fill="#191970" stroke="#191970" points="395.623,-480.5001 385.623,-484 395.623,-487.5001 395.623,-480.5001"/>
</g>
<!-- Node72345&#45;&gt;Node72328 -->
<g id="edge24" class="edge">
<title>Node72345&#45;&gt;Node72328</title>
<path fill="none" stroke="#191970" d="M569.1294,-475.0837C586.3471,-472.4873 603.9517,-469.8327 616.7733,-467.8993"/>
<polygon fill="#191970" stroke="#191970" points="568.442,-471.6477 559.0757,-476.5997 569.4858,-478.5694 568.442,-471.6477"/>
</g>
<!-- Node72345&#45;&gt;Node72329 -->
<g id="edge25" class="edge">
<title>Node72345&#45;&gt;Node72329</title>
<path fill="none" stroke="#191970" d="M569.0104,-492.8984C579.9182,-494.5432 590.9862,-496.2122 600.8994,-497.707"/>
<polygon fill="#191970" stroke="#191970" points="569.4858,-489.4306 559.0757,-491.4003 568.442,-496.3523 569.4858,-489.4306"/>
</g>
<!-- Node72346&#45;&gt;Node72328 -->
<g id="edge27" class="edge">
<title>Node72346&#45;&gt;Node72328</title>
<path fill="none" stroke="#191970" d="M553.0922,-452.498C574.7664,-455.7664 599.9443,-459.563 616.8162,-462.1072"/>
<polygon fill="#191970" stroke="#191970" points="553.5151,-449.0223 543.105,-450.992 552.4713,-455.9441 553.5151,-449.0223"/>
</g>
<!-- Node72346&#45;&gt;Node72329 -->
<g id="edge28" class="edge">
<title>Node72346&#45;&gt;Node72329</title>
<path fill="none" stroke="#191970" d="M550.004,-458.9814C555.0991,-460.8792 560.2052,-462.9045 565,-465 567.7223,-466.1897 598.1386,-482.5566 618.2673,-493.4187"/>
<polygon fill="#191970" stroke="#191970" points="550.8985,-455.584 540.304,-455.5041 548.5363,-462.1734 550.8985,-455.584"/>
</g>
<!-- Node72349 -->
<g id="node26" class="node">
<title>Node72349</title>
<g id="a_node26"><a xlink:href="structqjs_1_1js__traits_3_01std_1_1shared__ptr_3_01T_01_4_01_4.html#a046f811ae16e0cb24170a8425f3e8780" target="_top" xlink:title="Create a JSValue from std::shared_ptr&lt;T&gt;. ">
<polygon fill="none" stroke="#000000" points="291,-116 291,-146 419,-146 419,-116 291,-116"/>
<text text-anchor="start" x="299" y="-134" font-family="Helvetica,sans-Serif" font-size="10.00" fill="#000000">qjs::js_traits&lt; std</text>
<text text-anchor="middle" x="355" y="-123" font-family="Helvetica,sans-Serif" font-size="10.00" fill="#000000">::shared_ptr&lt; T &gt; &gt;::wrap</text>
</a>
</g>
</g>
<!-- Node72348&#45;&gt;Node72349 -->
<g id="edge32" class="edge">
<title>Node72348&#45;&gt;Node72349</title>
<path fill="none" stroke="#191970" d="M249.4831,-131C262.969,-131 277.2964,-131 290.9021,-131"/>
<polygon fill="#191970" stroke="#191970" points="249.3602,-127.5001 239.3602,-131 249.3602,-134.5001 249.3602,-127.5001"/>
</g>
<!-- Node72351 -->
<g id="node28" class="node">
<title>Node72351</title>
<g id="a_node28"><a xlink:href="classqjs_1_1Context.html#aae629cc551168d549a405db5c762b61e" target="_top" xlink:title="qjs::Context::init">
<polygon fill="none" stroke="#000000" points="310.5,-66.5 310.5,-85.5 399.5,-85.5 399.5,-66.5 310.5,-66.5"/>
<text text-anchor="middle" x="355" y="-73.5" font-family="Helvetica,sans-Serif" font-size="10.00" fill="#000000">qjs::Context::init</text>
</a>
</g>
</g>
<!-- Node72350&#45;&gt;Node72351 -->
<g id="edge34" class="edge">
<title>Node72350&#45;&gt;Node72351</title>
<path fill="none" stroke="#191970" d="M265.2985,-76C280.669,-76 296.3347,-76 310.1826,-76"/>
<polygon fill="#191970" stroke="#191970" points="265.2626,-72.5001 255.2626,-76 265.2625,-79.5001 265.2626,-72.5001"/>
</g>
<!-- Node72352 -->
<g id="node29" class="node">
<title>Node72352</title>
<g id="a_node29"><a xlink:href="classqjs_1_1Context.html#a4392a23648acfc4bf6b445336efb5007" target="_top" xlink:title="qjs::Context::Context">
<polygon fill="none" stroke="#ff0000" points="455,-66.5 455,-85.5 565,-85.5 565,-66.5 455,-66.5"/>
<text text-anchor="middle" x="510" y="-73.5" font-family="Helvetica,sans-Serif" font-size="10.00" fill="#000000">qjs::Context::Context</text>
</a>
</g>
</g>
<!-- Node72351&#45;&gt;Node72352 -->
<g id="edge35" class="edge">
<title>Node72351&#45;&gt;Node72352</title>
<path fill="none" stroke="#191970" d="M410.1579,-76C424.6599,-76 440.3033,-76 454.8072,-76"/>
<polygon fill="#191970" stroke="#191970" points="409.8325,-72.5001 399.8324,-76 409.8324,-79.5001 409.8325,-72.5001"/>
</g>
</g>
</svg>
        <g id="navigator" transform="translate(0 0)" fill="#404254">
                <rect fill="#f2f5e9" fill-opacity="0.5" stroke="#606060" stroke-width=".5" x="0" y="0" width="60" height="60"/>
                <use id="zoomplus" xlink:href="#zoomPlus" x="17" y="9" onmousedown="handleZoom(evt,'in')"/>
                <use id="zoomminus" xlink:href="#zoomMin" x="42" y="9" onmousedown="handleZoom(evt,'out')"/>
                <use id="reset" xlink:href="#resetDef" x="30" y="36" onmousedown="handleReset()"/>
                <g id="arrowUp" xlink:href="#dirArrow" transform="translate(30 24)" onmousedown="handlePan(0,-1)">
                  <use xlink:href="#rim" fill="#404040">
                        <set attributeName="fill" to="#808080" begin="arrowUp.mouseover" end="arrowUp.mouseout"/>
                  </use>
                  <path fill="none" stroke="white" stroke-width="1.5" d="M0,-3.0v7 M-2.5,-0.5L0,-3.0L2.5,-0.5"/>
                </g>
                <g id="arrowRight" xlink:href="#dirArrow" transform="rotate(90) translate(36 -43)" onmousedown="handlePan(1,0)">
                  <use xlink:href="#rim" fill="#404040">
                        <set attributeName="fill" to="#808080" begin="arrowRight.mouseover" end="arrowRight.mouseout"/>
                  </use>
                  <path fill="none" stroke="white" stroke-width="1.5" d="M0,-3.0v7 M-2.5,-0.5L0,-3.0L2.5,-0.5"/>
                </g>
                <g id="arrowDown" xlink:href="#dirArrow" transform="rotate(180) translate(-30 -48)" onmousedown="handlePan(0,1)">
                  <use xlink:href="#rim" fill="#404040">
                        <set attributeName="fill" to="#808080" begin="arrowDown.mouseover" end="arrowDown.mouseout"/>
                  </use>
                  <path fill="none" stroke="white" stroke-width="1.5" d="M0,-3.0v7 M-2.5,-0.5L0,-3.0L2.5,-0.5"/>
                </g>
                <g id="arrowLeft" xlink:href="#dirArrow" transform="rotate(270) translate(-36 17)" onmousedown="handlePan(-1,0)">
                  <use xlink:href="#rim" fill="#404040">
                        <set attributeName="fill" to="#808080" begin="arrowLeft.mouseover" end="arrowLeft.mouseout"/>
                  </use>
                  <path fill="none" stroke="white" stroke-width="1.5" d="M0,-3.0v7 M-2.5,-0.5L0,-3.0L2.5,-0.5"/>
                </g>
        </g>
        <svg viewBox="0 0 15 15" width="100%" height="30px" preserveAspectRatio="xMaxYMin meet">
         <g id="arrow_out" transform="scale(0.3 0.3)">
          <a xlink:href="quickjs_8c_af1866c7f8a91153f11602a2b521d9399_icgraph_org.svg" target="_base">
           <rect id="button" ry="5" rx="5" y="6" x="6" height="38" width="38"
                fill="#f2f5e9" fill-opacity="0.5" stroke="#606060" stroke-width="1.0"/>
           <path id="arrow"
             d="M 11.500037,31.436501 C 11.940474,20.09759 22.043105,11.32322 32.158766,21.979434 L 37.068811,17.246167 C 37.068811,17.246167 37.088388,32 37.088388,32 L 22.160133,31.978069 C 22.160133,31.978069 26.997745,27.140456 26.997745,27.140456 C 18.528582,18.264221 13.291696,25.230495 11.500037,31.436501 z"
             style="fill:#404040;"/>
          </a>
         </g>
        </svg>
</svg>
