<?xml version="1.0" encoding="UTF-8" standalone="no"?>
<!DOCTYPE svg PUBLIC "-//W3C//DTD SVG 1.1//EN"
 "http://www.w3.org/Graphics/SVG/1.1/DTD/svg11.dtd">
<!-- Generated by graphviz version 2.40.1 (20161225.0304)
 -->
<!-- Title: js_function_constructor Pages: 1 -->
<svg width="575pt" height="66pt"
 viewBox="0.00 0.00 575.00 66.00" xmlns="http://www.w3.org/2000/svg" xmlns:xlink="http://www.w3.org/1999/xlink">
<g id="graph0" class="graph" transform="scale(1 1) rotate(0) translate(4 62)">
<title>js_function_constructor</title>
<!-- Node385024 -->
<g id="node1" class="node">
<title>Node385024</title>
<polygon fill="#bfbfbf" stroke="#000000" points="0,-19.5 0,-38.5 118,-38.5 118,-19.5 0,-19.5"/>
<text text-anchor="middle" x="59" y="-26.5" font-family="Helvetica,sans-Serif" font-size="10.00" fill="#000000">js_function_constructor</text>
</g>
<!-- Node385025 -->
<g id="node2" class="node">
<title>Node385025</title>
<g id="a_node2"><a xlink:href="quickjs_8c.html#a4c9489297c684663f30e517204a9ec14" target="_top" xlink:title="JS_AddIntrinsicBaseObjects">
<polygon fill="none" stroke="#000000" points="154,-38.5 154,-57.5 296,-57.5 296,-38.5 154,-38.5"/>
<text text-anchor="middle" x="225" y="-45.5" font-family="Helvetica,sans-Serif" font-size="10.00" fill="#000000">JS_AddIntrinsicBaseObjects</text>
</a>
</g>
</g>
<!-- Node385024&#45;&gt;Node385025 -->
<g id="edge1" class="edge">
<title>Node385024&#45;&gt;Node385025</title>
<path fill="none" stroke="#191970" d="M128.5236,-36.9575C136.8684,-37.9126 145.3999,-38.8891 153.7685,-39.847"/>
<polygon fill="#191970" stroke="#191970" points="128.7941,-33.4657 118.4609,-35.8058 127.998,-40.4203 128.7941,-33.4657"/>
</g>
<!-- Node385034 -->
<g id="node6" class="node">
<title>Node385034</title>
<g id="a_node6"><a xlink:href="quickjs_8c.html#a2e66fcf1bc1d19f346317f10ee590621" target="_top" xlink:title="JS_AddIntrinsicPromise">
<polygon fill="none" stroke="#000000" points="164,-.5 164,-19.5 286,-19.5 286,-.5 164,-.5"/>
<text text-anchor="middle" x="225" y="-7.5" font-family="Helvetica,sans-Serif" font-size="10.00" fill="#000000">JS_AddIntrinsicPromise</text>
</a>
</g>
</g>
<!-- Node385024&#45;&gt;Node385034 -->
<g id="edge5" class="edge">
<title>Node385024&#45;&gt;Node385034</title>
<path fill="none" stroke="#191970" d="M128.6578,-21.0271C140.3961,-19.6836 152.5,-18.2982 163.997,-16.9823"/>
<polygon fill="#191970" stroke="#191970" points="127.998,-17.5797 118.4609,-22.1942 128.7941,-24.5343 127.998,-17.5797"/>
</g>
<!-- Node385026 -->
<g id="node3" class="node">
<title>Node385026</title>
<g id="a_node3"><a xlink:href="quickjs_8c.html#ad8aedb643b8753b7a15f6cb2df61945e" target="_top" xlink:title="JS_NewContext">
<polygon fill="none" stroke="#000000" points="332,-19.5 332,-38.5 421,-38.5 421,-19.5 332,-19.5"/>
<text text-anchor="middle" x="376.5" y="-26.5" font-family="Helvetica,sans-Serif" font-size="10.00" fill="#000000">JS_NewContext</text>
</a>
</g>
</g>
<!-- Node385025&#45;&gt;Node385026 -->
<g id="edge2" class="edge">
<title>Node385025&#45;&gt;Node385026</title>
<path fill="none" stroke="#191970" d="M306.2695,-37.8078C315.0724,-36.7038 323.7754,-35.6123 331.8995,-34.5935"/>
<polygon fill="#191970" stroke="#191970" points="305.8005,-34.3391 296.3138,-39.0564 306.6716,-41.2847 305.8005,-34.3391"/>
</g>
<!-- Node385027 -->
<g id="node4" class="node">
<title>Node385027</title>
<g id="a_node4"><a xlink:href="classqjs_1_1Context.html#a4392a23648acfc4bf6b445336efb5007" target="_top" xlink:title="qjs::Context::Context">
<polygon fill="none" stroke="#ff0000" points="457,-38.5 457,-57.5 567,-57.5 567,-38.5 457,-38.5"/>
<text text-anchor="middle" x="512" y="-45.5" font-family="Helvetica,sans-Serif" font-size="10.00" fill="#000000">qjs::Context::Context</text>
</a>
</g>
</g>
<!-- Node385026&#45;&gt;Node385027 -->
<g id="edge3" class="edge">
<title>Node385026&#45;&gt;Node385027</title>
<path fill="none" stroke="#191970" d="M431.3476,-36.6908C439.7739,-37.8724 448.4767,-39.0927 456.9083,-40.275"/>
<polygon fill="#191970" stroke="#191970" points="431.6325,-33.1966 421.2433,-35.274 430.6604,-40.1288 431.6325,-33.1966"/>
</g>
<!-- Node385030 -->
<g id="node5" class="node">
<title>Node385030</title>
<g id="a_node5"><a xlink:href="quickjs-libc_8c.html#a1fbb3adc15e7b967479fc1940e99b67a" target="_top" xlink:title="worker_func">
<polygon fill="none" stroke="#ff0000" points="477,-.5 477,-19.5 547,-19.5 547,-.5 477,-.5"/>
<text text-anchor="middle" x="512" y="-7.5" font-family="Helvetica,sans-Serif" font-size="10.00" fill="#000000">worker_func</text>
</a>
</g>
</g>
<!-- Node385026&#45;&gt;Node385030 -->
<g id="edge4" class="edge">
<title>Node385026&#45;&gt;Node385030</title>
<path fill="none" stroke="#191970" d="M431.1712,-21.3339C446.5364,-19.1794 462.8347,-16.894 476.7403,-14.9442"/>
<polygon fill="#191970" stroke="#191970" points="430.6604,-17.8712 421.2433,-22.726 431.6325,-24.8034 430.6604,-17.8712"/>
</g>
<!-- Node385034&#45;&gt;Node385026 -->
<g id="edge6" class="edge">
<title>Node385034&#45;&gt;Node385026</title>
<path fill="none" stroke="#191970" d="M296.2988,-18.9418C308.4153,-20.4613 320.6841,-22 331.8596,-23.4015"/>
<polygon fill="#191970" stroke="#191970" points="296.542,-15.4449 286.1842,-17.6733 295.6709,-22.3905 296.542,-15.4449"/>
</g>
</g>
</svg>
