<?xml version="1.0" encoding="UTF-8" standalone="no"?>
<!DOCTYPE svg PUBLIC "-//W3C//DTD SVG 1.1//EN"
 "http://www.w3.org/Graphics/SVG/1.1/DTD/svg11.dtd">
<!-- Generated by graphviz version 2.40.1 (20161225.0304)
 -->
<!-- Title: js_global_eval Pages: 1 -->
<svg width="535pt" height="66pt"
 viewBox="0.00 0.00 535.00 66.00" xmlns="http://www.w3.org/2000/svg" xmlns:xlink="http://www.w3.org/1999/xlink">
<g id="graph0" class="graph" transform="scale(1 1) rotate(0) translate(4 62)">
<title>js_global_eval</title>
<!-- Node369669 -->
<g id="node1" class="node">
<title>Node369669</title>
<polygon fill="#bfbfbf" stroke="#000000" points="0,-19.5 0,-38.5 78,-38.5 78,-19.5 0,-19.5"/>
<text text-anchor="middle" x="39" y="-26.5" font-family="Helvetica,sans-Serif" font-size="10.00" fill="#000000">js_global_eval</text>
</g>
<!-- Node369670 -->
<g id="node2" class="node">
<title>Node369670</title>
<g id="a_node2"><a xlink:href="quickjs_8c.html#a4c9489297c684663f30e517204a9ec14" target="_top" xlink:title="JS_AddIntrinsicBaseObjects">
<polygon fill="none" stroke="#000000" points="114,-19.5 114,-38.5 256,-38.5 256,-19.5 114,-19.5"/>
<text text-anchor="middle" x="185" y="-26.5" font-family="Helvetica,sans-Serif" font-size="10.00" fill="#000000">JS_AddIntrinsicBaseObjects</text>
</a>
</g>
</g>
<!-- Node369669&#45;&gt;Node369670 -->
<g id="edge1" class="edge">
<title>Node369669&#45;&gt;Node369670</title>
<path fill="none" stroke="#191970" d="M88.2962,-29C96.5461,-29 105.2492,-29 113.9163,-29"/>
<polygon fill="#191970" stroke="#191970" points="88.1254,-25.5001 78.1253,-29 88.1253,-32.5001 88.1254,-25.5001"/>
</g>
<!-- Node369671 -->
<g id="node3" class="node">
<title>Node369671</title>
<g id="a_node3"><a xlink:href="quickjs_8c.html#ad8aedb643b8753b7a15f6cb2df61945e" target="_top" xlink:title="JS_NewContext">
<polygon fill="none" stroke="#000000" points="292,-19.5 292,-38.5 381,-38.5 381,-19.5 292,-19.5"/>
<text text-anchor="middle" x="336.5" y="-26.5" font-family="Helvetica,sans-Serif" font-size="10.00" fill="#000000">JS_NewContext</text>
</a>
</g>
</g>
<!-- Node369670&#45;&gt;Node369671 -->
<g id="edge2" class="edge">
<title>Node369670&#45;&gt;Node369671</title>
<path fill="none" stroke="#191970" d="M266.5534,-29C275.2595,-29 283.8628,-29 291.8995,-29"/>
<polygon fill="#191970" stroke="#191970" points="266.3138,-25.5001 256.3138,-29 266.3137,-32.5001 266.3138,-25.5001"/>
</g>
<!-- Node369672 -->
<g id="node4" class="node">
<title>Node369672</title>
<g id="a_node4"><a xlink:href="classqjs_1_1Context.html#a4392a23648acfc4bf6b445336efb5007" target="_top" xlink:title="qjs::Context::Context">
<polygon fill="none" stroke="#ff0000" points="417,-38.5 417,-57.5 527,-57.5 527,-38.5 417,-38.5"/>
<text text-anchor="middle" x="472" y="-45.5" font-family="Helvetica,sans-Serif" font-size="10.00" fill="#000000">qjs::Context::Context</text>
</a>
</g>
</g>
<!-- Node369671&#45;&gt;Node369672 -->
<g id="edge3" class="edge">
<title>Node369671&#45;&gt;Node369672</title>
<path fill="none" stroke="#191970" d="M391.3476,-36.6908C399.7739,-37.8724 408.4767,-39.0927 416.9083,-40.275"/>
<polygon fill="#191970" stroke="#191970" points="391.6325,-33.1966 381.2433,-35.274 390.6604,-40.1288 391.6325,-33.1966"/>
</g>
<!-- Node369675 -->
<g id="node5" class="node">
<title>Node369675</title>
<g id="a_node5"><a xlink:href="quickjs-libc_8c.html#a1fbb3adc15e7b967479fc1940e99b67a" target="_top" xlink:title="worker_func">
<polygon fill="none" stroke="#ff0000" points="437,-.5 437,-19.5 507,-19.5 507,-.5 437,-.5"/>
<text text-anchor="middle" x="472" y="-7.5" font-family="Helvetica,sans-Serif" font-size="10.00" fill="#000000">worker_func</text>
</a>
</g>
</g>
<!-- Node369671&#45;&gt;Node369675 -->
<g id="edge4" class="edge">
<title>Node369671&#45;&gt;Node369675</title>
<path fill="none" stroke="#191970" d="M391.1712,-21.3339C406.5364,-19.1794 422.8347,-16.894 436.7403,-14.9442"/>
<polygon fill="#191970" stroke="#191970" points="390.6604,-17.8712 381.2433,-22.726 391.6325,-24.8034 390.6604,-17.8712"/>
</g>
</g>
</svg>
