<?xml version="1.0" encoding="UTF-8" standalone="no"?>
<!DOCTYPE svg PUBLIC "-//W3C//DTD SVG 1.1//EN"
 "http://www.w3.org/Graphics/SVG/1.1/DTD/svg11.dtd">
<!-- Generated by graphviz version 2.40.1 (20161225.0304)
 -->
<!-- Title: js_proxy_constructor Pages: 1 -->
<svg width="533pt" height="85pt"
 viewBox="0.00 0.00 533.00 85.00" xmlns="http://www.w3.org/2000/svg" xmlns:xlink="http://www.w3.org/1999/xlink">
<g id="graph0" class="graph" transform="scale(1 1) rotate(0) translate(4 81)">
<title>js_proxy_constructor</title>
<!-- Node445447 -->
<g id="node1" class="node">
<title>Node445447</title>
<polygon fill="#bfbfbf" stroke="#000000" points="0,-19.5 0,-38.5 107,-38.5 107,-19.5 0,-19.5"/>
<text text-anchor="middle" x="53.5" y="-26.5" font-family="Helvetica,sans-Serif" font-size="10.00" fill="#000000">js_proxy_constructor</text>
</g>
<!-- Node445448 -->
<g id="node2" class="node">
<title>Node445448</title>
<g id="a_node2"><a xlink:href="quickjs_8c.html#a3afdbdd7b58ef7e1dcc178c362071b3d" target="_top" xlink:title="JS_AddIntrinsicProxy">
<polygon fill="none" stroke="#000000" points="143,-38.5 143,-57.5 254,-57.5 254,-38.5 143,-38.5"/>
<text text-anchor="middle" x="198.5" y="-45.5" font-family="Helvetica,sans-Serif" font-size="10.00" fill="#000000">JS_AddIntrinsicProxy</text>
</a>
</g>
</g>
<!-- Node445447&#45;&gt;Node445448 -->
<g id="edge1" class="edge">
<title>Node445447&#45;&gt;Node445448</title>
<path fill="none" stroke="#191970" d="M117.0188,-37.3231C125.5757,-38.4444 134.3022,-39.5879 142.7114,-40.6898"/>
<polygon fill="#191970" stroke="#191970" points="117.4507,-33.8499 107.0807,-36.0209 116.5412,-40.7906 117.4507,-33.8499"/>
</g>
<!-- Node445457 -->
<g id="node6" class="node">
<title>Node445457</title>
<g id="a_node6"><a xlink:href="quickjs_8c.html#a537862df2984a40ceb9be7878c497cd2" target="_top" xlink:title="js_proxy_revocable">
<polygon fill="none" stroke="#000000" points="148,-.5 148,-19.5 249,-19.5 249,-.5 148,-.5"/>
<text text-anchor="middle" x="198.5" y="-7.5" font-family="Helvetica,sans-Serif" font-size="10.00" fill="#000000">js_proxy_revocable</text>
</a>
</g>
</g>
<!-- Node445447&#45;&gt;Node445457 -->
<g id="edge5" class="edge">
<title>Node445447&#45;&gt;Node445457</title>
<path fill="none" stroke="#191970" d="M117.1428,-20.6606C127.3139,-19.3278 137.721,-17.9641 147.5473,-16.6766"/>
<polygon fill="#191970" stroke="#191970" points="116.5412,-17.2094 107.0807,-21.9791 117.4507,-24.1501 116.5412,-17.2094"/>
</g>
<!-- Node445449 -->
<g id="node3" class="node">
<title>Node445449</title>
<g id="a_node3"><a xlink:href="quickjs_8c.html#ad8aedb643b8753b7a15f6cb2df61945e" target="_top" xlink:title="JS_NewContext">
<polygon fill="none" stroke="#000000" points="290,-38.5 290,-57.5 379,-57.5 379,-38.5 290,-38.5"/>
<text text-anchor="middle" x="334.5" y="-45.5" font-family="Helvetica,sans-Serif" font-size="10.00" fill="#000000">JS_NewContext</text>
</a>
</g>
</g>
<!-- Node445448&#45;&gt;Node445449 -->
<g id="edge2" class="edge">
<title>Node445448&#45;&gt;Node445449</title>
<path fill="none" stroke="#191970" d="M264.3248,-48C272.9894,-48 281.7011,-48 289.8964,-48"/>
<polygon fill="#191970" stroke="#191970" points="264.2088,-44.5001 254.2088,-48 264.2088,-51.5001 264.2088,-44.5001"/>
</g>
<!-- Node445450 -->
<g id="node4" class="node">
<title>Node445450</title>
<g id="a_node4"><a xlink:href="classqjs_1_1Context.html#a4392a23648acfc4bf6b445336efb5007" target="_top" xlink:title="qjs::Context::Context">
<polygon fill="none" stroke="#ff0000" points="415,-57.5 415,-76.5 525,-76.5 525,-57.5 415,-57.5"/>
<text text-anchor="middle" x="470" y="-64.5" font-family="Helvetica,sans-Serif" font-size="10.00" fill="#000000">qjs::Context::Context</text>
</a>
</g>
</g>
<!-- Node445449&#45;&gt;Node445450 -->
<g id="edge3" class="edge">
<title>Node445449&#45;&gt;Node445450</title>
<path fill="none" stroke="#191970" d="M389.3476,-55.6908C397.7739,-56.8724 406.4767,-58.0927 414.9083,-59.275"/>
<polygon fill="#191970" stroke="#191970" points="389.6325,-52.1966 379.2433,-54.274 388.6604,-59.1288 389.6325,-52.1966"/>
</g>
<!-- Node445453 -->
<g id="node5" class="node">
<title>Node445453</title>
<g id="a_node5"><a xlink:href="quickjs-libc_8c.html#a1fbb3adc15e7b967479fc1940e99b67a" target="_top" xlink:title="worker_func">
<polygon fill="none" stroke="#ff0000" points="435,-19.5 435,-38.5 505,-38.5 505,-19.5 435,-19.5"/>
<text text-anchor="middle" x="470" y="-26.5" font-family="Helvetica,sans-Serif" font-size="10.00" fill="#000000">worker_func</text>
</a>
</g>
</g>
<!-- Node445449&#45;&gt;Node445453 -->
<g id="edge4" class="edge">
<title>Node445449&#45;&gt;Node445453</title>
<path fill="none" stroke="#191970" d="M389.1712,-40.3339C404.5364,-38.1794 420.8347,-35.894 434.7403,-33.9442"/>
<polygon fill="#191970" stroke="#191970" points="388.6604,-36.8712 379.2433,-41.726 389.6325,-43.8034 388.6604,-36.8712"/>
</g>
</g>
</svg>
