<?xml version="1.0" encoding="UTF-8" standalone="no"?>
<!DOCTYPE svg PUBLIC "-//W3C//DTD SVG 1.1//EN"
 "http://www.w3.org/Graphics/SVG/1.1/DTD/svg11.dtd">
<!-- Generated by graphviz version 2.40.1 (20161225.0304)
 -->
<!-- Title: JS_NewContext Pages: 1 -->
<svg width="483pt" height="66pt"
 viewBox="0.00 0.00 483.00 66.00" xmlns="http://www.w3.org/2000/svg" xmlns:xlink="http://www.w3.org/1999/xlink">
<g id="graph0" class="graph" transform="scale(1 1) rotate(0) translate(4 62)">
<title>JS_NewContext</title>
<!-- Node3808 -->
<g id="node1" class="node">
<title>Node3808</title>
<polygon fill="#bfbfbf" stroke="#000000" points="0,-19.5 0,-38.5 89,-38.5 89,-19.5 0,-19.5"/>
<text text-anchor="middle" x="44.5" y="-26.5" font-family="Helvetica,sans-Serif" font-size="10.00" fill="#000000">JS_NewContext</text>
</g>
<!-- Node3809 -->
<g id="node2" class="node">
<title>Node3809</title>
<g id="a_node2"><a xlink:href="classqjs_1_1Context.html#a4392a23648acfc4bf6b445336efb5007" target="_top" xlink:title="qjs::Context::Context">
<polygon fill="none" stroke="#000000" points="125,-38.5 125,-57.5 235,-57.5 235,-38.5 125,-38.5"/>
<text text-anchor="middle" x="180" y="-45.5" font-family="Helvetica,sans-Serif" font-size="10.00" fill="#000000">qjs::Context::Context</text>
</a>
</g>
</g>
<!-- Node3808&#45;&gt;Node3809 -->
<g id="edge1" class="edge">
<title>Node3808&#45;&gt;Node3809</title>
<path fill="none" stroke="#191970" d="M99.3476,-36.6908C107.7739,-37.8724 116.4767,-39.0927 124.9083,-40.275"/>
<polygon fill="#191970" stroke="#191970" points="99.6325,-33.1966 89.2433,-35.274 98.6604,-40.1288 99.6325,-33.1966"/>
</g>
<!-- Node3812 -->
<g id="node5" class="node">
<title>Node3812</title>
<g id="a_node5"><a xlink:href="quickjs-libc_8c.html#a1fbb3adc15e7b967479fc1940e99b67a" target="_top" xlink:title="worker_func">
<polygon fill="none" stroke="#000000" points="145,-.5 145,-19.5 215,-19.5 215,-.5 145,-.5"/>
<text text-anchor="middle" x="180" y="-7.5" font-family="Helvetica,sans-Serif" font-size="10.00" fill="#000000">worker_func</text>
</a>
</g>
</g>
<!-- Node3808&#45;&gt;Node3812 -->
<g id="edge4" class="edge">
<title>Node3808&#45;&gt;Node3812</title>
<path fill="none" stroke="#191970" d="M99.1712,-21.3339C114.5364,-19.1794 130.8347,-16.894 144.7403,-14.9442"/>
<polygon fill="#191970" stroke="#191970" points="98.6604,-17.8712 89.2433,-22.726 99.6325,-24.8034 98.6604,-17.8712"/>
</g>
<!-- Node3810 -->
<g id="node3" class="node">
<title>Node3810</title>
<g id="a_node3"><a xlink:href="classqjs_1_1Context.html#af725fb8083d8c33a37198d6acaf1a836" target="_top" xlink:title="qjs::Context::Context">
<polygon fill="none" stroke="#000000" points="271,-38.5 271,-57.5 381,-57.5 381,-38.5 271,-38.5"/>
<text text-anchor="middle" x="326" y="-45.5" font-family="Helvetica,sans-Serif" font-size="10.00" fill="#000000">qjs::Context::Context</text>
</a>
</g>
</g>
<!-- Node3809&#45;&gt;Node3810 -->
<g id="edge2" class="edge">
<title>Node3809&#45;&gt;Node3810</title>
<path fill="none" stroke="#191970" d="M245.4101,-48C253.8647,-48 262.4567,-48 270.7256,-48"/>
<polygon fill="#191970" stroke="#191970" points="245.1964,-44.5001 235.1963,-48 245.1963,-51.5001 245.1964,-44.5001"/>
</g>
<!-- Node3811 -->
<g id="node4" class="node">
<title>Node3811</title>
<g id="a_node4"><a xlink:href="qjs_8cpp.html#a3c04138a5bfe5d72780bb7e82a18e627" target="_top" xlink:title="main">
<polygon fill="none" stroke="#000000" points="427,-38.5 427,-57.5 465,-57.5 465,-38.5 427,-38.5"/>
<text text-anchor="middle" x="446" y="-45.5" font-family="Helvetica,sans-Serif" font-size="10.00" fill="#000000">main</text>
</a>
</g>
</g>
<!-- Node3810&#45;&gt;Node3811 -->
<g id="edge3" class="edge">
<title>Node3810&#45;&gt;Node3811</title>
<path fill="none" stroke="#191970" d="M391.0898,-48C404.147,-48 416.8805,-48 426.7927,-48"/>
<polygon fill="#191970" stroke="#191970" points="391.0831,-44.5001 381.083,-48 391.083,-51.5001 391.0831,-44.5001"/>
</g>
<!-- Node3813 -->
<g id="node6" class="node">
<title>Node3813</title>
<g id="a_node6"><a xlink:href="quickjs-libc_8c.html#aff1e6131e8bf8b7eb25307623ad669e7" target="_top" xlink:title="js_worker_ctor">
<polygon fill="none" stroke="#000000" points="286,-.5 286,-19.5 366,-19.5 366,-.5 286,-.5"/>
<text text-anchor="middle" x="326" y="-7.5" font-family="Helvetica,sans-Serif" font-size="10.00" fill="#000000">js_worker_ctor</text>
</a>
</g>
</g>
<!-- Node3812&#45;&gt;Node3813 -->
<g id="edge5" class="edge">
<title>Node3812&#45;&gt;Node3813</title>
<path fill="none" stroke="#191970" d="M225.4324,-10C244.761,-10 267.112,-10 285.8272,-10"/>
<polygon fill="#191970" stroke="#191970" points="225.3426,-6.5001 215.3425,-10 225.3425,-13.5001 225.3426,-6.5001"/>
</g>
<!-- Node3814 -->
<g id="node7" class="node">
<title>Node3814</title>
<g id="a_node7"><a xlink:href="quickjs-libc_8c.html#a066e7962ce24f22d5df20968a8baa346" target="_top" xlink:title="js_os_init">
<polygon fill="none" stroke="#ff0000" points="417,-.5 417,-19.5 475,-19.5 475,-.5 417,-.5"/>
<text text-anchor="middle" x="446" y="-7.5" font-family="Helvetica,sans-Serif" font-size="10.00" fill="#000000">js_os_init</text>
</a>
</g>
</g>
<!-- Node3813&#45;&gt;Node3814 -->
<g id="edge6" class="edge">
<title>Node3813&#45;&gt;Node3814</title>
<path fill="none" stroke="#191970" d="M376.5606,-10C390.2228,-10 404.5548,-10 416.6267,-10"/>
<polygon fill="#191970" stroke="#191970" points="376.2921,-6.5001 366.2921,-10 376.2921,-13.5001 376.2921,-6.5001"/>
</g>
</g>
</svg>
