<?xml version="1.0" encoding="UTF-8" standalone="no"?>
<!DOCTYPE svg PUBLIC "-//W3C//DTD SVG 1.1//EN"
 "http://www.w3.org/Graphics/SVG/1.1/DTD/svg11.dtd">
<!-- Generated by graphviz version 2.40.1 (20161225.0304)
 -->
<!-- Title: js_error_constructor Pages: 1 -->
<svg width="560pt" height="66pt"
 viewBox="0.00 0.00 560.00 66.00" xmlns="http://www.w3.org/2000/svg" xmlns:xlink="http://www.w3.org/1999/xlink">
<g id="graph0" class="graph" transform="scale(1 1) rotate(0) translate(4 62)">
<title>js_error_constructor</title>
<!-- Node388683 -->
<g id="node1" class="node">
<title>Node388683</title>
<polygon fill="#bfbfbf" stroke="#000000" points="0,-19.5 0,-38.5 103,-38.5 103,-19.5 0,-19.5"/>
<text text-anchor="middle" x="51.5" y="-26.5" font-family="Helvetica,sans-Serif" font-size="10.00" fill="#000000">js_error_constructor</text>
</g>
<!-- Node388684 -->
<g id="node2" class="node">
<title>Node388684</title>
<g id="a_node2"><a xlink:href="quickjs_8c.html#a4c9489297c684663f30e517204a9ec14" target="_top" xlink:title="JS_AddIntrinsicBaseObjects">
<polygon fill="none" stroke="#000000" points="139,-19.5 139,-38.5 281,-38.5 281,-19.5 139,-19.5"/>
<text text-anchor="middle" x="210" y="-26.5" font-family="Helvetica,sans-Serif" font-size="10.00" fill="#000000">JS_AddIntrinsicBaseObjects</text>
</a>
</g>
</g>
<!-- Node388683&#45;&gt;Node388684 -->
<g id="edge1" class="edge">
<title>Node388683&#45;&gt;Node388684</title>
<path fill="none" stroke="#191970" d="M113.4517,-29C121.8254,-29 130.47,-29 138.9863,-29"/>
<polygon fill="#191970" stroke="#191970" points="113.3989,-25.5001 103.3988,-29 113.3988,-32.5001 113.3989,-25.5001"/>
</g>
<!-- Node388685 -->
<g id="node3" class="node">
<title>Node388685</title>
<g id="a_node3"><a xlink:href="quickjs_8c.html#ad8aedb643b8753b7a15f6cb2df61945e" target="_top" xlink:title="JS_NewContext">
<polygon fill="none" stroke="#000000" points="317,-19.5 317,-38.5 406,-38.5 406,-19.5 317,-19.5"/>
<text text-anchor="middle" x="361.5" y="-26.5" font-family="Helvetica,sans-Serif" font-size="10.00" fill="#000000">JS_NewContext</text>
</a>
</g>
</g>
<!-- Node388684&#45;&gt;Node388685 -->
<g id="edge2" class="edge">
<title>Node388684&#45;&gt;Node388685</title>
<path fill="none" stroke="#191970" d="M291.5534,-29C300.2595,-29 308.8628,-29 316.8995,-29"/>
<polygon fill="#191970" stroke="#191970" points="291.3138,-25.5001 281.3138,-29 291.3137,-32.5001 291.3138,-25.5001"/>
</g>
<!-- Node388686 -->
<g id="node4" class="node">
<title>Node388686</title>
<g id="a_node4"><a xlink:href="classqjs_1_1Context.html#a4392a23648acfc4bf6b445336efb5007" target="_top" xlink:title="qjs::Context::Context">
<polygon fill="none" stroke="#ff0000" points="442,-38.5 442,-57.5 552,-57.5 552,-38.5 442,-38.5"/>
<text text-anchor="middle" x="497" y="-45.5" font-family="Helvetica,sans-Serif" font-size="10.00" fill="#000000">qjs::Context::Context</text>
</a>
</g>
</g>
<!-- Node388685&#45;&gt;Node388686 -->
<g id="edge3" class="edge">
<title>Node388685&#45;&gt;Node388686</title>
<path fill="none" stroke="#191970" d="M416.3476,-36.6908C424.7739,-37.8724 433.4767,-39.0927 441.9083,-40.275"/>
<polygon fill="#191970" stroke="#191970" points="416.6325,-33.1966 406.2433,-35.274 415.6604,-40.1288 416.6325,-33.1966"/>
</g>
<!-- Node388689 -->
<g id="node5" class="node">
<title>Node388689</title>
<g id="a_node5"><a xlink:href="quickjs-libc_8c.html#a1fbb3adc15e7b967479fc1940e99b67a" target="_top" xlink:title="worker_func">
<polygon fill="none" stroke="#ff0000" points="462,-.5 462,-19.5 532,-19.5 532,-.5 462,-.5"/>
<text text-anchor="middle" x="497" y="-7.5" font-family="Helvetica,sans-Serif" font-size="10.00" fill="#000000">worker_func</text>
</a>
</g>
</g>
<!-- Node388685&#45;&gt;Node388689 -->
<g id="edge4" class="edge">
<title>Node388685&#45;&gt;Node388689</title>
<path fill="none" stroke="#191970" d="M416.1712,-21.3339C431.5364,-19.1794 447.8347,-16.894 461.7403,-14.9442"/>
<polygon fill="#191970" stroke="#191970" points="415.6604,-17.8712 406.2433,-22.726 416.6325,-24.8034 415.6604,-17.8712"/>
</g>
</g>
</svg>
