<?xml version="1.0" encoding="UTF-8" standalone="no"?>
<!DOCTYPE svg PUBLIC "-//W3C//DTD SVG 1.1//EN"
 "http://www.w3.org/Graphics/SVG/1.1/DTD/svg11.dtd">
<!-- Generated by graphviz version 2.40.1 (20161225.0304)
 -->
<!-- Title: JS_AddIntrinsicDate Pages: 1 -->
<svg width="532pt" height="66pt"
 viewBox="0.00 0.00 532.00 66.00" xmlns="http://www.w3.org/2000/svg" xmlns:xlink="http://www.w3.org/1999/xlink">
<g id="graph0" class="graph" transform="scale(1 1) rotate(0) translate(4 62)">
<title>JS_AddIntrinsicDate</title>
<!-- Node6698 -->
<g id="node1" class="node">
<title>Node6698</title>
<polygon fill="#bfbfbf" stroke="#000000" points="0,-19.5 0,-38.5 107,-38.5 107,-19.5 0,-19.5"/>
<text text-anchor="middle" x="53.5" y="-26.5" font-family="Helvetica,sans-Serif" font-size="10.00" fill="#000000">JS_AddIntrinsicDate</text>
</g>
<!-- Node6699 -->
<g id="node2" class="node">
<title>Node6699</title>
<g id="a_node2"><a xlink:href="quickjs_8c.html#ad8aedb643b8753b7a15f6cb2df61945e" target="_top" xlink:title="JS_NewContext">
<polygon fill="none" stroke="#000000" points="143,-19.5 143,-38.5 232,-38.5 232,-19.5 143,-19.5"/>
<text text-anchor="middle" x="187.5" y="-26.5" font-family="Helvetica,sans-Serif" font-size="10.00" fill="#000000">JS_NewContext</text>
</a>
</g>
</g>
<!-- Node6698&#45;&gt;Node6699 -->
<g id="edge1" class="edge">
<title>Node6698&#45;&gt;Node6699</title>
<path fill="none" stroke="#191970" d="M117.2847,-29C125.9061,-29 134.5987,-29 142.7897,-29"/>
<polygon fill="#191970" stroke="#191970" points="117.2309,-25.5001 107.2308,-29 117.2308,-32.5001 117.2309,-25.5001"/>
</g>
<!-- Node6700 -->
<g id="node3" class="node">
<title>Node6700</title>
<g id="a_node3"><a xlink:href="classqjs_1_1Context.html#a4392a23648acfc4bf6b445336efb5007" target="_top" xlink:title="qjs::Context::Context">
<polygon fill="none" stroke="#000000" points="268,-38.5 268,-57.5 378,-57.5 378,-38.5 268,-38.5"/>
<text text-anchor="middle" x="323" y="-45.5" font-family="Helvetica,sans-Serif" font-size="10.00" fill="#000000">qjs::Context::Context</text>
</a>
</g>
</g>
<!-- Node6699&#45;&gt;Node6700 -->
<g id="edge2" class="edge">
<title>Node6699&#45;&gt;Node6700</title>
<path fill="none" stroke="#191970" d="M242.3476,-36.6908C250.7739,-37.8724 259.4767,-39.0927 267.9083,-40.275"/>
<polygon fill="#191970" stroke="#191970" points="242.6325,-33.1966 232.2433,-35.274 241.6604,-40.1288 242.6325,-33.1966"/>
</g>
<!-- Node6703 -->
<g id="node5" class="node">
<title>Node6703</title>
<g id="a_node5"><a xlink:href="quickjs-libc_8c.html#a1fbb3adc15e7b967479fc1940e99b67a" target="_top" xlink:title="worker_func">
<polygon fill="none" stroke="#000000" points="288,-.5 288,-19.5 358,-19.5 358,-.5 288,-.5"/>
<text text-anchor="middle" x="323" y="-7.5" font-family="Helvetica,sans-Serif" font-size="10.00" fill="#000000">worker_func</text>
</a>
</g>
</g>
<!-- Node6699&#45;&gt;Node6703 -->
<g id="edge4" class="edge">
<title>Node6699&#45;&gt;Node6703</title>
<path fill="none" stroke="#191970" d="M242.1712,-21.3339C257.5364,-19.1794 273.8347,-16.894 287.7403,-14.9442"/>
<polygon fill="#191970" stroke="#191970" points="241.6604,-17.8712 232.2433,-22.726 242.6325,-24.8034 241.6604,-17.8712"/>
</g>
<!-- Node6701 -->
<g id="node4" class="node">
<title>Node6701</title>
<g id="a_node4"><a xlink:href="classqjs_1_1Context.html#af725fb8083d8c33a37198d6acaf1a836" target="_top" xlink:title="qjs::Context::Context">
<polygon fill="none" stroke="#ff0000" points="414,-38.5 414,-57.5 524,-57.5 524,-38.5 414,-38.5"/>
<text text-anchor="middle" x="469" y="-45.5" font-family="Helvetica,sans-Serif" font-size="10.00" fill="#000000">qjs::Context::Context</text>
</a>
</g>
</g>
<!-- Node6700&#45;&gt;Node6701 -->
<g id="edge3" class="edge">
<title>Node6700&#45;&gt;Node6701</title>
<path fill="none" stroke="#191970" d="M388.4101,-48C396.8647,-48 405.4567,-48 413.7256,-48"/>
<polygon fill="#191970" stroke="#191970" points="388.1964,-44.5001 378.1963,-48 388.1963,-51.5001 388.1964,-44.5001"/>
</g>
<!-- Node6704 -->
<g id="node6" class="node">
<title>Node6704</title>
<g id="a_node6"><a xlink:href="quickjs-libc_8c.html#aff1e6131e8bf8b7eb25307623ad669e7" target="_top" xlink:title="js_worker_ctor">
<polygon fill="none" stroke="#ff0000" points="429,-.5 429,-19.5 509,-19.5 509,-.5 429,-.5"/>
<text text-anchor="middle" x="469" y="-7.5" font-family="Helvetica,sans-Serif" font-size="10.00" fill="#000000">js_worker_ctor</text>
</a>
</g>
</g>
<!-- Node6703&#45;&gt;Node6704 -->
<g id="edge5" class="edge">
<title>Node6703&#45;&gt;Node6704</title>
<path fill="none" stroke="#191970" d="M368.4324,-10C387.761,-10 410.112,-10 428.8272,-10"/>
<polygon fill="#191970" stroke="#191970" points="368.3426,-6.5001 358.3425,-10 368.3425,-13.5001 368.3426,-6.5001"/>
</g>
</g>
</svg>
