<?xml version="1.0" encoding="UTF-8" standalone="no"?>
<!DOCTYPE svg PUBLIC "-//W3C//DTD SVG 1.1//EN"
 "http://www.w3.org/Graphics/SVG/1.1/DTD/svg11.dtd">
<!-- Generated by graphviz version 2.40.1 (20161225.0304)
 -->
<!-- Title: JS_AddIntrinsicBaseObjects Pages: 1 -->
<svg width="567pt" height="66pt"
 viewBox="0.00 0.00 567.00 66.00" xmlns="http://www.w3.org/2000/svg" xmlns:xlink="http://www.w3.org/1999/xlink">
<g id="graph0" class="graph" transform="scale(1 1) rotate(0) translate(4 62)">
<title>JS_AddIntrinsicBaseObjects</title>
<!-- Node6225 -->
<g id="node1" class="node">
<title>Node6225</title>
<polygon fill="#bfbfbf" stroke="#000000" points="0,-19.5 0,-38.5 142,-38.5 142,-19.5 0,-19.5"/>
<text text-anchor="middle" x="71" y="-26.5" font-family="Helvetica,sans-Serif" font-size="10.00" fill="#000000">JS_AddIntrinsicBaseObjects</text>
</g>
<!-- Node6226 -->
<g id="node2" class="node">
<title>Node6226</title>
<g id="a_node2"><a xlink:href="quickjs_8c.html#ad8aedb643b8753b7a15f6cb2df61945e" target="_top" xlink:title="JS_NewContext">
<polygon fill="none" stroke="#000000" points="178,-19.5 178,-38.5 267,-38.5 267,-19.5 178,-19.5"/>
<text text-anchor="middle" x="222.5" y="-26.5" font-family="Helvetica,sans-Serif" font-size="10.00" fill="#000000">JS_NewContext</text>
</a>
</g>
</g>
<!-- Node6225&#45;&gt;Node6226 -->
<g id="edge1" class="edge">
<title>Node6225&#45;&gt;Node6226</title>
<path fill="none" stroke="#191970" d="M152.5534,-29C161.2595,-29 169.8628,-29 177.8995,-29"/>
<polygon fill="#191970" stroke="#191970" points="152.3138,-25.5001 142.3138,-29 152.3137,-32.5001 152.3138,-25.5001"/>
</g>
<!-- Node6227 -->
<g id="node3" class="node">
<title>Node6227</title>
<g id="a_node3"><a xlink:href="classqjs_1_1Context.html#a4392a23648acfc4bf6b445336efb5007" target="_top" xlink:title="qjs::Context::Context">
<polygon fill="none" stroke="#000000" points="303,-38.5 303,-57.5 413,-57.5 413,-38.5 303,-38.5"/>
<text text-anchor="middle" x="358" y="-45.5" font-family="Helvetica,sans-Serif" font-size="10.00" fill="#000000">qjs::Context::Context</text>
</a>
</g>
</g>
<!-- Node6226&#45;&gt;Node6227 -->
<g id="edge2" class="edge">
<title>Node6226&#45;&gt;Node6227</title>
<path fill="none" stroke="#191970" d="M277.3476,-36.6908C285.7739,-37.8724 294.4767,-39.0927 302.9083,-40.275"/>
<polygon fill="#191970" stroke="#191970" points="277.6325,-33.1966 267.2433,-35.274 276.6604,-40.1288 277.6325,-33.1966"/>
</g>
<!-- Node6230 -->
<g id="node5" class="node">
<title>Node6230</title>
<g id="a_node5"><a xlink:href="quickjs-libc_8c.html#a1fbb3adc15e7b967479fc1940e99b67a" target="_top" xlink:title="worker_func">
<polygon fill="none" stroke="#000000" points="323,-.5 323,-19.5 393,-19.5 393,-.5 323,-.5"/>
<text text-anchor="middle" x="358" y="-7.5" font-family="Helvetica,sans-Serif" font-size="10.00" fill="#000000">worker_func</text>
</a>
</g>
</g>
<!-- Node6226&#45;&gt;Node6230 -->
<g id="edge4" class="edge">
<title>Node6226&#45;&gt;Node6230</title>
<path fill="none" stroke="#191970" d="M277.1712,-21.3339C292.5364,-19.1794 308.8347,-16.894 322.7403,-14.9442"/>
<polygon fill="#191970" stroke="#191970" points="276.6604,-17.8712 267.2433,-22.726 277.6325,-24.8034 276.6604,-17.8712"/>
</g>
<!-- Node6228 -->
<g id="node4" class="node">
<title>Node6228</title>
<g id="a_node4"><a xlink:href="classqjs_1_1Context.html#af725fb8083d8c33a37198d6acaf1a836" target="_top" xlink:title="qjs::Context::Context">
<polygon fill="none" stroke="#ff0000" points="449,-38.5 449,-57.5 559,-57.5 559,-38.5 449,-38.5"/>
<text text-anchor="middle" x="504" y="-45.5" font-family="Helvetica,sans-Serif" font-size="10.00" fill="#000000">qjs::Context::Context</text>
</a>
</g>
</g>
<!-- Node6227&#45;&gt;Node6228 -->
<g id="edge3" class="edge">
<title>Node6227&#45;&gt;Node6228</title>
<path fill="none" stroke="#191970" d="M423.4101,-48C431.8647,-48 440.4567,-48 448.7256,-48"/>
<polygon fill="#191970" stroke="#191970" points="423.1964,-44.5001 413.1963,-48 423.1963,-51.5001 423.1964,-44.5001"/>
</g>
<!-- Node6231 -->
<g id="node6" class="node">
<title>Node6231</title>
<g id="a_node6"><a xlink:href="quickjs-libc_8c.html#aff1e6131e8bf8b7eb25307623ad669e7" target="_top" xlink:title="js_worker_ctor">
<polygon fill="none" stroke="#ff0000" points="464,-.5 464,-19.5 544,-19.5 544,-.5 464,-.5"/>
<text text-anchor="middle" x="504" y="-7.5" font-family="Helvetica,sans-Serif" font-size="10.00" fill="#000000">js_worker_ctor</text>
</a>
</g>
</g>
<!-- Node6230&#45;&gt;Node6231 -->
<g id="edge5" class="edge">
<title>Node6230&#45;&gt;Node6231</title>
<path fill="none" stroke="#191970" d="M403.4324,-10C422.761,-10 445.112,-10 463.8272,-10"/>
<polygon fill="#191970" stroke="#191970" points="403.3426,-6.5001 393.3425,-10 403.3425,-13.5001 403.3426,-6.5001"/>
</g>
</g>
</svg>
