<?xml version="1.0" encoding="UTF-8" standalone="no"?>
<!DOCTYPE svg PUBLIC "-//W3C//DTD SVG 1.1//EN"
 "http://www.w3.org/Graphics/SVG/1.1/DTD/svg11.dtd">
<!-- Generated by graphviz version 2.40.1 (20161225.0304)
 -->
<!-- Title: JS_NewClassID Pages: 1 -->
<!--zoomable 176 -->
<svg id="main" version="1.1" xmlns="http://www.w3.org/2000/svg" xmlns:xlink="http://www.w3.org/1999/xlink" xml:space="preserve" onload="init(evt)">
<style type="text/css"><![CDATA[
.edge:hover path { stroke: red; }
.edge:hover polygon { stroke: red; fill: red; }
]]></style>
<script type="text/javascript"><![CDATA[
var edges = document.getElementsByTagName('g');
if (edges && edges.length) {
  for (var i=0;i<edges.length;i++) {
    if (edges[i].id.substr(0,4)=='edge') {
      edges[i].setAttribute('class','edge');
    }
  }
}
]]></script>
        <defs>
                <circle id="rim" cx="0" cy="0" r="7"/>
                <circle id="rim2" cx="0" cy="0" r="3.5"/>
                <g id="zoomPlus">
                        <use xlink:href="#rim" fill="#404040">
                                <set attributeName="fill" to="#808080" begin="zoomplus.mouseover" end="zoomplus.mouseout"/>
                        </use>
                        <path d="M-4,0h8M0,-4v8" fill="none" stroke="white" stroke-width="1.5" pointer-events="none"/>
                </g>
                <g id="zoomMin">
                        <use xlink:href="#rim" fill="#404040">
                                <set attributeName="fill" to="#808080" begin="zoomminus.mouseover" end="zoomminus.mouseout"/>
                        </use>
                        <path d="M-4,0h8" fill="none" stroke="white" stroke-width="1.5" pointer-events="none"/>
                </g>
                <g id="dirArrow">
                        <path fill="none" stroke="white" stroke-width="1.5" d="M0,-3.0v7 M-2.5,-0.5L0,-3.0L2.5,-0.5"/>
                </g>
               <g id="resetDef">
                       <use xlink:href="#rim2" fill="#404040">
                               <set attributeName="fill" to="#808080" begin="reset.mouseover" end="reset.mouseout"/>
                       </use>
               </g>
        </defs>

<script type="text/javascript">
var viewWidth = 577;
var viewHeight = 176;
var sectionId = 'dynsection-289';
</script>
<script xlink:href="svgpan.js"/>
<svg id="graph" class="graph">
<g id="viewport">
<title>JS_NewClassID</title>
<!-- Node97906 -->
<g id="node1" class="node">
<title>Node97906</title>
<polygon fill="#bfbfbf" stroke="#000000" points="0,-85 0,-104 90,-104 90,-85 0,-85"/>
<text text-anchor="middle" x="45" y="-92" font-family="Helvetica,sans-Serif" font-size="10.00" fill="#000000">JS_NewClassID</text>
</g>
<!-- Node97907 -->
<g id="node2" class="node">
<title>Node97907</title>
<g id="a_node2"><a xlink:href="quickjs-libc_8c.html#a066e7962ce24f22d5df20968a8baa346" target="_top" xlink:title="js_os_init">
<polygon fill="none" stroke="#000000" points="163.5,-148 163.5,-167 221.5,-167 221.5,-148 163.5,-148"/>
<text text-anchor="middle" x="192.5" y="-155" font-family="Helvetica,sans-Serif" font-size="10.00" fill="#000000">js_os_init</text>
</a>
</g>
</g>
<!-- Node97906&#45;&gt;Node97907 -->
<g id="edge1" class="edge">
<title>Node97906&#45;&gt;Node97907</title>
<path fill="none" stroke="#191970" d="M68.923,-109.3053C84.7008,-118.6103 106.0624,-130.3521 126,-138.5 137.8928,-143.3602 151.4614,-147.4769 163.2273,-150.6225"/>
<polygon fill="#191970" stroke="#191970" points="70.7078,-106.2946 60.3315,-104.1539 67.1081,-112.2981 70.7078,-106.2946"/>
</g>
<!-- Node97912 -->
<g id="node6" class="node">
<title>Node97912</title>
<g id="a_node6"><a xlink:href="quickjs-libc_8c.html#a08cea1a0226b7603e6969e2208d99d55" target="_top" xlink:title="js_std_init">
<polygon fill="none" stroke="#000000" points="162,-110 162,-129 223,-129 223,-110 162,-110"/>
<text text-anchor="middle" x="192.5" y="-117" font-family="Helvetica,sans-Serif" font-size="10.00" fill="#000000">js_std_init</text>
</a>
</g>
</g>
<!-- Node97906&#45;&gt;Node97912 -->
<g id="edge5" class="edge">
<title>Node97906&#45;&gt;Node97912</title>
<path fill="none" stroke="#191970" d="M100.0842,-103.8363C120.9247,-107.3686 143.8937,-111.2616 161.7195,-114.283"/>
<polygon fill="#191970" stroke="#191970" points="100.5006,-100.357 90.0563,-102.1367 99.3308,-107.2586 100.5006,-100.357"/>
</g>
<!-- Node97914 -->
<g id="node8" class="node">
<title>Node97914</title>
<g id="a_node8"><a xlink:href="structqjs_1_1js__traits_3_01std_1_1shared__ptr_3_01T_01_4_01_4.html#af3558afeef079826c58411353c8ccce0" target="_top" xlink:title="Register class in QuickJS context. ">
<polygon fill="none" stroke="#000000" points="142,-50 142,-91 243,-91 243,-50 142,-50"/>
<text text-anchor="start" x="150" y="-79" font-family="Helvetica,sans-Serif" font-size="10.00" fill="#000000">qjs::js_traits&lt; std</text>
<text text-anchor="start" x="150" y="-68" font-family="Helvetica,sans-Serif" font-size="10.00" fill="#000000">::shared_ptr&lt; T &gt; &gt;</text>
<text text-anchor="middle" x="192.5" y="-57" font-family="Helvetica,sans-Serif" font-size="10.00" fill="#000000">::register_class</text>
</a>
</g>
</g>
<!-- Node97906&#45;&gt;Node97914 -->
<g id="edge9" class="edge">
<title>Node97906&#45;&gt;Node97914</title>
<path fill="none" stroke="#191970" d="M100.2627,-85.5081C113.8825,-83.292 128.4016,-80.9296 141.7937,-78.7505"/>
<polygon fill="#191970" stroke="#191970" points="99.3644,-82.1082 90.0563,-87.1688 100.4887,-89.0173 99.3644,-82.1082"/>
</g>
<!-- Node97916 -->
<g id="node10" class="node">
<title>Node97916</title>
<g id="a_node10"><a xlink:href="structqjs_1_1js__traits_3_01detail_1_1function_01_4.html#afe383c63f389edaf9f878cd30062d37f" target="_top" xlink:title="qjs::js_traits\&lt; detail\l::function \&gt;::register_class">
<polygon fill="none" stroke="#000000" points="126,-.5 126,-30.5 259,-30.5 259,-.5 126,-.5"/>
<text text-anchor="start" x="134" y="-18.5" font-family="Helvetica,sans-Serif" font-size="10.00" fill="#000000">qjs::js_traits&lt; detail</text>
<text text-anchor="middle" x="192.5" y="-7.5" font-family="Helvetica,sans-Serif" font-size="10.00" fill="#000000">::function &gt;::register_class</text>
</a>
</g>
</g>
<!-- Node97906&#45;&gt;Node97916 -->
<g id="edge11" class="edge">
<title>Node97906&#45;&gt;Node97916</title>
<path fill="none" stroke="#191970" d="M65.4171,-78.9805C81.3321,-67.3637 104.3012,-51.6261 126,-40.5 133.0242,-36.8983 140.6926,-33.535 148.244,-30.5159"/>
<polygon fill="#191970" stroke="#191970" points="63.3051,-76.1893 57.354,-84.9549 67.4725,-81.8136 63.3051,-76.1893"/>
</g>
<!-- Node97908 -->
<g id="node3" class="node">
<title>Node97908</title>
<g id="a_node3"><a xlink:href="quickjs-libc_8c.html#adcca2b4a661355e6ff87a0def2339894" target="_top" xlink:title="js_init_module_os">
<polygon fill="none" stroke="#000000" points="311.5,-148 311.5,-167 406.5,-167 406.5,-148 311.5,-148"/>
<text text-anchor="middle" x="359" y="-155" font-family="Helvetica,sans-Serif" font-size="10.00" fill="#000000">js_init_module_os</text>
</a>
</g>
</g>
<!-- Node97907&#45;&gt;Node97908 -->
<g id="edge2" class="edge">
<title>Node97907&#45;&gt;Node97908</title>
<path fill="none" stroke="#191970" d="M231.613,-157.5C255.4854,-157.5 286.1695,-157.5 311.441,-157.5"/>
<polygon fill="#191970" stroke="#191970" points="231.5021,-154.0001 221.5021,-157.5 231.5021,-161.0001 231.5021,-154.0001"/>
</g>
<!-- Node97909 -->
<g id="node4" class="node">
<title>Node97909</title>
<g id="a_node4"><a xlink:href="qjs_8cpp.html#a3c04138a5bfe5d72780bb7e82a18e627" target="_top" xlink:title="main">
<polygon fill="none" stroke="#000000" points="495,-110 495,-129 533,-129 533,-110 495,-110"/>
<text text-anchor="middle" x="514" y="-117" font-family="Helvetica,sans-Serif" font-size="10.00" fill="#000000">main</text>
</a>
</g>
</g>
<!-- Node97908&#45;&gt;Node97909 -->
<g id="edge3" class="edge">
<title>Node97908&#45;&gt;Node97909</title>
<path fill="none" stroke="#191970" d="M408.2033,-145.4373C437.5653,-138.2388 473.2086,-129.5005 494.7216,-124.2263"/>
<polygon fill="#191970" stroke="#191970" points="406.992,-142.1305 398.113,-147.911 408.6588,-148.9292 406.992,-142.1305"/>
</g>
<!-- Node97910 -->
<g id="node5" class="node">
<title>Node97910</title>
<g id="a_node5"><a xlink:href="quickjs-libc_8c.html#a1fbb3adc15e7b967479fc1940e99b67a" target="_top" xlink:title="worker_func">
<polygon fill="none" stroke="#ff0000" points="479,-148 479,-167 549,-167 549,-148 479,-148"/>
<text text-anchor="middle" x="514" y="-155" font-family="Helvetica,sans-Serif" font-size="10.00" fill="#000000">worker_func</text>
</a>
</g>
</g>
<!-- Node97908&#45;&gt;Node97910 -->
<g id="edge4" class="edge">
<title>Node97908&#45;&gt;Node97910</title>
<path fill="none" stroke="#191970" d="M416.8235,-157.5C437.6958,-157.5 460.6072,-157.5 478.9386,-157.5"/>
<polygon fill="#191970" stroke="#191970" points="416.7699,-154.0001 406.7699,-157.5 416.7698,-161.0001 416.7699,-154.0001"/>
</g>
<!-- Node97913 -->
<g id="node7" class="node">
<title>Node97913</title>
<g id="a_node7"><a xlink:href="quickjs-libc_8c.html#a0e65c67dfff872a664f8d29e7eae5a61" target="_top" xlink:title="js_init_module_std">
<polygon fill="none" stroke="#000000" points="310,-110 310,-129 408,-129 408,-110 310,-110"/>
<text text-anchor="middle" x="359" y="-117" font-family="Helvetica,sans-Serif" font-size="10.00" fill="#000000">js_init_module_std</text>
</a>
</g>
</g>
<!-- Node97912&#45;&gt;Node97913 -->
<g id="edge6" class="edge">
<title>Node97912&#45;&gt;Node97913</title>
<path fill="none" stroke="#191970" d="M233.1862,-119.5C256.2702,-119.5 285.327,-119.5 309.6992,-119.5"/>
<polygon fill="#191970" stroke="#191970" points="233.0387,-116.0001 223.0387,-119.5 233.0386,-123.0001 233.0387,-116.0001"/>
</g>
<!-- Node97913&#45;&gt;Node97909 -->
<g id="edge7" class="edge">
<title>Node97913&#45;&gt;Node97909</title>
<path fill="none" stroke="#191970" d="M418.2649,-119.5C445.4187,-119.5 475.7389,-119.5 494.8385,-119.5"/>
<polygon fill="#191970" stroke="#191970" points="418.043,-116.0001 408.043,-119.5 418.0429,-123.0001 418.043,-116.0001"/>
</g>
<!-- Node97913&#45;&gt;Node97910 -->
<g id="edge8" class="edge">
<title>Node97913&#45;&gt;Node97910</title>
<path fill="none" stroke="#191970" d="M408.039,-131.5225C431.0443,-137.1625 457.9352,-143.7551 478.8705,-148.8876"/>
<polygon fill="#191970" stroke="#191970" points="408.6588,-128.0708 398.113,-129.089 406.992,-134.8695 408.6588,-128.0708"/>
</g>
<!-- Node97915 -->
<g id="node9" class="node">
<title>Node97915</title>
<g id="a_node9"><a xlink:href="structqjs_1_1js__traits_3_01std_1_1shared__ptr_3_01T_01_4_01_4.html#a046f811ae16e0cb24170a8425f3e8780" target="_top" xlink:title="Create a JSValue from std::shared_ptr&lt;T&gt;. ">
<polygon fill="none" stroke="#000000" points="295,-55.5 295,-85.5 423,-85.5 423,-55.5 295,-55.5"/>
<text text-anchor="start" x="303" y="-73.5" font-family="Helvetica,sans-Serif" font-size="10.00" fill="#000000">qjs::js_traits&lt; std</text>
<text text-anchor="middle" x="359" y="-62.5" font-family="Helvetica,sans-Serif" font-size="10.00" fill="#000000">::shared_ptr&lt; T &gt; &gt;::wrap</text>
</a>
</g>
</g>
<!-- Node97914&#45;&gt;Node97915 -->
<g id="edge10" class="edge">
<title>Node97914&#45;&gt;Node97915</title>
<path fill="none" stroke="#191970" d="M253.4831,-70.5C266.969,-70.5 281.2964,-70.5 294.9021,-70.5"/>
<polygon fill="#191970" stroke="#191970" points="253.3602,-67.0001 243.3602,-70.5 253.3602,-74.0001 253.3602,-67.0001"/>
</g>
<!-- Node97917 -->
<g id="node11" class="node">
<title>Node97917</title>
<g id="a_node11"><a xlink:href="classqjs_1_1Context.html#aae629cc551168d549a405db5c762b61e" target="_top" xlink:title="qjs::Context::init">
<polygon fill="none" stroke="#000000" points="314.5,-6 314.5,-25 403.5,-25 403.5,-6 314.5,-6"/>
<text text-anchor="middle" x="359" y="-13" font-family="Helvetica,sans-Serif" font-size="10.00" fill="#000000">qjs::Context::init</text>
</a>
</g>
</g>
<!-- Node97916&#45;&gt;Node97917 -->
<g id="edge12" class="edge">
<title>Node97916&#45;&gt;Node97917</title>
<path fill="none" stroke="#191970" d="M269.2985,-15.5C284.669,-15.5 300.3347,-15.5 314.1826,-15.5"/>
<polygon fill="#191970" stroke="#191970" points="269.2626,-12.0001 259.2626,-15.5 269.2625,-19.0001 269.2626,-12.0001"/>
</g>
<!-- Node97918 -->
<g id="node12" class="node">
<title>Node97918</title>
<g id="a_node12"><a xlink:href="classqjs_1_1Context.html#a4392a23648acfc4bf6b445336efb5007" target="_top" xlink:title="qjs::Context::Context">
<polygon fill="none" stroke="#ff0000" points="459,-6 459,-25 569,-25 569,-6 459,-6"/>
<text text-anchor="middle" x="514" y="-13" font-family="Helvetica,sans-Serif" font-size="10.00" fill="#000000">qjs::Context::Context</text>
</a>
</g>
</g>
<!-- Node97917&#45;&gt;Node97918 -->
<g id="edge13" class="edge">
<title>Node97917&#45;&gt;Node97918</title>
<path fill="none" stroke="#191970" d="M414.1579,-15.5C428.6599,-15.5 444.3033,-15.5 458.8072,-15.5"/>
<polygon fill="#191970" stroke="#191970" points="413.8325,-12.0001 403.8324,-15.5 413.8324,-19.0001 413.8325,-12.0001"/>
</g>
</g>
</svg>
        <g id="navigator" transform="translate(0 0)" fill="#404254">
                <rect fill="#f2f5e9" fill-opacity="0.5" stroke="#606060" stroke-width=".5" x="0" y="0" width="60" height="60"/>
                <use id="zoomplus" xlink:href="#zoomPlus" x="17" y="9" onmousedown="handleZoom(evt,'in')"/>
                <use id="zoomminus" xlink:href="#zoomMin" x="42" y="9" onmousedown="handleZoom(evt,'out')"/>
                <use id="reset" xlink:href="#resetDef" x="30" y="36" onmousedown="handleReset()"/>
                <g id="arrowUp" xlink:href="#dirArrow" transform="translate(30 24)" onmousedown="handlePan(0,-1)">
                  <use xlink:href="#rim" fill="#404040">
                        <set attributeName="fill" to="#808080" begin="arrowUp.mouseover" end="arrowUp.mouseout"/>
                  </use>
                  <path fill="none" stroke="white" stroke-width="1.5" d="M0,-3.0v7 M-2.5,-0.5L0,-3.0L2.5,-0.5"/>
                </g>
                <g id="arrowRight" xlink:href="#dirArrow" transform="rotate(90) translate(36 -43)" onmousedown="handlePan(1,0)">
                  <use xlink:href="#rim" fill="#404040">
                        <set attributeName="fill" to="#808080" begin="arrowRight.mouseover" end="arrowRight.mouseout"/>
                  </use>
                  <path fill="none" stroke="white" stroke-width="1.5" d="M0,-3.0v7 M-2.5,-0.5L0,-3.0L2.5,-0.5"/>
                </g>
                <g id="arrowDown" xlink:href="#dirArrow" transform="rotate(180) translate(-30 -48)" onmousedown="handlePan(0,1)">
                  <use xlink:href="#rim" fill="#404040">
                        <set attributeName="fill" to="#808080" begin="arrowDown.mouseover" end="arrowDown.mouseout"/>
                  </use>
                  <path fill="none" stroke="white" stroke-width="1.5" d="M0,-3.0v7 M-2.5,-0.5L0,-3.0L2.5,-0.5"/>
                </g>
                <g id="arrowLeft" xlink:href="#dirArrow" transform="rotate(270) translate(-36 17)" onmousedown="handlePan(-1,0)">
                  <use xlink:href="#rim" fill="#404040">
                        <set attributeName="fill" to="#808080" begin="arrowLeft.mouseover" end="arrowLeft.mouseout"/>
                  </use>
                  <path fill="none" stroke="white" stroke-width="1.5" d="M0,-3.0v7 M-2.5,-0.5L0,-3.0L2.5,-0.5"/>
                </g>
        </g>
        <svg viewBox="0 0 15 15" width="100%" height="30px" preserveAspectRatio="xMaxYMin meet">
         <g id="arrow_out" transform="scale(0.3 0.3)">
          <a xlink:href="quickjs_8c_a4f56d0a794368a8861c89819fc79cdb5_icgraph_org.svg" target="_base">
           <rect id="button" ry="5" rx="5" y="6" x="6" height="38" width="38"
                fill="#f2f5e9" fill-opacity="0.5" stroke="#606060" stroke-width="1.0"/>
           <path id="arrow"
             d="M 11.500037,31.436501 C 11.940474,20.09759 22.043105,11.32322 32.158766,21.979434 L 37.068811,17.246167 C 37.068811,17.246167 37.088388,32 37.088388,32 L 22.160133,31.978069 C 22.160133,31.978069 26.997745,27.140456 26.997745,27.140456 C 18.528582,18.264221 13.291696,25.230495 11.500037,31.436501 z"
             style="fill:#404040;"/>
          </a>
         </g>
        </svg>
</svg>
