<?xml version="1.0" encoding="UTF-8" standalone="no"?>
<!DOCTYPE svg PUBLIC "-//W3C//DTD SVG 1.1//EN"
 "http://www.w3.org/Graphics/SVG/1.1/DTD/svg11.dtd">
<!-- Generated by graphviz version 2.40.1 (20161225.0304)
 -->
<!-- Title: JS_AddIntrinsicRegExp Pages: 1 -->
<svg width="546pt" height="66pt"
 viewBox="0.00 0.00 546.00 66.00" xmlns="http://www.w3.org/2000/svg" xmlns:xlink="http://www.w3.org/1999/xlink">
<g id="graph0" class="graph" transform="scale(1 1) rotate(0) translate(4 62)">
<title>JS_AddIntrinsicRegExp</title>
<!-- Node8798 -->
<g id="node1" class="node">
<title>Node8798</title>
<polygon fill="#bfbfbf" stroke="#000000" points="0,-19.5 0,-38.5 121,-38.5 121,-19.5 0,-19.5"/>
<text text-anchor="middle" x="60.5" y="-26.5" font-family="Helvetica,sans-Serif" font-size="10.00" fill="#000000">JS_AddIntrinsicRegExp</text>
</g>
<!-- Node8799 -->
<g id="node2" class="node">
<title>Node8799</title>
<g id="a_node2"><a xlink:href="quickjs_8c.html#ad8aedb643b8753b7a15f6cb2df61945e" target="_top" xlink:title="JS_NewContext">
<polygon fill="none" stroke="#000000" points="157,-19.5 157,-38.5 246,-38.5 246,-19.5 157,-19.5"/>
<text text-anchor="middle" x="201.5" y="-26.5" font-family="Helvetica,sans-Serif" font-size="10.00" fill="#000000">JS_NewContext</text>
</a>
</g>
</g>
<!-- Node8798&#45;&gt;Node8799 -->
<g id="edge1" class="edge">
<title>Node8798&#45;&gt;Node8799</title>
<path fill="none" stroke="#191970" d="M131.2517,-29C139.9114,-29 148.5661,-29 156.693,-29"/>
<polygon fill="#191970" stroke="#191970" points="131.115,-25.5001 121.115,-29 131.1149,-32.5001 131.115,-25.5001"/>
</g>
<!-- Node8800 -->
<g id="node3" class="node">
<title>Node8800</title>
<g id="a_node3"><a xlink:href="classqjs_1_1Context.html#a4392a23648acfc4bf6b445336efb5007" target="_top" xlink:title="qjs::Context::Context">
<polygon fill="none" stroke="#000000" points="282,-38.5 282,-57.5 392,-57.5 392,-38.5 282,-38.5"/>
<text text-anchor="middle" x="337" y="-45.5" font-family="Helvetica,sans-Serif" font-size="10.00" fill="#000000">qjs::Context::Context</text>
</a>
</g>
</g>
<!-- Node8799&#45;&gt;Node8800 -->
<g id="edge2" class="edge">
<title>Node8799&#45;&gt;Node8800</title>
<path fill="none" stroke="#191970" d="M256.3476,-36.6908C264.7739,-37.8724 273.4767,-39.0927 281.9083,-40.275"/>
<polygon fill="#191970" stroke="#191970" points="256.6325,-33.1966 246.2433,-35.274 255.6604,-40.1288 256.6325,-33.1966"/>
</g>
<!-- Node8803 -->
<g id="node5" class="node">
<title>Node8803</title>
<g id="a_node5"><a xlink:href="quickjs-libc_8c.html#a1fbb3adc15e7b967479fc1940e99b67a" target="_top" xlink:title="worker_func">
<polygon fill="none" stroke="#000000" points="302,-.5 302,-19.5 372,-19.5 372,-.5 302,-.5"/>
<text text-anchor="middle" x="337" y="-7.5" font-family="Helvetica,sans-Serif" font-size="10.00" fill="#000000">worker_func</text>
</a>
</g>
</g>
<!-- Node8799&#45;&gt;Node8803 -->
<g id="edge4" class="edge">
<title>Node8799&#45;&gt;Node8803</title>
<path fill="none" stroke="#191970" d="M256.1712,-21.3339C271.5364,-19.1794 287.8347,-16.894 301.7403,-14.9442"/>
<polygon fill="#191970" stroke="#191970" points="255.6604,-17.8712 246.2433,-22.726 256.6325,-24.8034 255.6604,-17.8712"/>
</g>
<!-- Node8801 -->
<g id="node4" class="node">
<title>Node8801</title>
<g id="a_node4"><a xlink:href="classqjs_1_1Context.html#af725fb8083d8c33a37198d6acaf1a836" target="_top" xlink:title="qjs::Context::Context">
<polygon fill="none" stroke="#ff0000" points="428,-38.5 428,-57.5 538,-57.5 538,-38.5 428,-38.5"/>
<text text-anchor="middle" x="483" y="-45.5" font-family="Helvetica,sans-Serif" font-size="10.00" fill="#000000">qjs::Context::Context</text>
</a>
</g>
</g>
<!-- Node8800&#45;&gt;Node8801 -->
<g id="edge3" class="edge">
<title>Node8800&#45;&gt;Node8801</title>
<path fill="none" stroke="#191970" d="M402.4101,-48C410.8647,-48 419.4567,-48 427.7256,-48"/>
<polygon fill="#191970" stroke="#191970" points="402.1964,-44.5001 392.1963,-48 402.1963,-51.5001 402.1964,-44.5001"/>
</g>
<!-- Node8804 -->
<g id="node6" class="node">
<title>Node8804</title>
<g id="a_node6"><a xlink:href="quickjs-libc_8c.html#aff1e6131e8bf8b7eb25307623ad669e7" target="_top" xlink:title="js_worker_ctor">
<polygon fill="none" stroke="#ff0000" points="443,-.5 443,-19.5 523,-19.5 523,-.5 443,-.5"/>
<text text-anchor="middle" x="483" y="-7.5" font-family="Helvetica,sans-Serif" font-size="10.00" fill="#000000">js_worker_ctor</text>
</a>
</g>
</g>
<!-- Node8803&#45;&gt;Node8804 -->
<g id="edge5" class="edge">
<title>Node8803&#45;&gt;Node8804</title>
<path fill="none" stroke="#191970" d="M382.4324,-10C401.761,-10 424.112,-10 442.8272,-10"/>
<polygon fill="#191970" stroke="#191970" points="382.3426,-6.5001 372.3425,-10 382.3425,-13.5001 382.3426,-6.5001"/>
</g>
</g>
</svg>
