<?xml version="1.0" encoding="UTF-8" standalone="no"?>
<!DOCTYPE svg PUBLIC "-//W3C//DTD SVG 1.1//EN"
 "http://www.w3.org/Graphics/SVG/1.1/DTD/svg11.dtd">
<!-- Generated by graphviz version 2.40.1 (20161225.0304)
 -->
<!-- Title: JS_NewObjectProto Pages: 1 -->
<!--zoomable 586 -->
<svg id="main" version="1.1" xmlns="http://www.w3.org/2000/svg" xmlns:xlink="http://www.w3.org/1999/xlink" xml:space="preserve" onload="init(evt)">
<style type="text/css"><![CDATA[
.edge:hover path { stroke: red; }
.edge:hover polygon { stroke: red; fill: red; }
]]></style>
<script type="text/javascript"><![CDATA[
var edges = document.getElementsByTagName('g');
if (edges && edges.length) {
  for (var i=0;i<edges.length;i++) {
    if (edges[i].id.substr(0,4)=='edge') {
      edges[i].setAttribute('class','edge');
    }
  }
}
]]></script>
        <defs>
                <circle id="rim" cx="0" cy="0" r="7"/>
                <circle id="rim2" cx="0" cy="0" r="3.5"/>
                <g id="zoomPlus">
                        <use xlink:href="#rim" fill="#404040">
                                <set attributeName="fill" to="#808080" begin="zoomplus.mouseover" end="zoomplus.mouseout"/>
                        </use>
                        <path d="M-4,0h8M0,-4v8" fill="none" stroke="white" stroke-width="1.5" pointer-events="none"/>
                </g>
                <g id="zoomMin">
                        <use xlink:href="#rim" fill="#404040">
                                <set attributeName="fill" to="#808080" begin="zoomminus.mouseover" end="zoomminus.mouseout"/>
                        </use>
                        <path d="M-4,0h8" fill="none" stroke="white" stroke-width="1.5" pointer-events="none"/>
                </g>
                <g id="dirArrow">
                        <path fill="none" stroke="white" stroke-width="1.5" d="M0,-3.0v7 M-2.5,-0.5L0,-3.0L2.5,-0.5"/>
                </g>
               <g id="resetDef">
                       <use xlink:href="#rim2" fill="#404040">
                               <set attributeName="fill" to="#808080" begin="reset.mouseover" end="reset.mouseout"/>
                       </use>
               </g>
        </defs>

<script type="text/javascript">
var viewWidth = 1414;
var viewHeight = 586;
var sectionId = 'dynsection-405';
</script>
<script xlink:href="svgpan.js"/>
<svg id="graph" class="graph">
<g id="viewport">
<title>JS_NewObjectProto</title>
<!-- Node134322 -->
<g id="node1" class="node">
<title>Node134322</title>
<polygon fill="#bfbfbf" stroke="#000000" points="0,-330.5 0,-349.5 106,-349.5 106,-330.5 0,-330.5"/>
<text text-anchor="middle" x="53" y="-337.5" font-family="Helvetica,sans-Serif" font-size="10.00" fill="#000000">JS_NewObjectProto</text>
</g>
<!-- Node134323 -->
<g id="node2" class="node">
<title>Node134323</title>
<g id="a_node2"><a xlink:href="quickjs_8c.html#a4c9489297c684663f30e517204a9ec14" target="_top" xlink:title="JS_AddIntrinsicBaseObjects">
<polygon fill="none" stroke="#000000" points="495,-539.5 495,-558.5 637,-558.5 637,-539.5 495,-539.5"/>
<text text-anchor="middle" x="566" y="-546.5" font-family="Helvetica,sans-Serif" font-size="10.00" fill="#000000">JS_AddIntrinsicBaseObjects</text>
</a>
</g>
</g>
<!-- Node134322&#45;&gt;Node134323 -->
<g id="edge1" class="edge">
<title>Node134322&#45;&gt;Node134323</title>
<path fill="none" stroke="#191970" d="M56.6538,-359.749C64.698,-397.0355 87.725,-477.3388 142,-514 259.2107,-593.1724 438.3226,-573.4806 521.1377,-558.5318"/>
<polygon fill="#191970" stroke="#191970" points="60.0262,-358.7662 54.6204,-349.6543 53.1641,-360.1485 60.0262,-358.7662"/>
</g>
<!-- Node134332 -->
<g id="node6" class="node">
<title>Node134332</title>
<g id="a_node6"><a xlink:href="quickjs_8c.html#a7efb53c2f76fd5cc0e584449437ec09c" target="_top" xlink:title="JS_AddIntrinsicBasicObjects">
<polygon fill="none" stroke="#000000" points="494,-501.5 494,-520.5 638,-520.5 638,-501.5 494,-501.5"/>
<text text-anchor="middle" x="566" y="-508.5" font-family="Helvetica,sans-Serif" font-size="10.00" fill="#000000">JS_AddIntrinsicBasicObjects</text>
</a>
</g>
</g>
<!-- Node134322&#45;&gt;Node134332 -->
<g id="edge5" class="edge">
<title>Node134322&#45;&gt;Node134332</title>
<path fill="none" stroke="#191970" d="M58.3655,-359.6057C68.5288,-392.5234 93.9933,-458.1278 142,-487 199.338,-521.4843 388.4999,-519.1348 493.742,-514.8468"/>
<polygon fill="#191970" stroke="#191970" points="61.6626,-358.4103 55.495,-349.7957 54.9443,-360.3762 61.6626,-358.4103"/>
</g>
<!-- Node134334 -->
<g id="node8" class="node">
<title>Node134334</title>
<g id="a_node8"><a xlink:href="quickjs_8c.html#a4497f8c7cf2ec38da989910ae8b1f042" target="_top" xlink:title="JS_AddIntrinsicMapSet">
<polygon fill="none" stroke="#000000" points="1014.5,-404.5 1014.5,-423.5 1133.5,-423.5 1133.5,-404.5 1014.5,-404.5"/>
<text text-anchor="middle" x="1074" y="-411.5" font-family="Helvetica,sans-Serif" font-size="10.00" fill="#000000">JS_AddIntrinsicMapSet</text>
</a>
</g>
</g>
<!-- Node134322&#45;&gt;Node134334 -->
<g id="edge8" class="edge">
<title>Node134322&#45;&gt;Node134334</title>
<path fill="none" stroke="#191970" d="M68.0533,-357.5942C84.4181,-375.5622 112.2415,-402.8995 142,-418 242.0996,-468.7939 276.2505,-473 388.5,-473 388.5,-473 388.5,-473 741,-473 846.2283,-473 874.6819,-478.5764 977,-454 1005.5166,-447.1504 1036.5304,-433.0954 1055.6214,-423.6072"/>
<polygon fill="#191970" stroke="#191970" points="70.2357,-354.7801 60.9819,-349.6209 64.9986,-359.4248 70.2357,-354.7801"/>
</g>
<!-- Node134335 -->
<g id="node9" class="node">
<title>Node134335</title>
<g id="a_node9"><a xlink:href="quickjs_8c.html#a2e66fcf1bc1d19f346317f10ee590621" target="_top" xlink:title="JS_AddIntrinsicPromise">
<polygon fill="none" stroke="#000000" points="1013,-305.5 1013,-324.5 1135,-324.5 1135,-305.5 1013,-305.5"/>
<text text-anchor="middle" x="1074" y="-312.5" font-family="Helvetica,sans-Serif" font-size="10.00" fill="#000000">JS_AddIntrinsicPromise</text>
</a>
</g>
</g>
<!-- Node134322&#45;&gt;Node134335 -->
<g id="edge10" class="edge">
<title>Node134322&#45;&gt;Node134335</title>
<path fill="none" stroke="#191970" d="M66.7397,-322.5267C108.8453,-271.1227 242.1394,-124 388.5,-124 388.5,-124 388.5,-124 741,-124 846.2283,-124 888.3725,-86.2712 977,-143 1004.4871,-160.594 996.975,-178.5696 1013,-207 1033.5132,-243.393 1057.9671,-286.6501 1068.6088,-305.4681"/>
<polygon fill="#191970" stroke="#191970" points="63.9122,-320.4574 60.3628,-330.44 69.3628,-324.8497 63.9122,-320.4574"/>
</g>
<!-- Node134336 -->
<g id="node10" class="node">
<title>Node134336</title>
<g id="a_node10"><a xlink:href="quickjs_8c.html#aafc8241682ce24b6d72e0f237ee85a51" target="_top" xlink:title="JS_AddIntrinsicRegExp">
<polygon fill="none" stroke="#000000" points="505.5,-76.5 505.5,-95.5 626.5,-95.5 626.5,-76.5 505.5,-76.5"/>
<text text-anchor="middle" x="566" y="-83.5" font-family="Helvetica,sans-Serif" font-size="10.00" fill="#000000">JS_AddIntrinsicRegExp</text>
</a>
</g>
</g>
<!-- Node134322&#45;&gt;Node134336 -->
<g id="edge12" class="edge">
<title>Node134322&#45;&gt;Node134336</title>
<path fill="none" stroke="#191970" d="M53.8798,-320.3345C57.1004,-274.5479 72.1056,-160.8609 142,-110 198.2623,-69.059 402.0538,-75.4431 505.2413,-81.6226"/>
<polygon fill="#191970" stroke="#191970" points="50.3791,-320.2452 53.2887,-330.4327 57.3672,-320.6543 50.3791,-320.2452"/>
</g>
<!-- Node134337 -->
<g id="node11" class="node">
<title>Node134337</title>
<g id="a_node11"><a xlink:href="quickjs_8c.html#a177d09828596bfe6df4bd90b2e93989d" target="_top" xlink:title="JS_AddIntrinsicTypedArrays">
<polygon fill="none" stroke="#000000" points="142,-38.5 142,-57.5 283,-57.5 283,-38.5 142,-38.5"/>
<text text-anchor="middle" x="212.5" y="-45.5" font-family="Helvetica,sans-Serif" font-size="10.00" fill="#000000">JS_AddIntrinsicTypedArrays</text>
</a>
</g>
</g>
<!-- Node134322&#45;&gt;Node134337 -->
<g id="edge14" class="edge">
<title>Node134322&#45;&gt;Node134337</title>
<path fill="none" stroke="#191970" d="M53.7976,-320.2029C56.8424,-271.1893 71.4984,-143.0316 142,-72 148.2846,-65.6681 156.3031,-61.006 164.6641,-57.5735"/>
<polygon fill="#191970" stroke="#191970" points="50.2918,-320.2261 53.2664,-330.3948 57.2823,-320.5906 50.2918,-320.2261"/>
</g>
<!-- Node134338 -->
<g id="node12" class="node">
<title>Node134338</title>
<g id="a_node12"><a xlink:href="quickjs_8c.html#ac2894ff4edcdb4e6841bcce9c76081e3" target="_top" xlink:title="JS_CallInternal">
<polygon fill="none" stroke="#000000" points="524.5,-311.5 524.5,-330.5 607.5,-330.5 607.5,-311.5 524.5,-311.5"/>
<text text-anchor="middle" x="566" y="-318.5" font-family="Helvetica,sans-Serif" font-size="10.00" fill="#000000">JS_CallInternal</text>
</a>
</g>
</g>
<!-- Node134322&#45;&gt;Node134338 -->
<g id="edge16" class="edge">
<title>Node134322&#45;&gt;Node134338</title>
<path fill="none" stroke="#191970" d="M82.0233,-326.0592C148.8673,-295.7959 318.6333,-229.4791 458,-264 495.0427,-273.1754 533.3876,-297.6278 552.8902,-311.3378"/>
<polygon fill="#191970" stroke="#191970" points="80.1802,-323.0546 72.5608,-330.4163 83.108,-329.4129 80.1802,-323.0546"/>
</g>
<!-- Node134486 -->
<g id="node24" class="node">
<title>Node134486</title>
<g id="a_node24"><a xlink:href="quickjs_8c.html#aab4130a4c3108a127681be821818528a" target="_top" xlink:title="js_closure">
<polygon fill="none" stroke="#000000" points="358,-425.5 358,-444.5 419,-444.5 419,-425.5 358,-425.5"/>
<text text-anchor="middle" x="388.5" y="-432.5" font-family="Helvetica,sans-Serif" font-size="10.00" fill="#000000">js_closure</text>
</a>
</g>
</g>
<!-- Node134322&#45;&gt;Node134486 -->
<g id="edge34" class="edge">
<title>Node134322&#45;&gt;Node134486</title>
<path fill="none" stroke="#191970" d="M76.7126,-354.9916C94.1587,-365.397 118.7806,-378.8101 142,-387 217.0372,-413.4669 310.3623,-426.592 357.7658,-431.947"/>
<polygon fill="#191970" stroke="#191970" points="78.1746,-351.7841 67.8131,-349.5726 74.534,-357.7629 78.1746,-351.7841"/>
</g>
<!-- Node134929 -->
<g id="node25" class="node">
<title>Node134929</title>
<g id="a_node25"><a xlink:href="quickjs_8c.html#a44504e6de8f6e13870e695d360d9cd3e" target="_top" xlink:title="JS_GetImportMeta">
<polygon fill="none" stroke="#000000" points="163,-311.5 163,-330.5 262,-330.5 262,-311.5 163,-311.5"/>
<text text-anchor="middle" x="212.5" y="-318.5" font-family="Helvetica,sans-Serif" font-size="10.00" fill="#000000">JS_GetImportMeta</text>
</a>
</g>
</g>
<!-- Node134322&#45;&gt;Node134929 -->
<g id="edge37" class="edge">
<title>Node134322&#45;&gt;Node134929</title>
<path fill="none" stroke="#191970" d="M116.1578,-332.4765C131.6782,-330.6277 148.0758,-328.6744 162.8564,-326.9137"/>
<polygon fill="#191970" stroke="#191970" points="115.627,-329.0149 106.1112,-333.6733 116.455,-335.9658 115.627,-329.0149"/>
</g>
<!-- Node134613 -->
<g id="node28" class="node">
<title>Node134613</title>
<g id="a_node28"><a xlink:href="quickjs_8c.html#a044c9fa96a633f551f51655924c570c7" target="_top" xlink:title="js_object_create">
<polygon fill="none" stroke="#000000" points="168.5,-.5 168.5,-19.5 256.5,-19.5 256.5,-.5 168.5,-.5"/>
<text text-anchor="middle" x="212.5" y="-7.5" font-family="Helvetica,sans-Serif" font-size="10.00" fill="#000000">js_object_create</text>
</a>
</g>
</g>
<!-- Node134322&#45;&gt;Node134613 -->
<g id="edge41" class="edge">
<title>Node134322&#45;&gt;Node134613</title>
<path fill="none" stroke="#191970" d="M56.0501,-320.3747C65.9988,-258.7975 99.3356,-71.0092 142,-29 149.1357,-21.9738 158.5811,-17.4748 168.2311,-14.6122"/>
<polygon fill="#191970" stroke="#191970" points="52.5794,-319.915 54.4677,-330.3402 59.4927,-321.0128 52.5794,-319.915"/>
</g>
<!-- Node134564 -->
<g id="node29" class="node">
<title>Node134564</title>
<g id="a_node29"><a xlink:href="quickjs_8c.html#a36322a209de4ef17f939e6d128578d7f" target="_top" xlink:title="js_op_define_class">
<polygon fill="none" stroke="#000000" points="338.5,-349.5 338.5,-368.5 438.5,-368.5 438.5,-349.5 338.5,-349.5"/>
<text text-anchor="middle" x="388.5" y="-356.5" font-family="Helvetica,sans-Serif" font-size="10.00" fill="#000000">js_op_define_class</text>
</a>
</g>
</g>
<!-- Node134322&#45;&gt;Node134564 -->
<g id="edge42" class="edge">
<title>Node134322&#45;&gt;Node134564</title>
<path fill="none" stroke="#191970" d="M116.1881,-343.5785C180.5628,-347.2241 279.1075,-352.8049 338.3275,-356.1586"/>
<polygon fill="#191970" stroke="#191970" points="116.3429,-340.0817 106.161,-343.0106 115.947,-347.0705 116.3429,-340.0817"/>
</g>
<!-- Node134461 -->
<g id="node30" class="node">
<title>Node134461</title>
<g id="a_node30"><a xlink:href="quickjs_8c.html#a9eb2d90f27f684820f9de13189502b7c" target="_top" xlink:title="js_regexp_exec">
<polygon fill="none" stroke="#ff0000" points="346,-387.5 346,-406.5 431,-406.5 431,-387.5 346,-387.5"/>
<text text-anchor="middle" x="388.5" y="-394.5" font-family="Helvetica,sans-Serif" font-size="10.00" fill="#000000">js_regexp_exec</text>
</a>
</g>
</g>
<!-- Node134322&#45;&gt;Node134461 -->
<g id="edge44" class="edge">
<title>Node134322&#45;&gt;Node134461</title>
<path fill="none" stroke="#191970" d="M98.2014,-352.1138C112.1774,-355.6052 127.6666,-359.2183 142,-362 213.0747,-375.7936 296.6692,-386.5206 345.9728,-392.2889"/>
<polygon fill="#191970" stroke="#191970" points="98.8841,-348.6762 88.3302,-349.6067 97.1608,-355.4607 98.8841,-348.6762"/>
</g>
<!-- Node134324 -->
<g id="node3" class="node">
<title>Node134324</title>
<g id="a_node3"><a xlink:href="quickjs_8c.html#ad8aedb643b8753b7a15f6cb2df61945e" target="_top" xlink:title="JS_NewContext">
<polygon fill="none" stroke="#000000" points="1171,-384.5 1171,-403.5 1260,-403.5 1260,-384.5 1171,-384.5"/>
<text text-anchor="middle" x="1215.5" y="-391.5" font-family="Helvetica,sans-Serif" font-size="10.00" fill="#000000">JS_NewContext</text>
</a>
</g>
</g>
<!-- Node134323&#45;&gt;Node134324 -->
<g id="edge2" class="edge">
<title>Node134323&#45;&gt;Node134324</title>
<path fill="none" stroke="#191970" d="M622.59,-560.2791C730.3381,-578.6566 968.9947,-604.2307 1135,-510 1178.2758,-485.4351 1203.5372,-426.8879 1212.1422,-403.6985"/>
<polygon fill="#191970" stroke="#191970" points="623.0319,-556.8034 612.5783,-558.5274 621.8254,-563.6986 623.0319,-556.8034"/>
</g>
<!-- Node134325 -->
<g id="node4" class="node">
<title>Node134325</title>
<g id="a_node4"><a xlink:href="classqjs_1_1Context.html#a4392a23648acfc4bf6b445336efb5007" target="_top" xlink:title="qjs::Context::Context">
<polygon fill="none" stroke="#ff0000" points="1296,-403.5 1296,-422.5 1406,-422.5 1406,-403.5 1296,-403.5"/>
<text text-anchor="middle" x="1351" y="-410.5" font-family="Helvetica,sans-Serif" font-size="10.00" fill="#000000">qjs::Context::Context</text>
</a>
</g>
</g>
<!-- Node134324&#45;&gt;Node134325 -->
<g id="edge3" class="edge">
<title>Node134324&#45;&gt;Node134325</title>
<path fill="none" stroke="#191970" d="M1270.3476,-401.6908C1278.7739,-402.8724 1287.4767,-404.0927 1295.9083,-405.275"/>
<polygon fill="#191970" stroke="#191970" points="1270.6325,-398.1966 1260.2433,-400.274 1269.6604,-405.1288 1270.6325,-398.1966"/>
</g>
<!-- Node134328 -->
<g id="node5" class="node">
<title>Node134328</title>
<g id="a_node5"><a xlink:href="quickjs-libc_8c.html#a1fbb3adc15e7b967479fc1940e99b67a" target="_top" xlink:title="worker_func">
<polygon fill="none" stroke="#ff0000" points="1316,-365.5 1316,-384.5 1386,-384.5 1386,-365.5 1316,-365.5"/>
<text text-anchor="middle" x="1351" y="-372.5" font-family="Helvetica,sans-Serif" font-size="10.00" fill="#000000">worker_func</text>
</a>
</g>
</g>
<!-- Node134324&#45;&gt;Node134328 -->
<g id="edge4" class="edge">
<title>Node134324&#45;&gt;Node134328</title>
<path fill="none" stroke="#191970" d="M1270.1712,-386.3339C1285.5364,-384.1794 1301.8347,-381.894 1315.7403,-379.9442"/>
<polygon fill="#191970" stroke="#191970" points="1269.6604,-382.8712 1260.2433,-387.726 1270.6325,-389.8034 1269.6604,-382.8712"/>
</g>
<!-- Node134333 -->
<g id="node7" class="node">
<title>Node134333</title>
<g id="a_node7"><a xlink:href="quickjs_8c.html#a442ff496ba00319ad39eb0a129b9eb8b" target="_top" xlink:title="JS_NewContextRaw">
<polygon fill="none" stroke="#000000" points="1019.5,-481.5 1019.5,-500.5 1128.5,-500.5 1128.5,-481.5 1019.5,-481.5"/>
<text text-anchor="middle" x="1074" y="-488.5" font-family="Helvetica,sans-Serif" font-size="10.00" fill="#000000">JS_NewContextRaw</text>
</a>
</g>
</g>
<!-- Node134332&#45;&gt;Node134333 -->
<g id="edge6" class="edge">
<title>Node134332&#45;&gt;Node134333</title>
<path fill="none" stroke="#191970" d="M648.4292,-507.7548C752.8579,-503.6434 929.9452,-496.6714 1019.1628,-493.1589"/>
<polygon fill="#191970" stroke="#191970" points="648.0991,-504.2649 638.2445,-508.1557 648.3745,-511.2595 648.0991,-504.2649"/>
</g>
<!-- Node134333&#45;&gt;Node134324 -->
<g id="edge7" class="edge">
<title>Node134333&#45;&gt;Node134324</title>
<path fill="none" stroke="#191970" d="M1096.5057,-475.5721C1126.0229,-455.3377 1176.9329,-420.4382 1201.4721,-403.6163"/>
<polygon fill="#191970" stroke="#191970" points="1094.354,-472.8036 1088.0849,-481.3446 1098.3119,-478.5773 1094.354,-472.8036"/>
</g>
<!-- Node134334&#45;&gt;Node134324 -->
<g id="edge9" class="edge">
<title>Node134334&#45;&gt;Node134324</title>
<path fill="none" stroke="#191970" d="M1143.5389,-404.1712C1152.7366,-402.8711 1161.9616,-401.5673 1170.5918,-400.3474"/>
<polygon fill="#191970" stroke="#191970" points="1143.0104,-400.711 1133.5986,-405.5762 1143.9901,-407.6421 1143.0104,-400.711"/>
</g>
<!-- Node134335&#45;&gt;Node134324 -->
<g id="edge11" class="edge">
<title>Node134335&#45;&gt;Node134324</title>
<path fill="none" stroke="#191970" d="M1100.0955,-329.5692C1128.7402,-345.5616 1173.9023,-370.7759 1198.3713,-384.437"/>
<polygon fill="#191970" stroke="#191970" points="1101.5058,-326.3481 1091.0682,-324.5292 1098.0934,-332.46 1101.5058,-326.3481"/>
</g>
<!-- Node134336&#45;&gt;Node134324 -->
<g id="edge13" class="edge">
<title>Node134336&#45;&gt;Node134324</title>
<path fill="none" stroke="#191970" d="M628.8992,-75.0468C713.0455,-63.5351 864.666,-53.9981 977,-110 1105.4974,-174.0598 1191.1031,-342.0159 1211.0381,-384.2525"/>
<polygon fill="#191970" stroke="#191970" points="628.3874,-71.5843 618.9792,-76.4562 629.3721,-78.5147 628.3874,-71.5843"/>
</g>
<!-- Node134337&#45;&gt;Node134324 -->
<g id="edge15" class="edge">
<title>Node134337&#45;&gt;Node134324</title>
<path fill="none" stroke="#191970" d="M293.565,-48C365.2146,-48 472.5547,-48 566,-48 566,-48 566,-48 910.5,-48 958.8057,-48 1104.2215,-95.2018 1135,-128 1171.9787,-167.4052 1205.8775,-341.5076 1213.7744,-384.4174"/>
<polygon fill="#191970" stroke="#191970" points="293.2586,-44.5001 283.2586,-48 293.2585,-51.5001 293.2586,-44.5001"/>
</g>
<!-- Node134338&#45;&gt;Node134338 -->
<g id="edge33" class="edge">
<title>Node134338&#45;&gt;Node134338</title>
<path fill="none" stroke="#191970" d="M533.4401,-339.2746C534.3684,-344.741 545.2217,-349 566,-349 596.9258,-349 605.8653,-339.5653 592.8185,-330.7571"/>
<polygon fill="#191970" stroke="#191970" points="536.4943,-341.0054 539.1815,-330.7571 530.6898,-337.0928 536.4943,-341.0054"/>
</g>
<!-- Node134339 -->
<g id="node13" class="node">
<title>Node134339</title>
<g id="a_node13"><a xlink:href="quickjs_8c.html#ade71a22dc56e7371392393df663b28b3" target="_top" xlink:title="async_func_resume">
<polygon fill="none" stroke="#000000" points="689,-273.5 689,-292.5 793,-292.5 793,-273.5 689,-273.5"/>
<text text-anchor="middle" x="741" y="-280.5" font-family="Helvetica,sans-Serif" font-size="10.00" fill="#000000">async_func_resume</text>
</a>
</g>
</g>
<!-- Node134338&#45;&gt;Node134339 -->
<g id="edge17" class="edge">
<title>Node134338&#45;&gt;Node134339</title>
<path fill="none" stroke="#191970" d="M618.0113,-309.7061C643.1482,-304.2478 672.99,-297.7679 696.9831,-292.558"/>
<polygon fill="#191970" stroke="#191970" points="616.9464,-306.3557 607.9169,-311.8981 618.4318,-313.1963 616.9464,-306.3557"/>
</g>
<!-- Node134349 -->
<g id="node18" class="node">
<title>Node134349</title>
<g id="a_node18"><a xlink:href="quickjs_8c.html#a1a4c02a29525d5cb2085dd8bca3af350" target="_top" xlink:title="JS_Call">
<polygon fill="none" stroke="#ff0000" points="715.5,-224.5 715.5,-243.5 766.5,-243.5 766.5,-224.5 715.5,-224.5"/>
<text text-anchor="middle" x="741" y="-231.5" font-family="Helvetica,sans-Serif" font-size="10.00" fill="#000000">JS_Call</text>
</a>
</g>
</g>
<!-- Node134338&#45;&gt;Node134349 -->
<g id="edge23" class="edge">
<title>Node134338&#45;&gt;Node134349</title>
<path fill="none" stroke="#191970" d="M582.8093,-305.406C603.9051,-291.1182 641.2921,-270.9333 674,-255 687.52,-248.4139 702.8112,-241.5255 715.3684,-236.8941"/>
<polygon fill="#191970" stroke="#191970" points="580.653,-302.6456 574.5822,-311.3287 584.7428,-308.3266 580.653,-302.6456"/>
</g>
<!-- Node134427 -->
<g id="node20" class="node">
<title>Node134427</title>
<g id="a_node20"><a xlink:href="quickjs_8c.html#ad35594576a14c10812efaf958c99af8a" target="_top" xlink:title="JS_CallConstructorInternal">
<polygon fill="none" stroke="#ff0000" points="674,-311.5 674,-330.5 808,-330.5 808,-311.5 674,-311.5"/>
<text text-anchor="middle" x="741" y="-318.5" font-family="Helvetica,sans-Serif" font-size="10.00" fill="#000000">JS_CallConstructorInternal</text>
</a>
</g>
</g>
<!-- Node134338&#45;&gt;Node134427 -->
<g id="edge27" class="edge">
<title>Node134338&#45;&gt;Node134427</title>
<path fill="none" stroke="#191970" d="M617.9407,-314.772C635.4611,-314.2289 655.2736,-314.1096 673.8009,-314.4141"/>
<polygon fill="#191970" stroke="#191970" points="617.7814,-311.2754 607.9169,-315.1408 618.0388,-318.2707 617.7814,-311.2754"/>
</g>
<!-- Node134441 -->
<g id="node21" class="node">
<title>Node134441</title>
<g id="a_node21"><a xlink:href="quickjs_8c.html#a75f6ee5e4235a7dc99889f3d2eb2c147" target="_top" xlink:title="JS_CallFree">
<polygon fill="none" stroke="#ff0000" points="705.5,-349.5 705.5,-368.5 776.5,-368.5 776.5,-349.5 705.5,-349.5"/>
<text text-anchor="middle" x="741" y="-356.5" font-family="Helvetica,sans-Serif" font-size="10.00" fill="#000000">JS_CallFree</text>
</a>
</g>
</g>
<!-- Node134338&#45;&gt;Node134441 -->
<g id="edge29" class="edge">
<title>Node134338&#45;&gt;Node134441</title>
<path fill="none" stroke="#191970" d="M618.0239,-326.0661C651.5453,-332.3088 693.4293,-341.9177 718.6528,-349.4592"/>
<polygon fill="#191970" stroke="#191970" points="618.3794,-322.5738 607.9169,-324.2428 617.1366,-329.4626 618.3794,-322.5738"/>
</g>
<!-- Node134340 -->
<g id="node14" class="node">
<title>Node134340</title>
<g id="a_node14"><a xlink:href="quickjs_8c.html#ac90552b1f1659acb3dae9a4c62479a30" target="_top" xlink:title="js_generator_function_call">
<polygon fill="none" stroke="#ff0000" points="845.5,-349.5 845.5,-368.5 975.5,-368.5 975.5,-349.5 845.5,-349.5"/>
<text text-anchor="middle" x="910.5" y="-356.5" font-family="Helvetica,sans-Serif" font-size="10.00" fill="#000000">js_generator_function_call</text>
</a>
</g>
</g>
<!-- Node134339&#45;&gt;Node134340 -->
<g id="edge18" class="edge">
<title>Node134339&#45;&gt;Node134340</title>
<path fill="none" stroke="#191970" d="M796.5347,-296.1505C800.5252,-297.875 804.3929,-299.8163 808,-302 827.9016,-314.0482 824.1103,-327.9321 844,-340 850.3645,-343.8616 857.5468,-346.9672 864.7774,-349.4564"/>
<polygon fill="#191970" stroke="#191970" points="797.6559,-292.8318 787.066,-292.5082 795.1427,-299.3651 797.6559,-292.8318"/>
</g>
<!-- Node134344 -->
<g id="node15" class="node">
<title>Node134344</title>
<g id="a_node15"><a xlink:href="quickjs_8c.html#a1bf6b62983e8fff99c0a5d5a9f486115" target="_top" xlink:title="js_async_function_resume">
<polygon fill="none" stroke="#ff0000" points="844,-212.5 844,-231.5 977,-231.5 977,-212.5 844,-212.5"/>
<text text-anchor="middle" x="910.5" y="-219.5" font-family="Helvetica,sans-Serif" font-size="10.00" fill="#000000">js_async_function_resume</text>
</a>
</g>
</g>
<!-- Node134339&#45;&gt;Node134344 -->
<g id="edge19" class="edge">
<title>Node134339&#45;&gt;Node134344</title>
<path fill="none" stroke="#191970" d="M772.6518,-269.5755C792.8903,-261.1977 819.7922,-250.4405 844,-242 854.587,-238.3086 866.2581,-234.6598 876.8284,-231.5098"/>
<polygon fill="#191970" stroke="#191970" points="771.1765,-266.3985 763.2928,-273.4765 773.8697,-272.8597 771.1765,-266.3985"/>
</g>
<!-- Node134347 -->
<g id="node16" class="node">
<title>Node134347</title>
<g id="a_node16"><a xlink:href="quickjs_8c.html#a89b019c704a2d2914bc30b30a72040b3" target="_top" xlink:title="js_async_generator\l_resume_next">
<polygon fill="none" stroke="#000000" points="860,-251 860,-281 961,-281 961,-251 860,-251"/>
<text text-anchor="start" x="868" y="-269" font-family="Helvetica,sans-Serif" font-size="10.00" fill="#000000">js_async_generator</text>
<text text-anchor="middle" x="910.5" y="-258" font-family="Helvetica,sans-Serif" font-size="10.00" fill="#000000">_resume_next</text>
</a>
</g>
</g>
<!-- Node134339&#45;&gt;Node134347 -->
<g id="edge20" class="edge">
<title>Node134339&#45;&gt;Node134347</title>
<path fill="none" stroke="#191970" d="M803.388,-276.7428C821.9885,-274.8773 842.1368,-272.8565 859.8866,-271.0763"/>
<polygon fill="#191970" stroke="#191970" points="802.8394,-273.2802 793.2387,-277.7607 803.538,-280.2452 802.8394,-273.2802"/>
</g>
<!-- Node134348 -->
<g id="node17" class="node">
<title>Node134348</title>
<g id="a_node17"><a xlink:href="quickjs_8c.html#ae19867da709929c072f05e90301835a4" target="_top" xlink:title="js_async_generator\l_function_call">
<polygon fill="none" stroke="#000000" points="860,-300 860,-330 961,-330 961,-300 860,-300"/>
<text text-anchor="start" x="868" y="-318" font-family="Helvetica,sans-Serif" font-size="10.00" fill="#000000">js_async_generator</text>
<text text-anchor="middle" x="910.5" y="-307" font-family="Helvetica,sans-Serif" font-size="10.00" fill="#000000">_function_call</text>
</a>
</g>
</g>
<!-- Node134339&#45;&gt;Node134348 -->
<g id="edge21" class="edge">
<title>Node134339&#45;&gt;Node134348</title>
<path fill="none" stroke="#191970" d="M801.4769,-294.4175C820.5408,-298.0166 841.3943,-301.9535 859.7117,-305.4116"/>
<polygon fill="#191970" stroke="#191970" points="801.8724,-290.9304 791.3967,-292.5144 800.5738,-297.8089 801.8724,-290.9304"/>
</g>
<!-- Node134348&#45;&gt;Node134335 -->
<g id="edge22" class="edge">
<title>Node134348&#45;&gt;Node134335</title>
<path fill="none" stroke="#191970" d="M971.4873,-315C985.0036,-315 999.3308,-315 1012.8534,-315"/>
<polygon fill="#191970" stroke="#191970" points="971.3362,-311.5001 961.3362,-315 971.3361,-318.5001 971.3362,-311.5001"/>
</g>
<!-- Node134349&#45;&gt;Node134338 -->
<g id="edge25" class="edge">
<title>Node134349&#45;&gt;Node134338</title>
<path fill="none" stroke="#191970" d="M723.4608,-248.8536C709.8601,-256.3757 690.5956,-264.9156 674,-273 647.8879,-285.7202 618.7935,-301.1502 597.3872,-311.3673"/>
<polygon fill="#191970" stroke="#191970" points="725.4742,-251.7272 732.244,-243.5773 721.8695,-245.7266 725.4742,-251.7272"/>
</g>
<!-- Node134349&#45;&gt;Node134344 -->
<g id="edge26" class="edge">
<title>Node134349&#45;&gt;Node134344</title>
<path fill="none" stroke="#191970" d="M776.9604,-231.4541C796.3923,-230.0784 821.0137,-228.3353 843.8075,-226.7216"/>
<polygon fill="#191970" stroke="#191970" points="776.4712,-227.9799 766.7434,-232.1775 776.9656,-234.9624 776.4712,-227.9799"/>
</g>
<!-- Node134350 -->
<g id="node19" class="node">
<title>Node134350</title>
<g id="a_node19"><a xlink:href="structqjs_1_1js__traits_3_01std_1_1function_3_01R_07Args_8_8_8_08_4_01_4.html#ac449e51d3fe10c6c115596fa6ec278ee" target="_top" xlink:title="qjs::js_traits\&lt; std\l::function\&lt; R(Args...)\l\&gt; \&gt;::unwrap">
<polygon fill="none" stroke="#000000" points="856,-152.5 856,-193.5 965,-193.5 965,-152.5 856,-152.5"/>
<text text-anchor="start" x="864" y="-181.5" font-family="Helvetica,sans-Serif" font-size="10.00" fill="#000000">qjs::js_traits&lt; std</text>
<text text-anchor="start" x="864" y="-170.5" font-family="Helvetica,sans-Serif" font-size="10.00" fill="#000000">::function&lt; R(Args...)</text>
<text text-anchor="middle" x="910.5" y="-159.5" font-family="Helvetica,sans-Serif" font-size="10.00" fill="#000000">&gt; &gt;::unwrap</text>
</a>
</g>
</g>
<!-- Node134349&#45;&gt;Node134350 -->
<g id="edge24" class="edge">
<title>Node134349&#45;&gt;Node134350</title>
<path fill="none" stroke="#191970" d="M776.4025,-221.2593C799.3408,-213.0042 829.6805,-202.0855 855.6986,-192.722"/>
<polygon fill="#191970" stroke="#191970" points="774.9674,-218.0559 766.7434,-224.7354 777.3378,-224.6424 774.9674,-218.0559"/>
</g>
<!-- Node134427&#45;&gt;Node134338 -->
<g id="edge28" class="edge">
<title>Node134427&#45;&gt;Node134338</title>
<path fill="none" stroke="#191970" d="M663.5651,-327.7101C644.4236,-327.8623 624.6309,-327.5787 607.9169,-326.8592"/>
<polygon fill="#191970" stroke="#191970" points="663.8441,-331.2071 673.8009,-327.5859 663.7591,-324.2076 663.8441,-331.2071"/>
</g>
<!-- Node134441&#45;&gt;Node134338 -->
<g id="edge30" class="edge">
<title>Node134441&#45;&gt;Node134338</title>
<path fill="none" stroke="#191970" d="M694.9582,-355.028C660.6535,-348.8738 615.291,-338.5826 588.5199,-330.5924"/>
<polygon fill="#191970" stroke="#191970" points="694.7672,-358.5467 705.2167,-356.798 695.9574,-351.6486 694.7672,-358.5467"/>
</g>
<!-- Node134487 -->
<g id="node22" class="node">
<title>Node134487</title>
<g id="a_node22"><a xlink:href="quickjs_8c.html#a5d217acce00892ab2b50a1dcc1eb4cc8" target="_top" xlink:title="JS_EvalFunctionInternal">
<polygon fill="none" stroke="#ff0000" points="849,-425.5 849,-444.5 972,-444.5 972,-425.5 849,-425.5"/>
<text text-anchor="middle" x="910.5" y="-432.5" font-family="Helvetica,sans-Serif" font-size="10.00" fill="#000000">JS_EvalFunctionInternal</text>
</a>
</g>
</g>
<!-- Node134441&#45;&gt;Node134487 -->
<g id="edge31" class="edge">
<title>Node134441&#45;&gt;Node134487</title>
<path fill="none" stroke="#191970" d="M764.4186,-373.9799C784.8129,-386.526 815.4994,-404.2222 844,-416 852.6556,-419.5769 862.2102,-422.738 871.3124,-425.4046"/>
<polygon fill="#191970" stroke="#191970" points="766.1551,-370.938 755.8174,-368.6177 762.4517,-376.8782 766.1551,-370.938"/>
</g>
<!-- Node134462 -->
<g id="node23" class="node">
<title>Node134462</title>
<g id="a_node23"><a xlink:href="quickjs_8c.html#ab737681b4f1a426c560df37c1304c9d6" target="_top" xlink:title="JS_RegExpExec">
<polygon fill="none" stroke="#ff0000" points="864.5,-387.5 864.5,-406.5 956.5,-406.5 956.5,-387.5 864.5,-387.5"/>
<text text-anchor="middle" x="910.5" y="-394.5" font-family="Helvetica,sans-Serif" font-size="10.00" fill="#000000">JS_RegExpExec</text>
</a>
</g>
</g>
<!-- Node134441&#45;&gt;Node134462 -->
<g id="edge32" class="edge">
<title>Node134441&#45;&gt;Node134462</title>
<path fill="none" stroke="#191970" d="M786.2992,-369.1556C811.7064,-374.8516 843.2026,-381.9127 868.12,-387.4989"/>
<polygon fill="#191970" stroke="#191970" points="787.0562,-365.7385 776.5328,-366.966 785.5249,-372.5689 787.0562,-365.7385"/>
</g>
<!-- Node134486&#45;&gt;Node134338 -->
<g id="edge35" class="edge">
<title>Node134486&#45;&gt;Node134338</title>
<path fill="none" stroke="#191970" d="M428.7518,-427.3162C438.6572,-424.54 448.9974,-420.85 458,-416 500.8694,-392.9048 541.0932,-349.8732 557.8283,-330.6773"/>
<polygon fill="#191970" stroke="#191970" points="427.8771,-423.9272 419.0569,-429.797 429.6124,-430.7087 427.8771,-423.9272"/>
</g>
<!-- Node134486&#45;&gt;Node134487 -->
<g id="edge36" class="edge">
<title>Node134486&#45;&gt;Node134487</title>
<path fill="none" stroke="#191970" d="M429.4047,-435C520.5087,-435 740.5755,-435 848.5931,-435"/>
<polygon fill="#191970" stroke="#191970" points="429.2047,-431.5001 419.2047,-435 429.2046,-438.5001 429.2047,-431.5001"/>
</g>
<!-- Node134559 -->
<g id="node26" class="node">
<title>Node134559</title>
<g id="a_node26"><a xlink:href="quickjs-libc_8c.html#a5cc3e22713f1916d49867f60a7375505" target="_top" xlink:title="js_module_set_import_meta">
<polygon fill="none" stroke="#ff0000" points="319,-273.5 319,-292.5 458,-292.5 458,-273.5 319,-273.5"/>
<text text-anchor="middle" x="388.5" y="-280.5" font-family="Helvetica,sans-Serif" font-size="10.00" fill="#000000">js_module_set_import_meta</text>
</a>
</g>
</g>
<!-- Node134929&#45;&gt;Node134559 -->
<g id="edge38" class="edge">
<title>Node134929&#45;&gt;Node134559</title>
<path fill="none" stroke="#191970" d="M266.933,-309.2474C291.8194,-303.8742 320.9188,-297.5914 344.4071,-292.5201"/>
<polygon fill="#191970" stroke="#191970" points="265.9483,-305.8793 256.9122,-311.411 267.4257,-312.7216 265.9483,-305.8793"/>
</g>
<!-- Node134930 -->
<g id="node27" class="node">
<title>Node134930</title>
<g id="a_node27"><a xlink:href="quickjs_8c.html#a2c15f4e9fa1344bb2d7caca8e21b34f4" target="_top" xlink:title="js_import_meta">
<polygon fill="none" stroke="#000000" points="347,-311.5 347,-330.5 430,-330.5 430,-311.5 347,-311.5"/>
<text text-anchor="middle" x="388.5" y="-318.5" font-family="Helvetica,sans-Serif" font-size="10.00" fill="#000000">js_import_meta</text>
</a>
</g>
</g>
<!-- Node134929&#45;&gt;Node134930 -->
<g id="edge39" class="edge">
<title>Node134929&#45;&gt;Node134930</title>
<path fill="none" stroke="#191970" d="M272.6932,-321C297.074,-321 324.6285,-321 346.7417,-321"/>
<polygon fill="#191970" stroke="#191970" points="272.4638,-317.5001 262.4638,-321 272.4637,-324.5001 272.4638,-317.5001"/>
</g>
<!-- Node134930&#45;&gt;Node134338 -->
<g id="edge40" class="edge">
<title>Node134930&#45;&gt;Node134338</title>
<path fill="none" stroke="#191970" d="M440.4386,-321C467.1513,-321 499.2715,-321 524.3377,-321"/>
<polygon fill="#191970" stroke="#191970" points="440.1159,-317.5001 430.1159,-321 440.1158,-324.5001 440.1159,-317.5001"/>
</g>
<!-- Node134564&#45;&gt;Node134338 -->
<g id="edge43" class="edge">
<title>Node134564&#45;&gt;Node134338</title>
<path fill="none" stroke="#191970" d="M443.4058,-347.2455C469.4796,-341.6635 500.1373,-335.1002 524.272,-329.9333"/>
<polygon fill="#191970" stroke="#191970" points="442.3365,-343.8951 433.2907,-349.411 443.8019,-350.74 442.3365,-343.8951"/>
</g>
<!-- Node134461&#45;&gt;Node134462 -->
<g id="edge45" class="edge">
<title>Node134461&#45;&gt;Node134462</title>
<path fill="none" stroke="#191970" d="M441.3201,-397C543.6409,-397 767.3136,-397 864.2118,-397"/>
<polygon fill="#191970" stroke="#191970" points="441.2175,-393.5001 431.2175,-397 441.2174,-400.5001 441.2175,-393.5001"/>
</g>
</g>
</svg>
        <g id="navigator" transform="translate(0 0)" fill="#404254">
                <rect fill="#f2f5e9" fill-opacity="0.5" stroke="#606060" stroke-width=".5" x="0" y="0" width="60" height="60"/>
                <use id="zoomplus" xlink:href="#zoomPlus" x="17" y="9" onmousedown="handleZoom(evt,'in')"/>
                <use id="zoomminus" xlink:href="#zoomMin" x="42" y="9" onmousedown="handleZoom(evt,'out')"/>
                <use id="reset" xlink:href="#resetDef" x="30" y="36" onmousedown="handleReset()"/>
                <g id="arrowUp" xlink:href="#dirArrow" transform="translate(30 24)" onmousedown="handlePan(0,-1)">
                  <use xlink:href="#rim" fill="#404040">
                        <set attributeName="fill" to="#808080" begin="arrowUp.mouseover" end="arrowUp.mouseout"/>
                  </use>
                  <path fill="none" stroke="white" stroke-width="1.5" d="M0,-3.0v7 M-2.5,-0.5L0,-3.0L2.5,-0.5"/>
                </g>
                <g id="arrowRight" xlink:href="#dirArrow" transform="rotate(90) translate(36 -43)" onmousedown="handlePan(1,0)">
                  <use xlink:href="#rim" fill="#404040">
                        <set attributeName="fill" to="#808080" begin="arrowRight.mouseover" end="arrowRight.mouseout"/>
                  </use>
                  <path fill="none" stroke="white" stroke-width="1.5" d="M0,-3.0v7 M-2.5,-0.5L0,-3.0L2.5,-0.5"/>
                </g>
                <g id="arrowDown" xlink:href="#dirArrow" transform="rotate(180) translate(-30 -48)" onmousedown="handlePan(0,1)">
                  <use xlink:href="#rim" fill="#404040">
                        <set attributeName="fill" to="#808080" begin="arrowDown.mouseover" end="arrowDown.mouseout"/>
                  </use>
                  <path fill="none" stroke="white" stroke-width="1.5" d="M0,-3.0v7 M-2.5,-0.5L0,-3.0L2.5,-0.5"/>
                </g>
                <g id="arrowLeft" xlink:href="#dirArrow" transform="rotate(270) translate(-36 17)" onmousedown="handlePan(-1,0)">
                  <use xlink:href="#rim" fill="#404040">
                        <set attributeName="fill" to="#808080" begin="arrowLeft.mouseover" end="arrowLeft.mouseout"/>
                  </use>
                  <path fill="none" stroke="white" stroke-width="1.5" d="M0,-3.0v7 M-2.5,-0.5L0,-3.0L2.5,-0.5"/>
                </g>
        </g>
        <svg viewBox="0 0 15 15" width="100%" height="30px" preserveAspectRatio="xMaxYMin meet">
         <g id="arrow_out" transform="scale(0.3 0.3)">
          <a xlink:href="quickjs_8c_a884d294acbf5be675ffc760e38bd0521_icgraph_org.svg" target="_base">
           <rect id="button" ry="5" rx="5" y="6" x="6" height="38" width="38"
                fill="#f2f5e9" fill-opacity="0.5" stroke="#606060" stroke-width="1.0"/>
           <path id="arrow"
             d="M 11.500037,31.436501 C 11.940474,20.09759 22.043105,11.32322 32.158766,21.979434 L 37.068811,17.246167 C 37.068811,17.246167 37.088388,32 37.088388,32 L 22.160133,31.978069 C 22.160133,31.978069 26.997745,27.140456 26.997745,27.140456 C 18.528582,18.264221 13.291696,25.230495 11.500037,31.436501 z"
             style="fill:#404040;"/>
          </a>
         </g>
        </svg>
</svg>
