<?xml version="1.0" encoding="UTF-8" standalone="no"?>
<!DOCTYPE svg PUBLIC "-//W3C//DTD SVG 1.1//EN"
 "http://www.w3.org/Graphics/SVG/1.1/DTD/svg11.dtd">
<!-- Generated by graphviz version 2.40.1 (20161225.0304)
 -->
<!-- Title: JS_AddIntrinsicMapSet Pages: 1 -->
<svg width="544pt" height="66pt"
 viewBox="0.00 0.00 544.00 66.00" xmlns="http://www.w3.org/2000/svg" xmlns:xlink="http://www.w3.org/1999/xlink">
<g id="graph0" class="graph" transform="scale(1 1) rotate(0) translate(4 62)">
<title>JS_AddIntrinsicMapSet</title>
<!-- Node10148 -->
<g id="node1" class="node">
<title>Node10148</title>
<polygon fill="#bfbfbf" stroke="#000000" points="0,-19.5 0,-38.5 119,-38.5 119,-19.5 0,-19.5"/>
<text text-anchor="middle" x="59.5" y="-26.5" font-family="Helvetica,sans-Serif" font-size="10.00" fill="#000000">JS_AddIntrinsicMapSet</text>
</g>
<!-- Node10149 -->
<g id="node2" class="node">
<title>Node10149</title>
<g id="a_node2"><a xlink:href="quickjs_8c.html#ad8aedb643b8753b7a15f6cb2df61945e" target="_top" xlink:title="JS_NewContext">
<polygon fill="none" stroke="#000000" points="155,-19.5 155,-38.5 244,-38.5 244,-19.5 155,-19.5"/>
<text text-anchor="middle" x="199.5" y="-26.5" font-family="Helvetica,sans-Serif" font-size="10.00" fill="#000000">JS_NewContext</text>
</a>
</g>
</g>
<!-- Node10148&#45;&gt;Node10149 -->
<g id="edge1" class="edge">
<title>Node10148&#45;&gt;Node10149</title>
<path fill="none" stroke="#191970" d="M129.3758,-29C138.0049,-29 146.6364,-29 154.7459,-29"/>
<polygon fill="#191970" stroke="#191970" points="129.2787,-25.5001 119.2787,-29 129.2787,-32.5001 129.2787,-25.5001"/>
</g>
<!-- Node10150 -->
<g id="node3" class="node">
<title>Node10150</title>
<g id="a_node3"><a xlink:href="classqjs_1_1Context.html#a4392a23648acfc4bf6b445336efb5007" target="_top" xlink:title="qjs::Context::Context">
<polygon fill="none" stroke="#000000" points="280,-38.5 280,-57.5 390,-57.5 390,-38.5 280,-38.5"/>
<text text-anchor="middle" x="335" y="-45.5" font-family="Helvetica,sans-Serif" font-size="10.00" fill="#000000">qjs::Context::Context</text>
</a>
</g>
</g>
<!-- Node10149&#45;&gt;Node10150 -->
<g id="edge2" class="edge">
<title>Node10149&#45;&gt;Node10150</title>
<path fill="none" stroke="#191970" d="M254.3476,-36.6908C262.7739,-37.8724 271.4767,-39.0927 279.9083,-40.275"/>
<polygon fill="#191970" stroke="#191970" points="254.6325,-33.1966 244.2433,-35.274 253.6604,-40.1288 254.6325,-33.1966"/>
</g>
<!-- Node10153 -->
<g id="node5" class="node">
<title>Node10153</title>
<g id="a_node5"><a xlink:href="quickjs-libc_8c.html#a1fbb3adc15e7b967479fc1940e99b67a" target="_top" xlink:title="worker_func">
<polygon fill="none" stroke="#000000" points="300,-.5 300,-19.5 370,-19.5 370,-.5 300,-.5"/>
<text text-anchor="middle" x="335" y="-7.5" font-family="Helvetica,sans-Serif" font-size="10.00" fill="#000000">worker_func</text>
</a>
</g>
</g>
<!-- Node10149&#45;&gt;Node10153 -->
<g id="edge4" class="edge">
<title>Node10149&#45;&gt;Node10153</title>
<path fill="none" stroke="#191970" d="M254.1712,-21.3339C269.5364,-19.1794 285.8347,-16.894 299.7403,-14.9442"/>
<polygon fill="#191970" stroke="#191970" points="253.6604,-17.8712 244.2433,-22.726 254.6325,-24.8034 253.6604,-17.8712"/>
</g>
<!-- Node10151 -->
<g id="node4" class="node">
<title>Node10151</title>
<g id="a_node4"><a xlink:href="classqjs_1_1Context.html#af725fb8083d8c33a37198d6acaf1a836" target="_top" xlink:title="qjs::Context::Context">
<polygon fill="none" stroke="#ff0000" points="426,-38.5 426,-57.5 536,-57.5 536,-38.5 426,-38.5"/>
<text text-anchor="middle" x="481" y="-45.5" font-family="Helvetica,sans-Serif" font-size="10.00" fill="#000000">qjs::Context::Context</text>
</a>
</g>
</g>
<!-- Node10150&#45;&gt;Node10151 -->
<g id="edge3" class="edge">
<title>Node10150&#45;&gt;Node10151</title>
<path fill="none" stroke="#191970" d="M400.4101,-48C408.8647,-48 417.4567,-48 425.7256,-48"/>
<polygon fill="#191970" stroke="#191970" points="400.1964,-44.5001 390.1963,-48 400.1963,-51.5001 400.1964,-44.5001"/>
</g>
<!-- Node10154 -->
<g id="node6" class="node">
<title>Node10154</title>
<g id="a_node6"><a xlink:href="quickjs-libc_8c.html#aff1e6131e8bf8b7eb25307623ad669e7" target="_top" xlink:title="js_worker_ctor">
<polygon fill="none" stroke="#ff0000" points="441,-.5 441,-19.5 521,-19.5 521,-.5 441,-.5"/>
<text text-anchor="middle" x="481" y="-7.5" font-family="Helvetica,sans-Serif" font-size="10.00" fill="#000000">js_worker_ctor</text>
</a>
</g>
</g>
<!-- Node10153&#45;&gt;Node10154 -->
<g id="edge5" class="edge">
<title>Node10153&#45;&gt;Node10154</title>
<path fill="none" stroke="#191970" d="M380.4324,-10C399.761,-10 422.112,-10 440.8272,-10"/>
<polygon fill="#191970" stroke="#191970" points="380.3426,-6.5001 370.3425,-10 380.3425,-13.5001 380.3426,-6.5001"/>
</g>
</g>
</svg>
