<?xml version="1.0" encoding="UTF-8" standalone="no"?>
<!DOCTYPE svg PUBLIC "-//W3C//DTD SVG 1.1//EN"
 "http://www.w3.org/Graphics/SVG/1.1/DTD/svg11.dtd">
<!-- Generated by graphviz version 2.40.1 (20161225.0304)
 -->
<!-- Title: JS_AddIntrinsicBasicObjects Pages: 1 -->
<svg width="568pt" height="66pt"
 viewBox="0.00 0.00 568.00 66.00" xmlns="http://www.w3.org/2000/svg" xmlns:xlink="http://www.w3.org/1999/xlink">
<g id="graph0" class="graph" transform="scale(1 1) rotate(0) translate(4 62)">
<title>JS_AddIntrinsicBasicObjects</title>
<!-- Node39594 -->
<g id="node1" class="node">
<title>Node39594</title>
<polygon fill="#bfbfbf" stroke="#000000" points="0,-19.5 0,-38.5 144,-38.5 144,-19.5 0,-19.5"/>
<text text-anchor="middle" x="72" y="-26.5" font-family="Helvetica,sans-Serif" font-size="10.00" fill="#000000">JS_AddIntrinsicBasicObjects</text>
</g>
<!-- Node39595 -->
<g id="node2" class="node">
<title>Node39595</title>
<g id="a_node2"><a xlink:href="quickjs_8c.html#a442ff496ba00319ad39eb0a129b9eb8b" target="_top" xlink:title="JS_NewContextRaw">
<polygon fill="none" stroke="#000000" points="180,-19.5 180,-38.5 289,-38.5 289,-19.5 180,-19.5"/>
<text text-anchor="middle" x="234.5" y="-26.5" font-family="Helvetica,sans-Serif" font-size="10.00" fill="#000000">JS_NewContextRaw</text>
</a>
</g>
</g>
<!-- Node39594&#45;&gt;Node39595 -->
<g id="edge1" class="edge">
<title>Node39594&#45;&gt;Node39595</title>
<path fill="none" stroke="#191970" d="M154.2729,-29C162.849,-29 171.41,-29 179.5734,-29"/>
<polygon fill="#191970" stroke="#191970" points="154.2212,-25.5001 144.2212,-29 154.2212,-32.5001 154.2212,-25.5001"/>
</g>
<!-- Node39596 -->
<g id="node3" class="node">
<title>Node39596</title>
<g id="a_node3"><a xlink:href="quickjs_8c.html#ad8aedb643b8753b7a15f6cb2df61945e" target="_top" xlink:title="JS_NewContext">
<polygon fill="none" stroke="#000000" points="325,-19.5 325,-38.5 414,-38.5 414,-19.5 325,-19.5"/>
<text text-anchor="middle" x="369.5" y="-26.5" font-family="Helvetica,sans-Serif" font-size="10.00" fill="#000000">JS_NewContext</text>
</a>
</g>
</g>
<!-- Node39595&#45;&gt;Node39596 -->
<g id="edge2" class="edge">
<title>Node39595&#45;&gt;Node39596</title>
<path fill="none" stroke="#191970" d="M299.1206,-29C307.7784,-29 316.4993,-29 324.7125,-29"/>
<polygon fill="#191970" stroke="#191970" points="299.0206,-25.5001 289.0205,-29 299.0205,-32.5001 299.0206,-25.5001"/>
</g>
<!-- Node39597 -->
<g id="node4" class="node">
<title>Node39597</title>
<g id="a_node4"><a xlink:href="classqjs_1_1Context.html#a4392a23648acfc4bf6b445336efb5007" target="_top" xlink:title="qjs::Context::Context">
<polygon fill="none" stroke="#ff0000" points="450,-38.5 450,-57.5 560,-57.5 560,-38.5 450,-38.5"/>
<text text-anchor="middle" x="505" y="-45.5" font-family="Helvetica,sans-Serif" font-size="10.00" fill="#000000">qjs::Context::Context</text>
</a>
</g>
</g>
<!-- Node39596&#45;&gt;Node39597 -->
<g id="edge3" class="edge">
<title>Node39596&#45;&gt;Node39597</title>
<path fill="none" stroke="#191970" d="M424.3476,-36.6908C432.7739,-37.8724 441.4767,-39.0927 449.9083,-40.275"/>
<polygon fill="#191970" stroke="#191970" points="424.6325,-33.1966 414.2433,-35.274 423.6604,-40.1288 424.6325,-33.1966"/>
</g>
<!-- Node39600 -->
<g id="node5" class="node">
<title>Node39600</title>
<g id="a_node5"><a xlink:href="quickjs-libc_8c.html#a1fbb3adc15e7b967479fc1940e99b67a" target="_top" xlink:title="worker_func">
<polygon fill="none" stroke="#ff0000" points="470,-.5 470,-19.5 540,-19.5 540,-.5 470,-.5"/>
<text text-anchor="middle" x="505" y="-7.5" font-family="Helvetica,sans-Serif" font-size="10.00" fill="#000000">worker_func</text>
</a>
</g>
</g>
<!-- Node39596&#45;&gt;Node39600 -->
<g id="edge4" class="edge">
<title>Node39596&#45;&gt;Node39600</title>
<path fill="none" stroke="#191970" d="M424.1712,-21.3339C439.5364,-19.1794 455.8347,-16.894 469.7403,-14.9442"/>
<polygon fill="#191970" stroke="#191970" points="423.6604,-17.8712 414.2433,-22.726 424.6325,-24.8034 423.6604,-17.8712"/>
</g>
</g>
</svg>
