<?xml version="1.0" encoding="UTF-8" standalone="no"?>
<!DOCTYPE svg PUBLIC "-//W3C//DTD SVG 1.1//EN"
 "http://www.w3.org/Graphics/SVG/1.1/DTD/svg11.dtd">
<!-- Generated by graphviz version 2.40.1 (20161225.0304)
 -->
<!-- Title: __JS_EvalInternal Pages: 1 -->
<svg width="516pt" height="66pt"
 viewBox="0.00 0.00 516.00 66.00" xmlns="http://www.w3.org/2000/svg" xmlns:xlink="http://www.w3.org/1999/xlink">
<g id="graph0" class="graph" transform="scale(1 1) rotate(0) translate(4 62)">
<title>__JS_EvalInternal</title>
<!-- Node355151 -->
<g id="node1" class="node">
<title>Node355151</title>
<polygon fill="#bfbfbf" stroke="#000000" points="0,-19.5 0,-38.5 96,-38.5 96,-19.5 0,-19.5"/>
<text text-anchor="middle" x="48" y="-26.5" font-family="Helvetica,sans-Serif" font-size="10.00" fill="#000000">__JS_EvalInternal</text>
</g>
<!-- Node355152 -->
<g id="node2" class="node">
<title>Node355152</title>
<g id="a_node2"><a xlink:href="quickjs_8c.html#acbcccb7ec58fd4a024ea1d01e5d04561" target="_top" xlink:title="JS_AddIntrinsicEval">
<polygon fill="none" stroke="#000000" points="132,-19.5 132,-38.5 237,-38.5 237,-19.5 132,-19.5"/>
<text text-anchor="middle" x="184.5" y="-26.5" font-family="Helvetica,sans-Serif" font-size="10.00" fill="#000000">JS_AddIntrinsicEval</text>
</a>
</g>
</g>
<!-- Node355151&#45;&gt;Node355152 -->
<g id="edge1" class="edge">
<title>Node355151&#45;&gt;Node355152</title>
<path fill="none" stroke="#191970" d="M106.2837,-29C114.726,-29 123.3763,-29 131.7026,-29"/>
<polygon fill="#191970" stroke="#191970" points="106.1248,-25.5001 96.1248,-29 106.1248,-32.5001 106.1248,-25.5001"/>
</g>
<!-- Node355153 -->
<g id="node3" class="node">
<title>Node355153</title>
<g id="a_node3"><a xlink:href="quickjs_8c.html#ad8aedb643b8753b7a15f6cb2df61945e" target="_top" xlink:title="JS_NewContext">
<polygon fill="none" stroke="#000000" points="273,-19.5 273,-38.5 362,-38.5 362,-19.5 273,-19.5"/>
<text text-anchor="middle" x="317.5" y="-26.5" font-family="Helvetica,sans-Serif" font-size="10.00" fill="#000000">JS_NewContext</text>
</a>
</g>
</g>
<!-- Node355152&#45;&gt;Node355153 -->
<g id="edge2" class="edge">
<title>Node355152&#45;&gt;Node355153</title>
<path fill="none" stroke="#191970" d="M247.0996,-29C255.7114,-29 264.4107,-29 272.6171,-29"/>
<polygon fill="#191970" stroke="#191970" points="247.0652,-25.5001 237.0651,-29 247.0651,-32.5001 247.0652,-25.5001"/>
</g>
<!-- Node355154 -->
<g id="node4" class="node">
<title>Node355154</title>
<g id="a_node4"><a xlink:href="classqjs_1_1Context.html#a4392a23648acfc4bf6b445336efb5007" target="_top" xlink:title="qjs::Context::Context">
<polygon fill="none" stroke="#ff0000" points="398,-38.5 398,-57.5 508,-57.5 508,-38.5 398,-38.5"/>
<text text-anchor="middle" x="453" y="-45.5" font-family="Helvetica,sans-Serif" font-size="10.00" fill="#000000">qjs::Context::Context</text>
</a>
</g>
</g>
<!-- Node355153&#45;&gt;Node355154 -->
<g id="edge3" class="edge">
<title>Node355153&#45;&gt;Node355154</title>
<path fill="none" stroke="#191970" d="M372.3476,-36.6908C380.7739,-37.8724 389.4767,-39.0927 397.9083,-40.275"/>
<polygon fill="#191970" stroke="#191970" points="372.6325,-33.1966 362.2433,-35.274 371.6604,-40.1288 372.6325,-33.1966"/>
</g>
<!-- Node355157 -->
<g id="node5" class="node">
<title>Node355157</title>
<g id="a_node5"><a xlink:href="quickjs-libc_8c.html#a1fbb3adc15e7b967479fc1940e99b67a" target="_top" xlink:title="worker_func">
<polygon fill="none" stroke="#ff0000" points="418,-.5 418,-19.5 488,-19.5 488,-.5 418,-.5"/>
<text text-anchor="middle" x="453" y="-7.5" font-family="Helvetica,sans-Serif" font-size="10.00" fill="#000000">worker_func</text>
</a>
</g>
</g>
<!-- Node355153&#45;&gt;Node355157 -->
<g id="edge4" class="edge">
<title>Node355153&#45;&gt;Node355157</title>
<path fill="none" stroke="#191970" d="M372.1712,-21.3339C387.5364,-19.1794 403.8347,-16.894 417.7403,-14.9442"/>
<polygon fill="#191970" stroke="#191970" points="371.6604,-17.8712 362.2433,-22.726 372.6325,-24.8034 371.6604,-17.8712"/>
</g>
</g>
</svg>
