<?xml version="1.0" encoding="UTF-8" standalone="no"?>
<!DOCTYPE svg PUBLIC "-//W3C//DTD SVG 1.1//EN"
 "http://www.w3.org/Graphics/SVG/1.1/DTD/svg11.dtd">
<!-- Generated by graphviz version 2.40.1 (20161225.0304)
 -->
<!-- Title: js_function_proto_caller Pages: 1 -->
<svg width="576pt" height="66pt"
 viewBox="0.00 0.00 576.00 66.00" xmlns="http://www.w3.org/2000/svg" xmlns:xlink="http://www.w3.org/1999/xlink">
<g id="graph0" class="graph" transform="scale(1 1) rotate(0) translate(4 62)">
<title>js_function_proto_caller</title>
<!-- Node270496 -->
<g id="node1" class="node">
<title>Node270496</title>
<polygon fill="#bfbfbf" stroke="#000000" points="0,-19.5 0,-38.5 119,-38.5 119,-19.5 0,-19.5"/>
<text text-anchor="middle" x="59.5" y="-26.5" font-family="Helvetica,sans-Serif" font-size="10.00" fill="#000000">js_function_proto_caller</text>
</g>
<!-- Node270497 -->
<g id="node2" class="node">
<title>Node270497</title>
<g id="a_node2"><a xlink:href="quickjs_8c.html#a4c9489297c684663f30e517204a9ec14" target="_top" xlink:title="JS_AddIntrinsicBaseObjects">
<polygon fill="none" stroke="#000000" points="155,-19.5 155,-38.5 297,-38.5 297,-19.5 155,-19.5"/>
<text text-anchor="middle" x="226" y="-26.5" font-family="Helvetica,sans-Serif" font-size="10.00" fill="#000000">JS_AddIntrinsicBaseObjects</text>
</a>
</g>
</g>
<!-- Node270496&#45;&gt;Node270497 -->
<g id="edge1" class="edge">
<title>Node270496&#45;&gt;Node270497</title>
<path fill="none" stroke="#191970" d="M129.316,-29C137.7553,-29 146.3836,-29 154.8419,-29"/>
<polygon fill="#191970" stroke="#191970" points="129.1401,-25.5001 119.14,-29 129.14,-32.5001 129.1401,-25.5001"/>
</g>
<!-- Node270498 -->
<g id="node3" class="node">
<title>Node270498</title>
<g id="a_node3"><a xlink:href="quickjs_8c.html#ad8aedb643b8753b7a15f6cb2df61945e" target="_top" xlink:title="JS_NewContext">
<polygon fill="none" stroke="#000000" points="333,-19.5 333,-38.5 422,-38.5 422,-19.5 333,-19.5"/>
<text text-anchor="middle" x="377.5" y="-26.5" font-family="Helvetica,sans-Serif" font-size="10.00" fill="#000000">JS_NewContext</text>
</a>
</g>
</g>
<!-- Node270497&#45;&gt;Node270498 -->
<g id="edge2" class="edge">
<title>Node270497&#45;&gt;Node270498</title>
<path fill="none" stroke="#191970" d="M307.5534,-29C316.2595,-29 324.8628,-29 332.8995,-29"/>
<polygon fill="#191970" stroke="#191970" points="307.3138,-25.5001 297.3138,-29 307.3137,-32.5001 307.3138,-25.5001"/>
</g>
<!-- Node270499 -->
<g id="node4" class="node">
<title>Node270499</title>
<g id="a_node4"><a xlink:href="classqjs_1_1Context.html#a4392a23648acfc4bf6b445336efb5007" target="_top" xlink:title="qjs::Context::Context">
<polygon fill="none" stroke="#ff0000" points="458,-38.5 458,-57.5 568,-57.5 568,-38.5 458,-38.5"/>
<text text-anchor="middle" x="513" y="-45.5" font-family="Helvetica,sans-Serif" font-size="10.00" fill="#000000">qjs::Context::Context</text>
</a>
</g>
</g>
<!-- Node270498&#45;&gt;Node270499 -->
<g id="edge3" class="edge">
<title>Node270498&#45;&gt;Node270499</title>
<path fill="none" stroke="#191970" d="M432.3476,-36.6908C440.7739,-37.8724 449.4767,-39.0927 457.9083,-40.275"/>
<polygon fill="#191970" stroke="#191970" points="432.6325,-33.1966 422.2433,-35.274 431.6604,-40.1288 432.6325,-33.1966"/>
</g>
<!-- Node270502 -->
<g id="node5" class="node">
<title>Node270502</title>
<g id="a_node5"><a xlink:href="quickjs-libc_8c.html#a1fbb3adc15e7b967479fc1940e99b67a" target="_top" xlink:title="worker_func">
<polygon fill="none" stroke="#ff0000" points="478,-.5 478,-19.5 548,-19.5 548,-.5 478,-.5"/>
<text text-anchor="middle" x="513" y="-7.5" font-family="Helvetica,sans-Serif" font-size="10.00" fill="#000000">worker_func</text>
</a>
</g>
</g>
<!-- Node270498&#45;&gt;Node270502 -->
<g id="edge4" class="edge">
<title>Node270498&#45;&gt;Node270502</title>
<path fill="none" stroke="#191970" d="M432.1712,-21.3339C447.5364,-19.1794 463.8347,-16.894 477.7403,-14.9442"/>
<polygon fill="#191970" stroke="#191970" points="431.6604,-17.8712 422.2433,-22.726 432.6325,-24.8034 431.6604,-17.8712"/>
</g>
</g>
</svg>
