<?xml version="1.0" encoding="UTF-8" standalone="no"?>
<!DOCTYPE svg PUBLIC "-//W3C//DTD SVG 1.1//EN"
 "http://www.w3.org/Graphics/SVG/1.1/DTD/svg11.dtd">
<!-- Generated by graphviz version 2.40.1 (20161225.0304)
 -->
<!-- Title: js_object_seal Pages: 1 -->
<svg width="536pt" height="66pt"
 viewBox="0.00 0.00 536.00 66.00" xmlns="http://www.w3.org/2000/svg" xmlns:xlink="http://www.w3.org/1999/xlink">
<g id="graph0" class="graph" transform="scale(1 1) rotate(0) translate(4 62)">
<title>js_object_seal</title>
<!-- Node380994 -->
<g id="node1" class="node">
<title>Node380994</title>
<polygon fill="#bfbfbf" stroke="#000000" points="0,-19.5 0,-38.5 79,-38.5 79,-19.5 0,-19.5"/>
<text text-anchor="middle" x="39.5" y="-26.5" font-family="Helvetica,sans-Serif" font-size="10.00" fill="#000000">js_object_seal</text>
</g>
<!-- Node380995 -->
<g id="node2" class="node">
<title>Node380995</title>
<g id="a_node2"><a xlink:href="quickjs_8c.html#a4c9489297c684663f30e517204a9ec14" target="_top" xlink:title="JS_AddIntrinsicBaseObjects">
<polygon fill="none" stroke="#000000" points="115,-19.5 115,-38.5 257,-38.5 257,-19.5 115,-19.5"/>
<text text-anchor="middle" x="186" y="-26.5" font-family="Helvetica,sans-Serif" font-size="10.00" fill="#000000">JS_AddIntrinsicBaseObjects</text>
</a>
</g>
</g>
<!-- Node380994&#45;&gt;Node380995 -->
<g id="edge1" class="edge">
<title>Node380994&#45;&gt;Node380995</title>
<path fill="none" stroke="#191970" d="M89.3427,-29C97.6101,-29 106.3221,-29 114.9921,-29"/>
<polygon fill="#191970" stroke="#191970" points="89.145,-25.5001 79.145,-29 89.145,-32.5001 89.145,-25.5001"/>
</g>
<!-- Node380996 -->
<g id="node3" class="node">
<title>Node380996</title>
<g id="a_node3"><a xlink:href="quickjs_8c.html#ad8aedb643b8753b7a15f6cb2df61945e" target="_top" xlink:title="JS_NewContext">
<polygon fill="none" stroke="#000000" points="293,-19.5 293,-38.5 382,-38.5 382,-19.5 293,-19.5"/>
<text text-anchor="middle" x="337.5" y="-26.5" font-family="Helvetica,sans-Serif" font-size="10.00" fill="#000000">JS_NewContext</text>
</a>
</g>
</g>
<!-- Node380995&#45;&gt;Node380996 -->
<g id="edge2" class="edge">
<title>Node380995&#45;&gt;Node380996</title>
<path fill="none" stroke="#191970" d="M267.5534,-29C276.2595,-29 284.8628,-29 292.8995,-29"/>
<polygon fill="#191970" stroke="#191970" points="267.3138,-25.5001 257.3138,-29 267.3137,-32.5001 267.3138,-25.5001"/>
</g>
<!-- Node380997 -->
<g id="node4" class="node">
<title>Node380997</title>
<g id="a_node4"><a xlink:href="classqjs_1_1Context.html#a4392a23648acfc4bf6b445336efb5007" target="_top" xlink:title="qjs::Context::Context">
<polygon fill="none" stroke="#ff0000" points="418,-38.5 418,-57.5 528,-57.5 528,-38.5 418,-38.5"/>
<text text-anchor="middle" x="473" y="-45.5" font-family="Helvetica,sans-Serif" font-size="10.00" fill="#000000">qjs::Context::Context</text>
</a>
</g>
</g>
<!-- Node380996&#45;&gt;Node380997 -->
<g id="edge3" class="edge">
<title>Node380996&#45;&gt;Node380997</title>
<path fill="none" stroke="#191970" d="M392.3476,-36.6908C400.7739,-37.8724 409.4767,-39.0927 417.9083,-40.275"/>
<polygon fill="#191970" stroke="#191970" points="392.6325,-33.1966 382.2433,-35.274 391.6604,-40.1288 392.6325,-33.1966"/>
</g>
<!-- Node381000 -->
<g id="node5" class="node">
<title>Node381000</title>
<g id="a_node5"><a xlink:href="quickjs-libc_8c.html#a1fbb3adc15e7b967479fc1940e99b67a" target="_top" xlink:title="worker_func">
<polygon fill="none" stroke="#ff0000" points="438,-.5 438,-19.5 508,-19.5 508,-.5 438,-.5"/>
<text text-anchor="middle" x="473" y="-7.5" font-family="Helvetica,sans-Serif" font-size="10.00" fill="#000000">worker_func</text>
</a>
</g>
</g>
<!-- Node380996&#45;&gt;Node381000 -->
<g id="edge4" class="edge">
<title>Node380996&#45;&gt;Node381000</title>
<path fill="none" stroke="#191970" d="M392.1712,-21.3339C407.5364,-19.1794 423.8347,-16.894 437.7403,-14.9442"/>
<polygon fill="#191970" stroke="#191970" points="391.6604,-17.8712 382.2433,-22.726 392.6325,-24.8034 391.6604,-17.8712"/>
</g>
</g>
</svg>
