<?xml version="1.0" encoding="UTF-8" standalone="no"?>
<!DOCTYPE svg PUBLIC "-//W3C//DTD SVG 1.1//EN"
 "http://www.w3.org/Graphics/SVG/1.1/DTD/svg11.dtd">
<!-- Generated by graphviz version 2.40.1 (20161225.0304)
 -->
<!-- Title: js_symbol_constructor Pages: 1 -->
<svg width="572pt" height="66pt"
 viewBox="0.00 0.00 572.00 66.00" xmlns="http://www.w3.org/2000/svg" xmlns:xlink="http://www.w3.org/1999/xlink">
<g id="graph0" class="graph" transform="scale(1 1) rotate(0) translate(4 62)">
<title>js_symbol_constructor</title>
<!-- Node447256 -->
<g id="node1" class="node">
<title>Node447256</title>
<polygon fill="#bfbfbf" stroke="#000000" points="0,-19.5 0,-38.5 115,-38.5 115,-19.5 0,-19.5"/>
<text text-anchor="middle" x="57.5" y="-26.5" font-family="Helvetica,sans-Serif" font-size="10.00" fill="#000000">js_symbol_constructor</text>
</g>
<!-- Node447257 -->
<g id="node2" class="node">
<title>Node447257</title>
<g id="a_node2"><a xlink:href="quickjs_8c.html#a4c9489297c684663f30e517204a9ec14" target="_top" xlink:title="JS_AddIntrinsicBaseObjects">
<polygon fill="none" stroke="#000000" points="151,-19.5 151,-38.5 293,-38.5 293,-19.5 151,-19.5"/>
<text text-anchor="middle" x="222" y="-26.5" font-family="Helvetica,sans-Serif" font-size="10.00" fill="#000000">JS_AddIntrinsicBaseObjects</text>
</a>
</g>
</g>
<!-- Node447256&#45;&gt;Node447257 -->
<g id="edge1" class="edge">
<title>Node447256&#45;&gt;Node447257</title>
<path fill="none" stroke="#191970" d="M125.2328,-29C133.7007,-29 142.3806,-29 150.898,-29"/>
<polygon fill="#191970" stroke="#191970" points="125.0342,-25.5001 115.0341,-29 125.0341,-32.5001 125.0342,-25.5001"/>
</g>
<!-- Node447258 -->
<g id="node3" class="node">
<title>Node447258</title>
<g id="a_node3"><a xlink:href="quickjs_8c.html#ad8aedb643b8753b7a15f6cb2df61945e" target="_top" xlink:title="JS_NewContext">
<polygon fill="none" stroke="#000000" points="329,-19.5 329,-38.5 418,-38.5 418,-19.5 329,-19.5"/>
<text text-anchor="middle" x="373.5" y="-26.5" font-family="Helvetica,sans-Serif" font-size="10.00" fill="#000000">JS_NewContext</text>
</a>
</g>
</g>
<!-- Node447257&#45;&gt;Node447258 -->
<g id="edge2" class="edge">
<title>Node447257&#45;&gt;Node447258</title>
<path fill="none" stroke="#191970" d="M303.5534,-29C312.2595,-29 320.8628,-29 328.8995,-29"/>
<polygon fill="#191970" stroke="#191970" points="303.3138,-25.5001 293.3138,-29 303.3137,-32.5001 303.3138,-25.5001"/>
</g>
<!-- Node447259 -->
<g id="node4" class="node">
<title>Node447259</title>
<g id="a_node4"><a xlink:href="classqjs_1_1Context.html#a4392a23648acfc4bf6b445336efb5007" target="_top" xlink:title="qjs::Context::Context">
<polygon fill="none" stroke="#ff0000" points="454,-38.5 454,-57.5 564,-57.5 564,-38.5 454,-38.5"/>
<text text-anchor="middle" x="509" y="-45.5" font-family="Helvetica,sans-Serif" font-size="10.00" fill="#000000">qjs::Context::Context</text>
</a>
</g>
</g>
<!-- Node447258&#45;&gt;Node447259 -->
<g id="edge3" class="edge">
<title>Node447258&#45;&gt;Node447259</title>
<path fill="none" stroke="#191970" d="M428.3476,-36.6908C436.7739,-37.8724 445.4767,-39.0927 453.9083,-40.275"/>
<polygon fill="#191970" stroke="#191970" points="428.6325,-33.1966 418.2433,-35.274 427.6604,-40.1288 428.6325,-33.1966"/>
</g>
<!-- Node447262 -->
<g id="node5" class="node">
<title>Node447262</title>
<g id="a_node5"><a xlink:href="quickjs-libc_8c.html#a1fbb3adc15e7b967479fc1940e99b67a" target="_top" xlink:title="worker_func">
<polygon fill="none" stroke="#ff0000" points="474,-.5 474,-19.5 544,-19.5 544,-.5 474,-.5"/>
<text text-anchor="middle" x="509" y="-7.5" font-family="Helvetica,sans-Serif" font-size="10.00" fill="#000000">worker_func</text>
</a>
</g>
</g>
<!-- Node447258&#45;&gt;Node447262 -->
<g id="edge4" class="edge">
<title>Node447258&#45;&gt;Node447262</title>
<path fill="none" stroke="#191970" d="M428.1712,-21.3339C443.5364,-19.1794 459.8347,-16.894 473.7403,-14.9442"/>
<polygon fill="#191970" stroke="#191970" points="427.6604,-17.8712 418.2433,-22.726 428.6325,-24.8034 427.6604,-17.8712"/>
</g>
</g>
</svg>
