<?xml version="1.0" encoding="UTF-8" standalone="no"?>
<!DOCTYPE svg PUBLIC "-//W3C//DTD SVG 1.1//EN"
 "http://www.w3.org/Graphics/SVG/1.1/DTD/svg11.dtd">
<!-- Generated by graphviz version 2.40.1 (20161225.0304)
 -->
<!-- Title: js_array_buffer_constructor Pages: 1 -->
<svg width="591pt" height="66pt"
 viewBox="0.00 0.00 591.00 66.00" xmlns="http://www.w3.org/2000/svg" xmlns:xlink="http://www.w3.org/1999/xlink">
<g id="graph0" class="graph" transform="scale(1 1) rotate(0) translate(4 62)">
<title>js_array_buffer_constructor</title>
<!-- Node474286 -->
<g id="node1" class="node">
<title>Node474286</title>
<polygon fill="#bfbfbf" stroke="#000000" points="0,-19.5 0,-38.5 135,-38.5 135,-19.5 0,-19.5"/>
<text text-anchor="middle" x="67.5" y="-26.5" font-family="Helvetica,sans-Serif" font-size="10.00" fill="#000000">js_array_buffer_constructor</text>
</g>
<!-- Node474287 -->
<g id="node2" class="node">
<title>Node474287</title>
<g id="a_node2"><a xlink:href="quickjs_8c.html#a177d09828596bfe6df4bd90b2e93989d" target="_top" xlink:title="JS_AddIntrinsicTypedArrays">
<polygon fill="none" stroke="#000000" points="171,-19.5 171,-38.5 312,-38.5 312,-19.5 171,-19.5"/>
<text text-anchor="middle" x="241.5" y="-26.5" font-family="Helvetica,sans-Serif" font-size="10.00" fill="#000000">JS_AddIntrinsicTypedArrays</text>
</a>
</g>
</g>
<!-- Node474286&#45;&gt;Node474287 -->
<g id="edge1" class="edge">
<title>Node474286&#45;&gt;Node474287</title>
<path fill="none" stroke="#191970" d="M145.4663,-29C153.8884,-29 162.4248,-29 170.755,-29"/>
<polygon fill="#191970" stroke="#191970" points="145.2712,-25.5001 135.2712,-29 145.2711,-32.5001 145.2712,-25.5001"/>
</g>
<!-- Node474288 -->
<g id="node3" class="node">
<title>Node474288</title>
<g id="a_node3"><a xlink:href="quickjs_8c.html#ad8aedb643b8753b7a15f6cb2df61945e" target="_top" xlink:title="JS_NewContext">
<polygon fill="none" stroke="#000000" points="348,-19.5 348,-38.5 437,-38.5 437,-19.5 348,-19.5"/>
<text text-anchor="middle" x="392.5" y="-26.5" font-family="Helvetica,sans-Serif" font-size="10.00" fill="#000000">JS_NewContext</text>
</a>
</g>
</g>
<!-- Node474287&#45;&gt;Node474288 -->
<g id="edge2" class="edge">
<title>Node474287&#45;&gt;Node474288</title>
<path fill="none" stroke="#191970" d="M322.3813,-29C331.0943,-29 339.7113,-29 347.7649,-29"/>
<polygon fill="#191970" stroke="#191970" points="322.1368,-25.5001 312.1368,-29 322.1367,-32.5001 322.1368,-25.5001"/>
</g>
<!-- Node474289 -->
<g id="node4" class="node">
<title>Node474289</title>
<g id="a_node4"><a xlink:href="classqjs_1_1Context.html#a4392a23648acfc4bf6b445336efb5007" target="_top" xlink:title="qjs::Context::Context">
<polygon fill="none" stroke="#ff0000" points="473,-38.5 473,-57.5 583,-57.5 583,-38.5 473,-38.5"/>
<text text-anchor="middle" x="528" y="-45.5" font-family="Helvetica,sans-Serif" font-size="10.00" fill="#000000">qjs::Context::Context</text>
</a>
</g>
</g>
<!-- Node474288&#45;&gt;Node474289 -->
<g id="edge3" class="edge">
<title>Node474288&#45;&gt;Node474289</title>
<path fill="none" stroke="#191970" d="M447.3476,-36.6908C455.7739,-37.8724 464.4767,-39.0927 472.9083,-40.275"/>
<polygon fill="#191970" stroke="#191970" points="447.6325,-33.1966 437.2433,-35.274 446.6604,-40.1288 447.6325,-33.1966"/>
</g>
<!-- Node474292 -->
<g id="node5" class="node">
<title>Node474292</title>
<g id="a_node5"><a xlink:href="quickjs-libc_8c.html#a1fbb3adc15e7b967479fc1940e99b67a" target="_top" xlink:title="worker_func">
<polygon fill="none" stroke="#ff0000" points="493,-.5 493,-19.5 563,-19.5 563,-.5 493,-.5"/>
<text text-anchor="middle" x="528" y="-7.5" font-family="Helvetica,sans-Serif" font-size="10.00" fill="#000000">worker_func</text>
</a>
</g>
</g>
<!-- Node474288&#45;&gt;Node474292 -->
<g id="edge4" class="edge">
<title>Node474288&#45;&gt;Node474292</title>
<path fill="none" stroke="#191970" d="M447.1712,-21.3339C462.5364,-19.1794 478.8347,-16.894 492.7403,-14.9442"/>
<polygon fill="#191970" stroke="#191970" points="446.6604,-17.8712 437.2433,-22.726 447.6325,-24.8034 446.6604,-17.8712"/>
</g>
</g>
</svg>
